<svg id="Layer_1" data-name="Layer 1" xmlns="http://www.w3.org/2000/svg" viewBox="0 0 100 100"><defs><style>.cls-1{fill:#fff}</style></defs><title>about_us_circle</title><path class="cls-1" d="M50 0a50 50 0 1 0 50 50A50 50 0 0 0 50 0zM26.11 58.91V63c-1.31 0-2.56-.09-3.71-.2-4-.39-6.8-1.27-6.8-2.31v-8a8 8 0 0 1 8-8h1.7a6.79 6.79 0 0 1-3.61-6.16c0-3.72 2.69-6.73 6-6.73s6 3 6 6.73a6.79 6.79 0 0 1-3.61 6.16h3.62c-.13.33-.2.7-.32 1A15.77 15.77 0 0 0 26.17 58c-.02.29-.06.6-.06.91zm43.79 8c0 2.44-8.91 4.41-19.9 4.41s-19.9-2-19.9-4.41v-8a12 12 0 0 1 8.74-11.45A11.76 11.76 0 0 1 42 47h.8A14 14 0 0 1 38 36.17c0-7.43 5.39-13.46 12-13.46s12 6 12 13.46A14 14 0 0 1 57.16 47H58a11.77 11.77 0 0 1 2.71.34 12 12 0 0 1 9.23 11.6zm14.5-6.41c0 1-2.8 1.92-6.8 2.31-1.15.11-2.4.18-3.71.2v-4.1c0-.31 0-.61-.06-.92a15.77 15.77 0 0 0-7.21-12.37c-.12-.34-.18-.71-.32-1h3.59a6.79 6.79 0 0 1-3.61-6.16c0-3.72 2.69-6.73 6-6.73s6 3 6 6.73a6.79 6.79 0 0 1-3.61 6.16h1.73a8 8 0 0 1 8 8z"/></svg>