<svg id="Layer_1" xmlns="http://www.w3.org/2000/svg" viewBox="0 0 1340 500"><style>.st0{fill:#fff}.st1{opacity:.4}</style><path class="st0" d="M1229.1 206.6c6.2 1.2 13.9 1 21.6.8-9.2-.9-19.9-2.8-21.6-.8zm21.6.9c4.8.5 9.1.7 11.5 0-3.7-.2-7.6-.1-11.5 0zm13.1-12.7c-.4 3.5 1.5 10.3 0 11.8-.3.3-.9.6-1.5.8h1.5c4.4 49 29.3 83.2 76.2 92.9v-.3c-39.4-9-73.4-46.8-74.5-90.1v-2.5h6.8c1.7 44.2 28.6 75.9 67.8 85.6v-2.5c-35.2-8.6-58.7-32.7-65.2-66.2-9.5-48.7 19.9-90.6 65.2-101.4v-2.1c-35.6 9.7-60 32.7-66.9 68.8-1 5.2 2.8 17-5.9 16.9-3.4-9-.5-21.8 2.5-30.4 10.5-29.9 36.9-54.5 70.3-61.5v-2c-41.8 9.4-72.1 43.1-76.3 82.2zm-108.2-33c-.5-18 1.1-42.8-.8-56.6.6 18-1.1 42.8.8 56.6zm-273.7 11.8c.5 7.4-1.1 21.3.8 24.5-.4-7.3 1.1-21.3-.8-24.5zm141.1 22.9c-.5-6.8 1-20.2-.9-22.8.6 6.8-1 20.1.9 22.8zm131.8-18.6c-1.6 4.3-.2 10.9.6 16.8.4-6.3 1.2-13.2-.6-16.8zm-29.6 29.6h19.8c-4.7-.2-9.6-.9-10.5-.9-10.1 0-27.4.9-9.3.9zm31.1-.7c.5.8.6-.8 0 0zm-.9-12.1c-.2 3.5-.4 6.9.1 9.4.7-2.4.4-5.8-.1-9.4zm.9 12.1c-.2-.3-.4-.8-.7-1.9-.1-.3-.1-.5-.2-.8-.3 1-.8 1.9-1.5 2.5-.6.5-1.8.7-3.3.9h4.2v27.9c3.4-7.9-1.6-20.3.8-27.1.3-.8.6-1.2.7-1.5zm-5.7.7h-5.6c2.1.1 4 .1 5.6 0zm21.9 0c13.8-.6 29.8 1.1 42.2-.8h-21.1c-6.7.5-15.7-1.2-21.1.8z"/><path class="st0" d="M1286.6 207.5c13.8-.6 29.8 1.1 42.2-.9h-21.1c-6.8.6-15.8-1.1-21.1.9zm-264.4 5c.5 6.8-1.1 20.2.8 22.8-.5-6.8 1.1-20.1-.8-22.8zm-140.3 1.7c.5 7.4-1.1 21.3.9 24.5-.5-7.3 1-21.3-.9-24.5zm272.9 36.4c.6 18.3-1.1 43.4.8 57.5-.5-18.4 1.2-43.4-.8-57.5zm-62.5 190.2c7.8 9.1 15.1 18.6 24.5 25.4-16.2-15.8-31.8-32.1-44.3-51.6 3.5 10.1 12.6 17.9 19.8 26.2zm-141.9-35.5c1.4 1.4 3 2.8 4.6 4.2-1.7-1.5-3.2-3.2-4.6-5-5.6-4.3-9.6-10.1-15.2-14.4 3.8 5.1 9.5 9.5 15.2 15.2zm206.2 94.7h1.3c-3.6-2.2-7-4.5-10.2-7 2.8 2.6 5.7 5.1 8.9 7zm-29.7-24.5c7 5.7 13.6 11.9 20.8 17.5-7-6.8-13.2-14.6-20.8-17.5zm97.2-95.6c3.6.4 3.9 4 6.8 5.1-1.1-2.9-4.7-3.2-5.1-6.8 3.7-3 7.1-6.4 10.1-10.2-.5-11.4-9.8-24-4.9-31.8-12.1 6.1-35.1-14.4-41.6 4.8-3.4-.8-4.8-3.7-6.8-5.9-1.1 1.5 3.4 4.5 5.1 5.9-3.3 4-7 7.7-11 11 2.3 9.9 7.9 20.8 6.8 31.3 14-1.3 33.8 13.8 40.6-3.4zm-37.2.9c1.6-4.7 4.5.1 7.6.8-1.4 2-4.7-1.3-7.6-.8zm27 6.7c-3.4 0-5.1-1.7-8.4-1.7 4.6-1.8 12.4-.6 14.4-5.1.8 1.8-4 5.1-6 6.8zm14.4-13.5c-.5-3.3 4.6-8.4 3.4-15.2 4.8 5.9.9 11.9-3.4 15.2zm0-31.3c0 3.1.9 5.4 1.7 7.6-.2 1-.8.5-.8 0-.7-3.6-5.9-6.6-2.5-9.3.8.3.5 1.7 1.6 1.7zm-1.7-2.5c-1.4 4.4-4.5.8-6.8-.8.8-1.6 4.3 1.3 6.8.8zm-27-6.8c2.7-.4 3 1.5 5.9.8-2.7 2.1-7.7 1.8-10.1 4.2-1.4-1.1 2.8-3.8 4.2-5zm-14.4 12.7c.4 3.5-5.2 8.3-3.4 16.1-4.3-6.4-1.4-12.6 3.4-16.1zm4.2-1.7c6.8 2 6.9 8.9 11 10.1-2.8-.8-3.8-8.1-9.3-10.2 2.7-4.2 9.9-8.2 17.7-7.6 3.5.3 13.2 4.6 13.5 6.8.1.8-.2 1.5-.7 2.1.7-.5 1.5-1 2.4-1.3 7.8 7.1 7.2 24.8 0 32.1-5.1-3.1-7.7-8.6-12.7-11.8 5 6.2 16.9 13.1 4.2 17.7-7.9 2.9-20.4-1-25.3-5.1 3.6-4.3 7.5-8.2 11.8-11.8-3.4.8-8.4 7.4-11.8 11-8.6-6.4-9.2-24.2-.8-32zm-.8 33.8c-.8.4-1.5.7-1.7 1.7-1.9-1.4-2-4.8-2.5-7.6 1.7 1.6 3.5 3.3 4.2 5.9z"/><path class="st0" d="M1183.5 383.3c-10.2-6.1-19.8-20.2-27.9-31.3v-28.7c-2 7.3-.3 18.3-.8 27.1-34.6-43.8-57.1-124.3-40.6-198.7 7.4-33.1 24.7-64.5 39.7-87.9 2 7 .3 17.8.8 26.2 2.9-9.9-1-18.8.8-27.1 1.4-5.9 8.6-13.8 12.7-18.6 5.1-5.9 10.6-11.6 15.2-14.4 7.9-11.1 20.7-21.2 34.1-29.9h-7.4c-21 15.5-39.4 34.7-54.6 52.8V31.7c-2.6 8.3.6 16.1-.8 22.8-2.1 9.3-11.5 14.5-14.4 22h-50.7c-5.4 27-11.1 53.7-16.1 81.2h-50.7v-24.5c-2 6.5-.3 16.6-.8 24.5h-14.4c3.1-18.1 6.5-35.8 11.8-51.6-6.9 14.5-9.2 33.7-12.7 51.6h-76c-1-2.9 6-6 7.6-10.2 17-44.1 35.8-97.5 54.4-147.4h-.7c-15.2 40-30.5 80.2-45 118.7-5.5 14.4-8.4 33.9-21.1 38-11.7 3.8-33.9-.5-43.1 0-.6-7.9 1.1-18-.9-24.5v25.4c-13 .5-28.1-1.1-39.7.8 1 55.6-2.1 115.4 1.7 168.3 3.6 3.7 7.2 7.5 11.8 10.1 30.4 4.2 23.2-27.3 52.4-22.8 5.5.8 15.8 7.1 19.4 11.8 9.6 12.4 5.1 42.5 5.1 67.6 0 32.1 3.3 58.8-7.6 70.2-7.7 7.3-24.5 6-41.4 5.9-2.4 3.8.7 13.1-1.7 16.9-4.2-1.7-4.7-7.1-4.2-13.5-6.6.5-15.1-1-20.3.9-4.1 2.9-4.8 9.3-4.2 16.9h-40.5c-1.8 2.6 2.6 6.5 3.8 9.3h1.4c-1.1-2.6-2.9-4.5-3.4-7.6h38.9v7.6h2.8c.4-3.7 1-7.3 2.3-10.2h17.7v10.2h1.9c.1-4.3.1-8.9-.2-14.4 1.8.8 2.5 2.6 5.1 2.5-.5 3.5-.4 7.6-.1 11.8h2c-1.3-4.4-.3-12.5 1.5-14.4 2.2 1.5 2.7 9.9 1.4 14.4h2v-14.4h10.1V500h1.7v-14.4h11V500h1.8c-1.1-4 .7-10.9-.1-15.2 3.6 1.4 3.1 10 2.2 15.2h2c-.8-3.5.8-9.2 0-12.7 3.2 1.6 1.5 7.9 1.5 12.7h1.9v-14.4h5.1V500h1.7c.1-4.5.2-9 0-12.7.8 2.7 1 7.4 1 12.7h1.5c-.8-3.5.8-9.2 0-12.7 3.2 1.6 1.5 7.9 1.5 12.7h1.9v-11c1.9.8 2.6 7.3 1.6 11h1.8c.2-2.2.2-4.2-.1-5.9h2.5c-.2 1.8-.1 3.9 0 5.9h1.5c-.5-2.8.7-7 1.9-7.6 1 1 1.3 4.9.9 7.6h1.7v-5.9H976v5.9h1.7v-9.3c25.8 1.4 52.2-4.3 65.9 6.8 1 .8 2 1.7 3 2.5h1c-3.4-3.2-6.8-7.6-11.6-9.3-20-7.1-44.2 1.8-69.3-1.7.6-31.8-1.1-65.9.8-96.4 30.9 5.4 62.9 9.7 91.2 17.8 24.5 33.3 54.4 65.4 85.9 89.6h4.3c-7.5-4-14.6-11.3-20.1-16.1-24.6-21.3-48.7-46-65.9-71.9 4.4-1 6.3-.5 8.4 1.7-.7-3.9-7.2-9-9.3-14.4-1.3 3.3 7.2 8.5 5.9 11.8-42.8-10.1-86.9-18.7-133.5-22.8-2.6-34.3 3.5-85.7 0-117.5-.7-6.2-4.8-12.5-11-15.2 26.2-2 56-.3 83.6-.8 1.5 13.7 4.8 25.7 7.6 38-.5-11-5.9-24.5-6.8-38h14.4v20.3c2-5.1.3-13.8.9-20.3h50.7c9.9 53.8 21.6 105.8 31.3 159.8h49.8v24.5c-26.9-9.5-54.1-18.5-82.8-26.2l.3.9c28.6 7.6 55.7 16.7 82.5 26.1v14.4c2-2.8.3-9.3.8-13.5 36.4 14.3 68 33.5 93 59.2h.9c-24.7-26.6-57.5-45.1-93.9-60v-25.4c20 3 36.4-4.1 54.9 0 9.7 2.2 20.7 13.6 30.4 18.6 28 14.4 62.7 22.7 99 30v-6.5c-54.3-4.5-96.4-23.1-130.3-48.9-9.8-7.4-20.4-14.6-26.2-24.5zm-3.4-355.9c1.3.4-.3 1.1 0 2.5-5.8 4.1-13.2 15.4-16.1 16.9 5.1-6.8 10.6-13.1 16.1-19.4zm-17.7 21.1c.5 2.5-5 6.3-5.9 10.1-1.5-3.5 4.3-6.9 5.9-10.1zM876 488.2h-18.6c-7.5-11.1 5-16.1 18.6-13.5v13.5zm55.8-33c11.2 11.1 23.2 21.3 32.9 33.8-12.9 2.4-18-6.2-24.5-12.7-5.1-5.1-9.8-9.7-12.7-14.4 2-1.7 3.1-4.3 4.3-6.7zm-46.5 29.6c-2-2.8-.3-9.3-.8-13.5 11.5-2.2 12.9 5.7 18.6 9.3-2.6 1.9-8.7.3-12.7.9-.5-1.8-1.8-2.7-2.5-4.2-1.8.3 1.2 2.6 1.7 3.4-.8 2-3 2.5-4.3 4.1zm27 0c-7.1-1.1-18.5 2.2-22.8-1.7h22.8v1.7zm3.4-.9c4-1.4 13.8-1.4 17.7 0-2.9 1-14.4 1-17.7 0zm22 8.5c-.8-3.1 3.3-1.2 5.1-1.7-.1 2.1-2.9 1.7-5.1 1.7zm4.2-2.6c-4.6-.8-7.2-5.6-11-8.5-8.7 3.4-14-.6-18.3-4.9 1.9 2 3.3 4.2 3.9 5.7-11.5.8-16.8-4.6-22-10.1 7.2-3 13.1-.2 17.1 3.5-1.2-1.3-2.4-2.5-3.6-3.5 10.7-5.9 15.2 2.3 21 7.8-3.8-3.6-6.6-8.7-10-10.3 1.6-2.9 6.1-2.9 7.6-5.9 8.9 7.7 16.4 16.8 25.3 24.5-3.5.6-7 2.3-10 1.7zm33.8 1.7c-6.2 3.3-21.9 1.7-29.6.8 6.3-3.3 22-1.6 29.6-.8zm-11-43.9v10.1c-2.3 1.2-5.5-2.9-7.6-5.1-7-7-15.9-16.5-22.8-23.7v-11.8c10.5 9.8 20.6 20 30.4 30.5zm-30.4-32.2v-11.8c10.5 9.8 20.6 19.9 30.4 30.4v10.2c-2.3 1.2-5.5-2.9-7.6-5.1-6.9-6.9-15.9-16.4-22.8-23.7zm30.4 45.7v10.1c-2.3 1.2-5.5-2.9-7.6-5.1-7-7-15.9-16.5-22.8-23.7v-11.8c10.5 9.9 20.6 20 30.4 30.5zm0-68.5v12.7c-5.3-4-9.1-9.5-14.4-13.5 3.4-1.6 9.9.8 14.4.8zm-29.5-3.4c16.6-.9 21.6 9.9 29.6 17.8 1.1 10.8-.4 12.2-3.6 9 2.7 3.7 4.3 8.2 3.6 14.7-2.3 1.2-5.5-2.9-7.6-5.1-7-7-15.9-16.4-22.8-23.7.3-4.1-1-9.9.8-12.7zm-.9 55c10.5 9.8 20.6 19.9 30.4 30.4v10.1c-2.9 1.4-5.2-3.5-7.6-5.9-7.4-7.4-17.6-16.4-24.5-24.5.2-3.7 2.6-5.3 1.7-10.1zm260.2-44.8c-1.1-.9-1-1.5-2.5-3.4 1.9-.5 11.7 11.3 2.5 3.4zm-11.8-11.8c-2.3-1.5-11.4-10.5-15.2-16.1 2.3 1.4 11.2 10.7 15.2 16.1zm-17.8-19.5c3.4 3.5-9.2-8.8-9.3-12.7 3.3 4.1 6.7 8 9.3 12.7zm-55.7-130.2c-1.6 2.1-.6-5.6-.8-7.6 1.5-2.1.5 5.6.8 7.6zm4.2 24.5c-2.3-6.8-4.7-13.3-4.2-22.8 2.1 6.8 3.1 14.9 4.2 22.8zm-6.8-50.7c1.5-2.3.6 5 .9 6.8-1.5 2.2-.6-5-.9-6.8zm.9-28.7c1.6 3.6.4 16.7 0 22.8-1 13.1-1.3-17.4 0-22.8zm0 38c1.5-2.3.6 4.9.8 6.8-1.5 2.2-.6-5-.8-6.8zm1.7-44.8c-2.5 10 1.2-8.7.9-16.1 1.2-1 1.6-2.9 1.7-5.1.9 3.2-1.9 18.3-2.6 21.2zm7.6-37.2c-1.9 1.9 2.3-10.1 3.4-13.5 1.5.6-2.4 9.8-3.4 13.5zm5.9-17.8c0-3.8 5.3-16.6 8.4-22.8.1 3.8-6 15.8-8.4 22.8zm31.3-61.7c-5.2 10.8-15.2 24.3-21.1 37.2 3.4-12.6 13.5-25.8 21.1-37.2zm-310.1 99.8h162.2c.5 8.7-1.5 22.2-1.7 33 2.7-9.4 1.2-23 3.4-33 23-4.3 62.6 6.1 82-.8 5.6-2 8.5-7.7 8.4-13.5-3 3.5-3.6 9.4-7.6 11.8-4.5.8-9.7 1-15.2.9 4.5-27 10.9-52.2 15.2-79.5h48.2c-17 36.8-34 73.6-33.8 127.7h-79.4c-2.8.8-2.8-1.2-2.5-3.4-2.2-.3.8 4.7-2.5 3.4-60.6.1-120.2-.2-176.6 0-.1-15.6-.1-31.1-.1-46.6zm87.9 106.5c6.7 17.9-3.2 43.1.8 65.9-5.8-13.1-23.6-25.5-42.2-16.9-11.9 5.5-14 25-33.8 20.3-21.8-9.2-9.4-52.6-12.7-80.3h38v25.4c2-6.8.3-17.2.9-25.4 20.8 1 43.2-4.5 49 11zm-87.9-12.7v-45.6c52.5.1 106 0 160.5 0-.3 16.3-.1 32.3 2.5 45.7-54.3-.1-108.6-.1-163-.1zm311.7 159.8V396c-2 4-.3 11.6-.8 16.9h-48.2c-10.2-52.9-21.3-105-31.3-158.1 12.3-.5 20 3.6 22 13.5.8-25.7-48-11.4-71-15.2-1.2-.2-4.2 1.6-3.4-2.5-.8 4.3-11.9 2.7-15.2 1.7-2.9-12.9-2.7-28.9-2.5-44.8h99.7c.7 66.4 23.6 110.5 49.8 151.3v22.8c2-4.8.3-13.2.8-19.4 2.3-1.4 4.6 2.7 5.9 4.2 13.3 15.7 31.3 34.7 46.5 46.5h-52.3zm93 20.3c-3.7.6-9.4-4.1-13.5-5.9 3.4-.3 9.1 4.3 13.5 5.9zm-14.4-7.6c-6.4-1.8-15.1-8.5-22-12.7 6.2 2.1 14.6 9.1 22 12.7z"/><path class="st0" d="M1219 348.1c-2.7 1.9-6.1 3.7-6.7 6.5 2.7-1.7 4.5-4.3 6.7-6.5zm-42.2-287.7c2.3 6 13.9 7.9 7.6 14.4-5 5.1.7 1.8 3.4-2.5 4.2 2.9 6.8 7.3 11 10.1 10.9.3 24.1-9.8 32.1-4.7-2.3-3.8-.8-7.7 1.7-17.3 3.5-13.6 4.3-18.5-6.8-25.4.6-3.1 3.1-4.2 5.1-5.9-2-1.7-3.3 4.5-6.8 4.2-2.7-3.5-5.8-6.6-9.3-9.3-11.5.4-20.6 7.5-31.3 5.9 1.1 10.1-4.1 21.2-6.7 30.5zm2.5 0c0-3.7 2-5.4 1.7-9.3 1.2 5.6 1.4 12.1 5.1 15.2-1.8.8-5.1-4-6.8-5.9zm11.8 11.8c.6 1.3 10.7 7.2 20.3 5.1-8.2 5.5-16.6 2.2-20.3-5.1zm24.5 4.2c3.4-.6 7.2-7.7 10.1-3.4-1.7-2.5 2.3-6.5 3.4-11 2.3 8.2-4.6 14.6-13.5 14.4zm18.6-30.4c0 3.7-2 5.4-1.7 9.3-1.6-6.9-2.7-14.2-7.6-17.8 2.6 0 6.7 5.7 9.3 8.5zm-10.1 22.8c-6.8-2-6.9-8.9-11-10.1 2.8.8 3.8 8.1 9.3 10.1-2 9.1-30.2 9-31.3.8-.1-.9 6.6-7.4 7.6-8.4l.8-.8c-1.9 1.9-7.2 6.8-10.1 8.4-8.6-7.9-7.1-24.1 0-32.1 4.7 3.4 7.9 8.4 12.7 11.8-3.6-4.3-7.5-8.2-11.8-11.8 6.2-8.4 24.2-8.4 31.3-.8-1.6 5.7-6.5 8.2-10.1 11.8 3.1-.8 8.5-6.7 11-11 8.9 5.7 9.7 24.8 1.6 32.1zm-1.7-34.7c-1.1.1-8.9-7.3-16.9-5.9 7.2-5.7 13.5.8 16.9 5.9zm-27.9-3.3c-1.5 1.4-5.8 5.8-6.8 2.5-2.5.7 2 1.3.8 3.4-1.9.6-2.5 2.5-3.4 4.2-2.3-5.5 3.4-10.2 9.4-10.1zM1070.9 0c-.5.7-.9 1.3-1.4 2 .5-.6 1-1.3 1.4-2zm198.8 7.9c-15.4-6.1 1.7 2.3 7.6 4.2 18.3 5.9 41.1 11.8 62.7 11.9v-.3c-26.6-1.5-50.7-8-70.3-15.8zm-245.8 84.6c9.1-28.7 24.3-55.7 36.3-78.6-14 23.7-29 51-36.3 78.6zm-4.3 216.4c6.2 24.9 17.9 50.2 29.6 70.2 1.1 1.9 4.2 9.2 3.4 5.9-11.6-20.1-22.2-45.5-30.4-69.3-.9-2.5-3-10.2-2.6-6.8zm-731.2-44.8c-.8-10.4 1.6-30.9-1.3-34.9.8 10.4-1.6 30.9 1.3 34.9zM120.6 410C109.7 347.3 66.8 304.7 0 290.9v2.3c58.7 10.3 107.8 59.2 118.1 115.5.7 4 1.3 11.1 1.3 15.5 0 2.9 3.1 11.3-3.9 11.6-9.1-.1-5.2-17.7-6.5-24.5-9.3-51.9-49.6-96.2-109-107.2v2.7c56.3 10.9 97.1 53.5 106.4 103.2 5.2 27.4.9 56.1-7.7 77.5-1.7 4.3-3.7 8.5-5.9 12.5h1.3c9.1-17.3 14.9-37.1 16.2-59v-3.9h9c-.6 22.6-5.8 44.1-14.4 62.8h2.6c8.1-18.5 13.2-39.6 15.7-62.8.6 0 1.2-.1 1.9-.1-1.4-.3-2.5-.6-3.1-1.2-2.9-2.5-.3-19.8-1.4-25.8zm4.5 27.1c3.2.6 8.2.4 13.8 0-4.7-.1-9.4-.2-13.8 0zm13.8 0c12.2.3 24.8.9 34.7-1.2-4.4-2.5-21.3.1-34.7 1.2zm149.5-56.8c-.8-23.7 1.7-57.7-1.3-74.9.9 23.7-1.6 57.7 1.3 74.9zm202.7 0c-.8-13.4 1.6-36.9-1.3-43.9.8 13.4-1.6 37 1.3 43.9zm213 5.2c.8 11.3-1.6 32.6 1.3 37.5-.8-11.3 1.6-32.7-1.3-37.5z"/><path class="st0" d="M22.5 437.2c21.1-.9 45.6 1.7 64.5-1.3H54.7c-10.2.8-24-1.7-32.2 1.3zm173 0c21.1-.9 45.6 1.7 64.5-1.3h-32.3c-10.3.8-24-1.7-32.2 1.3zm508.6 10.3c.8 11.3-1.6 32.6 1.3 37.5-.8-11.3 1.6-32.6-1.3-37.5zM182.6 171.1c-5.4-.6-5.9-6.1-10.3-7.8 2.5 3.6 5.5 6.6 9 9-5.1 6.1-10.7 11.7-16.8 16.8 2.3 16.8 21 44.1 2.6 54.3 6.1-1.3 6.1-6.8 11.6-7.8 11.3-1.9 30 12.4 41.3 10.3 8.4-1.5 9.8-10.2 16.8-15.5 5.2 1.3 7.3 5.6 10.3 9 2.1-3.5-7.8-6-7.8-11.6 5.3-4.2 10-8.9 14.2-14.2-.8-16.8-12.6-35.1-9-47.8-21.4 2.1-51.5-21-61.9 5.3zm56.8-1.3c-2.4 7.2-6.8-.1-11.6-1.3 2.2-3 7.3 2.1 11.6 1.3zm-51.6 0c2.9-4 6.3-7.4 10.3-10.3 4.9 0 7.5 2.3 12.1 2.6-7.3.1-29.6 11.9-22.4 7.7zM171 202.1c-3.6-6.7-2.5-15.9 5.2-20.7 0 5.1-4 11.8-5.2 15.5-.4 1.3 3.3 11.3 0 5.2zm6.4 19.3c.3 5.4 8.2 5.9 2.6 10.3-2.5-.7-5-12.8-2.6-10.3zm2.6 11.7c3.2-8 6.7.3 11.6 1.3-3 3.7-6.9-2.5-11.6-1.3zm40 10.3c-6.9-.5-10.6-4.1-18.1-3.9 6.6-3.3 20.9 1.1 24.5-5.2 5.4 1.1-4.4 7-6.4 9.1zm23.3-22c-1.2-5.1 6.2-12.7 3.9-23.3 5.7 8.8 3.4 18.6-3.9 23.3zm-6.5 3.9c-8.3-2.9-12.7-9.6-18.1-15.5.8 4.4 9.4 12.1 15.5 15.5-3.6 14.1-47.5 13.7-49 1.3-.1-1.1 16.2-16.1 15.5-16.8-1.4-1.4-13 15.6-18.1 15.5-20.5-26.2-.2-57.9 24.5-59.4 6.6-.4 26.1 3.9 27.1 9-.2-.9-17.9 19.6-18.1 19.4.5.5 16.6-15.6 18.1-18.1 13.6 7.7 12.9 38.3 2.6 49.1zm2.6-54.2c3.1 1.7 2.5 7 3.9 10.3-3.8-2.2-8.6-7-3.9-10.3zM645.9 0h-12.5c-6 .9-12.2 1-18.3 0H606c3.5 1.5 7.3 2.6 11.6 3.1 12.6 1.7 20.9 0 28.3-3.1zM515.8 500c.7-14.6 3.4-27.2 3.7-42.2-2.7 13-4 27.3-4.8 42.2h1.1z"/><path class="st0" d="M764.7 361c-19.4-.9-42.2 1.7-59.4-1.3-.9-12.1 1.7-27.6-1.3-37.5-3 7.7 4.5 33.9-1.3 38.8-2.4 2-45.7 2.1-60.7 0-20.7-2.9-26.2-34.6-33.6-54.3-33.1-87.8-65.9-175.1-99.4-263.5-5.8-15.4-14.3-30.8-15.4-43.2H491c0 .2.1.4.1.6 6.2 28.6 21.2 57 32.3 86.5 21.3 57.2 42.4 115.5 64.5 173.1 11.3 29.4 20 60.8 32.3 85.3 2.8 5.6 5.8 10.8 14.2 14.2-37 3-79.6.4-118.8 1.3.8-14.7-1.6-32.7 1.3-45.2 4.2-2.6 13.1-.7 19.4-1.3v-28.4c-6.3-7.9-24-4.4-37.4-5.2-4.4-1.2-4-7.2-5.2-11.6-4.6 2.6 4.6 9 0 11.6-5.4-.4-1.8-11.4-1.3-14.2-11.2-39.2-29-71.7-46.5-104.6 12.9 35.8 44 70 43.9 118.8-16.7.5-36.9-2.5-46.5 5.2v27.1c4.1 3.6 16.5-1 20.7 2.6V361h-51.6c-7.4-41.7-15.1-83-23.2-124-25.4.9-54.2-1.7-77.4 1.3-9-10-14.5-23.4-23.2-33.6v-36.2c-3 8.6-.4 22.8-1.3 33.6-30.5-38.8-64.6-73.9-109.7-98.2C198 90.4 216.9 75.4 235.5 60c-17.2 11.2-37.8 30.2-58.1 42.6-26.2-14.7-53.1-28.7-83.9-38.8C79.3 38 113.1 31.9 131 21.2c10-6 20.2-13.2 29.9-21.2h-10.6c-12.8 10.4-27.1 19.8-43.8 27.7-16.6 7.8-37.3 18.1-54.2 20.7-17 2.6-33.8.2-52.2-.5V51c31.2.2 72.6 3.3 89.7-10.3-2 3.7-4 17.2 1.3 23.2-22-10.8-58.5-7.3-91-7.6v1.4c74-1.1 124.2 21.5 171 47.6-13.8 9.4-29.2 17.3-46.5 23.2 16.7-1.8 32.8-15.4 49-22 25 17.6 55.8 36.3 71 59.4 15.8 8.8 30.2 30 42.6 46.5v7.7c1.8-.4 1.1-3.2 1.3-5.2 39.8 56.6 68.1 124.8 69.7 219.6h-69.7v-31c-5.7 7.2 5.5 31.3-6.4 32.3 10.9 5.9 2.5 31 5.2 45.2 3-12.1.4-29.7 1.3-43.9h69.7c-.2 22.4-2 43.3-5.1 62.8h2.3c.1-.8.2-1.5.3-2.1.6.3.9 1.1 1 2.1h2.8c3.1-19.6 4.9-40.5 5.2-62.8H490V450c2.9-1.8.5-9 1.3-12.9 92.8-.2 184.8.3 271.1 0v62.8h2.7c-.1-4.2-.1-8.3-.1-12.5V361zM227.8 143.9c6.3 6 23.3 13.7 25.8 22-1.7-5.4-20.9-14.3-25.8-22zm31 29.7c-1.1-1.8 8.3 6.8 10.3 10.3 1.1 1.9-8.3-6.8-10.3-10.3zm255.5 113.7c6.6-2.3 12.8-3.3 19.4 0v24.5h-19.4v-24.5zm-23.2-2.6c7.6.1 13.3 2.2 20.7 2.6v24.5h-7.7c1.1-3.7-1.8-3.3-1.3-6.5-3.8 1.1 1.7 3.3 0 6.5h-11.6c-.1-9-.1-18-.1-27.1zm-21.9 2.6c7.6-.2 12.5-3 20.7-2.6v27.1h-20.7c-.1-8.1 0-16.3 0-24.5zm-23.3 24.6v-24.5c6.7-2.6 14.2-3.2 20.6 0v24.5h-20.6zm18.1 52.9v19.4c-6.8-6.6-14.7-12-19.4-20.7 6.3.6 15.1-1.3 19.4 1.3zm0 40.1c-7.9-6.3-13.6-14.8-20.7-22-.9-6.5 1.2-10 1.3-15.5 9.4 9.6 23.4 14.5 19.4 37.5zm0 18.1c-5.3 1.7-15.6-13.6-21.9-19.4-.7-7.1.7-12.2 1.3-18.1 8.7 10.7 23.6 15 20.6 37.5zM316.8 255c-3-5.5-8.7-10.5-9-15.5 2.7 2.2 11.6 20.1 16.8 28.4-3.2 2.8-5-7.8-7.8-12.9zm9.1 19.4c5 7 7.8 16.3 11.6 24.6-3.8-3.1-8.3-16.7-11.6-24.6zm32.2 117.5c-3-27.1-9.1-51.2-15.5-74.9 4.2 6.6 4.9 16.7 9 23.2.8 17.1 8.8 40.3 6.5 51.7zm0 102.1c-.1-10.1 2.1-40.1 3.9-56.8.8 21-.4 40-3.9 56.8zm1.3-93c2.2 4.7 2.8 22.2 2.6 33.6-2-10.1-2.1-22-2.6-33.6zm5.2 33.6c-.7-82-23.3-142-52.9-195.1h76.2c6.3 41.5 15.2 80.4 21.9 121.4-8.5.3-16.3-.1-23.2-1.3-5.4-4.1-6.1-12.8-10.3-18.1-1.7 6.5 4.7 15.9 9 20.7 16.7 3.5 41.5-1 58.1 2.6-1.6 21.6-4.5 47.5-1.3 69.8h-77.5zm78.7 0c.9-3.9-1.3-4.7-1.3-7.8 3.4 1.3 4.3 5.1 7.7 6.5.3 2.8-4.5.6-6.4 1.3zm-1.3-28.4c10 8.1 18 18.2 27.1 27.1-19.2 6.3-31.2-5.7-27.1-27.1zm24.6 20.6V314.4c1.5-.2 2.3.3 2.6 1.3-1.7 35.2 3.3 78.3-2.6 111.1zm3.8 2.6c6 .8 15.5-1.7 19.4 1.3.2 6.9-20.9 5.6-19.4-1.3zm20.7 5.2v-5.2c6 .8 15.5-1.7 19.4 1.3-.4 7.4-13.1 2.4-19.4 3.9zm19.4-7.8h-19.4v-23.2c-3 5.2-.5 15.9-1.3 23.2h-19.4V314.4H504c.5 7.7 4.2 12.2 3.9 20.7 4.5-5.9-5.1-15.5-1.3-20.7 2.9 1.6 4.1 4 4.4 6.8.1-2.3.3-4.6.7-6.8.1 8.7 4.6 27.4 1.3 37.5 1.7-5.1-1.5-15.3-2-26.2-.4 4.5-1.9 9.4-1.9 13.3 0 26.6 2.8 59.6 1.4 87.8zm1.3-64.6c3 13.4.5 43.5 1.3 63.3-3-13.4-.5-43.4-1.3-63.3zm6.4 72.4H513c2.5-3.9 3.1-9.8 2.6-16.8 2.9 3.6 2.7 10.2 2.6 16.8zm9.6-5.1c1.4 1.4 2.9 2.7 4.6 3.8-1.8 2.9-9 .5-12.9 1.3.1-5.3.3-10.6-1.3-14.2 1.7 1.1 3.2 2.4 4.6 3.8-3.9-5.8-5.4-14-4.6-24.5 9.3 11.8 25.4 16.7 28.4 34.9-7.9-.1-14.1-1.8-18.8-5.1zm-10.9-32.4v18.1c-2.5 2.5-.8-10.4-1.3-14.2 1.5-6.6 2.3-18.1 0-24.6 3.6 3.6 7.4 7 11.2 10.3-6-5.5-10.7-12.3-11.2-23.3 20.6.1 22.7 18.6 36.1 25.8-7.6-8.7-15.8-16.9-24.5-24.6 2.2-3 9.8-.5 14.2-1.3 9.7 9.4 14.3 26.5 9 43.9-6-8.7-15.9-13.6-23.6-20.6 7.8 7 15.6 13.9 22.3 21.9-1 5.5-1.6 11.3-2.6 16.8-10.6-8.5-18.9-19.5-29.6-28.2zm245.3 37.5c-69.8-.4-139 .2-214.3 0 .1-26.1 15.2-54.9-5.2-69.8 70.6-3 146.7-.4 219.4-1.3.1 23.7.1 47.4.1 71.1z"/><path class="st0" d="M290.7 0h-1.2c-12.3 14.9-24.8 29.7-37.3 44.5C266.4 31 278.1 14.9 290.7 0zm21 9.6c-1.3-1-3.9-2.6-6.8-4.6 9.2 7.2 18.5 14.9 26.2 18.8-5.9-5.1-11.5-8.2-19.4-14.2zM298.3 0h-.2c2 1.7 4.5 3.4 6.7 5-2.2-1.7-4.3-3.4-6.5-5zM433 141.3c-25.1-35.6-53-75.3-85.2-99.5 33.5 27.3 60.4 68 85.2 99.5zM0 157.4v1.4c40-2.2 74.5-9.8 103.9-22.6C73.6 146.3 38.5 156.4 0 157.4zm185.2 18.8c3.1 8.1 11.3 11.1 15.5 18.1-.7-5.4-11.6-11.6-15.5-18.1z"/><g class="st1"><path class="st0" d="M239.5 7.9h13.7c-12.2-.7-30.5-5.4-34.8-1.1 1.5-1.5 17.2 1.1 21.1 1.1zm24.3 42.3c.7-13.7-1.4-30.3 1.1-42.3.9 0 1.9-.1 2.9-.1-1.7-.4-3.1-1-3.9-2-.4-.5-.8-1.1-1.1-1.8v2.9c-1 .6-2.4.9-4.1 1.1h4.1c.6 13.7-1.5 30.2 1 42.2zm-5.2-42.3h-5.4c2 .1 3.8.2 5.4 0z"/><path class="st0" d="M279.5 7.9c-4-.1-8-.2-11.8-.1 3 .7 7.3.5 11.8.1zM261.8 0c.1 1.5.4 2.9.9 4V0h-.9zm45.3 6.9c-5.1-2.3-17.2.1-27.5 1 9.7.2 19.6.6 27.5-1zm339.9 1c21.7 1.6 45-1.2 63.4 0v42.3c2.5-12 .3-28.5 1-42.3 6.7-.7 16.2 1.4 21.1-1.1-7.9-2.5-17 3.9-21.1-1.1-.5-.6-.8-1.3-1-2.3v3.4h-49.6c-5.1.1-24.3.4-13.8 1.1z"/><path class="st0" d="M709.9 0c.1 1.3.2 2.5.5 3.5V0h-.5zm512.5 148.4c2.2 1.1.5-10.7 1.1-14.8 3.5-4.3 1.1-.9 0-6.3-3.1-15.2 3.2-48.2-1.1-60.2.1 28.2-.2 55.8 0 81.3zm-999.8-39c5-.7 12.6 1.4 15.8-1.1-4.9.7-12.6-1.4-15.8 1.1zm64.4 0c5-.7 12.6 1.4 15.8-1.1-4.9.7-12.6-1.4-15.8 1.1zm399.1-1.1c-4.9.7-12.6-1.4-15.8 1.1 4.9-.7 12.6 1.3 15.8-1.1zm49.6 1.1c4.9-.7 12.6 1.4 15.8-1.1-4.9.7-12.6-1.4-15.8 1.1zm479.3 21.1c-9.9.7-22.5-1.4-30.6 1.1 9.9-.8 22.5 1.3 30.6-1.1zm48.6 0c-5.7-3.2-27.9 3.8-30.6 1.1 3.6 3.6 28.2-2.2 30.6-1.1zm18.4 120c-5.9 6.2-12 12.7-18.9 19.7 7.1-6.2 15.3-13.5 18.9-19.7zM1168.3 312c3.3-3.1 6.7-6.2 10.1-9.4-3.7 3-7.2 6.2-10.1 9.4zm113.7-44.6c-5.9 6.2-12.1 12.7-18.9 19.8 7.1-6.3 15.3-13.6 18.9-19.8zm-37.1 37c3.2-2.6 6.1-5 8.1-7 3.6-3.6 6.9-7 10.1-10.3-3.5 3.1-6.8 5.9-9.1 8.2-3.1 3.2-6.2 6.3-9.1 9.1zm-15.7-36.4c4.3-3.9 8.7-8 13.3-12.2-4.7 3.8-9.6 8-13.3 12.2zm-1.5 52.5c5.4-4.5 11-9.9 17.3-16.1-6 4.9-12.9 10.5-17.3 16.1zm-83.4 101.6c-3.9 3.9-7.8 8.7-12.3 12.8 1.4-1.1 2.7-2.2 3.8-3.3 22-22 46.7-48.3 70-70.4-3.1 2.8-6.2 5.5-8.8 8.1-19.1 19.1-34.2 34.3-52.7 52.8zM1282 284.3c-7 7.4-14.2 14.7-21.3 21.9 7.5-6.6 17.3-14.9 21.3-21.9zm-37.1 3.3c3.2-2.6 6.1-5 8.1-7 3.6-3.6 6.9-7 10.1-10.3-3.5 3.1-6.8 5.9-9.1 8.2l-9.1 9.1zm0-16.9c3.2-2.6 6.1-5 8.1-7 3.6-3.6 6.9-7 10.1-10.3-3.5 3.1-6.8 5.9-9.1 8.2l-9.1 9.1zm37.1-37.1c-5.9 6.2-12.1 12.7-18.9 19.8 7.1-6.3 15.3-13.6 18.9-19.8zm37 257.1c2 1.9 3.8 4 5.8 5.9-1.8-2.2-3.7-4.3-5.8-5.9zm-91.3-204c5.4-4.5 11-9.8 17.2-16-5.9 4.8-12.8 10.4-17.2 16zm-699.9-27.8c2.7-2.4 5.5-5.3 8.4-8.5-3 2.7-5.9 5.4-8.4 8.5zm-64.2-19.1c6.5-5.4 15.8-14.3 20.3-20.8-6.4 7.3-13.9 13.5-20.3 20.8zm101.6 67.3c-2.1-2.6-4.5-5-6.9-7.6 2.4 3 4.7 5.8 6.9 7.6zm601.5-281.8c5.1-4.4 10.3-9.3 15.5-14.5-5.4 4.5-11.4 9.5-15.5 14.5zm48.6-11.8c-2.2 2.3-4.5 4.6-6.9 7 2.4-2.2 4.7-4.5 6.9-7zM659.3 420c-4.6-5.3-9.7-10.8-14.9-16.3 4.4 5.3 9.7 11.8 14.9 16.3zM481.8 170.2c-3.3 3.4-6.8 6.9-10.3 10.6 3.6-3.4 7.4-6.8 10.3-10.6zM1278 1c-4.3 4.5-8.9 9.2-13.5 13.9 5-4.4 9.9-8.9 13.5-13.9zm1 16c-2.3 2.4-4.7 5-7.2 7.5 2.6-2.4 5.1-4.8 7.2-7.5zM695.6 404.1l-12-12c6.4 6.4 12.6 12.6 18.4 18.3 1.1 1.1 2.5 2.9 4.1 4.1-3.2-3.8-7.3-7.1-10.5-10.4zm560.6-381.4c-3.2 3.2-7.4 8.1-11.7 12.8 6.4-6.4 13.3-13.5 20.1-20.5-2.9 2.5-5.8 5.1-8.4 7.7zM1174.8 0c-2.4 2.3-4.7 4.6-6.6 6.8 2.4-2.2 4.9-4.5 7.3-6.8h-.7zm-540 358.9c9.4 10.2 19.6 20.7 29.8 31-9.7-10.7-19.8-21.6-29.8-31zm609.7-323.4c-.7.7-1.3 1.4-2 2-3.2 3.2-8.3 6.2-10 9.8 3.6-2.9 7.8-7.3 12-11.8zM481.8 187.1c-3.3 3.4-6.8 6.9-10.3 10.5 3.6-3.3 7.4-6.7 10.3-10.5zm783.5-139c4.4-3.1 9.8-8.9 13.6-13.8-4.4 4.7-9.4 8.9-13.6 13.8zM712.8 405.5c3 4.2 9.7 10.4 15.2 14.7-4.2-4.9-10.4-10.2-15.2-14.7zm514.9-34.3c5.4-4.5 11-9.8 17.2-16-5.9 4.8-12.8 10.5-17.2 16zm17.2-16c3.2-2.6 6.1-5 8.1-7.1 3.6-3.6 6.9-7 10.1-10.3-3.5 3.1-6.8 5.9-9.1 8.2-3.2 3.3-6.2 6.3-9.1 9.2zM400.2 166.5c3.8-3.4 7.7-7.2 11.6-11.1-3.8 3.4-8 7-11.6 11.1zm820.6 77.6c-6 6.2-12.1 12.7-18.9 19.8 7.1-6.2 15.3-13.5 18.9-19.8zm.6-17.3v-.2c-6.5 6.7-13.1 13.8-20.6 21.5 7.4-6.9 14.6-14.1 20.6-21.3zm-37.7 54.4c3.2-2.6 6.1-5 8.1-7 3.6-3.6 6.9-7 10.1-10.3-3.5 3.1-6.8 5.9-9 8.2-3.3 3.2-6.3 6.2-9.2 9.1zm45.5 138.9c5-4.5 10.1-9.3 15.3-14.2-5.4 4.5-11.1 9.5-15.3 14.2zm4.2-20.1c2.2-1.9 4.4-3.9 6.6-5.9-2.3 1.9-4.5 3.9-6.6 5.9zm11.5-27.9c3.2-2.6 6.1-5 8.1-7 3.6-3.6 6.9-7 10.1-10.3-3.5 3.1-6.8 5.9-9.1 8.2-3.1 3.2-6.2 6.2-9.1 9.1zm37.1-54c-5.9 6.2-12.1 12.7-18.9 19.8 7.1-6.3 15.3-13.6 18.9-19.8zm-115.6-20.9c5.4-4.5 11-9.8 17.2-16-5.8 4.9-12.8 10.5-17.2 16zM1282 335c-5.9 6.2-12.1 12.7-18.9 19.8 7.1-6.3 15.3-13.6 18.9-19.8zM395.9 137.1c1.9-2 4-3.8 6-5.8-2.5 1.5-4.5 3.5-6 5.8zm315.5 230.1v-6c-.2.9-.6 1.9-1 2.8-.8 1.6-2.7.4-4.8-1.8 3.1 3.9 5.2 8.8 4.8 15.5 2.4-.8.4-5.9 1-8.4 12.3 12.9 26.6 26.5 39.1 39.6-3.8-4.3-7.2-8.7-10.6-12.2-11.2-11.2-20.3-20.2-28.5-29.5zm459-124.1c2.6-2.3 5.2-4.8 7.8-7.4-2.6 2.4-5.3 4.8-7.8 7.4zm-484.3 98.7c2.2 7.1 10.5 11.2 16.8 17.4-1.5-1.8-3-3.6-4.2-4.8-4.6-3.7-8.8-7.9-12.6-12.6zm541.6 46.3c5.4-4.5 11-9.8 17.2-16-5.9 4.8-12.8 10.5-17.2 16zM1167 262.7c4.9-4.3 10-9 15.1-14-5.3 4.4-11.1 9.2-15.1 14zm-760.4-119c-2.7 2.3-5.4 4.7-7.6 7.4 2.4-2.3 5-4.8 7.6-7.4zm821.1 159.9c5.4-4.5 11-9.8 17.2-16-5.9 4.8-12.8 10.4-17.2 16zM1044 168.5c4.5-4.9 8.7-10 13.1-14.9-4 3.8-8.8 7.2-12 10.7-4.5 5-7.9 9.7-11.2 13.1 3.4-3.2 7.3-5.9 10.1-8.9zM1239.2 500c-.4-.6-.7-1.2-1-1.8 1.6-.9 1.5-3.4 2.1-5.3 2.4 2.3 4.8 4.7 7.3 7.1h1.1c-2.9-2.9-5.4-5.9-7.4-9.2 1.9-1 1.9-3.7 3.2-5.3 4.8 4.7 9.8 9.6 14.9 14.5h.7c-5.3-5.5-10.2-11.3-14.6-17.7 1.4-.7 2-2.3 2.1-4.2 7.8 6.8 15.9 14.3 23.7 21.9h.5c-8.1-8-15.8-16-22.2-24-.3-3.1 2.4-3.3 2.1-6.3-4.3 8.5-10.2 19-15.2 30.4h2.7zm-625-75.8s.1 0 0 0c.1 0 .1 0 0 0 .1 0 0 0 0 0zM1194.4 0h-1.5c-3.6 3.7-7.1 7.3-10.7 10.9 3.8-3.1 7.2-5.9 9.5-8.2l2.7-2.7zM519.3 7.9c-8.5-2.5-21.5-.4-31.7-1.1V-.1h-1.1v6.9h-54.9c27.1 2.5 58.8.4 87.7 1.1zM1328.2 500c-1.2-1.1-2.4-2.2-3.5-3.4.8 1.1 1.6 2.2 2.3 3.4h1.2z"/><path class="st0" d="M1340 429.5v-2.4c-2.1 0-4.4.1-6.7.3-2.1-20.8 5.7-51.5-7.4-61.3-17.2 1-36.8-5-40.1-21.1-3-14.6 0-34.6 0-52.8V185.5c0-6.1-2.6-51.3 0-53.9.5-.5 1.1-.8 1.8-1-.6 0-1.2 0-1.8-.1V0h-2.2c1.2 6.9-1 12.3-4.5 17 1.2-1.3 2.4-2.6 3.6-3.8 1.2 4.4 2.1 9.5 1.1 13.7-.3 1.3-2.2 4.1-4.7 7.4 1.3-1.4 2.5-2.7 3.7-4.2 5.4 14.2-2.5 24.2-19 20.1.6-.7 1.1-1.4 1.7-2.1-1.4 1-2.7 1.7-3.8 2.1-4.9 1.4-9.1-1.1-12.7 0-2.2-3.4 3.7-5.8 6.3-8.5 5-5 11-11.2 16.7-17.2-2.4 2.2-4.9 4.4-7.2 6.6-7.5 7.5-14.4 13.7-20.1 19H1232c-.1-1 .1-2 .5-2.9-1.8 1.4-3.4 2.4-4.8 2.9-4.6 1.6-9.3-.9-12.7 0-1.8-.7-1.2-1.8.2-3.2-4.1 2.9-9.9 4.2-17.1 3.2-1.6-3.9 6.3-8.4 10.6-12.7 4.7-4.7 9.2-9.9 12.7-13.7 2.4 8.9.8 16.4-3.8 21.2 1.7-1.4 3.5-2.9 3.8-4.3 2.4.5.4 5.2 1.1 7.4 2.4-1.1.4-6.6 1.1-9.5 13.2-12.4 25.6-25.5 38.1-38.6h-.9c-3 2.5-5.7 4.8-7.6 6.9-11.8 12.3-19.4 23.6-29.6 29.6-3.8-16.1 6.9-19.8 14.8-28.5 2.4-2.6 4.8-5.3 7.3-7.9h-2.1c-7.7 7.1-14.8 13.8-20 19.5.9-3.5-1.1-8.1 0-12.7.5-2.1 1.9-4.4 3.8-6.9h-.6c-1.1.9-2.1 1.8-3.2 2.6-.1-.9-.2-1.8-.3-2.6h-.9c-1.1 5.3-3.7 9.7-7 13.5 2.1-2.2 4.2-4.5 6.1-6.7 5.3 24.7-18.1 29.8-27.4 43.3h-12.7c-.9-3.4 4.3-7.5 7.4-10.6 5.9-5.9 13-12.5 19.7-19.1-2.8 2.5-5.6 5-8.1 7.5-8.5 8.5-16.4 15.7-23.2 22.2h-12.7c-1-4.5 7.6-9.7 12.7-14.8 10.7-10.7 23.2-24.3 34.6-35.4h-1.3c-.9.9-1.8 1.7-2.7 2.6-14.5 14.8-31.9 34.1-45.4 44.4 1-4.1-1.2-8.9 0-13.7.7-2.6 2.3-5.3 4.5-8-1.5 1.3-3 2.5-4.5 3.7.9-3.5-1.1-8.1 0-12.7.7-2.8 3-6.1 6-9.6l-6 5.4c.8-3.6-1-7.8-.1-12.1h-2.1c.2 44 .8 88.4-1 130.5-7.8.7-18.3-1.4-24.3 1.1h25.3v106.7c0 36.7 2.3 87.3-3.2 116.2-9.2 15.7-40.2 4.2-45.4 23.2-4.3 15.8 3.2 34.5 0 54.9h-45.4v-112c0-8.2-2.7-33.7 1.1-37-.4-.3-.7-.6-1.1-1-5.1-5.9 4-33.7 0-39.1h-25.3c-8.3 0-18.6 2.6-22.2-3.2 13.7-2.5 32-.4 47.5-1.1v-35.9c5.9-.6 10.1 1.2 9.5-1.1.1.3-9.6-1.2-9.5-1.1-.7-.9 0-15.9 0-21.1V31.9c1.8 2.8 5.2 3.9 10.6 3.2 4.6-6.4.5-14.9 9.5-16.9 5.6.5 12.5 5.4 20.1 0V-.3h-2.1v16.4c-1.7 1.5-5.4.9-6.3 3.2-2-4.8-1-12.6-.9-19.5h-2.3c.7 5.5-.5 12.9.1 18.5-4.4-4.1-12-3.2-14.8 2.1-1.9-5.3-1.1-13.2-.9-20.6h-3.1c1.6 6.6 1.2 15.3-2.3 19.5-8.1-1.8-7.6-11.9-5.4-19.5h-4.1v22.7h-28.5V7.9h15.8c-3.2-2.4-10.9-.4-15.8-1.1V0h-1.9c-.1 2.9-.5 5.6-1.3 6.9-2.1-.9-2.6-3.8-2.4-6.9h-2.9c.2 2.2.5 4.5 1.1 6.9h-38c0-2.3.1-4.6.1-6.9h-2.8c-.4 2.4-.9 4.7-1.5 6.9h-2.1c-3.3-.7-3.9-3.7-3.7-6.9h-1.6v6.9H963c3.2 2.4 10.9.4 15.8 1.1v67.6h-56V7.9H945c-5.3-2.4-15.1-.4-22.2-1.1V-.1h-2.1v6.9h-64.4c19.4 2.5 43.3.4 64.4 1.1v90.9c-36.7 3.7-82.8-5-117.2 0-3.7.5-8.9.6-10.6 5.3-2.5-29.9-.3-64.4-1.1-96.1h46.5c-13.4-2.5-31.3-.4-46.5-1.1V0h-3.2c-.3 2.4-.6 4.7-1 6.9-2.3-1.1-3.3-3.7-3.6-6.9h-1.7v6.9h-31.7c8.4 2.5 21.5.4 31.7 1.1-.7 28.5 1.4 59.9-1.1 86.6-22.5-5.4-44.7-10.9-69.7-13.7V68.2c-2.4 1.8-.4 8.1-1 11.6-26.3 1.8-54.1 2.1-77.6 6.7.1.3-.3.8-.5 1.5 1.2-.9 2.3-1.6 3.1-1.8 2.4-.8 4.5.6 6.3 0-2.7 2.3-5 5-7.3 7.6 3.5-3.6 7.2-6.8 9.4-7.6 1.6-.6 3.7.4 5.3 0-7.8 6.3-11.1 17-23.2 19-.8-.4 2.1-4.3 5.8-8.5-3.8 3.8-8 7.2-14.2 8.5-1.3-.6 6.7-10.2 12.9-15.6-6.8 5.1-10.7 13.2-20.3 15.6 3.8-7.8 9.2-13.9 17.1-17.5-2.5.6-4.9 1.2-7.3 1.9 2.5 2.5-7.5 7.3-8.8 11.3-2.4-.8-.4-5.9-1.1-8.5 3.2-.6 6.9-.8 8.9-2.6-.5.2-1 .3-1.5.5-2.5-25.3-.4-55.3-1.1-82.4h9.5c-.8-3.1-8.7 1-9.5-2.1-.4-2.3-.2-4.2.4-5.8h-3.4l-.3 6.9c-2.3-1.1-3.3-3.7-3.6-6.9h-3.7c.9 2 1.7 4.3 2 6.9h-70.7c21.5 2.5 47.5.4 70.7 1.1-1.1 7.7-5.2 12.4-9.5 16.9-49 1.9-110.6 1.1-165.8 1.1-29.1 0-64.2 7.5-67.6-18h48.6c-14.1-2.5-32.7-.4-48.6-1.1.2-2.8 1.1-5 2.2-6.9H362l-.3 6.9c-2.3-1.1-3.3-3.7-3.6-6.9h-1.7v6.9h-31.7c8.5 2.5 21.5.4 31.7 1.1v81.4c-28.1-6-60.3-8-92.9-9.5V68.2c-2.4 2.1-.4 8.8-1.1 12.7-26.2 3.1-49.9 8.5-72.9 14.8V8h10.6c-1.5-2.4-7.3-.4-10.6-1.1V0h-2.9l-.3 6.9C184 5.8 183 3.2 182.7 0h-1.8c0 2.3.1 4.6.1 6.9h-68.6c20.8 2.5 46.1.4 68.6 1.1v93c-1.7 2.2-7.1-1.5-11.6-2.1-34.5-4.4-81.5 3.3-118.2 0V8h43.3c-12-2.5-28.9-.4-42.9-1.1V0h-2.1v6.9H6.2c12.3 2.5 29.2.4 43.3 1.1v67.6H0v2c7.7.9 9.7 11.2 14.6 12.8-1.9-.7-4.8-9.5-10.6-11.7 11.1-4.5 18.8 7.1 25.3 13.7 4.2 4.2-10.4-11.9-13.7-13.7C30.2 73.6 33.5 89.1 42 93.5c-10.1 4.3-14.2-1.8-24.3-2.1v-6.3c-2.4.4 0 5.6-2.1 6.3-3 .2-7.2-.9-7.4 2.1-3.4-2.1-5.8-5.3-8.3-8.3v.8c2.2 3.1 4.2 6.5 6.2 8.6-2.4.2-4.4 0-6.2-.4v2.5h1.9C1.3 97.8.7 98.9 0 100v3.8c3.1-6 8-10 16.7-10.3v20.1H0v1.1h16.7v20.1c-7.7-.2-13.4-4.4-16.7-9.7v3.7c.3.6.6 1.1.9 1.6H0v2.1c1.3-.1 2.6-.1 4 0-1.2 1.9-2.6 3.7-4 5.4v1.3c1.9-1.7 3.7-3.5 5.1-5.7 2.1 1.4 5 2 7.4 3.2-4.3 3.7-7.1 8.8-12.5 11.4v3.4h8.3c-2.8 2.8-5.5 5.6-8.3 8.5v1.2c3.7-3.6 7.2-6.9 10.4-9.7h14.8c-8.1 8.9-16.6 17.3-25.2 25.7v.7c9.1-8.9 18.9-18.3 27.3-26.4h14.8C28.5 166.2 14 180 .1 194.4v.9c1.9-2 4.3-3.8 6.2-5.7 11.5-11.9 25.6-26.8 38-38h14.8C42.5 169 25.6 185.9 8.3 202.3H0v1.1h7.2c-2.3 2.7-4.7 5.5-7.2 8.2v1.6c3.2-3.4 6.3-6.7 9.3-9.8h10.6c-1.1-2.4-6.6-.4-9.5-1.1 16.5-17.3 33.3-34.2 50.7-50.7h14.8c-25.3 24.9-50.6 52-75.9 77.5v1.1c9.2-9 17.9-18.1 25.2-26.8h7.4c.2-2.3-3.7-.5-5.3-1.1C43.7 185 60.6 168.1 78 151.6h14.8c-15.9 17.5-33.7 33.2-49.6 50.7h-5.3c.2 1.2 1.9.9 3.2 1.1C27.8 218.1 13.9 232 0 246v.7c14.8-14.7 29.5-29.3 43.1-43.3h14.8C39 223.7 19.4 243.2 0 263v.4l60-60h14.8C49.9 228.7 25.8 255 0 279.5v4.3h11.4c.2.9-.4 1-1.1 1-3.4 3.6-6.8 7.2-10.3 10.9v1c4.3-4.5 8.6-8.9 12.5-13H22c.2-2.3-3.7-.5-5.3-1.1-1.9-3.8 3.6-5.7 5.3-7.4 38.6-40.3 84.2-85.4 123.5-122.6.3 4.7.4 13.4-2.1 15.8C95.5 215.7 47.1 267.3 0 313.7v.7c10.5-10 22.2-20.3 32.5-30.6 25.4-25.3 50.5-56 78.1-80.3h14.8c-25.5 26.6-52.1 52.1-77.1 79.3h-8.4c.3 1.4 2.6.9 4.2 1.1.9 4.6-5.8 7.9-9.5 11.6C24 306 11.6 319.6 0 330.3v6.5c3.9 1.5 7 4 9.6 6.8-2.3-3.2-4.4-6.2-6.6-8.2 9.6-1.8 16.9 1.5 22.2 6.8-2-2-4-4-6.3-5.7 3.2-2.4 10.9-.4 15.8-1.1v15.9c-3.1-2.3-5.7-5-8.3-7.8 3.8 4.2 6.5 9.3 8.3 14.1-9.5.8-15.6-3.2-20.3-8.2 2.3 3.2 4.4 6.1 6.6 8.2-9.8 1-16.2-1.5-20.9-5.6 1.6 1.6 3.3 3.1 5.1 4.5-1.1.6-3 1-5.1 1.2v2h34.7c-.1 44.7 0 92.6 0 140.2h1.8c-.3-36.7 1.2-75.3.3-111.7V385H39c1.5 22.5 2.4 48 2.6 73.9.3-4.5.8-8.4 1.6-11.6 1-4.1 5.3-6.4 6.3-9.5.9-.2 1 .4 1.1 1.1-.6 19.6 0 40.2.3 61h1.8v-65.2h76v65.2h1.9c0-21.7.6-44 .2-65.2h21.1v65.2h2.1v-71.6h2.1c5.7 2.4 3.2 14.3 3.2 22.2 0 15.6.9 32.6.6 49.4h1.5v-72.6h101.4v60.2c2.5-18 .4-40.5 1.1-60.2H363V500h2.1c-.2-27.6-.4-55.2 1.1-81.1h120.4v79.2c2.5-24.3.4-53.2 1.1-79.2H608V500h1.9c0-24.1.6-48.9.2-72.6h100.3v60.2c2.4-18 .3-40.5 1-60.2h99.2V500h2.1v-71.6h4.2c3.1 18.5 2.8 47.7 1.9 71.6h2.3v-65.2h21.1V500h2.1v-65.2c90-.1 179.8.1 267.1 0v15.8c-22.2-1.1-39.4-7.1-54.9-14.8 14.1 9.5 32.9 14.3 54.9 15.8v48.3h2.1v-48.3c51.4-.2 99 .4 145.7 0 .5 3.4-3 9.5-6.3 15.8 1.8-1 1.9-3.7 3.1-5.3 8.8 3.4 4.4 13.9 10.6 19-3.8-1.1-10.8-8.2-13.7-13.7-.4.7-.7 1.4-1.1 2.1 10 9.6 20.5 20 30.7 30.4h.8c-5-5.1-9.2-9.8-12.4-14.5 6 .2 10.2 2.2 13.6 5-1.4-1.3-2.7-2.6-4.1-4 9.8-3.5 17.6 5 25.4 13.4h.3c-4.7-4.9-9.5-9.6-14-13.4 10-4.3 17 6.3 23.1 13.4h1.9c-5-5-10.3-9.7-14.5-13.4 5.5-1.9 11.4.2 16.3 4.1-1.5-1.5-3-2.8-4.7-4.1 10-3.8 18.1 2.4 17.2 13.4h2.7c.7-2.8 2.1-5.2 4.1-7.2-1.6 1.2-3.1 2.5-4 4.3-2.4-1.5-.4-7.3-1.1-10.6h6.7v-3.2h-6.7v-18h6.7v-3c-1.1 0-2.3 0-3.6-.2 1.1-1.4 2.3-2.8 3.6-4.1v-1.5c-2.3 1.8-4.7 3.6-6.7 5.6-.5-8.3 2.7-12.8 6.7-16.4v-.5c-2.1 2-4 4-5.7 6.3-2.7-7.6 1-12.4 5.7-16.2v-.5c-2 1.9-4.1 3.8-5.7 6.2-2-1.8-1.4-9.7 0-11.6h5.9zM1076.7 22.7c1.9 5.1 0 7.9-2.1 11.6-5 0-6-3.8-8.4-6.3.9-4.5 5.2-8.2 10.5-5.3zM17.8 93.5c12 1.4 19.9 6.8 20.1 20.1H17.8V93.5zm20 21.1c-.8 12.6-7.7 19-20.1 20.1v-20.1h20.1zM.9 149.5c4.9-4.6 8.7-10.3 15.8-12.7 1.2 10.7-5.2 13.8-15.8 12.7zm11.6 0c2.7-4 7.1-6.3 9.5-10.6 3 .6 5.5 1.6 8.4 2.1-3.7 5.1-7.3 10.3-17.9 8.5zm11.6 0c3-4.4 7.2-9.6 14.8-6.3-2.5 4.5-6.5 7.6-14.8 6.3zm10.6 0c1.7-4.9 8-6.7 12.7-3.2-.8 4.5-7.7 3-12.7 3.2zm14.7-5.3c-8.4-2.5-17.1-4.7-25.3-7.4 8.4-4.3 15.5-9.9 15.8-22.2h7.4c-.5-2.4-5.2-.4-7.4-1.1-.8-7-1.4-14.1-7.4-15.9 3.5-2.4 11.6-.4 16.9-1.1v47.7zM27.3 78.7c12-3.5 18.9 7.1 22.2 15.8-12.6 0-13.8-11.5-22.2-15.8zm22.1 10.6c-4.5-2.9-7.1-7.7-11.6-10.6 4-3.6 8.4 1.4 11.6 2.1v8.5zm9.5 113H46.2c-1.7-2.6 5.7-8.9 9.5-12.7 11.8-11.9 26.9-26.3 39.1-38h14.8c-16.4 17.4-33.3 34.3-50.7 50.7zm4.3 0c-1.7-2.6 5.7-8.9 9.5-12.7 11.8-11.9 26.9-26.3 39.1-38h14.8c-16.5 17.4-33.3 34.3-50.7 50.7H63.2zm-50.7 80.3H.9c-.9-3.5 3.8-7 6.3-9.5 21.9-21.9 47.2-47.8 69.7-69.7h13.7c-1.5-2.4-7.3-.4-10.6-1.1-1.7-2.6 5.7-8.9 9.5-12.7 11.8-11.9 26.9-26.3 39.1-38h14.8c-43.2 44.1-86.8 87.8-130.9 131zm133-133.1h-94c.7-15.9-1.4-34.5 1.1-48.6h92.9v48.6zm897.4 96.2c-1.3 1.5-2.5 2.9-3.8 4.3 2.4-2.3 4.5-3.9 5.9-4.3 2.9-.8 6.2.6 9.5 0-5.6 5.7-12 13.1-18.2 18.9 1.6-1.5 3.1-2.8 4.5-4.1 5.3-5.3 11.7-14.4 21.1-14.8 1.8-.4 2 .8 2.1 2.1-13.8 10.1-21.4 26.5-37 34.9-.7-7.5 3.7-12.8 8.3-17.1-2.9 2.6-5.6 4.9-8.3 6.5-.8-4.5 3-11.3 7.4-16.9-2.1 2.4-4.3 4.9-6.3 7.4-3.8-10.3 2.8-19.1 14.8-16.9zm-15.8 0h5.3c-.7 2.5-3.5 2.8-4.2 5.3-2.3.1-.5-3.8-1.1-5.3zm0 39c.8-1.3 7.6-1 12.7-1-1.1 1.6-2.3 3-3.7 4.3 3.4-2.4 7.8-3.8 13.2-4.3-3.6 4.5-8.2 10-12.7 14.6 5-4.4 10.8-8.1 13.7-14.6h10.6c-11.1 10.7-22.6 26.7-33.8 33.8 0-7.6 2.8-12.5 6.5-16.4-2.3 2-4.5 3.7-6.5 4.7.5-5.7 2.1-10.3 4.8-13.8-1.4 1.3-2.6 2.7-3.7 4.3-3.1-1.7.5-11.3-1.1-11.6zM1063 271c2.4 1.5.4 7.4 1.1 10.6-2.3 2-7.7.7-11.6 1.1 1-1.5 2.2-2.8 3.4-4.1-3.5 2.4-8 3.9-12.9 4.1 5.5-8.6 13.9-14.3 20.1-22.2 1.1 5.4-.1 10.3-2.9 14.1 1-1.2 2-2.3 2.8-3.6zm1 12.7v9.5c-13.3 10.3-24.5 28.3-37 35.9-1.6-12.3 11-19.9 18-27.5 6.7-7.2 12.4-14.2 19-17.9zm-39-26.4c-2.2-1.3-4.1-2.9-6.3-4.2v-7.4c3.4 2.5 7.9 4 6.3 11.6zm-6.4 63.4v-7.4c2.2 1.3 4.1 2.9 6.3 4.2v7.4c-2.1-1.3-4-2.9-6.3-4.2zm6.4 5.3v7.4c-4.8-1.1-7.2-4.8-6.3-11.6 2.2 1.2 4.1 2.8 6.3 4.2zm-6.4-13.8v-7.4c2.2 1.3 4.1 2.9 6.3 4.2v7.4c-2.1-1.3-4-2.9-6.3-4.2zm0-8.4v-7.4c2.2 1.3 4.1 2.9 6.3 4.2v7.4c-2.1-1.3-4-2.9-6.3-4.2zm6.4-28.6v7.4c-2.2-1.3-4.1-2.9-6.3-4.2V271c2.2 1.3 4.1 2.9 6.3 4.2zm-6.4-5.2v-7.4c2.2 1.3 4.1 2.9 6.3 4.2v7.4c-2.1-1.3-4-2.9-6.3-4.2zm6.4 13.7v7.4c-2.2-1.3-4.1-2.9-6.3-4.2v-7.4c6.4 1.7-.8 4.6 6.3 4.2zm0 8.4v7.4c-2.2-1.3-4.1-2.9-6.3-4.2v-7.4c2.2 1.3 4.1 2.9 6.3 4.2zm0-26.4c-2.2-1.3-4.1-2.9-6.3-4.2v-7.4c2.2 1.3 4.1 2.9 6.3 4.2v7.4zm0-28.5c-3.2.8-3.8-1.1-6.3-1.1v-8.5c2.6 2.7 6.9 3.7 6.3 9.6zm0-5.3c-3.7-2.7-7.6-5-6.3-12.7 3.6 2.7 7.6 5.1 6.3 12.7zm-38 115.2c-3.1-1.5.6-10.5-1.1-10.6.8-1.3 7.6-1 12.7-1.1-.8 1.4-1.8 2.5-2.9 3.5 4-2.3 9-3.5 14.5-3.5-6.6 8.9-16.6 14.3-23.2 23.2-1.4-6.7.3-12.3 4.1-16.2-1.6 1.3-3.1 2.8-4.1 4.7zm10.5-33.8c-7.5 8.2-12.3 15.5-19 20.1h-12.7c-.5-3.8 5-8.1 8.4-11.6 11.2-11.3 25.1-25.1 35.9-37 1.2-.9 2.8-1.4 5.3-1-2.6-1.9-1.5-1.7 0-4.2 3.4 9.6.6 15.9-4.1 21.1 1.4-1.5 2.8-2.9 4.1-4.2 5.7 20.5-12 26.7-20.1 37h-12.7c-2.2-3.3 3.7-5.8 6.3-8.4 6.8-6.8 14.6-16.2 21.8-23.9-3.9 4.2-9.3 7.8-13.2 12.1zm-44.3 43.3c-2.9 2.4-10.2.4-14.8 1.1v-14.8c2.2 1.6 4.1 3.4 5.9 5.3-2.6-3.6-4.5-7.9-5.9-12.7 17.9-1 23.6 15.8 30.6 22.2-9.1.8-15.6-1.2-20.2-4.9 1.3 1.4 2.8 2.7 4.4 3.8zm-25.4-16.9c6.9 12.4-9.6 18.2-15.8 24.3 0-2.8 1-6.6-3.2-5.3 1.3-1.9 2.9-3.7 4.6-5.3-3.7 3.1-8.3 5.3-15.2 5.3 7.3-8.2 15-15.9 23.2-23.2 3.7-.6 2.6 3.7 6.3 3.2-4.9 3.6-8.2 8.9-12.5 13.1 4.5-3.9 9.3-7.3 12.6-12.1zM912 384.1v-18h18v18h-18zm18 1V402h-18v-16.9h18zm-20.1 0v22.2h-45.4v-22.2h14.8c-2.9-2.4-10.2-.4-14.8-1.1v-23.2h45.4V384h-12.7c2.2 2.5 8.8.5 12.7 1.1zm-46.5-51.8c-.9-4.6 5.8-7.9 9.5-11.6 11.7-11.7 25.4-27 38-38h14.8c-16.1 17-32.6 33.5-49.6 49.6h-12.7zm10.6 2.2c-8.5 5.9-13.7 22.8-26.4 18 8.5-6.4 10.5-19.1 26.4-18zm40.1-52.9c-.9-3.5 3.8-7 6.3-9.5 22-22 48.2-47.5 70.7-69.7h14.8c-26 26.9-52.3 53.3-79.2 79.3-4.1-.1-8.4-.1-12.6-.1zm-4.2 0h-12.7c-.9-3.5 3.8-7 6.3-9.5 22-22 48.2-47.5 70.7-69.7H989c-25.9 26.8-52.3 53.3-79.1 79.2zm-16.9 0h-10.6c1.1 2.4 6.6.4 9.5 1.1-16.1 17-32.6 33.5-49.6 49.6h-11.6c-2-3.6 3.5-5.5 5.3-7.4 38.3-40.1 82.1-82.7 121.4-122.6h14.8c-26 26.9-52.4 53.4-79.2 79.3zm-36.9 39.1c11.7-11.7 25.4-27 38-38h14.8c-16.1 17-32.6 33.5-49.6 49.6h-12.7c-1-4.5 5.7-7.8 9.5-11.6zm7.3 13.8c-6.2 5.8-10.2 13.8-19 16.9-.5-12.5 6.4-17.6 19-16.9zm-19 49.6h17.9V402h-17.9v-16.9zm0-1v-29.6c6.1 2 11.9 4.3 17.9 6.3V384c-5.9.1-11.9.1-17.9.1zm11.7-27.5c8.6-8.3 11.9-21.9 29.6-21.1-4 2.8-7.4 7.7-11 12.1.2-.1.3-.3.5-.5 6.1-6.1 10-13.3 22.2-11.6-5.1 4.1-8.9 9.6-13.6 14.2 1-.8 2-1.7 3-2.6 6.2-5.7 9.6-13.2 21.1-11.6-4.4 3.2-7.5 7.8-10.9 12l.4-.4c6.1-6.1 10-13.3 22.2-11.6-10.3 7.6-13.5 22.4-30.6 23.2-.7-1.2.2-2.9 1.8-4.9-3.4 2.7-7.6 4.6-13.4 4.9-.9-1.6.2-3.3 2.1-5.2-3.4 2.5-7.5 4.5-12.7 5.2-.7-1.2.1-2.8 1.6-4.6-3.6 2.6-7.5 3.9-12.3 2.5zm58-23.3c-.9-4.6 5.8-7.9 9.5-11.6 11.7-11.7 25.4-27 38-38h14.8c-16.1 17-32.6 33.5-49.6 49.7h-12.7zm26.4-11.6c11.7-11.7 25.4-27 38-38h14.8c-15.6 17.2-31.6 33.9-48.6 49.6H931c-.9-4.5 5.8-7.8 9.5-11.6zm18 0c11.4-11.4 24.9-26.1 35.9-38h8.4c-.1-2.3-4.5-.4-6.3-1.1.6-.7 1.1-1.4 1.7-2.1-1.4 1-2.7 1.7-3.8 2.1-4.9 1.4-9.1-1.1-12.7 0-2.2-3.4 3.7-5.8 6.3-8.5 5-5 10.9-11.2 16.7-17.2-2.4 2.2-4.9 4.4-7.2 6.6-7.5 7.5-14.4 13.7-20.1 19h-12.7c-.5-5 6.5-8.6 10.5-12.7 8-8 17-17.3 25.7-26.3-4.3 3.7-8.6 7.1-12 10.5-10.8 10.8-19.4 20.2-27.4 28.5H952c.5 2.4 5.2.4 7.4 1.1-16.1 17-32.6 33.5-49.6 49.6h-12.7c-1.6-2.9 2.7-5.8 4.2-7.4 4.9-5.2 10-10.3 15.1-15.5-7.8 7.7-15.6 15.4-23.5 22.9h-12.7c-.9-4.6 5.8-7.9 9.5-11.6 11.5-11.5 25.5-26.2 37-38h7.4c.2-2.3-3.7-.5-5.3-1.1 26.7-28.2 55-54.8 81.8-82.8-3.8 2.9-9.3 4-16.4 2.5-.8-1.5 0-3 1.6-4.7-4.5 3.8-9.8 6.4-18.4 4.7-1.8-3.7 4.4-6.6 7.4-9.5 5.3-5.3 11.5-11.7 17.5-18-10.2 9.5-21.5 18.7-29.1 27.5h-12.7c-1.1-3.2 6.1-9.2 10.6-13.7l27.5-27.5c4.6-4.6 9.9-11.5 17.9-9.5-1.2 1.9 1.6 6.4 0 8.5-.3.4-.7.8-1 1.2 4.6 14.6-2.5 19.2-11.7 28.4-1.9 1.9-3.7 4-5.6 5.9 1.9-1.6 4.1-3.2 5.6-4.8 4.4-4.4 8.4-9.1 11.6-12.7 2 7.8 1.2 14.5-2 19 .7-.7 1.4-1.4 2-2.1 2.4.5.4 5.2 1.1 7.4h-4.2c-.8 2.9 5-.8 4.2 2.1-.8 9.9-9.7 16-15.8 22.2-18 18-37.8 36.3-55.8 55.8 24.1-23.4 48.7-46.9 70.6-70.6 2.4 8.5 0 15.5-4.4 21.4 1.5-1.5 3-3.1 4.4-4.5 2.9 8.8.6 15.2-3.6 20.7 1.2-1.3 2.4-2.6 3.6-3.8 1.2 4.4 2.1 9.5 1.1 13.7-.3 1.3-2.2 4.1-4.7 7.4 1.3-1.4 2.5-2.7 3.7-4.2 2.4 3.2.4 10.9 1.1 15.8-18 15.3-35.4 37.9-54.9 54.9h-12.7c-1.1-4.4 5.6-7.7 9.4-11.5zm39 11.6c5.9-6.7 12.1-13.3 18-20.1 5.2 13.7-1.4 24.7-18 20.1zm10.6-183.8c-.6-1.4.3-3 1.8-4.7-3.1 2.9-7.1 4.9-13.4 4.7-.9-.2 1.7-4.3 5.2-8.4-3.4 4-7.2 7.5-13.6 8.4 1.8-8.1 7.6-12.2 11.6-18h10.6c-3.1 2.5-5.5 5.9-8.1 9 3.5-4.1 7.7-8.3 10.2-9 3.2-.9 6 .7 9.5 0-4 2.9-6.5 7.3-9.7 11 3.7-3.5 8.9-7.4 10.8-11 3.9.3 6.9-.2 9.5-1.1 4-2.3 6.1-6.6 5.3-13.7 6.1-5 11.3-10.9 16.5-16.7-6.2 6.2-13.6 11.4-16.5 14.6.4-19.6 18.2-22 25.3-34.9 1.4 5.5-1 10.9-4.8 15.7 1.6-1.7 3.2-3.5 4.8-5.2 1.9 7.1-1.9 13.6-7.2 19.4 2.5-2.6 5-5.3 7.2-7.8 2.3 6-.6 11.8-4.9 17 1.7-1.9 3.4-3.6 4.9-5.3 2.3 6-.1 11.2-4 16 1.4-1.5 2.7-3 4-4.4 4.8 12.1-10.7 19.5-17.9 27.5-3.5 3.9-6.3 7.6-9 10.7 3.1-3 6.4-5.8 9-8.6 6.8-7.5 12.9-13.2 17.9-19 2.3 5.9.5 10.5-2.9 14.6 1-1 1.9-2 2.9-3 2.2 5.9 0 11-3.8 15.7 1.3-1.3 2.5-2.7 3.8-4 4.9 11.9-10.1 18.9-16.9 26.4-7 7.7-10.8 16.3-19 16.9 0-11.9 10.7-17 16.9-23.2 3.7-3.7 7.2-7.4 10.8-11.2-3 2.9-6.1 5.5-8.7 8.1-7.4 7.4-13.9 13.9-19 16.9-.4-6.2 2.1-10.6 5.6-14.2-1.8 1.7-3.6 2.9-5.6 3.6-.7-6 1.8-10.8 5.4-15.1-1.7 1.6-3.5 2.8-5.4 3.4-1.9-12.8 10.8-19.2 18-26.4 3.8-3.8 7.3-7.5 10.4-10.9-3.2 3.1-6.6 6-9.4 8.8-7.4 7.4-13.9 13.9-19 16.9-.8-5.8 1.3-10.2 4.5-14-3.9 3.1-8 5.1-12.9 4.5-.2-1.8.9-3.8 2.5-5.7-4 3.3-8.1 5.5-13.2 5.7zM828.6 297.4c-2.4-2.5-.4-9.5-1.1-13.7h13.7c-1 1.5-2.2 2.8-3.5 4.1 5.2-3.3 12.3-4.7 21.4-4.1-9.9 10.1-21.7 24-31.7 30.6-.5-8.9 1-15.8 4.4-20.9-1.1 1.3-2.2 2.6-3.2 4zm94-150c1.1-1.8 4.5-1.2 6.3-2.1-1.4 1.8-2.2 4.1-5.3 4.2.2-1.2-.2-1.9-1-2.1zm22.1-7.4c-1 3.9-7.1 11.9-17.9 9.5 2.5-6.6 12.3-6 17.9-9.5zm10.6-2.1c-1.3 8.2-6.3 12.7-16.9 11.6 4.5-5 8-11 16.9-11.6zm17.9 13.7c-16.5 17.4-33.3 34.3-50.7 50.7h-12.7c-1.7-2.6 5.7-8.9 9.5-12.7 11.8-11.9 26.9-26.3 39.1-38h14.8zm-12.6-2.1c8.2-6.2 10.2-18.7 26.4-16.9-8.2 6.2-10.2 18.7-26.4 16.9zm11.6 0c4.3-5.9 10.5-9.9 14.8-15.9 3.8 9.9-3.3 17.9-14.8 15.9zm0-19c2.1-5.3 6.6-8.2 6.3-15.8h8.4c-.8-2.4-5.9-.4-8.4-1.1.8-8.2-3.6-11.2-6.3-15.8 3.2-2.4 10.9-.4 15.8-1.1v33.8h-15.8zm4.2-16.9h-20.1V93.5c12.6.9 19.4 7.5 20.1 20.1zm0 1c-1.6 11.7-7.6 19.1-20.1 20.1v-20.1h20.1zm-1.1 18c-8.2 6.2-10.2 18.7-26.4 16.9 1.3-1.4 5.8-8.8 6.3-4.2 3-8 9.6-12.3 20.1-12.7zm-20-19h-21.1c2.5-10.6 7.9-18.2 19-20.1 4.7 2.7.8 14 2.1 20.1zm0 1v20.1c-11.5-1.9-19.2-7.5-20.1-20.1h20.1zm1.1 37c-16.5 17.4-33.3 34.3-50.7 50.7H893c-1.7-2.6 5.8-8.9 9.5-12.7 11.8-11.9 26.9-26.3 39.1-38h14.8zm-49.7 51.8h14.8c-26 26.9-52.3 53.3-79.2 79.3h-12.7c-.9-3.5 3.8-7 6.3-9.5 22.1-22.1 48.3-47.6 70.8-69.8zm-60.1 79.2c-.9-3.5 3.8-7 6.3-9.5 22-22 48.2-47.5 70.7-69.7h11.6c-1.5-2.4-7.3-.4-10.6-1.1 16.4-17.3 33.3-34.2 50.7-50.7h14.8c-43.4 43.6-85.9 88-129.9 131h-13.6zM988 77.7c-3 .9-2.7-1.5-5.3-1.1.7-2.5 3.5-2.8 4.2-5.3 2.4.2.5 4.5 1.1 6.4zm2.1 53.8h8.4c-2.4 3.2-5.1 6.1-7.4 9.5-2.3-1.1-.3-6.6-1-9.5zM1063 46c3.8 14.7-19.7 28.5-25.3 34.9.4-19.7 18.1-22.1 25.3-34.9zm-25.4 23.2c.4-19.6 18.2-22 25.3-34.9 3.2 18.3-18.3 26.7-25.3 34.9zm25.4-12.7c3.2 18.3-18.4 26.6-25.3 34.9 1.7-18.3 17.8-22.3 25.3-34.9zm0 11.7c3.2 18.3-18.4 26.6-25.3 34.9.4-19.7 18.1-22.1 25.3-34.9zm-11.6 135.2c-7.5 7.7-16.8 19.1-24.3 23.3.7-5.7 2.4-10.5 5.1-14.2-1.5 1.4-2.8 2.9-4 4.6-4.3-8.9 1.6-16.7 12.7-13.7-1.1 1.6-2.4 3-3.7 4.4 3.6-2.6 8.3-4.1 14.2-4.4zm11.6-10.6c2.4 1.1.4 6.6 1.1 9.5h-9.5c.8-1.4 1.8-2.5 2.9-3.6-3.4 2.5-8.1 3.9-13.5 3.6 4.9-8.4 13.3-13.5 19-21.1 1.6 6 .4 11.3-2.8 15.1 1-1 2-2.1 2.8-3.5zm-44.4 1.1c5.1 2.9 6.7 6.6 6.3 12.7-3.6-2.7-7.5-5.1-6.3-12.7zm0-8.5c3.7 2.7 7.6 5.1 6.3 12.7-3.6-2.6-7.5-5-6.3-12.7zm0 16.9c3.7 2.7 7.6 5.1 6.3 12.7-3.6-2.6-7.5-5-6.3-12.7zm6.4-12.6c-3.7-2.7-7.6-5.1-6.3-12.7 3.6 2.6 7.6 5 6.3 12.7zm0-8.5c-3.7-2.7-7.6-5.1-6.3-12.7 3.6 2.7 7.6 5.1 6.3 12.7zm0-8.4c-3.7-2.7-7.6-5-6.3-12.7 3.6 2.6 7.6 5 6.3 12.7zm0-8.5c-3.7-2.7-7.6-5.1-6.3-12.7 3.6 2.7 7.6 5.1 6.3 12.7zm-4.3-11.6c.3-1.4 2.6-.9 4.2-1.1v4.2c-2.1-.3-2-2.8-4.2-3.1zm4.3 70.8c-3.7-2.7-7.6-5.1-6.3-12.7 3.6 2.6 7.6 5 6.3 12.7zm13.7-5.3c6-6 10.3-16.5 23.2-14.8-12 10.9-20.1 25.6-34.8 33.8-2.8-8.4 5.9-13.3 11.6-19zm25.3 17.9c-2 1.9-7 .8-10.6 1.1.9-1.4 2-2.7 3.2-3.8-3.4 2.4-7.8 3.8-12.7 3.8-1.1-5.3 14.7-15 19-22.2 1.5 6 .2 11.2-2.9 15.1 1.1-1.1 2.1-2.2 2.9-3.5 2.5 1.2.5 6.7 1.1 9.5zm-12.6-10.5c-6.6 6.6-7.7 12.7-18 11.6-.7-5.1 8.7-10.3 13.7-15.8 5.6-6.2 10.7-13.2 15.8-18 5.1 10.9-4.8 15.5-11.5 22.2zm2.1-34.9c-5.6 5.6-9.3 13.1-19 11.6-1-3.6 8-10.8 12.7-15.8 5.4-5.9 11.5-11.8 15.8-16.9 4 10-2.2 13.8-9.5 21.1zM1064 28c-3.8 14.9-18.1 19.2-25.3 30.6-5-17 14-19.1 19-29.6-6.6 6.5-14.3 11.7-20.1 19-2.4-4-1.9-8.3.7-11.9-1.4 1.4-2.7 2.8-3.8 4.5-7.9-5.9.5-16 11.6-12.7-1 1.5-2.1 2.8-3.4 4 5.3-3.5 13-5.4 21.3-3.9zm0-4.2v2.1c-8.9-1.3-23.1 2.7-28.5-2.1h28.5zm-29.5 4.2c-.3 2.2-2.9 2.1-3.2 4.2-1.4-.3-.9-2.6-1-4.2h4.2zm-4.2-20.1h3.2v15.9c-4.3-2.1-3.2-9.6-3.2-15.9zm-39.1 0h36.9c1 6.8-1.3 16.2 0 24.3.9 5.6 6.1 10.5 7.4 16.9 4.7 23.8-1.8 53.8-2.1 78.2-10.1 5-30.6-.3-42.2 3.2-1.8-38.4-1.8-84.2 0-122.6zm-10.6 0h7.4c-2.7 20.9 6.7 59.5-7.4 65.5V7.9zm6.4 71.9c1.3 3 1.2 7.3 1.1 11.6-5.4-3.1-7.3-9.6-12.7-12.7 3.6-3.5 7.6 1.5 11.6 1.1zm1 14.8c-14.6 1.2-15.4-11.4-24.3-15.8 14-4.9 18.3 9.1 24.3 15.8zm-10.5 0c-15.5 1.7-16.3-11.2-25.3-15.8 13.7-5.1 21.1 11.1 25.3 15.8zm-12.7-3.2c-.2 1.5-5.3-1-8.4 0v-6.3c-2.3.1-.5 4.5-1.1 6.3-5-4.2-9.6-8.7-14.8-12.7 13.3-5.2 16.8 8.6 24.3 12.7zM930 78.7c12-4.6 15.8 8.1 23.2 11.6-11.5 9.1-15.6-7.3-23.2-11.6 3.5 5.8 12.5 11.2 12.7 16.9-10.1-.1-13.1-7.3-19-11.6 1-2.8 3-4.7 6.3-5.3zm-7.4 6.4c5.2 1.2 6.3 6.4 10.6 8.4-1.5 2.4-7.3.4-10.6 1.1v-9.5zm15.8 11.6c2.7 2.3-6.7 10-6.3 16.9h-6.3c.5 2.4 5.2.4 7.4 1.1.5 12.1 7.2 18.1 16.9 21.1-7.8 4.1-18 5.9-27.5 8.5V96.8h15.8zm-109.8 4.2h91.8c.6 15.9-1.3 34.4 1.1 48.6h-94c.7-15.8-1.4-34.5 1.1-48.6zm-1.1 101.4c3.1-12.1 14.4-18.6 22.2-26.4 8.1-8.1 15.4-17 24.3-24.3h14.8c.2.9-.4 1-1 1.1-8.4 9.9-18.3 18.3-27.5 27.5-2.4 2.4-4.7 5.3-7.1 8.1 11.6-11.6 26-25.3 37.7-36.7h14.8c-16.5 17.4-33.3 34.3-50.7 50.7h-12.7c-.8-1.2.3-3.1 2.1-5.2-4.4 3.4-9.8 5.7-16.9 5.2zm0-24.3c-.7-8.6.7-15.2 4.2-19.6-1.2 1.1-2.3 2.3-3.1 3.8-2.4-1.5-.4-7.4-1.1-10.6h10.6c-.8 1.4-1.9 2.6-3 3.7 4.2-3 10.1-4.2 17.8-3.7 1.6 3.8-6.9 9.1-11.6 13.7-1.3 1.3-2.5 2.6-3.6 4 6.4-6 14.4-10.4 19.5-17.7H872c-14.2 14.4-30.2 32.5-44.4 43.3-.6-9.2 1.8-15.5 5.4-20.5-1.9 1.9-3.7 3.3-5.5 3.6zm5 30.5c-1.4 1.3-2.9 2.7-3.9 4.4-2.4-1.1-.4-6.6-1.1-9.5h9.5c-1 1.7-2.3 3-3.7 4.3 4.5-3.9 11.4-5.3 20.6-4.3-4.5 4.6-9.6 10.4-14.6 15.5 5.7-4.7 12-8.8 15.7-15.5h9.5c-.5-2.4-5.2-.4-7.4-1.1 16.4-17.3 33.3-34.2 50.7-50.7h14.8c-31.1 31.3-64 66.3-95 94-.9-10.3 2.1-16.8 6.5-21.8-2.2 2-4.4 3.6-6.5 4.9-1-9.3.7-16 4.9-20.2zm17.2 18.1c8.7-8.7 15.7-16.4 22.2-23.3h5.3c-.2-1.2-1.9-.9-3.2-1.1 16.5-17.3 33.4-34.2 50.7-50.7h14.8c-15.9 17.5-33.7 33.2-49.6 50.7h-7.4c-.2 2.3 3.8.5 5.3 1.1-19.4 19.6-40.7 43.1-60.2 59.2-3.4-18.7 12.7-26.5 22.1-35.9zm-7.4 23.3c15.8-15.8 32.9-32.2 47.5-46.5h14.8c-25.1 25.3-52 54.3-77.1 76.1-3.2-15.1 6.6-21.3 14.8-29.6zm1.1 51.8c8.1-8.1 11.6-15.7 21.1-18-.8-2-3.1-.7-1.1-3.2 26.7-25 51.5-52 77.1-78.2 1.4 1.5 4.6 1 7.4 1.1-.1-2.3-4.5-.5-6.3-1.1 16.4-17.3 33.3-34.2 50.7-50.7h14.8c-15.6 17.2-33 32.5-48.6 49.7-1.2.9-2.8 1.4-5.3 1.1.8 2 3.1.7 1 3.2-26.3 24.8-50.6 51.5-76 77.1h-7.4c.2 1.2 1.9.9 3.2 1.1 1 4.5-5.6 7.8-9.5 11.6-11.2 11.2-25.5 27.9-37 35.9-3.2-16.8 6.8-20.5 15.9-29.6zm-51.8-188.1c-1.5-17 19.1-11.8 33.8-12.7v101.4h-13.7c2.5 2.4 9.5.4 13.7 1.1v79.3h-11.6c1.8 2.4 8.1.4 11.6 1.1v121.5h-12.7c-1.2-17.8 2.5-40.5-2.1-54.9-8.3-2.3-18.7-2.4-27.4-4.2V126.3c4.5-4.7 5.9-12.5 16.9-10.6-.5-3.1-8 .9-8.5-2.1zm21.2 293.7h6.3c-1.1 2.8-4.2 3.6-5.3 6.3-2.3-.1-.4-4.4-1-6.3zm-30.7-290.6c.1-2.3 4.5-.4 6.3-1.1-1.3 2.2-2.9 4.1-4.2 6.3-2.9.6.9-5.6-2.1-5.2zm-3.1-3.1c-9.2 2.5-22.9.4-33.8 1.1 9.3 4.8 32.8-4.6 37 5.3-19 4.2-50 2.1-70.7 1.1v-3.2c1.3-4.6 11-.9 15.8-2.1-2.7-3.7-14.9 2.2-15.8-3.2-.2-6.5 11-1.7 15.8-3.2-1.8-2.4-8.1-.4-11.6-1.1-7.1.3-2.3-1.9 2.1-1.1h71.8v7.4c-5.2.9-8.5-.1-11-1.9.1.3.3.6.4.9zm2.1 32.7c-2.7 1.6-7.8-4.6-11.5-8.3 3.5 4.4 6.7 9.1 10.4 12.6-2.9 1.4-3 5.4-6.3 6.3-8.4-4.1-14-11.1-19.8-17.9 5.3 6.7 9.5 14.1 14.5 17.9-19.7 8.4-30.3-22.9-43.8-30.4 10.8 9.4 22.3 25.5 29 32.5-12.7 6.8-19.6-6.9-27.4-14.8-6.8-6.8-15.4-11.4-14.8-19 2.7 1.6 9-2.1 11.6 0 .4.3.8.7 1.2 1 11.8-2.5 19.8 2.1 26 8.6-2.8-3.1-5.8-6.1-9.3-8.6 10.5-2.6 17.5.5 23 5.5-2-2.2-4-4.3-6.1-5.5 3.2-2.4 10.9-.4 15.8-1.1 4.4 5.3 9.4 9.8 7.5 21.2zM780 346c-7.5-3.1-4.2-14-4.2-20.1V158c2.4-.8 3.2-3.2 4.2-5.3 1.8 62 1.8 131.3 0 193.3zm-46.4-89.8h14.8c-2.9-2.4-10.2-.4-14.8-1.1.7-29.3-1.4-61.2 1.1-88.8 8.8-5.6 24.6-4.3 35.9-7.4 5.7 2.3 3.2 13.7 3.2 21.1v165c-12.6-2.9-29.3-1.6-39.1-7.4-2.5-25.1-.4-54.6-1.1-81.4zm41.2-129.9c.1-2.3 4.5-.4 6.3-1.1v7.4c-3.3-.9-3-5.4-6.3-6.3zm14.7-21.2h-5.3c.1-2.7 4.1-1.5 4.2-4.2 1.5.3 1 2.6 1.1 4.2zm-3.1-97.2c5.9 3.8 3.2 13.3 3.2 20.1v67.6c.2.9-.4 1-1.1 1.1-1.9.1-2.2-1.3-4.2-1.1 1.3-27.7-2.8-61.8 2.1-87.7zm3.1 89.8c-2.1 4.9-6 8.1-13.7 7.4 3.7-3.7 6.2-10.5 13.7-7.4zm-7.4-2.1c-2.9 5.2-5.6 10.6-14.8 9.5 2.1-4.3 7.6-5.1 9.5-9.5-3.8 1-7.7 8.2-10.4 9.4.1 0 .2-.1.4-.1 1-.4.8-.3 0 0-.2.1-.3.1-.5.2.1 0 .1-.1.2-.1-2 .6-6.1 1.5-7.6.1-.5-.5 1-2 2.9-3.7-3.3 2-7.4 3.6-11.4 3.7 3.4-4.7 8.6-7.6 12.7-11.6-6.4.3-9.2 13.3-21.1 11.6 3.9-5.6 9.8-9.2 13.7-14.8 9.8.9 17.8 3.4 26.4 5.3zm-26.3-6.3c-7.2 5.5-9.1 16.2-22.2 15.8 4.3-5.9 10.7-9.7 15.8-14.8-7.7 1.1-11 15.8-24.3 14.8 8.7-7.5 13.7-22.5 30.7-15.8zm-44.4-6.4c2.7-2.6 11.1.6 16.9 1.1-1.2 1.9-2.7 3.5-4.3 5 4.4-3 9.9-4.5 17-2.9-7 5.9-12.5 21.6-22.2 19-1.9-.5 10.6-14.7 15.8-18-7.7 1.8-12 16.1-23.2 18 2.3-4.2 4.9-8.8 8.4-12.4-2.6 2.2-5.2 4.4-7.3 7.1-3.9-7.4 5.1-11.1 8.4-14.8-2.2-1.1-6.3 5-8.4 7.4-3.2-1.2.7-9.6-1.1-9.5zM711 135c.1-1.1.2-2.3.4-3.5 10.5 8.9 19.1 19.6 29.6 28.5-2.8 2.8-8.8 2.5-8.4 8.5-7.3-9-19.8-12.8-21.4-27.4-.2 1.3-.4 2.7-.7 4.1l-2.1-1.8c1 1.4 1.8 2.8 2.1 3.9 1.3 4.5-1 8.3 0 11.6 2.4-1.1.4-6.6 1-9.5 7.6 10 22.7 12.5 20.1 32.7-1.4.5-2.9-.2-4.4-1.4 2.6 3.2 4.4 7.2 4.4 13-12.4.1-17.6-7-20.1-16.9-1.2.2-.9 1.9-1 3.2-1.7-1.5-3.3-3.1-4.9-4.6 2.6 2.8 4.5 5.1 4.9 6.8 1.2 4.1-.9 8.6 0 11.6-11.5-5.4-21.1-12.7-22.2-28.5-3.2-5.8-9-3.2-13.7-5.3-2-.9-4-2.1-5.8-3.4.9.8 1.7 1.6 2.6 2.3-9.2.3-18.5-1.7-24.8-7.3 1.4 1.5 2.9 3 4.7 4.1-4.7 1.5-10.3-5.2-11.6-10.6 1.7 1.1 3 2.4 4.4 3.8-3.8-4.8-5.7-11.6-4.4-20.7 6 5.2 11.5 10.9 17.1 16.6-5.8-6.9-11-14.5-17.1-19.8 3.2-.5 14.7-.2 16.9 2.1 7.1 7.2 16.9 16.4 27.5 27.5 3.9 4.1 9.6 9.2 14.6 14-14-14.2-27.1-29.3-42.1-42.5 8.9-2.9 15.4-.5 20.9 3.8-1.3-1.3-2.7-2.6-4-3.8 4.4-1.2 9.5-2.1 13.7-1.1 1.3.3 4.3 2.3 7.7 5-1.4-1.4-2.9-2.7-4.5-3.9 10.7-3.9 19-.3 20.6 8.9zm-.6 178.3h-21.1v-57H702c-2.1-2.4-8.8-.4-12.7-1.1V196h21.1v57.1c.5 2.3-1.5 2-3.2 2.1 5 .6 2.7 8.6 3.2 13.7 3.2-18.6-.1-47.1 1-72.9h20.1v59.2h-11.6c1.8 2.4 8.1.4 11.6 1.1v57.1h-20.1V287c-2.4 6.6-.3 17.8-1 26.3zm-21.2-119.4v-15.8c5.9 4.3 9.9 10.5 15.8 14.8-3.1 2.4-10.8.3-15.8 1zm22.2-10.6c4.1 2.5 6.4 7 10.6 9.5-1.5 2.4-7.3.4-10.6 1.1v-10.6zm20.1 132.1v4.2c-2.1-.3-2.1-2.9-4.2-3.2.3-1.4 2.6-.8 4.2-1zm1 22.2c-7.3-7.1-15.6-13.3-21.1-22.2 18.7-4.3 21.2 7.6 21.1 22.2zm-45.4-81.4v81.4c-9.7 5.8-26.5 4.5-39.1 7.4V159c13.5 2 28.9 2.1 39.1 7.4v88.8h-14.8c2.9 2.4 10.2.3 14.8 1zM638.6 122c-10.4-.6-24.4 2.6-27.5-5.3 7.4-2.5 19.4-.4 28.5-1.1-1.2 1.3-1.2 3.8-1 6.4zm4.2 224c-5.7-2.4-3.2-13.8-3.2-21.1V151.6c9.7 1.6 6.3 33.3 6.3 48.6v124.7c.1 6.8 2.6 16.3-3.1 21.1zm66.5-259.9c1.3 4.9-.2 9.1-3.2 12.3.8-.8 1.6-1.7 2.2-2.8 5.9 3.9-.9 12.2-8.5 9.5 1.2-2.1 3-3.6 4.7-5.2-3.1 2.6-7.1 4.4-11.1 5.2-.6-1.8 1-4 3.4-6.4-3.4 2.7-7.2 4.9-11.8 6.4-1.7-3.7 6.4-8.5 10.6-12.7 4.4-4.4 8.2-11.8 14.8-11.6-2.6 5.3-5.7 10.2-9.6 14.3 3.3-3 6.9-6.1 8.5-9zm-22.2 7.4c5.9-5.4 8-13.3 17.9-12.7-9.6 8-14.6 20.7-28.5 24.3-1.2-2.1.3-3.8 2.8-5.8-3.6 2.8-7.8 4.9-13.3 5.8 10.3-8.3 15.7-21.6 31.7-24.3-6.8 5.4-11.3 13.1-18.2 18.4 2.2-1.6 5.1-3.4 7.6-5.7zm-8.4-10.6c-4.9 4.2-8.8 9.4-13.4 13.9 5.1-4.2 12.2-9 14.5-14.9h8.4c-9.2 8.1-15.2 19.4-28.5 23.3-.4-2 .9-4 3.1-6.2-3.2 2.7-6.9 4.9-11.6 6.2-2.3-2.9 4-6.1 8.4-10.6 5.7-5.6 8-13.2 19.1-11.7zm-20.1 2.2c-4.2 3.2-7.1 7.8-10.5 11.7 4.5-4.2 10.4-8.9 12.7-12.8 1.7-.5 5.1.6 6.6-.1.3-.3.5-.6.8-.9-.1.5-.4.7-.8.9-5.3 6.5-12.8 18.6-24.6 21.3-.4-1.4.6-3.2 2.3-5.2-3.2 2.9-7.1 5-12.9 5.2 8.8-6.8 11.8-19.3 26.4-20.1zm-48.5 22.1h96.1c2.3-.8 6.7 1.1 2.1 1.1-6.4 1.9-9.1-2.7-13.7 0 1-.6 12.9.6 15.8 3.2-1.8 5.7-11.2 3.2-18 3.2h-20.1c10.2 3.2 27.8-1 38 2.1v3.2c-19 4.2-50 2.1-70.7 1.1-1.9-8.6 9.2-4.2 14.8-5.3-1.8-2.4-8.1-.4-11.6-1.1 1.7-6.7 11.6-5.3 20.1-5.3-8.4-3.4-19.2-.2-22.2 5.3h-30.6v-7.5zm2.1-99.3c4.9 22.3.7 53.9 2.1 80.3.3 1.7-1 1.8-1.1 3.2H610c1.4-26.4-2.7-59.1 2.2-83.5zm-5.3 8.5c2.5 22.9.4 50.4 1.1 75-6.8 2.7-16.5 2.5-24.3 4.2V28c12.6 1 20.9-2.3 23.2-11.6zm1.1 79.2c-3.7.4-18.6-.3-8.4-1.1 1.9-1.3 6.1-.2 7.4-2.1 1.1.2.8 2 1 3.2zm-24.3 2.1H608v16.9h-9.5c1.1 2.4 6.6.4 9.5 1.1v20.1h-4.2c-4.1 1-.8-5.6-3.2-6.3-9.7-2.6-10.4 3.7-14.8 6.3-4.9-8.5-.8-26-2.1-38.1zm15.8 33.8v24.3H591v-24.3h8.5zm-32.7 71.9c-11.7 12-25.8 25-37.3 36.9 4.3-4.3 9.6-8.1 14.1-12.6 10.3-10.3 18.6-17.4 25.3-25.4 5.8 18.2-13 27.8-23.2 38-3.5 3.5-6.5 6.8-9.4 10 2.5-2.3 5-4.5 7.3-6.8 10.6-10.6 18.7-17.1 25.3-25.3 6.1 19.1-12.8 28.6-23.2 39.1-9.7 9.7-16.5 18.9-24.3 23.2-1.4-9.1 1.7-15.9 6.4-21.7-2.1 1.9-4.2 3.5-6.4 4.8-1.8-10.3 1.9-17 7.4-22.6-2.2 2.3-4.3 4.6-6.3 6.8-2.2-3-6.7-3.9-10.6-5.3 21.7-24.1 46.9-44.6 68.6-68.7 6.1 15.7-5.5 21.1-13.7 29.6zm7.4-5.3c1.5-3.1 4.9-4.3 6.3-7.4 2 2.5-3.2 6.6-6.3 7.4zM569.9 326c-3 1.4-6.8-3.6-9.5-6.3-9.1-9.1-19.2-22.6-29.6-30.6 13.8-4.3 19.2 1.5 27.4 10.6-3.5-4.3-7.1-8.7-10.6-10.6 14.9-5 26 2.8 22.2 20.1-1.4.3-3-.5-4.7-1.9 3.8 4.5 6.3 10 4.8 18.7zm-9.5 33.8c-31.8 6.1-39.2-21.3-72.9-16.9 1.3-4.3-3.1-14.4 3.2-13.7-4.8-.5-2.8-7.7-3.2-12.7 38.4 1.4 61.5 18 82.3 37-8.9 16.5-18.6-6.3-29.6-9.5 7.2 4.8 12.8 11.2 20.2 15.8zm-73.9-82.4c-10.8-9.2-19.8-20.3-30.6-29.6 2.5-2.1 6.5-2.7 9.5-4.2 36.1 33.6 71 68.4 104.5 104.6-4.7 2-9-6.9-13.7-10.6-7.1-5.4-16.5-9.5-24.3-12.7-14.4-15.5-29.9-30-44.3-45.4V271c-2.3.1-.5 4.5-1.1 6.4zm0 65.5c-34.5-4.2-39.6 21-72.9 18 4.4-7.9 13.4-11.2 20.1-16.9-5.8 2.7-16.8 9.3-21.1 16.9-17.5-5.3 1.9-17.4 13.7-25.4 15.8-10.7 34.9-18.2 60.2-19-.8 12.4-.3 13.2 0 26.4zm-20-140.6c-21 21-44.5 44.7-63.4 61.3-3.6-17.6 9.9-23.7 20.1-33.8 16-16 33-33.4 48.3-49.1-1.7 1.6-3.5 3.1-5 4.7-21 21-44.5 44.7-63.4 61.3-3.6-17.5 9.9-23.7 20.1-33.8 21.1-21.1 44-44.7 62.3-63.4 3.1 8.3.7 14.9-3.7 20.7 1.2-1.3 2.5-2.5 3.7-3.8 3.1 8.3.7 14.9-3.7 20.7 1.2-1.3 2.5-2.5 3.7-3.8 3.5 9.4 0 16.6-5.4 22.8 1.8-2 3.6-3.9 5.4-5.9 1.3 4.5 2 9.9 1.1 13.7-.3 1.4-1.3 3.1-2.6 5 .5-.6 1.1-1.2 1.6-1.8 2.4 3.2.4 10.9 1.1 15.8-9.1 2.5-16.5 6.8-25.3 9.5l2.4-2.7c-1.3 1-2.4 2-3.4 2.7-2.2 1.7-4.6 2.8-7.4 3.2-8.9 16.8-24.6 26.8-37 40.2h-12.7c22-27.8 49.1-50.6 73.5-76-3.4 3.3-7.1 6.4-10.1 9.5-21 21-44.5 44.7-63.4 61.3-3.6-17.6 9.9-23.7 20.1-33.8 16-16 33-33.5 48.3-49.1-1.9 1.5-3.7 3.1-5.2 4.6zm93.9-87.7c6.2-2.2 14.1-2.8 21.1-4.2v14.8h-53.8c13.9-6.9 30.1-11.5 52.8-9.5-4.6-2.4-13.7-.4-20.1-1.1zM515 154.8c10.6-10.6 18.4-19.9 27.4-27.5h14.8c-22.6 22.8-47.1 49.4-69.7 68.7-1.5-10.6 3.4-18.7 9.9-25.4-3.3 3-6.6 5.9-9.9 8.5-3.5-17.8 10.2-23.9 19-32.8 7.2-7.2 12.7-14.3 19-19h14.8c-11.8 11.9-24.4 25.6-36.7 37.5 4.1-3.6 8.3-6.8 11.4-10zm-9.5 26.4c18.1-18.1 36.4-37.9 53.8-53.9h14.8c-28.2 28.4-58.3 60.7-86.6 85.6-3.7-16.8 9.1-22.7 18-31.7zM533 121c-1.3-2.4 4.4-6.8 10.6-5.3-2.2 3.1-7.8 2.8-10.6 5.3zm5.3-6.4c3.1-6 10.2-8.1 16.9-10.6-1.7 3.4-7.3 11.8-16.9 10.6zm-8.5 0c1.5-3.4 8.1-1.8 9.5-5.3 4.3 1.3-3.6 7.3-9.5 5.3zm5.3 1.1c-2.8 5.6-9.5 7.4-15.8 9.5 4.4-4 5.9-10.9 15.8-9.5zm-21.1 9.5c1-6 7.9-6.2 11.6-9.5-.5 2.3-5.1 9.7-11.6 9.5zm9.5 2.1c-11.3 11.5-24.5 26.8-35.9 34.9-2.9-21.6 13.1-24.3 21.1-34.9h14.8zM403.1 229.8c-3.7-18.1 12.1-25.9 22.2-35.9 22.3-22.3 44.8-46.4 66.5-66.6h14.8c-33.9 34.1-69.6 72-103.5 102.5zm177.4-72.9c5.7 15.3-6.2 23.2-15.8 32.7-13.3 13.4-23.3 21.2-37 34.9-9 9-15.3 22-27.4 13.7 21.7-26 48-47.5 71.4-71.9-3.4 3.3-7.1 6.4-10.2 9.5-20.8 20.9-45.1 43.3-63.3 60.2-3.7-.1-6-1.7-8.5-3.2-.5-5 5.4-7.6 8.5-10.6 25.9-25.9 56.4-55.7 82.3-82.4 3.5 9.5-.1 16.7-5.6 23 1.9-1.8 3.8-3.8 5.6-5.9zm-61.2 90.9v12.7c-7.7-6.1-13.5-14-21.1-20.1 5.5-.3 14.3 5.3 21.1 7.4zm0 14.8v12.7c-4.1 1-10.6-8.1-15.8-13.7-6.9-7.4-17.5-12.7-15.8-26.4 14.2 5.3 21.4 17.9 31.6 27.4zm-31.7-15.9c11.4 9.7 19.9 22.3 31.7 31.7v9.5h8.5c16.1 12 27.9 28.4 42.2 42.3v12.7c-4.4 1.2-6.6-4.5-9.5-7.4-22.7-22.7-49.6-48.9-72.9-71.8v-5.3c-1.2.2-.9 1.9-1.1 3.2-7-5.4-12-12.6-19-18 7.3-7.6 21.2-5.7 19 9.5 2.4-.2.5-4.5 1.1-6.4zm81.3 23.3c1.9 3 1.5 12.7 0 15.8H553c1.2-1.9 2.7-3.4 4.3-4.9-5.6 3.7-12.4 6.1-19.1 4.9-1.9-2.4 2.9-6.1 5.3-8.5 7.4-7.5 18.6-17 25.3-25.4 1.2 4.9 2.1 10.7 1.1 14.8-.5 2-2.3 4.8-4.9 7.6 1.5-1.2 2.8-2.7 3.9-4.3zm1 17.9v5.3c-2.4-.7-2.8-3.5-5.3-4.2-.1-2.3 3.8-.5 5.3-1.1zM552 267.8c-6.9 6.9-12.1 13.6-18 18h-12.7c13.1-19.6 32.6-32.9 47.5-50.7 6.2 17.5-7.8 23.7-16.8 32.7zm-65.5-24.3c-2.8-1.1-3.6-4.2-6.3-5.3.3-2.5 4.6-1 5.3-3.2 2.4.9.4 6 1 8.5zm-42.2 80.3c-10.9 8.2-20.4-5.7-28.5-13.7-7.1-7.1-14.8-13-12.7-22.2 1.6 1.1 5.5-1.5 7.4 0 .4.3.8.7 1.2 1 16.4-6 22.1 6.5 30.5 14.8 6.2 6.2 13.4 10.3 13.7 15.8-4.5-.2-6.8 1.7-9.5 3.2-8.5-7.4-16.2-15.7-24.1-23.7 7.9 8.5 15.5 18 22 24.8zm-11.6 3.2c-1.5 3.8-6.7 3.9-8.4 7.4-8.3-10.7-24.4-13.6-21.1-35.9 10.4 8.9 19 19.6 29.5 28.5zm17.9-57c1.9 3 1.5 12.7 0 15.8h-15.8c1.2-1.9 2.7-3.4 4.3-4.9-5.6 3.7-12.3 6.1-19 4.9-1.9-2.4 3-6.1 5.3-8.5 7.4-7.5 18.6-17 25.3-25.4 1.2 4.9 2.1 10.7 1.1 14.8-.5 2-2.3 4.8-4.9 7.6 1.3-1.3 2.7-2.7 3.7-4.3zm-22.1 19c24.1-5.4 29 17.4 43.3 25.3-3.4 2.6-9.3 2.7-13.7 4.2-9.5-10.2-19.3-20.1-29.6-29.5zm16.9 0c.8-2.4 5.9-.4 8.4-1.1v-7.4c12.1 9.7 20.7 23 32.7 32.7-22.7 5.2-27.4-16.8-41.1-24.2zm-42.3 26.4c6.6 6.4 14.2 11.9 19 20.1-2.4 1.8-5.3 3.1-7.4 5.3-8.5-3.8-13.7-11-11.6-25.4zm0 16.9c3.8 2.2 5.7 6.3 9.5 8.4-.9 5.4-6.8 5.9-8.4 10.6-1.6-2.5-.9-12-1.1-19zm67.6-37c-5.6-6.1-13-11.1-16.9-16.9v-14.8c11.3 10.5 22.3 21.4 32.7 32.7V310c-5.5.8-10.5-8.9-15.8-14.7zm0-16.9c-5.9-5.9-12.8-11.2-16.9-16.9v-13.7c12.4 9.1 22.1 20.9 32.7 31.7v12.7c-4.2 1.1-10.7-8.7-15.8-13.8zm16.9 16.9v-14.8c13.6 13.9 26.8 28.1 41.2 41.2-17.3-1-31.8-14-41.2-26.4zm19 20.1c-4.5 2-12.2-1.9-19-1.1v-16.9c6.9 5.4 12 12.6 19 18zM579.4 140c-26.2 30.2-66 64-91.9 89.8-3.7-18.1 12-25.7 22.2-35.9l45.4-45.4c7.8-7.8 13.8-17.8 24.3-21.1 4.9 3.1 1.8 10.6 0 12.6zm-11.6-29.6c4.3-4.5 7.7-9.9 13.7-12.7 1.9 10.7-5.6 12-13.7 12.7zm9.5-82.4c4.9 18.7.7 46.5 2.1 68.7-.7.5-1.4 1.3-2.1 2.1v.1h-.1c-4.2 4.6-9.1 12.6-17.9 13.7-.4-1.1.4-3 2-5.1-3.4 3.7-9 7.4-14.6 7.2 5.4-5.2 10-11.1 18-13.7.4 1.1-.5 3.1-2.1 5.2 3.4-3.7 9.1-7.4 14.7-7.3v-.1c-3.2-12.7-3.6-55.4 0-70.8zm-89.7 0h85.5c-.7 23.2 1.4 49.3-1.1 70.8-23.2 6-45.8 12.6-61.2 26.4h-23.2V28zm-1.1 102.5c-27.2 27.4-56.2 58.6-83.4 82.4-3.8-16.8 9-22.7 17.9-31.7 18.1-18.1 36.4-37.9 53.9-53.9 3.6.7 9.8-1.4 11.6 1.1.7.9 1.3 1.9 0 2.1zm-31.6-9.5c-2.3.9-3.6 2.7-7.4 2.1-2.5-2.5 1.7-2.8 2.1-5.3-3.2 2.7-5 5.4-9.5 2.1 3.8-8.4 17.9-1.8 19 5.3-2.8 0-6 .4-7.4-1.1.1-2 3.5-.7 3.2-3.1zm-41.2-9.5c3.1-3.5 6.4-7.8 12.7-5.3-2.1 3.5-7 8.8-12.7 5.3zm17.9-2.1c-1.8 3.5-5.6 7-10.6 4.2 2.5-3.5 6.1-8.6 10.6-4.2zm-23.2 2.1c-1.1-3.2 5.2-10.5 10.6-7.4-2.2 3.8-4.8 7.2-10.6 7.4zm-3.2-1.1c-2.5.4-2.3-1.9-5.3-1.1 4-3.7 5.3-9.8 12.7-7.4-1 4.3-4.6 6-7.4 8.5zm8.5 3.2c-4.9 2.4-14.4.4-21.1 1.1 21 .2 38.9 3.3 53.8 9.5-16.2 2.5-36.9.4-54.9 1.1v-14.8c8.1.3 13.7 3.1 22.2 3.1zm16.9 3.1c-.3-1.7 6.4-.4 11.6-1.1-2.4 6.5-6.2 2.3-11.6 1.1zm42.2 10.6c.2.9-.4 1-1.1 1.1-16.5 18.1-38 38-57 57.1-4.9 4.9-12.5 18.8-21.1 8.4 16.7-22.4 43.1-44.7 64.4-66.6h14.8zM400 28h86.6v97.2h-25.3c-7.2-12.1-20.6-12.3-32.7-10.6 3-8 9.3-3 15.8-1.1-13-6.7-27.4-12-44.3-14.8-.1-23.5-.1-47.1-.1-70.7zm5.2 71.8c.3 4-5.5 11.3-12.7 8.5 3.8-3.3 5-9.2 12.7-8.5zM395.7 28c4.9 19 .7 47.2 2.1 69.7-.9-.2-1.1-1.1-2.1-1.1-3.4-17.2-3.5-50.2 0-68.6zm-4.2 70.8c.8-1.2 5.4-1.4 7.4 1-1.5 3.1-4.9 4.3-6.3 7.4-3.3-1 .9-8.7-1.1-8.4zm8.7 67.7c-2.9 2.6-5.8 5.1-8.6 7.3-1.1-9.7 2.3-16.8 7.4-22.7-2.5 2.3-5 4.3-7.4 5.8-.3-8.4 1.1-15 4.4-19.8-1.2 1.2-2.3 2.5-3.3 3.9-2.4-2.5-.4-9.5-1.1-13.7h13.7c-1 1.5-2.2 2.8-3.4 4 5-3.1 11.7-4.5 20.3-4-4.9 5-10.2 10.9-15.6 16.4 6.5-5.5 13.5-10.4 17.7-16.4h14.8c-8.7 8.8-18 18.9-27.2 28.1 1.4-1.3 2.8-2.5 4-3.8 9.5-9.5 17.8-17.1 25.3-24.3H456c-20.9 21-43.5 45.9-64.4 63.4-1.5-10 2.8-17.7 8.6-24.2zM365.1 15.3c4.7 7.6 10.1 14.6 24.3 12.7v67.6c-6.8-3.4-17.2 2.7-24.3-1.1 1.4-4.7 8 2.1 13.7 0-3.8-1.8-9.9-1.4-13.7-3.2v-76zm24.3 82.4c-.7 12.3 1.4 27.5-1.1 38-6 2.1-3.3-4.5-5.3-6.3-7.2-.9-12.4.2-12.7 6.3H365v-20.1h9.5c-1.1-2.4-6.6-.4-9.5-1.1V97.6h24.4zm-7.4 58.1h-8.5v-24.3h8.5v24.3zM360.9 7.9c4.9 22.6.8 54.7 2.1 81.4.4 1.8-.8 2-2.1 2.1 0-1-1.3-.8-2.1-1.1 1.4-25.9-2.8-58.3 2.1-82.4zM363 103c-3.1 1.1-5.4 3-10.6 2.1 1.9-4.4 7.4-5.3 9.5-9.5 2.4.5.5 5.2 1.1 7.4zm-28.5 13.7c7-2.5 18.6-.4 27.5-1.1-.9 10-16.6 5.3-26.4 6.3-.6-1.4 1.2-5.3-1.1-5.2zM330.3 346c-5.7-5.2-3.2-14-3.2-21.1 0-53.5-.9-115.2 1.1-168 1.9-1 3.3-2.4 4.2-4.2.9-.2 1 .4 1.1 1.1-3.2 59 4.3 123.2 0 183.8-.2 1.9 2.2 8.9-3.2 8.4zm-12.7-219.7c3.2-2.4 10.9-.4 15.8-1.1V141c-1.4-1-2.6-2.1-3.8-3.3 3 5.1 3.5 11-.4 15.9-11.7-6.9-17.7-19.6-28.5-27.5 7.4-2.2 15-.4 20.9 3.4-1.2-1-2.5-2.2-4-3.2zm13.3-13.5c.1.2.3.5.4.8-1.8 2.4-8.1.4-11.6 1.1 3 3.7 16.4-3 14.8 5.3-19 4.2-50 2.1-70.7 1.1v-3.2c8.5-4.9 26-.8 38-2.1-9.9-3.8-29.8 2.4-38-3.2-.2-6.5 11-1.7 15.8-3.2-1.6-2.3-22.8-.2-11.6-2.1h95v7.4c-10.7-.7-24.3 1.7-32.1-1.9zM363 92.4c-4.6 5.9-8.1 13-19 12.7 5.7-4.4 10.3-14.6 19-12.7zm-6.3-2.1c-5.5 6.5-9.3 14.7-21.1 14.8 6.4-5 11.5-16.2 21.1-14.8zm-6.4-2.1c-6.3 7.1-10.5 16.3-23.2 16.9 7.2-5.7 12.9-17.8 23.2-16.9zm-6.3-1c-8.1 6.3-11.6 17.3-25.3 18 8.1-5.9 12.2-20.6 25.3-18zm-13.7-1.1c1.6-.6 3.7.4 5.3 0-7.8 6.3-11.2 17-23.2 19-.7-.4 1.6-3.7 4.8-7.4-3.8 3.8-8.3 6.9-15.4 7.4 8.6-6.5 12.2-18.1 26.4-19-3 2.4-5.4 5.3-7.9 8.2 3.7-3.8 7.7-7.4 10-8.2zm-9.5-1c-8.8 7.1-12.9 18.8-27.5 20.1.3-1 .7-1.8 1.3-2.6-2.6 2.1-5.6 3.4-9.7 2.6 10.7-8 15.6-25.1 35.9-20.1zM306 82.9c-8.7 7.8-14.4 18.6-27.5 22.2-2.7-3.6 4.6-6.1 9.5-10.6 5.8-5.1 7.5-12.9 18-11.6zm-8.5 0c-9.7 7.6-14.2 20.3-29.6 22.2 9.9-7 14.8-23.6 29.6-22.2zm-8.4-1c-8.3 7.9-14.4 18-25.3 23.3.6-3.5 3.5-8.1 7.4-12.3-2.7 2.2-5.4 4-7.4 4.9 2.1-9.5 7.4-15.8 17.9-16.9-1.3 2.4-3.2 4.9-5.4 7.2 4.2-3.4 8.8-5.9 12.8-6.2zm-25.3 0c.7-1.1 5.9-1.1 10.5-1.1-2.5 4.2-7 6.4-9.5 10.6-3.2-1.3.8-9.6-1-9.5zm0 59.2c8.4 6.8 14.9 15.4 23.2 22.2-6.5-11.9-29.8-18-21.1-38 5.6 6.9 13.2 13.7 20 20.3-6.5-7.5-12.5-16-18.9-19.2 13-3.8 22.7 4.1 30.5 13.1-4.6-5.5-9-10.8-13.6-13.1 25.2-5.2 30.4 18.9 43.3 29.6-10.7 4.4-19.2-4.1-26.9-13.2 5 6.1 9.2 12.3 13.2 15.3-7.9 3-14.5 0-20.5-5.2 2.2 2.5 4.2 4.9 5.7 7.3-3.4 1.5-8.9 1-11.6 3.2-2.2 3.4-5.3 5.9-4.2 12.7-8.5-9.8-22.7-13.5-19.1-35zM325 345c-12.5-3.3-30.4-1.2-39.1-8.5-2.4-24.7-.4-53.8-1.1-80.3h15.8c-3.2-2.4-10.9-.4-15.8-1.1.7-28.9-1.4-60.5 1.1-87.7 7.9-6.9 24.5-5.1 35.9-8.5 5.7 2.3 3.2 13.7 3.2 21.1v165zm-42.2-88.8v57.1h-19v-26.4c-2.5 6.7-.4 18-1.1 26.4h-21.1v-57.1h12.7c-2.1-2.4-8.8-.4-12.7-1.1v-59.2h21.1c.4 25.9-.7 52.6 0 72.9 3.2-18.6-.1-47.1 1.1-72.9h19v59.2h-10.6c1.5 2.5 7.4.5 10.6 1.1zM190.9 122c-4.2.3-2.9-4.9-6.3-5.3.5-2.4 5.2-.4 7.4-1.1-1.2 1.3-1.2 3.8-1.1 6.4zm71.8-10.5c.2 6.5-11 1.7-15.8 3.2 2.9 3.1 13-1 15.8 2.1v3.2c-19.4 4.9-47.9.7-70.7 2.1 1.3-13.2 25.6-3.3 37-6.3-9.2-2.5-22.9-.4-33.8-1.1.1-1.3.5-2.3 1.1-3.1-3.5 2-7.2 3.9-12.7 3.1v-7.4h72.8c4.5-.8 9.2 1.4 2.1 1.1-5.5.3-8.4.4-9.4.4 1.8-.1 8.8.3 13.6 2.7zm-64.4 13.7c10.3 11.9 25 24.9 32.7 35.9-13.8.2-20.6-5.8-28.5-13.7-6.7-6.8-12.2-9.3-10.6-22.2h6.4zm-6.3 29.6v-3.2c.9.5 1.9.9 2.1 2.1 5.7 13.4 3.2 30.2 3.2 46.5v124.7c0 6.8 2.7 16-3.2 21.1-4.9-59.3-.7-127.8-2.1-191.2zm0-16.9c7.3 5.7 12.8 13.3 20.1 19-11.8 2.9-22.4-4.4-20.1-19zm7.4 21.1c13.8 2.1 29.8 1.9 40.1 7.4v88.8h-13.7c2.5 2.4 9.5.4 13.7 1.1-.7 27.2 1.4 57-1.1 82.4-11.1 4.1-26.2 4.1-39.1 6.3V159zm42.2 180.7c3.3 5.6 8.8 9 13.4 13.3-4.7-4.7-10-11.7-14.5-14.3 2.2-3.5.6-10.7 1.1-15.8 3.8 5 9.5 8.3 14 12.7-1.5-1.8-3.1-3.8-4.5-5.3-4-4-11.3-7.5-9.5-14.8 6.7-.3 11.8 1.2 15.3 4.1-1.1-1.1-2.2-2.2-3.7-3 1.1-2.4 6.6-.4 9.5-1.1v9.5c-1.4-.8-2.5-1.8-3.5-2.9 3 4.1 4.2 10 3.5 17.7-1.3.9-2.9.1-4.5-1.4 3.5 4.4 5.8 10.2 4.5 19.4-1.7.4-3.9-1.1-6.3-3.3 4.7 4.8 8.1 11 6.3 22.4-11.9-10.3-21.9-22.5-33.8-32.8 4.5-1.3 8.9-2.5 12.7-4.4zm0-169.1c7.2 7.6 16.6 13 21.1 23.2-17.4 2.7-23.3-6.1-21.1-23.2zm6.3 22.2c-.1 2.3-4.5.4-6.3 1.1v-6.3c2.8 1 3.6 4.1 6.3 5.2zm33.8 1.1c-5.4.4-14.8-.6-16.9 0-1.6-1.3-.9-11-1.1-16.9-2.4 2.1-.4 8.8-1.1 12.7-7.6-8.3-18-13.6-22.2-25.4-17.6-8.8-26.2-26.6-41.2-38 15.3-5.8 23.1 6.2 31.7 14.8 16.7 16.7 34.3 36.8 49.6 51.8-17.3-21.4-46-46.3-63.4-67.6 16.1-3.8 21.4 7.6 29.6 15.8 12.3 12.3 24.4 25 35.9 37-.3 5.1 1.3 12.3-.9 15.8zm-19-38.1c-9.7-10-19-20.4-29.6-29.6 8.4-1.8 15.4-.6 20.6 3.1-1.1-1.1-2.3-2.2-3.7-3.1 2.2-2.4 8.8-.4 12.7-1.1v12.7c-1.5-1-2.8-2.2-4-3.4 3.5 5.3 5 12.6 4 21.4zm0-73.9c-4.1 4.1-7.3 9.2-11.1 13.6 3.8-3.4 8.1-7 10.1-10.4 1.1 5.2-.7 9.6-4 13 1.5-1.4 2.9-2.8 4-4.6 3.6 6.8-2 13.5-10.6 11.6 1.4-2.2 3.2-3.9 5-5.6-3.2 2.7-7.3 4.6-11.4 5.6-.4-1.6.7-3.5 2.5-5.5-3.4 2.8-7.5 4.8-13.1 5.5 6.3-8.5 16-13.6 22.2-22.2-11 6.5-14.7 20.5-30.6 22.2 12.7-9.5 15.3-24.4 37-23.2zm-49.6 9.5c-2.5 2-4.5 4.5-6.6 6.9 8.9-8.2 21.5-12.8 38.2-13.2-8.9 6.9-12.9 18.8-27.4 20.1 5-6.6 12.1-11.2 18-16.9-8.5 1.8-12.2 17.3-26.4 16.9 4.3-5.9 10.7-9.7 15.8-14.8-7.7 1.1-11 15.8-24.3 14.8 1-1.4 2.1-2.8 3.3-4.1-2.8 2.5-6.3 4.2-11.8 4.1 6.4-5.4 8.5-14.8 21.2-13.8zm-29.6 13.7c4.5-4.6 8.6-9.7 15.8-11.6 1.4 2.2-6.2 13.3-15.8 11.6zm7.4-8.4c-.9 3.3-5.5 3-6.3 6.3-1.4-.3-.9-2.6-1-4.2 2.3-.8 4-2.2 7.3-2.1zm-6.3-88.8c5.9 3.4 3.2 13.1 3.2 19v69.8h-2.1c-3.9-.8-2.1-12.6-2.1-20.1-.1-21.1-.9-48.8 1-68.7zm-70.8 194.4c-1.9-2.4 2.9-6.1 5.3-8.5 7.4-7.5 18.6-17 25.3-25.4 1.2 4.5 2.1 9.7 1.1 13.7-.3 1.2-.8 2.4-1.4 3.6.1-.1.2-.3.3-.4 2.4 3.2.4 10.9 1.1 15.8-3.8 2.2-11.4.6-16.9 1.1 1.3-1.7 2.7-3.3 4.2-4.8-5.6 3.6-12.4 5.7-19 4.9zm-55.9 70.8c21.8-21.9 46.7-48.2 69.7-69.7h14.8c-25.8 26.7-52.2 52.7-78.1 79.3H51.6c-1-3.5 3.8-7 6.3-9.6zm-57 60.2c-.9-4.6 5.8-7.9 9.5-11.6 11.7-11.7 25.4-27 38-38h14.8c-16.1 17-32.6 33.5-49.6 49.6H.9zm29.5 0H17.8c-.9-4.6 5.8-7.9 9.5-11.6 11.7-11.7 25.4-27 38-38h14.8c-16.1 17-32.7 33.5-49.7 49.6zm4.3 0c-.9-4.6 5.8-7.9 9.5-11.6 11.5-11.5 25.5-26.2 37-38h9.5c-.5-2.4-5.2-.4-7.4-1.1 12.3-14.7 26.1-27.9 39.7-41.3-14.7 13.5-30.4 26.6-40.8 41.3H68.5c-.7-3.6 3.7-6.7 6.3-9.5 21.4-22.6 47.1-48.6 70.7-69.7-2 2.8 2.6 11.5 0 14.8-.3.4-.7.8-1 1.2 3.2 9.2 0 16.3-5.3 22.4 1.8-1.9 3.5-3.8 5.3-5.7 2.1 10.7-1 17.8-5.9 23.5 2.3-2.2 4.4-4.3 5.9-6.6 2.1 9 .8 16.6-3.3 21.9 1.2-1.2 2.4-2.5 3.3-3.9 2.4 1.8.4 8.1 1.1 11.6H134c.9-1.4 2.1-2.7 3.2-3.9-4.7 3.3-11.1 4.8-19.1 3.9-1.3-3 7.2-10.4 11.6-14.8.3-.3.7-.7 1.1-1-6 4.8-12.3 9.4-15.8 15.8h-6.3c.3 1.4 2.6.9 4.2 1.1-15.2 17.6-31.8 33.7-48.6 49.7H51.6c-1-4.5 5.8-7.9 9.5-11.6 11.3-11.3 25.6-25.4 35.9-38h6.3c-.3-1.4-2.6-.9-4.2-1.1 11.5-12.7 24.1-24.3 36.1-36.6-4.6 4.4-9.9 8.3-13.9 12.3-24.8 24.8-49.7 53.1-73.9 75H34.7zm110.8 0h-11.6c.9-1.4 2-2.6 3.1-3.8-4.5 3-10.5 4.5-17.9 3.8-1.2-4.3 6.9-9 11.6-13.7 1.9-1.9 3.8-3.9 5.7-5.9-6.9 6.9-16.3 12-21.5 19.6h-12.7c-1.3-4.2 5.1-7.2 8.4-10.6 10.5-10.5 23.4-24.1 33.8-34.9 2 10.3-.8 17.3-5.5 23 2-2.2 3.8-4.2 5.5-6.1 2 8.4.7 15.6-3.1 20.7 1.1-1.1 2.2-2.4 3.1-3.8 2.5 1.9.4 8.2 1.1 11.7zm-19 6.4c6.6 11.3-7.8 18.5-19 19 1.3-1.9 2.9-3.6 4.6-5.2-3.7 3.1-8.3 5.3-15.1 5.2 6.8-8.4 15.4-14.9 22.2-23.2 2.1 1.4 5 2 7.4 3.2-4.9 3.6-8.1 8.8-12.4 13 4.2-3.8 9-7.2 12.3-12zm-15.8 45.4h18V402h-18v-16.9zm-2.1 0v22.2H63.2v-22.2h13.7c-2.5-2.4-9.5-.4-13.7-1.1v-23.2h45.4V384H94.9c2.4 2.5 9.4.5 13.7 1.1zm-64.4-30.6c-3.7-11.8 4.5-20.8 17.9-19-.5.7-1.1 1.3-1.6 1.9 1.3-.9 2.6-1.6 3.7-1.9 2.8-.8 5.7.6 8.5 0-9.6 9.8-18.2 20.5-29.6 28.5-.4-4.1 2.9-10.6 7.2-16.3-2.1 2.1-4.3 4.3-6.1 6.8zm36.9-21.2H68.5c-.9-4.6 5.8-7.9 9.5-11.6 11.5-11.5 25.1-26.6 37-38h15.8c-16.2 17-32.7 33.5-49.7 49.6zm51.7-49.6c3.9.7 10.5-1.4 12.7 1.1-14.3 17.7-31.4 32.7-47.5 48.6H85.3c-.9-4.6 5.8-7.9 9.5-11.6 11.7-11.8 25.5-27.1 38-38.1zM61.1 385.1V402H43.2v-16.9h17.9zm-18-1v-18H61v18H43.1zm5.3-20.1c-1.3-4.1 5.8-7.9 11.6-13.7 6.6-6.6 10.6-16.9 24.3-14.8-5.1 3.8-8.9 9-12.9 14 .8-.8 1.6-1.6 2.4-2.3 6.1-6.1 10-13.3 22.2-11.6-5.2 4.1-9 9.6-13.6 14.3 1-.9 2.1-1.7 3-2.6 6.2-5.7 9.6-13.2 21.1-11.6-4.4 3.2-7.5 7.8-10.9 12l.3-.3c6.1-6.1 10-13.3 22.2-11.6-10.3 7.6-13.5 22.4-30.6 23.2-.7-1.2.2-2.9 1.8-4.9-3.4 2.7-7.6 4.6-13.5 4.9-.9-1.6.2-3.3 2.1-5.2-3.4 2.5-7.5 4.5-12.7 5.2-.5-.9-.2-2 .7-3.3-4.4 4-9.7 7.3-17.5 8.3zm-9.5 20.1c-4.9-12-.7-33.1-2.1-48.6h9.5c-10.8 7.9-1 36.3-7.4 48.6zm5.3 58.1c-2.4-1.5-.4-7.4-1.1-10.6 2.7.4 3.2 3.2 6.3 3.2-1.7 2.5-3.7 4.6-5.2 7.4zm5-13.4c1 1.1 2.1 2.1 3.5 2.8-5.1 3.3-9.1-3.5-9.5-8.5 1.4.8 2.5 1.8 3.5 2.9-2.5-3.4-3.9-8.1-3.5-13.5 7.1 6.3 13.9 12.9 21.1 19-6.1 1.7-11.3.5-15.1-2.7zm37.2 2.8c-9 1.3-14.9-2.5-19.8-7.6 2.7 3.2 5.1 6.2 7.2 8.7-8.8 1.3-15.3-6.3-21.1-11.6-4.8-4.3-11.4-10.6-9.5-16.9 7.6 3.3 14.2 9.5 19.8 15.7-4.5-5.5-8.6-11.5-14.6-14.6 1.8-3.1 11.3.5 11.6-1.1 2.9 7.5 11.4 14.2 19.1 20.8-4.9-4.9-8.6-10.9-14.9-14.5 16.8-3.4 25.6 15.9 32.7 22.2-6.3-.1-10.8-2-14.4-4.7 1.4 1.2 2.7 2.4 3.9 3.6zm-10.6-21.1c16.9-3.9 24.7 16.1 31.7 22.2-17.1-.9-20.3-15.7-31.7-22.2zm11.7 0c15.8-2.7 24.8 16 31.7 22.2-18.4.4-20.1-15.9-31.7-22.2zm41.1 6.3c-1.6-1.1-3.1-2.4-4.4-3.8 2.9 3.4 4.6 7.9 4.4 14.4-2.7-2.5-6-4.7-9.1-7.1 3 3.8 5.2 7.8 7 10.3-10.8 3.4-19-15-28.5-20.1 5.9-1.6 10.9.1 14.9 3.1-1.7-2.6-2.7-5.6-2.3-9.4 4.3 2 8.5 4 11.8 7.1-2-2.2-4-4.3-6.5-6 1.8-3.1 11.3.5 11.6-1.1 1.3.7 1.1 7.6 1.1 12.6zm0-32.7h-18v-23.2c6.1-1.7 12.3-3.2 16.9-6.3 2.5 7.6.4 19.9 1.1 29.5zm-2.1-47.6c4.2-2.4 13-.4 19-1.1v69.7h-14.8V385h7.4c-.5-2.4-5.2-.4-7.4-1.1-1.9-15.2 4.4-38.7-4.2-47.4zm7.7 79.4l-2.4 3c-2.4-1.8-.4-8.1-1.1-11.6h10.6c-1.3 1.6-2.6 3.2-3.9 4.7 4.5-4 11.4-5.7 20.8-4.7-9.7 7.9-14.3 21-27.5 25.4-.2-7 .9-12.6 3.5-16.8zm1.8 16.8c.3-2.2 2.9-2.1 3.2-4.2 1.4.3.9 2.6 1.1 4.2H136zm15.9 0h-9.5v-5.3h9.5v5.3zm7.3-7.4h-15.8c4-6.6 10.2-10.9 14.8-16.9 2.4 3.5.4 11.6 1 16.9zm0-70.8v50.7h-11.6V283.7h12.7c-2.2-2.4-8.8-.4-12.7-1.1v-79.3h13.7c-2.5-2.4-9.5-.4-13.7-1.1V100.8c14 1.1 34.9-4.6 33.8 11.6.8 4-5 1.3-7.4 2.1 8.9-.1 11.4 6.2 15.8 10.6V346c-9.9 3.1-25.5.6-30.6 8.5zm68.7 70.8c-2.8-.7-5.9-2.9-9.2-5.8 1.7 1.9 3.4 3.9 5 5.8-11.9 2-19.9-4-26.6-11.3 3.6 3.8 6.8 7.6 9.7 11.3-9.7 1.1-16.7-2.2-22.4-7.1 2.2 2.5 4.1 4.8 5.5 7.1-8.4.5-15-1-19.7-4.3 1.2 1.2 2.4 2.3 3.8 3.2-2.2 2.4-8.8.4-12.7 1.1v-12.7c1.4 1 2.7 2.1 3.9 3.3-3.2-4.9-4.5-11.6-3.9-20.2 4.8 4.7 10.6 9.9 15.8 15.1-5.3-6.3-10-13.2-15.8-17.2v-14.8c11.3 11.1 24.6 23.3 35.5 34.9-4-4.4-7.5-9.1-11.2-12.7-9.3-9.3-17.9-16.3-24.3-24.3v-14.8c14 13.9 29.8 28.7 43.8 43.2-3.9-4.6-7.7-9.1-11.1-12.5l-16.9-16.9c-7.3-7.3-24-16.9-10.6-24.3 25.6 23 52.7 50.1 73.9 74-1.2-1-8.2.9-12.5-.1zm-3.2-18c-18.6-18.6-39.3-39.1-53.8-56 3.3-1.6 9.3-.5 12.7-2.1 23.5 25.8 53 51.2 73.9 76.1-16.3 3.1-23.3-8.5-32.8-18zm38 18c-27.7-22.6-54.6-51.7-77.1-76.1 3.2-1.4 9-.1 11.6-2.1 22.3 21.4 44.1 43.2 65.5 65.5v12.7zm8.9-4.2c1.1 1.1 2.3 2.2 3.7 3.1-1.8 2.4-8.1.4-11.6 1.1v-11.6c1.4.9 2.6 2 3.8 3.1-3.2-4.8-4.4-11.4-3.8-20 9.1 8.9 21.9 19.6 27.4 28.5-8.4.6-14.9-.8-19.5-4.2zm27.6-7c3.6 3.9 7 7.6 9.9 11.2-18.6 3.8-24.5-9.8-34.8-20.1-11.5-11.5-24-23.3-35.6-34.8 8.1 9.7 15.9 19.4 24 25.3v12.7c-3.4 2.2-5.2-3.2-7.4-5.3-17.4-16.7-40.6-38.8-54.9-56 3.6 1.1 9.8-3.6 13.7-1.1 1.9 1.2 3.7 2.6 5.5 4.2-1.5-1.7-3-3.5-4.4-5.2 3.3.6 10.9-2.9 13.7 0 19.2 19.6 46.3 43.9 66.4 65-2.5-2.8-4.9-5.6-7.3-7.9-9.3-9.3-16.6-17.3-24.3-24.3V363c20.7 20.1 45.6 41.7 62.3 62.3-11.5 1.7-19.8-4.2-26.8-11.2zm14.2-4.7c-16.5-16.5-35.1-32.8-49.6-48.6V345c26.3 26.1 56.4 54.1 79.2 80.3-16.2 3.6-21-7.3-29.6-15.9zm11.6-4.2c-20.7-20.8-42.1-42.8-61.2-62.3v-14.8c31.9 31.8 67.7 65.4 96.1 97.2-16.7 3.3-25.4-10.6-34.9-20.1zm38 18c-3.6 2-7.6-5.5-11.6-9.5-20.6-20.6-40.8-40.8-63.3-63.4-9.5-9.5-27.7-19.2-23.2-34.9h2.1c1.6 1 6.5 4.9 10.5 8.7-2.2-2.8-4.2-5.9-7.4-7.7 2.2-2.4 8.8-.4 12.7-1.1V329c-.6-.3-1.1-.7-1.6-1.1.7.8 1.2 1.5 1.6 2.1 2.9 5.1 2.5 15.1 13.7 12.7 21.6 23.1 45 44.5 66.5 67.6v12.9zm0-33.9c-4.2 1.3-7.2-5.1-10.6-8.5-6.1-6.1-13.4-13.2-20.5-20 2.6 2.8 5.2 5.7 7.8 8.4 8.6 8.6 16.2 16.9 23.2 24.3v12.7c-3.3 2.3-5.4-3.4-7.4-5.3-17.8-17.1-38.7-38.7-57-56 9.6-1.7 16.9 1.3 23.2 6.1-1.4-1.4-2.8-2.7-4.2-4 23.1-2.4 31.9 18.8 45.4 29.6v12.7zm0-14.7c-9.2-8.4-18.2-17-27.4-25.4 14.3-.9 32.6 3.2 27.4 25.4zm-6.3-22.2c2.5-2.8 6.9 1.5 6.3 5.3-2.8-1.1-3.5-4.2-6.3-5.3zM608 416.8H487.6v-23.2c-2.4 5.7-.4 15.8-1.1 23.2H365.1v-62.4c-4-8.7-20.3-5-29.6-8.5V124c8.8-1.4 24 3.6 26.4-4.2 2.4 3.6.4 11.6 1.1 16.9.5 3.1 8-.9 8.4 2.1v18c2.2 2.4 8.8.4 12.7 1.1 1.3-6.1-2.6-17.4 2.1-20.1 5.7 2.9 3.2 16.7 3.2 25.4 0 18.6-3.1 35 11.6 38v114.1c0 20.6-4.2 41.5 9.5 47.6 36 4.7 41-21.7 76-18v30.6c2.5-8.1.4-20.8 1.1-30.6 30.9-5.8 44.4 26.4 75 18 4.7-1.3 5.7-4.5 9.5-8.5V202.3c21.8-4.2 5.6-46.5 13.7-64.4 6.7.7 1.5 13.2 3.2 19 2.2 2.4 8.8.4 12.7 1.1v-18c-.7-4.2 5.8-1.2 8.4-2.1V121c.2-4.9 3.7 1.7 4.2 3.2h23.2v221.9c-8 1.5-16.2 2.8-25.3 3.2-8.9 15-2.1 45.7-4.2 67.5zm7.3 8.5c-.4-.3-.7-.7-1.1-1-.4 1.4-2.6.8-4.2 1V420c2.7.1 1.5 4.1 4.2 4.2-4.1-4.4-5-11.9-4.2-21.1 8.2 5.9 12.9 15.2 21.1 21.1-3.1 2.5-10.8.4-15.8 1.1zm6.4-11.7c-6.5-7.1-14.8-12.1-11.6-27.5 12.8 11.9 27.7 27.2 37 39.1-14.6 2.6-17.7-3.1-25.4-11.6zm46.4 11.7c-2.8-.7-5.8-2.7-8.8-5.3 1.6 1.8 3.1 3.6 4.6 5.3-17.6 3.3-25.4-11-33.8-20.1-7.7-8.4-14.4-14.6-20.1-21.1v-14.8c11.2 10.7 23.3 22.7 34.3 34.4-2.2-2.7-4.2-5.1-5.8-6.9-10.6-11.6-20.3-20.3-28.5-29.6v-11.6c.9-.6 1.9-1.3 2.1 0 22.8 22.6 49.4 47.1 68.6 69.7-3.7-.9-8.1 1.1-12.6 0zm42.3-9.5c-1.4.7-2.9 0-4.3-1.1 2.4 3.1 4.2 6.5 4.3 10.7-11.7 2.2-19-8.4-25.3-14.8-6.6-6.6-13.5-13.5-20.4-20.5 11.8 13.2 23.1 26 33.1 35.3-16.9 3.6-22.4-8.7-31.7-18-18.3-18.3-38.8-36.5-53.8-54.9 2.1.4 10.4-3.9 12.7-2.1 3.3 2.7 6.6 5.6 10 8.7-2.7-2.9-5.3-5.8-7.8-8.7 3.7-1.2 8.7-1.2 12.7-2.1.2.9 1.1 1.1 1.1 2.1 14.3 14 28.5 27.8 42.9 41.9-14.8-14.9-30.1-31-41.8-44.1 4.4-.9 11.5-2.3 13.7 0 15.8 16.1 40.5 38.8 54.9 54.9-.3 4.2-.3 8.4-.3 12.7zm1 9.5v-4.2c2.2.3 2.1 2.9 4.2 3.2-.3 1.3-2.6.8-4.2 1zm24.3 0c-1.2-.3-4.3-2.4-7.7-5.1 1.5 1.8 2.7 3.5 3.5 5.1-16.8 3-22.7-4.7-20.1-21.1.4.4.9.9 1.4 1.3-.6-.9-1.1-1.7-1.4-2.4-1.1-2.9.9-5.5 0-7.4-2.3-.2-.5 3.7-1 5.3-18.9-17.3-36-36.5-54.9-53.9 2.6-2.6 9.7-.9 12.7-3.2 14.7 13.1 27.5 28.1 42.2 41.2v5.3c1.2-.2.9-1.9 1-3.2 13.3 11.7 24.7 25.3 38 37-4.4 1.3-9.9 2-13.7 1.1zm20.4-10.5c3.3 3.6 6.4 7.1 9.2 10.5-17.5 3.7-24.1-10.4-33.8-20.1-20.8-20.9-44.2-41.9-60.2-61.3 9.4-.8 19.8-.7 18-12.7 1.8 3.1 7.6 7 12.8 11.7-4.5-4.5-9.5-10.7-12.8-13.8v-13.7c4.4 3.3 9.4 6.1 13.5 9.8-2.9-3.1-5.8-6.2-9.2-8.7 3.2-2.4 10.9-.4 15.8-1.1 2.2 3.8.5 11.4 1.1 16.9-2-1.5-3.8-3.2-5.5-4.9 4.1 4.7 6.7 10.9 5.5 20.8-1.5.3-3.4-.9-5.7-2.8 3.2 3.2 5.8 6.6 6.7 10.4v-2.3c23.7 23.5 52 48 71.8 71.9-11.6 1.5-20.1-3.7-27.2-10.6zm11.3-7.5c-18.8-18.8-38.7-38.3-56-56v-15.9c29.5 29.3 62.7 60.5 88.7 89.8-16.1 3.4-23.6-8.8-32.7-17.9zm14.7-2.1c-23.4-23.4-46.9-47.6-70.7-71.9v-12.7c-.3-1.9 1-2.2 1.1-1.1 26.7 24.5 50 51.1 76 77.1 7.9 7.9 21 15.1 22.2 28.5-12.9-.2-21-12.4-28.6-19.9zm28.6 9.5c-4.3 1.4-6.2-4.1-8.4-6.3-20.3-20.3-45.6-44.7-65.5-66.6 17.3-1.5 31.6 16.8 45.4 30.6 10.8 10.8 20.3 21 28.5 29.6v12.7zm0-16.9c-3.2 1.1-9.3-6.1-13.7-10.6-12.7-12.7-27.6-29.1-41.2-41.2 29.9-2.8 37.1 26.2 54.9 39.1v12.7zm0-16.9c-4.4.7-11.7-9.2-16.9-14.8-5.9-6.4-12.2-13.3-18-18 9.7-.4 18.7 2.2 25.1 7.8-1.5-1.7-3.1-3.4-5.1-4.6 3.1-3 7.6 1.5 12.7 0 2.8 2.9 2.1 9.2 2.1 14.8-1.6-1-2.9-2.1-4.1-3.4 2.9 4.8 4.4 10.9 4.2 18.2zm2.1 44.4c-2-15.8 7.9-19.6 23.2-18-8.1 5.7-9.1 18.4-23.2 18zm17.9 7.4h-9.5v-5.3h9.5v5.3zm11.6 0h-9.5c-.9-7.6 6.4-7 8.4-11.6 2.5 1.8.5 8 1.1 11.6zm-21.1-7.4c7.4-5.7 9.2-16.9 21.1-18 1.5 17.8-6.4 20.8-21.1 18zm21.1-41.2H836c.1 2.3 4.5.5 6.3 1.1v20.1h-14.8v-69.7h19c-7.7 9.7-2.8 32.2-4.2 48.5zm8.2 44.7c1 1.1 2.1 2.1 3.5 2.8-4.6 2.8-9.8-2.9-9.5-8.5 1.4.8 2.5 1.8 3.5 2.9-2.5-3.4-3.9-8.1-3.5-13.5 7.1 6.3 13.9 12.8 21.1 19-6 1.7-11.3.5-15.1-2.7zm33.4-.8c1.3 1.2 2.6 2.4 3.8 3.6-9.1 1.3-14.9-2.5-19.8-7.6 2.7 3.2 5.1 6.2 7.2 8.7-8.8 1.3-15.3-6.3-21.1-11.6-4.8-4.3-11.4-10.6-9.5-16.9 7.6 3.3 14.2 9.5 19.8 15.7-4.5-5.5-8.6-11.5-14.5-14.6 1.8-3.1 11.3.5 11.6-1.1 2.9 7.5 11.4 14.2 19.1 20.8-4.9-4.9-8.6-10.9-14.9-14.4 16.8-3.4 25.6 15.9 32.7 22.2-6.3-.2-10.8-2.1-14.4-4.8zm-6.7-17.5c16.9-3.9 24.7 16.1 31.7 22.2-17.1-.9-20.3-15.7-31.7-22.2zm11.6 0c15.8-2.7 24.8 16 31.7 22.2-18.4.4-20-15.9-31.7-22.2zm41.2 16.9c-2.3-3.4-6-5.8-9.5-8.3 3.2 3.7 5.9 7.9 8.5 11.4-12.5 3.7-19.3-14.7-29.6-20.1 6-1.2 10.7.2 14.7 2.9-1.7-2.4-2.7-5.3-2.1-9.2 4.3 2 8.5 4 11.8 7-2-2.2-4-4.3-6.5-6 1.8-3.1 11.3.5 11.6-1.1 1.3.8 1 7.6 1 12.7-1.6-1.1-3-2.4-4.4-3.8 2.9 3.5 4.7 8 4.5 14.5zM915.2 364c3.4-5.8 10.2-8.1 13.7-13.7 4.3 9.2-2.7 16.2-13.7 13.7zm11.6-27.5c1.1-2.4 6.6-.4 9.5-1.1-1.4 15.5 2.8 36.6-2.1 48.6-7.3-11 4.6-41.2-7.4-47.5zm5.3 96.2c-1.3-7.7.9-30 0-44.4v-3.2h2.1c3.8 4.5 2.1 16 2.1 25.3 0 8.2 3.2 21.2-4.2 22.3zm51.7 0h-45.4c-.1-26.4.2-48.1 0-72.9h45.4v72.9zm0-80.3c-3.2-2.4-5.9-5.2-8.6-8.1 3.5 4.1 6.2 8.9 8.6 13.3-20.7 2.4-21.9-14.7-33.8-21.1 10.1-2.7 17.2.1 22.6 5.1-1.8-1.8-3.6-3.5-5.7-5.1 3.2-2.4 10.9-.4 15.8-1.1 2.2 3.9.6 11.5 1.1 17zm14.8-4.3c7.5-6.9 10.2-14.1 22.2-12.7-11 11.2-23.8 26.2-34.8 33.8-2.3-10.6 5.7-14.8 12.6-21.1zM988 432.7c-4.9-10.3-.7-29.5-2.1-43.3 6.2 8.2 2.8 31.6 2.1 43.3zm4.2-12.7v10.6c-.9 5.7-1.4-3.2-1.1-5.3V402c8 .4 17.9-1 24.3 1.1V419c-6.4.8-10.2-1.1-10.6-6.3-1.1 6.7-10.7.1-12.6 7.3zm4.3-20.1c-1.8.2-2.7-1.8-3.2 0-3.1-1.5-.9-2.4-2.1-6.3 3.3.5 2.4-3.2 6.3-2.1-.4 3.5-3.2 4.6-5.3 6.3 1.1 2.5 5.4-6.2 4.3 2.1zm21.1 19c2.3-.3 1.3 2.6 2.8 3.1-1.7 0-4 4.7-7 2.2.3-2.5 2.8-2.4 4.2-1.1-1.2-1.5-1.2-2.6 0-4.2zm8.4-2.1c-2.6 2.6-6-6-7.4 1.1-1.4-.3-.9-2.6-1-4.2 2.5 2.3 7.7-2.8 8.4 3.1zm-.1-20.8c-.2 1.4 3.5 2.2 3.3 7.1-.2 1.2-1.1.6-1.1 0-.4-1.5-1.9-.1-2.1 1.1-1 .8-1-5.4-.1-8.2zm-2 21.9c-1 1.8-3.7 2.7-5.3 1.1.1-2.8 4-2.6 5.3-1.1zm-15.8 10.5c-2.4.3-1.2-3.1-3.2-3.2.2-1.2 1-.6 1.1 0 1.5-.6 2.6-1.7 3.2-3.2 1.3.5 2.2 1.3 2.1 3.2-.9-.2-1 .4-1.1 1.1-1 0-.8-1.3-1.1-2.1-2.9 1.1 1.6 2.8-1 4.2zm-4.2-1c-2 2-2.7.1-5.3 0 .4-2.8 5.6-5 5.3 0zm-4.3-9.5c-.4 1.2-1.9 2.7-2.1 1.1-2 .2-.6 3.6-2.1 4.2-2.8-1.9.7-6.3 4.2-5.3zm-2.1 3.1c1.4.4 1.7 1.9 3.2 2.1-1.3 3.2-3.1 3.4-5.3 1.1.4-1.4 1.9-1.7 2.1-3.2zm-1 9.6c.1-3.9 1.5-2.7 4.2-2.1-.1 3.8-1.5 2.6-4.2 2.1zm3.1 2.1c.3-2.4 2.8-2.4 4.2-1.1-2.7-2.3.9-5.9 3.2-3.2-1.5 2.4-2.8 5-7.4 4.3zm14.8-7.4c-2.3 2-5.2 3.3-7.4 5.3-1.7 2.3 4.9-8.4 7.4-5.3zm11.6 7.4c-4.6-.7-11.9 1.4-14.8-1.1 3.5-3.9 18.3-15.2 14.8 1.1zm-1-13.8c-.3-2.4 3-1.2 3.2-3.2 0-1-1.3-.8-2.1-1.1.8-1.9 1.9-.2 3.2 0-.5 2.8-1.9 6.7-4.3 4.3zm4.2 12.7c-2 2.6-.7-7-1.1-9.5 2-2.6.8 7 1.1 9.5zm17.9-32.7c-6.4 7.1-10.3 14.5-15.8 15.9.1-6.9 3.2-12.4 7.4-17.2-2.8 2.5-5.3 4.5-7.4 5.6.5-3.6-.4-5.9-1.1-8.4 2.1-1.9 4.2-3.9 6.3-5.9-3.6 3.3-7.2 5.4-10.5 3.8.4-3.1 2-5.8 4.1-8.2-4.2 3.2-8.6 5.4-13.6 5.1-.5-2.3 1-4.3 3-6.1-4 3.4-8.3 5.8-13.6 6.1-1-4.6 6.8-8.9 11.6-13.7 10.7-10.8 22.6-24 34-36-1.2 1.1-2.3 2.2-3.4 3.2l-33.8 33.8c-5.9 5.9-10.9 15.5-21.1 12.7-.5-1.5.1-2.9 1-4.1-2.4 1.7-5.1 2.7-8.4 2 1.8-9.4 10.5-15.8 16.9-22.2 16.4-16.4 34.6-32.3 51.3-49.6-3.1 3-6.5 5.9-9 8.4-19.3 19.3-42.4 40.6-59.1 56-1-12.2 9.8-17.3 15.8-23.2 6.5-6.5 12.7-13.4 19-20.1 1.2-.9 2.8-1.4 5.3-1.1 10.3-15.8 25.1-27 36.9-41.2 2.4 5.8-.2 11.3-4.3 16.3 1.4-1.6 2.9-3.1 4.3-4.7 5 11-10 19.5-17.9 27.5l-39.1 39.1c-1.9 1.9-3.8 4.4-5.7 6.7 19.4-19.6 43.8-42 62.7-62.7 2.3 5.3.7 9.9-2.5 14.1l2.5-2.5c1.5 6-1 11.7-5.1 16.9 1.7-1.8 3.4-3.6 5.1-5.3 1.5 5.1-.8 10.3-4.6 15.3 1.5-1.6 3-3.2 4.6-4.7 2.3 5.7 0 10.9-3.8 15.6 1.3-1.3 2.5-2.7 3.8-4 4.6 11.3-7.5 19.1-14.8 26.4l-1.7 1.7c6.3-5.5 13-10.5 16.5-16.5 2.1 5.2.7 9.2-2.2 12.8.7-.8 1.5-1.5 2.2-2.2 4.6 11.3-7.5 19.1-14.8 26.4-6.7 6.7-12.5 12.5-16.9 14.8-1.4-11.9 9.4-16.3 14.8-22.2 4.3-4.7 8.1-9.6 12.3-14.3-3.5 3.3-8 6.4-11.2 9.9zm-15.8 33.8c3.2-2.4 10.9-.4 15.8-1.1h16.9c-8.8 2.5-22.1.4-32.7 1.1zm31.7-25.4c.9 4.9 0 9.6-2.2 13.4.8-.9 1.5-1.9 2.2-2.8 2.4 1.5.4 7.3 1.1 10.6-2 1.9-7 .8-10.6 1.1 1.2-1.5 2.5-3.1 3.8-4.6-3.5 3.1-8.4 4.8-14.3 4.6.9-1 1.8-1.9 2.6-2.9-1.8 1.5-3.5 2.5-4.8 2.9-4 1.1-7.2-.9-9.5 0 8.9-12.9 21.9-21.7 31.7-33.8 1.5 2.6 1.6 5.9 1.1 8.5-.2 1-1.5 3.2-3.4 5.8.7-1 1.5-1.9 2.3-2.8zM1052.4 270c-5.5 5.6-8.3 14.8-19 12.7-2.7-2.9 3.1-5 5.3-7.4 7.3-7.8 16.6-18.8 24.3-26.4 4.5 11.3-2.8 13.1-10.6 21.1zM1328 371.4c-22.1 25.4-46.9 48.2-70.7 71.8h-12.7c-.7-3.7 3.6-6.8 6.3-9.5 15.4-15.4 31.3-30.2 48.6-47.6 7.5-7.4 17.1-25 28.5-14.7zm-13.7-4.2c-8.5 13.9-23.3 25.4-35.9 38-12.8 12.8-25 26.5-38 38h-12.7c-1.4-4.2 4.3-6.4 6.3-8.4 21.1-21.1 46.2-46.9 67.6-68.7 3.8.7 7.7 1.5 12.7 1.1zm-152.1-238.8V52.3h121.4c-.1 56.8-.1 100.6 0 157.4h-60.2v-42.3c-2.5 12-.4 28.5-1.1 42.3h-60.2v-75c-1.1-3.5 1.5-3.5 4.2-3.2.5-2.8-5.8 1-4.1-3.1zm0 83.4h5.3c-.7 2.5-3.5 2.8-4.2 5.3-2.3.2-.5-3.7-1.1-5.3zm-32.7 156.4c-3.8 6.1-11 8.7-14.8 14.8-2.4-8.1 5-15.5 14.8-14.8zm66.5-31.7c-27.3 27.3-57.3 57.5-82.3 80.3-3.5-19.1 14.9-28.6 26.4-40.2 20.2-20.2 41.5-41.9 61.1-61.9-1.9 1.7-3.6 3.3-5.2 4.9-27.3 27.3-57.3 57.5-82.3 80.3-3.8-21 11.2-23.3 19-32.8 12.8.8 18.1-5.9 25.3-10.6 2.1-23.5 17.6-32.4 32.7-47.5 11.8-11.9 21.7-22.4 30.6-31.7 2.6 8.1.1 15.1-4.4 21.4 1.5-1.5 3-3 4.4-4.5 2.6 8.1.1 15.1-4.4 21.4 1.5-1.5 3-3 4.4-4.5 2.6 8 .1 15.1-4.4 21.4 1.5-1.5 2.9-3 4.4-4.5 3.8 11.6-2.7 20.7-10.8 28.7 4-3.7 7.9-7.3 11.8-10.7v6.3c2.4-1.1.4-6.6 1-9.5 12.6-12.1 25-24.3 37.2-36.7-2.6 2.2-4.9 4.3-6.6 6-11.9 11.9-21.5 21.6-30.6 28.5.9-3.7-1.1-8.1 0-12.7.6-2.4 2.1-5 4.2-7.6-1.4 1.2-2.8 2.3-4.2 3.4.9-3.7-1.1-8.1 0-12.7.6-2.5 2.1-5 4.2-7.6-1.4 1.2-2.8 2.3-4.2 3.4.9-3.7-1.1-8.1 0-12.7.6-2.4 2.1-5 4.2-7.6-1.4 1.2-2.8 2.3-4.2 3.4.9-3.7-1.1-8.1 0-12.7.7-3 2.9-6.2 5.7-9.4-1.9 1.8-3.9 3.5-5.7 5.2v-4.2c-2.4.5-.4 5.2-1.1 7.4-20.5 18.2-40.6 42.5-60.2 58.1.9-3.7-1.1-8.1 0-12.7.8-3.1 3.1-6.5 6.1-9.8-2 1.9-4 3.7-6.1 5.5.9-3.7-1.1-8.1 0-12.7.6-2.4 2.1-5 4.2-7.6-1.4 1.2-2.8 2.3-4.2 3.4.9-3.7-1.1-8.1 0-12.7 2.6-10.6 22.1-23.2 29.6-30.6 3.1-3.1 6.1-6.2 9-9.1-13.9 12.9-28.7 25.2-38.5 35.5.9-3.6-1.1-8.2 0-12.7.7-2.6 2.4-5.4 4.8-8.3-1.6 1.4-3.2 2.8-4.8 4.1-1.8-10.5 2.5-17.6 8.2-23.7-2.8 2.5-5.5 4.8-8.2 6.8-1.1-10.2 1.7-16.5 6-21.3-2.1 1.9-4.2 3.4-6 4.4-2.9-17.3 5.2-23.7 22.2-21.1-3.6 3.7-7.8 8.5-11.9 12.7 4.8-4.1 10.3-7.5 14-12.7h14.8c-7.3 7.4-15.2 16.1-23.1 23.9 1.4-1.3 2.8-2.5 4.1-3.8 7.7-7.7 15-14.3 21.1-20.1h14.8c-11.6 11.7-24 25-36.1 36.9 3.8-3.2 7.4-6 9.7-8.4 11.3-11.3 19.1-22.4 30.6-28.5-1.8 2.2 2.3 10.8 0 13.7-.3.4-.7.8-1 1.2.9 4.4 2.3 8.4 1 13.6-.3 1.2-.9 2.4-1.6 3.7l.6-.6c2.4.5.4 5.2 1.1 7.4 1.6-8.2 5.5-14.1 10.3-19.1-3.2 3-6.3 5.6-9.2 7.4-.6-8.5.8-15 4.2-19.6-1.1 1.1-2.2 2.3-3.1 3.7-2.4-1.8-.4-8.1-1.1-11.6h11.6c-.9 1.4-2 2.6-3.1 3.8 4.7-3.2 11.4-4.5 20-3.8-4.9 5-10.3 11.1-15.7 16.6 6-5.5 12.7-10.2 17.8-16.6h14.8c-29.6 29.7-60.5 62.2-90.5 90.7 5.2-4.4 10.4-8.4 13.5-11.5 11.4-11.4 20.6-21.3 29.6-30.6 1.2.2.9 1.9 1.1 3.2 12.7-20.8 32.4-34.5 48.6-51.8h12.7c-11.9 15.4-26.8 30.5-41.2 43.9 4.2-3.4 8.1-6.5 10.6-9.1 11.4-11.4 20.6-21.3 29.6-30.6.9 4.4 2.4 8.5 1.1 13.7-.3 1.2-.9 2.4-1.6 3.7l.6-.6c.9 4.4 2.4 8.5 1.1 13.7-.3 1.2-.9 2.5-1.6 3.8l.6-.6c.9 4.5 2.4 8.5 1.1 13.7-.3 1.2-.9 2.5-1.6 3.8l.6-.6c.9 4.4 2.4 8.5 1.1 13.7-.3 1.2-.9 2.4-1.6 3.7l.6-.6c6.1 17.2-6.6 22.5-16.9 32.8-41.7 41.7-85.7 87.2-126.7 126.8H1127c-1.1-1.7.3-3.6 2.4-5.5-4.4 3.4-9.3 5.7-15 5.5 1.7-14 15.6-22 24.3-30.6 20.9-20.9 41.9-42.3 63.1-63.9-1.8 1.6-3.5 3.2-5 4.7-27.3 27.3-57.3 57.5-82.3 80.3-3.5-19.1 14.9-28.6 26.4-40.1 20.2-20.2 41.5-41.9 61.2-62-2.7 2.2-4.5 3.8-6.1 5.4zm14.8 114.1c-29.8 1.1-68 0-97.1-1.1v-2.1c-.2-1.2.2-1.9 1.1-2.1 34.4 1.4 75.2-2.8 107.7 2.1-.7 5.8-8.6 3.1-11.7 3.2zm11.6-7.4h-13.7c1-1.5 2.2-2.8 3.4-4-4.7 3-10.9 4.4-18.2 4-.9-4.6 7.7-9.8 12.7-14.8 2.1-2.1 4.1-4.2 6.1-6.3-7.7 7.6-18.1 13.6-23 21.1H1177c-.5-3.8 4.9-8.1 8.5-11.6 6.1-6.1 13.2-12.8 20.1-19.5-2.6 2.4-5.2 4.6-7.5 6.9-9.5 9.6-18.1 17.4-25.3 24.3h-12.7c-2.3-3.3 3.4-5.4 5.3-7.4 17.1-17.9 38.6-38.7 56-57.1 2.6 9.1-.3 16.4-5.3 22.7 1.8-1.9 3.6-3.9 5.3-5.8 2.5 9.7-.5 16.9-5.5 22.9 2-2.1 3.8-4.2 5.5-6 1.7 8.2.5 15.3-3 20.5 1.1-1.1 2.1-2.3 3-3.6 2.4 2.5.3 9.5 1 13.7zm1.1-17.9c-1.6-10.7 3.3-18.6 10-25.3-3.4 2.9-6.7 5.7-10 8.3.9-3.7-1.1-8.1 0-12.7.6-2.5 2.1-5 4.2-7.6-1.4 1.2-2.8 2.3-4.2 3.4.9-3.7-1.1-8.1 0-12.7.6-2.4 2.1-5 4.2-7.6-1.4 1.2-2.8 2.3-4.2 3.4v-4.2c-2.4.5-.4 5.2-1.1 7.4-22.8 21.2-43.7 44.3-66.5 65.5h-12.7c-1.2-4.3 4.5-6.6 7.4-9.5 22-22 47.5-48.2 69.7-70.8 2.4-2.1 1.2.3 3.2 1.1-.3-2.5.2-4.1 1.1-5.3 19.8-18.9 39.2-38.3 58.1-58.1.9 4.4 2.4 8.5 1.1 13.7-.3 1.2-.9 2.5-1.6 3.8l.6-.6c.9 4.5 2.4 8.5 1.1 13.7-.3 1.2-.9 2.4-1.6 3.7l.6-.6c3 2.7-1.1 12.4 3.2 13.7-14.6 14.9-30.3 31.7-45.8 46 4.6-3.8 9.3-7.4 13-11.1 13.5-13.5 22-22.7 31.7-32.8 4.5.1 2.1 7.1 6.3 7.4-14.3 16.2-30.7 33.1-46.5 48.3 4.5-3.8 8.8-7.4 11.7-10.2 14.3-14.4 24.2-24.9 34.8-35.9 5.1.1 6.1 4.4 10.6 5.3-25.4 25.6-52.7 55-78.1 77.1.9-3.6-1.1-8.2 0-12.7.7-2.9 2.9-6.1 5.8-9.4-2.3 1.9-4.2 3.6-6.1 5.3zm0 23.2c1.9-5.7 11.2-3.2 18-3.2h23.2c.1 1.9-1.3 2.2-1.1 4.2-10.7 1.1-31.2 3.2-40.1-1zm106.6-43.3c5.6 21.1-13 27.2-21.1 38h-12.7c-.7-5.2 10.3-11.9 15.8-18 3.7-4 7.1-8.3 10.6-12.2-3.4 3.4-7.3 6.6-10.6 10.1-7.3 8-13.9 15-20.1 20.1h-12.7c-.5-5 6.5-8.6 10.6-12.7 12.8-12.9 27-29.5 40.1-42.3 2.9 8.8.7 15.1-3.4 20.3 1.2-1.1 2.4-2.2 3.5-3.3zm1 41.2c-1.2 5.8-9.7 3-13.7 3.2-15.1.5-34.9-.4-50.7 0-1.8.4-2-.8-2.1-2.1 17.7-4.2 47.1-2.2 66.5-1.1zm0 5.3v5.3c-2.5-.7-2.8-3.5-5.3-4.2-.1-2.3 3.8-.5 5.3-1.1zm-7.3 10.6c-11.1 5.1-15.3-5.8-21.1-9.5 11-5.2 15.3 5.7 21.1 9.5zm-54.9-9.6c11.1-5.1 15.3 5.8 21.1 9.5-11.1 5.2-15.3-5.7-21.1-9.5zm9.5 9.6c-8.6 4.6-17.3-5-16.9-9.5 8.7-4 11.1 7 16.9 9.5zm-10.6 16.9c-4.3-1.8-2.9-6.3-1.1-9.5 2.4 1.1.4 6.6 1.1 9.5zm-2.1-9.6c-4.7-.9-5.3-5.9-8.5-8.4-.8-3.3 2.9-2 2.1-5.3 4.8.8 5.6 5.7 9.5 7.4-.4 2.8-3.1 3.2-3.1 6.3zm33.8 4.3h-10.6c1.5 2.4 7.4.4 10.6 1.1v8.4h-29.6v-18h29.6v8.5zm-19-21.2c11.1-5.1 15.3 5.8 21.1 9.5-11.1 5.2-15.3-5.7-21.1-9.5zm11.6 0c10.6-4.9 14.2 6.2 20.1 9.5-10.6 5-14.3-6.1-20.1-9.5zm11.6 30.7v-8.5h15.8c-3.2-2.4-10.9-.4-15.8-1.1v-8.4h27.4v8.4h-5.3c-.2 2.3 3.7.5 5.3 1.1v8.5h-27.4zm22.2 3.2c-.2-2.3 3.7-.5 5.3-1.1v5.3c-2.5-.7-2.9-3.5-5.3-4.2zm5.2-23.3c-10.3 1.1-10.6-7.7-16.9-10.6 8.5-3.5 17.6 1.5 16.9 10.6zm-4.2-20.1h-15.8c6.3-7.1 12.8-14 19-21.1 2.8 6.8.9 17.8-3.2 21.1zm-9.5-43.3c-13.5 13.5-29.5 32.9-42.2 43.3h-13.7c-1.9-3.7 3.5-5.5 5.3-7.4 18.9-19.7 42.1-42.2 61.2-62.3 10.4 11.4-3.5 19.3-10.6 26.4z"/><path class="st0" d="M1278.7 0c-.2.3-.5.7-.7 1 .3-.3.6-.7 1-1h-.3zM41.9 500c-.2-4.1-.4-8.2-.5-12.3-.1 4.1-.1 8.2-.2 12.3h.7zm1181.6 0v-28.2c-.9 8.9-1.2 18.5-1.2 28.2h1.2zm72.1-369.5c-3.2-.4-6.1-.6-8.1.1 2.6.1 5.4 0 8.1-.1zm17.6 1c-4.6-1.6-11.1-1.3-17.6-1 7 .9 15.2 3.1 17.6 1zM565 274.4c-2.5 2.3-5.2 4.3-7.7 6.5 3-2 5.6-4.2 7.7-6.5zm-61.4-109.6c-2.1 1.8-4.2 3.8-6.2 5.8 2.1-1.9 4.2-3.8 6.2-5.8zM1293.2 500h1.2c-2.1-2-4.1-4-6.2-6 1.7 1.9 3.3 4 5 6zM446.8 274.4c-2.5 2.3-5.3 4.3-7.7 6.5 3-1.9 5.6-4.3 7.7-6.5zm-35.1 14.5h-.2c3.7 3.2 7.2 6.6 10.7 10.1-3.4-3.6-6.9-7.1-10.5-10.1zm642.5-165.8c-3.6 3.6-7.5 6.8-10.2 9.5-1.8 1.8-3.6 3.7-5.4 5.6 2.3-1.9 4.5-3.7 6.4-5.6 3.3-3.3 6.4-6.5 9.2-9.5zm-15.6 15.1c-2.5 2.1-5 4.3-7.1 6.7 2.5-1.9 4.8-4.2 7.1-6.7zm14.2-25.4c-5.3 5.1-11.3 9.6-15.2 13.5-3.5 3.5-6.7 7.3-9.8 10.9 7.6-7.6 16.8-16.1 25-24.4z"/><path class="st0" d="M1027.9 137.1c-.3.2-.5.5-.8.8-1.8 1.8-4.2 3.9-6 6 2.3-2 4.6-4.3 6.8-6.8zM914.1 413.3c1.6 2.2 3.9 4 6.4 5.8-2-2.2-4.1-4.2-6.4-5.8zm304.2 19.8c-2 2.1-4.2 4-6.3 6.1 2.6-1.6 4.7-3.6 6.3-6.1zm-2.2-31.6c-3.3 3.5-6.9 7.1-10.5 10.6 3.7-3.3 7.4-6.8 10.5-10.6zm-1083.3-204c5-3.1 9.1-7.3 11.3-11.7-3.3 4.4-7.5 7.8-11.3 11.7zm879 69.3c-4.4 4.7-9.4 8.9-13.6 13.8 4.4-3.1 9.8-8.9 13.6-13.8zm3.7-105.5v-.1c-4 4.2-8.5 8.9-13.1 13.7 4.7-4.5 9.3-9 13.1-13.6zm-4.4 72c-3.2 3.4-6.6 6.8-10 10.4 3.7-3.2 7.2-6.6 10-10.4zm.8 16.1c-2.3 2.4-4.7 5-7.2 7.6 2.6-2.4 5.1-4.9 7.2-7.6zm-69.3 34.3c-7.1 7.5-14.4 15-21.7 22.3 7.8-7.8 15.7-15.6 23.8-23.4h-5.3c.2 1.3 2 .9 3.2 1.1zm-89.4-95.4l-1.4 1.4c-2.1 2.1-5.2 4.9-7.4 7.4 3.3-2.5 6.2-5.7 8.8-8.8zM1217 332.5l-15.9 16.2c5.3-4.9 11.5-10.2 15.9-16.2zM112.9 413.6c1.7 2.5 4 4.7 6.6 6.7-1.9-2.5-4.1-4.9-6.6-6.7zm777.7-59.8c2.4-1.9 4.4-4.1 6.3-6.4-2.3 2.3-4.7 4.5-6.3 6.4zM60.5 337.4c-3.3 2.3-7 6.1-10.2 10.3 3.5-3.4 7.1-6.6 10.2-10.3zm78-77.8c-2.5 2.4-5.2 4.7-7.8 7.2 2.8-2.2 5.5-4.6 7.8-7.2zM41.4 487.7c.1-9.5.2-19.1.1-28.7-.6 8.4-.5 18.5-.1 28.7zm103.1-268.3v-.1c-6.9 7.6-14.2 14.9-21.5 22.1 7.7-7.1 15.2-14.4 21.5-22zM66 355.4c1.9-1.9 3.7-3.9 5.4-5.9-2.3 2.1-4.3 4.1-5.4 5.9zm23.3-1.6c2.4-1.9 4.4-4.1 6.3-6.4-2.3 2.3-4.7 4.5-6.3 6.4zm778.9.3c2.3-1.8 4.4-4.1 6.4-6.6-2.3 2.3-4.8 4.6-6.4 6.6zM677.4 130c2.6 2.4 5.1 4.9 7.8 7.5-2.5-2.6-5-5.3-7.8-7.5zm33 34.3v7.4c2.3.2.5-3.7 1-5.3 3.2 4.4 7.9 7.2 12 10.7-1.9-2.2-3.8-4.7-5.6-6.5-10.1-10.1-21.5-22.1-32.6-33.1 2.1 2.3 4.1 4.6 6.2 6.7 7.4 7.5 12.6 15.4 19 20.1zm-15.6-34.1c4.6 4.3 8.7 9.2 13.5 13.3-3.1-4.3-8.7-9.5-13.5-13.3zM656.7 145c3.7 4.4 7.5 8.5 12 11.7-4.2-3.8-8.1-7.7-12-11.7zm41.9 23.7c2.3 2.3 4.5 4.5 6.8 6.7-1.9-2-4.3-4.3-6.8-6.7zM321.8 351.1c3.3 3.1 6.7 6.5 10.2 9.8-3.3-3.5-6.6-7-10.2-9.8zm389.3-209.9c.3-2.3.2-4.3-.1-6.2-.2 2.2-.1 4.3.1 6.2zM801 355.9c1.9 2.2 3.6 4.6 5.6 6.8-1.6-2.6-3.4-4.9-5.6-6.8zm-37.1-224.1c1.8 2 3.6 4.1 5.6 6.1l.1.1c-1.8-2.2-3.6-4.3-5.7-6.2zm453 166.9c-5.1 5.2-10.4 10.5-15.7 16 5.4-4.8 11.5-10 15.7-16zm0 16.9c-5.1 5.2-10.3 10.5-15.7 16 5.4-4.8 11.5-10 15.7-16zm-458-207.3c4.8 2 13.4.2 17.7 2.6-.7-.8-1.3-1.7-1.9-2.6h-15.8zm10.6-13.7c-.3 1-4.6 4.2-7.7 6.9 4.2-2.5 7.3-5.6 7.7-6.9zm291 235.9c-2.9 2.9-5.9 6-8.9 9.1 3.1-2.8 6.5-5.8 8.9-9.1zm-60.2 48.6c-.6.6-1.2 1.2-1.7 1.8-1.1 1.1-3 2.6-4.3 4.3 2.2-1.5 4.1-3.8 6-6.1zm-689-270.8c4.3 1.8 11.5.5 16.1 1.9-.5-.6-1-1.2-1.3-1.9h-14.8zm-111.8 1.4c4-1 10 0 14.6-.3-6.5-3-10.7-1.8-14.6.3zM1060.6 410c-5 5.6-10 11.1-15 16.6 4.9-4.1 11.2-11.3 15-16.6zm-6.8-38.4c-2.7 2.5-5.5 4.9-7.7 7.2-2.9 2.9-5.8 6.3-8.6 9.1 5.5-5.4 11-10.8 16.3-16.3zm4.1-26.7c-2.7 2.8-5.5 5.7-8.4 8.7 3.1-2.7 6-5.6 8.4-8.7zm-15 26.5c-1.8 2-3.6 4-5.5 6 2.3-1.9 4.6-3.9 6.5-6 2.7-2.9 5.3-6 7.8-8.9-3.1 3.2-6.4 6.2-8.8 8.9zm-22.2 10.8c1.8-1.5 3.8-2.9 5.3-4.5 7.3-7.3 15.5-15.8 23.5-24.1-4.7 4.2-9.6 8.1-13 11.4-5.7 5.8-10.4 12.3-15.8 17.2zm37.7-27.3c-2.2 2.4-4.4 4.9-6.6 7.5 2.3-2.3 4.7-4.9 6.6-7.5zm-21 22.5c-2.6 2.2-5.2 4.4-7.3 6.9 2.6-2 5-4.4 7.3-6.9zm1.3 20.1c2.4-2.2 5-4.7 7.8-7.5-2.7 2.3-5.4 4.8-7.8 7.5zM292.9 152.8c-2.2-2.4-4.5-4.8-7.1-7.3 2.3 2.6 4.6 5.1 7.1 7.3zm36.7-15c-1.8-3.1-4.6-5.9-8-8.1 2.8 2.6 5.3 5.5 8 8.1zm-152.4 273c2.2 2.6 4.5 5.2 7.1 7.4-2.1-2.5-4.6-5-7.1-7.4zm41.5 8.7c-4.2-4.8-8.7-9.6-13.5-14.5 4.5 5.3 9.1 10.6 13.5 14.5zm94.7-333.4c-.4 1.2-9.1 7.2-12.7 10.6-.5.5-1 1-1.6 1.5 5.4-3.8 12.6-6.6 14.3-12.1zm-93.8 264.1c5.7 6.6 12.2 13.3 19.1 20.2-6.1-7.3-12.4-14.6-19.1-20.2zm258.5-22.1c-10.3 1.7-20.6 3.3-28.5 7.4 9.2-2.8 19.7-4.2 28.5-7.4zm33.8 2.1c-4.7.5-15.3-3.3-14.8-1.1 4.6 1 9.4 1.8 14.8 2.1 3.2 2.8 8.5 3.5 12.7 5.3-2.8-3.6-9.7-3-12.7-6.3z"/></g></svg>