<svg id="Layer_1" data-name="Layer 1" xmlns="http://www.w3.org/2000/svg" viewBox="0 0 100 100"><defs><style>.cls-1{fill:#fff}</style></defs><title>calculators_circle</title><path class="cls-1" d="M66.55 59.45h-14.2a1 1 0 0 0-1 1v14.2a1 1 0 0 0 1 1h14.2a1 1 0 0 0 1-1v-14.2a1 1 0 0 0-1-1zm-3 12.15H55.4v-2.7h8.1zm0-5.4H55.4v-2.7h8.1zm3-25.65h-14.2a1 1 0 0 0-1 .84 1 1 0 0 0 0 .16v14.2a1 1 0 0 0 1 1h14.2a1 1 0 0 0 1-1v-14.2a1 1 0 0 0 0-.16 1 1 0 0 0-1-.84zM63.5 50h-8.1v-2.7h8.1zm-15.85-9.45h-14.2a1 1 0 0 0-1 .84.94.94 0 0 0 0 .16v14.2a1 1 0 0 0 1 1h14.2a1 1 0 0 0 1-1v-14.2a1 1 0 0 0 0-.16 1 1 0 0 0-1-.84zM44.6 50h-2.7v2.7h-2.7V50h-2.7v-2.7h2.7v-2.7h2.7v2.7h2.7zm3.05 9.45h-14.2a1 1 0 0 0-1 1v14.2a1 1 0 0 0 1 1h14.2a1 1 0 0 0 1-1v-14.2a1 1 0 0 0-1-1zm-3.28 10l-1.91 1.91-1.91-1.91-1.91 1.91-1.91-1.91 1.91-1.91-1.91-1.91 1.91-1.91 1.91 1.91 1.91-1.91 1.91 1.91-1.91 1.91z"/><path class="cls-1" d="M50 0a50 50 0 1 0 50 50A50 50 0 0 0 50 0zm21.6 30v46.69a3 3 0 0 1-3 3H31.4a3 3 0 0 1-3-3V23.31a3 3 0 0 1 3-3h37.2a3 3 0 0 1 3 3z"/><path class="cls-1" d="M67.55 25.34a1 1 0 0 0-1-1H33.44a1 1 0 0 0-1 1v11a1 1 0 0 0 1 1h33.12a1 1 0 0 0 1-1v-2.9z"/></svg>