<svg id="Layer_1" data-name="Layer 1" xmlns="http://www.w3.org/2000/svg" viewBox="0 0 100 100"><defs><style>.cls-1{fill:#fff}</style></defs><title>contact_us_circle</title><path class="cls-1" d="M66.67 44.82a11.18 11.18 0 0 0-.23-2.27 12.22 12.22 0 0 0-1.37-3.64 16.87 16.87 0 0 0-4.49-5.06 26.71 26.71 0 0 0-16.32-5.16 26.72 26.72 0 0 0-16.33 5.16c-3.93 3-6.09 6.93-6.09 11s2.16 8 6.09 11a26.09 26.09 0 0 0 13.7 5c.87.07 1.74.11 2.62.11h1.37a26.47 26.47 0 0 0 15-5.13c3.89-3.05 6.05-6.95 6.05-11.01zm-31.76 2.95a2.88 2.88 0 1 1 2.88-2.88 2.88 2.88 0 0 1-2.88 2.88zm9.35 0a2.88 2.88 0 1 1 2.88-2.88 2.89 2.89 0 0 1-2.88 2.88zm9.34 0a2.88 2.88 0 1 1 2.88-2.88 2.88 2.88 0 0 1-2.89 2.88z"/><path class="cls-1" d="M50 0a50 50 0 1 0 50 50A50 50 0 0 0 50 0zm-5.74 65.14a32.8 32.8 0 0 1-12.68-2.49L22 67.53l1.94-9.79a17.67 17.67 0 0 1-6-12.92c0-11.22 11.79-20.31 26.34-20.31 12.61 0 23.16 6.85 25.73 16a16 16 0 0 1 .59 3.87v.45c0 9.47-8.4 17.43-19.78 19.68a32.94 32.94 0 0 1-5.16.61zM79 73.49l-7.4-3.76a25 25 0 0 1-9.73 1.92 23.56 23.56 0 0 1-14.12-4.44 33.89 33.89 0 0 0 5.17-.6 21.92 21.92 0 0 0 9 1.83 20.53 20.53 0 0 0 12.53-4c3-2.32 4.68-5.32 4.68-8.43S77.42 50 74.4 47.63a16.64 16.64 0 0 0-1.73-1.16 15.26 15.26 0 0 0-.58-3.87c6 2.71 10 7.72 10 13.45A13.59 13.59 0 0 1 77.47 66z"/></svg>