<svg id="Layer_1" data-name="Layer 1" xmlns="http://www.w3.org/2000/svg" viewBox="0 0 100 100"><defs><style>.cls-1{fill:#fff}</style></defs><title>engine_displacement_circle</title><path class="cls-1" d="M60 52l-15.91-8.61a6.4 6.4 0 1 0-6.58 10.28L50.7 65.11A9 9 0 1 0 60 52zm-23-4.49a2.18 2.18 0 1 1 2.18 2.18A2.18 2.18 0 0 1 37 47.51zm12.66 13.43a8.94 8.94 0 0 0 .08 1.06l-9.5-8.24A6.36 6.36 0 0 0 45.41 46l11.26 6.13a9 9 0 0 0-7.01 8.81zm9 2.6a2.6 2.6 0 1 1 2.6-2.6 2.6 2.6 0 0 1-2.59 2.6z"/><path class="cls-1" d="M50 0a50 50 0 1 0 50 50A50 50 0 0 0 50 0zm35 62.21a1.69 1.69 0 0 1-3.38 0V54.4h-2.17v7.29c0 2.72-1.77 4.08-3.23 4.08h-3.54a8 8 0 0 0-4.68 1.9c-1.13 1-2.21 2.16-3.07 3-1.59 1.49-2.91 1.89-5.67 1.89h-12.1c-3.24 0-5.24-.44-6.89-2.6-.55-.72-2.46-3.41-3.76-5.15s-2.13-2.25-3.71-2.25h-5.9c-3.06 0-4.32-1.77-4.32-4.32v-5.11h-3.17c.47 1.47 1.68 2.78 1.68 3.92v4.86c0 1.32-.28 1.75-2.25 1.75-1.57 0-2-.44-2-1.73v-9.88c0-1.91-1.87-3.59-1.87-5v-4.86c0-1.32.28-1.75 2.25-1.75 1.57 0 2 .44 2 1.73v8.64h3.36v-6.12c0-2.58 1.37-3.8 3.79-3.8 1.27 0 2-.15 4.52-2.71 1.8-1.8 3.29-2.54 4.7-2.54h6.86v-3.3H40a1.59 1.59 0 0 1-1.59-1.59v-3.69A1.59 1.59 0 0 1 40 25.48h20.77a1.58 1.58 0 0 1 1.59 1.59v3.69a1.59 1.59 0 0 1-1.59 1.59h-2.5v3.31h3.27c1 0 2.08 1.07 3 2.16 2.24 2.82 3.89 3.74 5.17 3.74h5.66c2.71 0 4.12.71 4.12 3.37v7.15h2.17v-7.81a1.69 1.69 0 0 1 3.38 0z"/></svg>