<svg id="Layer_1" data-name="Layer 1" xmlns="http://www.w3.org/2000/svg" viewBox="0 0 142 142"><defs><style>.cls-1{fill:#222}</style></defs><title>engine_displacement</title><path class="cls-1" d="M138.58 58.2a3.32 3.32 0 0 0-3.43 3.2v15.84h-4.41v-14.5c0-5.4-2.87-6.84-8.37-6.84H110.9c-2.6 0-5.94-1.87-10.49-7.59-1.77-2.22-4-4.39-6-4.39h-6.62v-6.7h5.06A3.22 3.22 0 0 0 96.06 34v-7.5a3.21 3.21 0 0 0-3.22-3.22H50.63a3.22 3.22 0 0 0-3.22 3.22V34a3.22 3.22 0 0 0 3.22 3.22h5.06v6.7H41.78c-2.87 0-5.89 1.51-9.54 5.16-5.18 5.18-6.6 5.49-9.17 5.49-4.92 0-7.7 2.46-7.7 7.7v12.4H8.55V57.14c0-2.61-.81-3.51-4-3.51-4 0-4.56.87-4.56 3.55V67c0 2.87 3.8 6.28 3.8 10.15v20c0 2.61.81 3.51 4 3.51 4 0 4.56-.87 4.56-3.55v-9.77c0-2.32-2.44-5-3.4-8h6.42v10.31c0 5.19 2.56 8.77 8.77 8.77h12c3.21 0 4.93 1.09 7.53 4.56s6.52 9 7.63 10.45c3.34 4.39 7.41 5.28 14 5.28h24.53c5.6 0 8.26-.82 11.5-3.84 1.73-1.62 3.93-3.88 6.22-6A16.18 16.18 0 0 1 117 105h7.19c3 0 6.56-2.76 6.56-8.28V81.95h4.41v15.84a3.43 3.43 0 0 0 6.85 0V61.4a3.32 3.32 0 0 0-3.43-3.2zm-50 55.27a18.24 18.24 0 0 1-16.17-9.79l-26.75-23.2A13 13 0 1 1 59 59.63l32.23 17.54a18.25 18.25 0 0 1-2.65 36.3z"/><circle class="cls-1" cx="49.07" cy="67.97" r="4.42"/><circle class="cls-1" cx="88.58" cy="95.21" r="5.28"/><path class="cls-1" d="M61.69 65A12.91 12.91 0 0 1 51.2 80.76l19.27 16.71a18.1 18.1 0 0 1 14.05-20z"/></svg>