<svg id="Layer_1" data-name="Layer 1" xmlns="http://www.w3.org/2000/svg" viewBox="0 0 100 100"><defs><style>.cls-1{fill:#fff}</style></defs><title>faq_circle</title><path class="cls-1" d="M50 0a50 50 0 1 0 50 50A50 50 0 0 0 50 0zM29.5 72.5A5.5 5.5 0 1 1 35 67a5.5 5.5 0 0 1-5.5 5.5zm0-17A5.5 5.5 0 1 1 35 50a5.5 5.5 0 0 1-5.5 5.5zm0-17A5.5 5.5 0 1 1 35 33a5.5 5.5 0 0 1-5.5 5.5zm46.5 30a1 1 0 0 1-1 1H40a1 1 0 0 1-1-1v-3a1 1 0 0 1 1-1h35a1 1 0 0 1 1 1zm0-17a1 1 0 0 1-1 1H40a1 1 0 0 1-1-1v-3a1 1 0 0 1 1-1h35a1 1 0 0 1 1 1zm0-17a1 1 0 0 1-1 1H40a1 1 0 0 1-1-1v-3a1 1 0 0 1 1-1h35a1 1 0 0 1 1 1z"/></svg>