<svg id="Layer_1" data-name="Layer 1" xmlns="http://www.w3.org/2000/svg" viewBox="0 0 142 142"><defs><style>.cls-1{fill:#222}</style></defs><title>gear_ratio</title><path class="cls-1" d="M11.88 104.29a34.07 34.07 0 0 0 5 7.31l-2.63 7.13a1.66 1.66 0 0 0 .48 2.3l9.24 6a1.66 1.66 0 0 0 2.29-.48l5.48-5.28a34 34 0 0 0 8.7 1.63l3.19 6.92a1.65 1.65 0 0 0 2 1.28l10.81-2.26a1.66 1.66 0 0 0 1.28-2l.14-7.61a33.94 33.94 0 0 0 7.32-5l7.08 2.77a1.65 1.65 0 0 0 2.29-.48l6-9.24a1.67 1.67 0 0 0-.48-2.3l-5.28-5.48a33.86 33.86 0 0 0 1.63-8.7l6.93-3.19a1.66 1.66 0 0 0 1.28-2l-2.24-10.82a1.66 1.66 0 0 0-2-1.28l-7.62-.14a33.77 33.77 0 0 0-5-7.31l2.63-7.14a1.65 1.65 0 0 0-.4-2.29l-9.24-6a1.67 1.67 0 0 0-2.29.48L53 56.35a33.8 33.8 0 0 0-8.71-1.63l-3.18-6.91a1.65 1.65 0 0 0-2-1.28l-10.8 2.26a1.66 1.66 0 0 0-1.28 2l-.14 7.61a34.07 34.07 0 0 0-7.31 5l-7.13-2.64a1.67 1.67 0 0 0-2.3.48l-6 9.25a1.65 1.65 0 0 0 .48 2.29l5.27 5.48a34.23 34.23 0 0 0-1.63 8.7L1.32 90.1a1.66 1.66 0 0 0-1.28 2l2.27 10.8a1.65 1.65 0 0 0 2 1.28zm31.39 9.33a.41.41 0 0 1-.08.34.63.63 0 0 1-.32.16A25.46 25.46 0 0 1 19 98.51a.42.42 0 0 1 .3-.57l2.7-.57a.42.42 0 0 1 .47.24 21.74 21.74 0 0 0 19.81 12.94.42.42 0 0 1 .41.33zm8.73-1.41a.64.64 0 0 1-.35 0 .42.42 0 0 1-.21-.28l-.57-2.74a.42.42 0 0 1 .24-.47 21.73 21.73 0 0 0 12.96-19.83.42.42 0 0 1 .33-.41l2.74-.57a.42.42 0 0 1 .35.08.42.42 0 0 1 .16.32A25.46 25.46 0 0 1 52 112.21zM41.42 64a.42.42 0 0 1 .08-.34.42.42 0 0 1 .32-.16 25.46 25.46 0 0 1 23.91 15.66.42.42 0 0 1-.3.57l-2.74.57a.42.42 0 0 1-.47-.24A21.74 21.74 0 0 0 42.4 67.12a.42.42 0 0 1-.41-.33zm15.82 21.71a15.22 15.22 0 1 1-18-11.77 15.21 15.21 0 0 1 18 11.77zM32.67 65.46a.41.41 0 0 1 .35 0 .42.42 0 0 1 .21.28l.57 2.74a.42.42 0 0 1-.24.47 21.74 21.74 0 0 0-12.93 19.83.41.41 0 0 1-.33.41l-2.74.57a.42.42 0 0 1-.5-.4 25.46 25.46 0 0 1 15.61-23.9z"/><path class="cls-1" d="M138.46 31.26l-5.17-7.9a1.42 1.42 0 0 0-2-.41l-6.1 2.26A29 29 0 0 0 119 21l-.13-6.5a1.41 1.41 0 0 0-1.1-1.67l-9.24-1.93a1.42 1.42 0 0 0-1.67 1.1l-2.72 5.91a28.87 28.87 0 0 0-7.44 1.42L92 14.77a1.41 1.41 0 0 0-2-.41l-7.9 5.17a1.42 1.42 0 0 0-.41 2L84 27.6a29.14 29.14 0 0 0-4.26 6.25l-6.5.13a1.43 1.43 0 0 0-1.68 1.1l-1.92 9.25A1.41 1.41 0 0 0 70.71 46l5.91 2.72A29.21 29.21 0 0 0 78 56.15l-4.51 4.7a1.42 1.42 0 0 0-.41 2l5.18 7.89a1.42 1.42 0 0 0 2 .41l6.1-2.26a29.12 29.12 0 0 0 6.25 4.27l.13 6.5a1.42 1.42 0 0 0 1.1 1.68l9.24 1.92a1.42 1.42 0 0 0 1.67-1.1l2.72-5.91a29 29 0 0 0 7.43-1.42l4.7 4.51a1.41 1.41 0 0 0 2 .41l7.9-5.17a1.42 1.42 0 0 0 .41-2l-2.26-6.1a29.22 29.22 0 0 0 4.27-6.25l6.5-.13A1.42 1.42 0 0 0 140 59l2-9.25a1.42 1.42 0 0 0-1.1-1.68l-5.9-2.72a28.87 28.87 0 0 0-1.42-7.43l4.52-4.7a1.42 1.42 0 0 0 .36-1.96zm-41.17-3.81a.42.42 0 0 1 .24-.26 21.41 21.41 0 0 1 3.83-1.19 21.67 21.67 0 0 1 19.93 6.13.42.42 0 0 1-.07.64l-2 1.3c-.13 0-.42 0-.52-.05a18.36 18.36 0 0 0-19.56-4.07.42.42 0 0 1-.5-.16l-1.3-2a.42.42 0 0 1-.05-.34zm-10.73 28a1.18 1.18 0 0 1-.35 0 .42.42 0 0 1-.26-.24 21.63 21.63 0 0 1 4.95-23.75.41.41 0 0 1 .34-.11.42.42 0 0 1 .3.18l1.3 2a.42.42 0 0 1-.05.52 18.35 18.35 0 0 0-4.09 19.63.42.42 0 0 1-.16.5zm27.72 11.13a.42.42 0 0 1-.24.26 21.4 21.4 0 0 1-3.83 1.18 21.67 21.67 0 0 1-19.91-6.09.42.42 0 0 1 .07-.64l2-1.3a.42.42 0 0 1 .52.05 18.34 18.34 0 0 0 19.55 4.07.42.42 0 0 1 .5.16l1.3 2a.41.41 0 0 1 .04.34zm-1.43-8.8A12.89 12.89 0 1 1 116.57 40a12.89 12.89 0 0 1-3.72 17.81zm7.83 4.71a.41.41 0 0 1-.2.11.73.73 0 0 1-.44-.18l-1.3-2a.42.42 0 0 1 .05-.52 18.34 18.34 0 0 0 4.07-19.55.42.42 0 0 1 .16-.5l2-1.3a.42.42 0 0 1 .62.19 21.63 21.63 0 0 1-4.95 23.78z"/></svg>