<svg id="Layer_1" data-name="Layer 1" xmlns="http://www.w3.org/2000/svg" viewBox="0 0 100 100"><defs><style>.cls-1{fill:#fff}</style></defs><title>glossary_circle</title><path class="cls-1" d="M38.7 45.41a.94.94 0 0 0-.27.69V48a.93.93 0 0 0 1 1h21.18a.93.93 0 0 0 1-1v-1.89a.93.93 0 0 0-1-1H39.39a.94.94 0 0 0-.69.3zm21.91 15.16H39.39a.93.93 0 0 0-1 1v1.93a.93.93 0 0 0 1 1h21.22a.93.93 0 0 0 1-1v-1.96a.93.93 0 0 0-1-1zm0-7.71H39.39a.93.93 0 0 0-1 1v1.93a.93.93 0 0 0 1 1h21.22a.93.93 0 0 0 1-1v-1.97a.93.93 0 0 0-1-1z"/><path class="cls-1" d="M50 0a50 50 0 1 0 50 50A50 50 0 0 0 50 0zm7.71 23.21a6.38 6.38 0 0 1 1.09.79l12.29 12.34a6.37 6.37 0 0 1 .84 1.08H57.71zm15.43 49.9A2.88 2.88 0 0 1 70.25 76h-40.5a2.88 2.88 0 0 1-2.89-2.89V24.89A2.88 2.88 0 0 1 29.75 22h24.11v16.39a2.88 2.88 0 0 0 2.89 2.89h16.39z"/></svg>