<svg id="Layer_1" data-name="Layer 1" xmlns="http://www.w3.org/2000/svg" viewBox="0 0 100 100"><defs><style>.cls-1{fill:#fff}</style></defs><title>horsepower_circle</title><path class="cls-1" d="M43.66 42.27l.54-6.09a36 36 0 0 0-6.14-.18l-.54 6.18a34.49 34.49 0 0 1 6.14.09zM56 44.41l.54-6c-2-.39-4.09-.82-6.14-1.22l-.54 6c1.99.39 4.04.81 6.14 1.22z"/><path class="cls-1" d="M43.66 42.27l-.54 6.1c2 .17 4.1.5 6.14.87l.54-6a56.35 56.35 0 0 0-6.14-.97zM56 44.41l-.54 6c2 .4 4.1.77 6.15 1l.54-6.08C60 45.16 58 44.81 56 44.41z"/><path class="cls-1" d="M62.64 39.29q-.27 3-.54 6.09a36 36 0 0 0 6.14.19l.54-6.18a34.33 34.33 0 0 1-6.14-.1z"/><path class="cls-1" d="M50 0a50 50 0 1 0 50 50A50 50 0 0 0 50 0zM35.09 24.07a27.35 27.35 0 0 1 4-.41l-.54 6.16a26.73 26.73 0 0 0-4 .48l.48-5.47a4.3 4.3 0 0 0 .06-.76zm-9 53.58a2.08 2.08 0 0 1-2.1-2.3l4.43-50.69A2.56 2.56 0 0 1 31 22.35a2.08 2.08 0 0 1 2.1 2.3l-4.48 50.7a2.57 2.57 0 0 1-2.51 2.3zm49.37-45.87a24.31 24.31 0 0 1-6.14 1.42l-.54 6.19a24.61 24.61 0 0 0 6.15-1.27l-.54 6.33a25.13 25.13 0 0 1-6.14 1.13l-.54 6.17a25.62 25.62 0 0 0 6.14-1l-.54 6.29a26.07 26.07 0 0 1-6.14.86l.54-6.16a38.12 38.12 0 0 1-6.14-.28q-.27 3-.54 6.08c-2-.27-4.1-.65-6.14-1.05l.54-6c-2-.4-4.09-.84-6.14-1.21l-.54 6a58.83 58.83 0 0 0-6.14-.82l.54-6.1a33.11 33.11 0 0 0-6.14 0l-.54 6.2a24.52 24.52 0 0 0-4 .84l.55-6.3a25 25 0 0 1 4-.74l.54-6.19a25.39 25.39 0 0 0-4 .65l.55-6.27a26 26 0 0 1 4-.56l.54-6.17a37.71 37.71 0 0 1 6.14.28q.27-3 .54-6.08c2 .27 4.1.65 6.14 1.05l-.54 6c-2-.4-4.1-.77-6.14-1l-.54 6.08c2 .22 4.1.58 6.14 1l.54-6c2 .4 4.1.83 6.14 1.21l.54-6a59.42 59.42 0 0 0 6.14.82l-.54 6.1c-2-.17-4.09-.49-6.14-.87l-.54 6c2.05.39 4.1.72 6.15.92l.54-6.09a33.07 33.07 0 0 0 6.14 0l.54-6.2a24.09 24.09 0 0 0 6.1-1.62l-.54 6.36z"/></svg>