<svg id="Layer_1" data-name="Layer 1" xmlns="http://www.w3.org/2000/svg" viewBox="0 0 142 142"><defs><style>.cls-1{fill:#222}</style></defs><title>horsepower</title><path class="cls-1" d="M30.41 12.09A5.46 5.46 0 0 0 25.08 17l-9.45 108a4.43 4.43 0 0 0 4.48 4.91 5.47 5.47 0 0 0 5.34-4.91L34.9 17a4.43 4.43 0 0 0-4.49-4.91zm24.8 68.44a125.34 125.34 0 0 1 13.09 1.73l1.15-12.88c-4.37-.8-8.73-1.49-13.09-1.86q-.58 6.48-1.15 13.01zM37.07 42.36L35.9 55.72a54.09 54.09 0 0 1 8.5-1.39l1.15-13.17a55.46 55.46 0 0 0-8.48 1.2zm-3.51 40.18a52.23 52.23 0 0 1 8.56-1.79q.57-6.61 1.15-13.22a53.25 53.25 0 0 0-8.53 1.58zM123 59.15q.57-6.73 1.15-13.48A52.43 52.43 0 0 1 111 48.39q-.58 6.59-1.15 13.18A53.55 53.55 0 0 0 123 59.15zM120.66 86l1.14-13.41a54.59 54.59 0 0 1-13.09 2.12l-1.14 13.13A55.55 55.55 0 0 0 120.66 86zm-39.27-1.17c4.36.86 8.73 1.68 13.09 2.24l1.14-12.95c-4.35-.52-8.72-1.3-13.09-2.12q-.53 6.4-1.14 12.83zM46.7 28q.57-6.57 1.15-13.13a58.25 58.25 0 0 0-8.62.87 9.2 9.2 0 0 1 0 1.63L38.24 29a56.94 56.94 0 0 1 8.46-1zm11.95 13.56q.57-6.48 1.15-13c4.36.52 8.73 1.3 13.09 2.16q.56-6.39 1.11-12.82c-4.36-.86-8.73-1.68-13.09-2.24q-.57 6.47-1.15 12.95A80.33 80.33 0 0 0 46.7 28q-.57 6.57-1.15 13.15a76.8 76.8 0 0 1 13.1.41zm11.94 14.95q-.59 6.43-1.14 12.87c4.36.8 8.73 1.73 13.09 2.58q.57-6.44 1.15-12.87c-4.37-.84-8.69-1.76-13.1-2.58zm26.18 4.66l-1.15 13a81.23 81.23 0 0 0 13.09.59q.57-6.57 1.15-13.15a76.8 76.8 0 0 1-13.09-.45zM86 33.35c4.36.8 8.72 1.49 13.09 1.86q.58-6.5 1.15-13a126.56 126.56 0 0 1-13.09-1.74q-.6 6.44-1.15 12.88c-4.36-.8-8.73-1.73-13.09-2.58q-.57 6.43-1.15 12.87c4.37.84 8.72 1.77 13.09 2.59q.55-6.44 1.15-12.88zm39.27-1.17q.58-6.76 1.15-13.54A51.33 51.33 0 0 1 113.3 22q-.57 6.61-1.15 13.22a70.44 70.44 0 0 1-13.09 0q-.57 6.49-1.15 13a73.13 73.13 0 0 0 13.09.2q.58-6.59 1.15-13.19a51.79 51.79 0 0 0 13.09-3.06zm-28.47 29q.57-6.48 1.15-13c-4.37-.42-8.72-1.15-13.09-2q-.57 6.44-1.15 12.87c4.29.89 8.7 1.64 13.06 2.11zm-26.21-4.67q.57-6.44 1.15-12.87C67.37 42.79 63 42 58.65 41.56l-1.15 13c4.36.44 8.72 1.12 13.09 1.95zm-26.18-2.17l-1.14 13.2a70.54 70.54 0 0 1 13.09 0l1.14-13a73.47 73.47 0 0 0-13.09-.2z"/></svg>