<svg id="Layer_1" data-name="Layer 1" xmlns="http://www.w3.org/2000/svg" viewBox="0 0 142 142"><defs><style>.cls-1{fill:#222}</style></defs><title>inches_liters</title><path class="cls-1" d="M121.34 14.68H20.66a3 3 0 0 0-3 3v5a3 3 0 0 0 3 3h1v85.72a16 16 0 0 0 16 16h66.78a16 16 0 0 0 16-16V25.65h1a3 3 0 0 0 3-3v-5a3 3 0 0 0-3.1-2.97zM94.42 95.42a2 2 0 0 1-2 2H68.5a2 2 0 0 1-2-2v-1a2 2 0 0 1 2-2h23.94a2 2 0 0 1 2 2zm0 17.94a2 2 0 0 1-2 2H68.5a2 2 0 0 1-2-2v-1a2 2 0 0 1 2-2h23.94a2 2 0 0 1 2 2zM66.51 75.49a2 2 0 0 1 2-2h23.93a2 2 0 0 1 2 2v1a2 2 0 0 1-2 2H68.5a2 2 0 0 1-2-2zm42.86-14v5H32.62V26.64h76.75v34.89z"/><path class="cls-1" d="M92.44 55.55H68.5a2 2 0 0 0-2 2v1a2 2 0 0 0 2 2h23.94a2 2 0 0 0 2-2v-1a2 2 0 0 0-2-2zm0-16.95H68.5a2 2 0 0 0-2 2v1a2 2 0 0 0 2 2h23.94a2 2 0 0 0 2-2v-1a2 2 0 0 0-2-2z"/></svg>