<svg id="Layer_1" data-name="Layer 1" xmlns="http://www.w3.org/2000/svg" viewBox="0 0 100 100"><defs><style>.cls-1{fill:#fff}</style></defs><title>inches_liters_circle</title><path class="cls-1" d="M60.66 69.58h-11.9a1 1 0 0 0-1 1v.49a1 1 0 0 0 1 1h11.9a1 1 0 0 0 1-1v-.49a1 1 0 0 0-1-1zm0-8.93h-11.9a1 1 0 0 0-1 1v.49a1 1 0 0 0 1 1h11.9a1 1 0 0 0 1-1v-.49a1 1 0 0 0-1-1zm0-9.41h-11.9a1 1 0 0 0-1 1v.49a1 1 0 0 0 1 1h11.9a1 1 0 0 0 1-1v-.49a1 1 0 0 0-1-1z"/><path class="cls-1" d="M50 0a50 50 0 1 0 50 50A50 50 0 0 0 50 0zm26.51 26A1.49 1.49 0 0 1 75 27.45h-.49v42.62A7.93 7.93 0 0 1 66.6 78H33.4a7.93 7.93 0 0 1-7.93-7.93V27.45H25A1.49 1.49 0 0 1 23.49 26v-2.51A1.49 1.49 0 0 1 25 22h50a1.49 1.49 0 0 1 1.49 1.49z"/><path class="cls-1" d="M30.92 29.93v17.84h38.16V27.95H30.92zm16.85 5a1 1 0 0 1 1-1h11.9a1 1 0 0 1 1 1v.49a1 1 0 0 1-1 1H48.76a1 1 0 0 1-1-1zm0 8.42a1 1 0 0 1 1-1h11.9a1 1 0 0 1 1 1v.49a1 1 0 0 1-1 1H48.76a1 1 0 0 1-1-1z"/></svg>