<svg width="948" height="607" viewBox="0 0 948 607" xmlns="http://www.w3.org/2000/svg"><title>Map</title><g fill="none" fill-rule="evenodd"><path d="M642.038 213.151l6.08-2.451 2.348-5.438.653-22.17-4.044-3.772a4.667 4.667 0 0 1-1.467-3.012l-1.887-21.9a4.688 4.688 0 0 1 .377-2.282l4.149-9.424a4.44 4.44 0 0 1 .154-.322l3.511-6.607a4.665 4.665 0 0 1 4.126-2.479c.56.008 1.09.101 1.584.277a4.644 4.644 0 0 1 1.063-2.053 4.646 4.646 0 0 1-.112-4.631l2.883-5.356-2.673.2-2.636 3.764a4.66 4.66 0 0 1-2.799 1.879l-3.998.902-4.288 6.279a4.672 4.672 0 0 1-5.846 1.59l-2.252-1.06a4.677 4.677 0 0 1-2.997.824l-.746 1.936 1.424-.807a4.67 4.67 0 0 1 6.626 5.84l-5.283 12.825-.14 4.217 1.079 6.834a4.671 4.671 0 0 1-1.729 4.402l-2.492 1.958 1.36 3.59a4.654 4.654 0 0 1-.054 3.44l-1.488 3.595 5.169 12.111c.154.365.26.743.32 1.13l2.06 13.55 1.965 2.621zM493.164 605.962l-13.984-.598c-.45-.02-.89-.103-1.31-.248l-28.045-9.597a4.668 4.668 0 0 1-2.83-2.7l-10.04-25.355-5.008-2.718a4.682 4.682 0 0 1-1.641-1.486l-22.062-32.541-20.905-9.683-15.657 16.142a4.696 4.696 0 0 1-3.355 1.42c-.91 0-1.793-.262-2.555-.76l-14.164-9.251-12.87-7.457a4.694 4.694 0 0 1-1.985-2.287l-10.677-26.339-6.422-1.639a4.66 4.66 0 0 1-2.328-1.411l-17.746-19.83-22.037-1.27-.305 5.605a4.696 4.696 0 0 1-1.6 3.269 4.68 4.68 0 0 1-3.455 1.13l-55.765-4.708a4.7 4.7 0 0 1-1.991-.638l-70.967-42.126-43.827-6.444a4.67 4.67 0 0 1-3.97-5.064l.102-1.074-.608-.359a4.638 4.638 0 0 1-2.29-4.356l.45-6.293-9.504-13.617-4.272-2.29a4.654 4.654 0 0 1-1.972-2.027l-2.082-4.163-2.067-.345a4.634 4.634 0 0 1-2.511-1.279l-11.341-11.159-17.823-7.38a4.692 4.692 0 0 1-2.882-4.469l.46-13.948-.772-.366a4.692 4.692 0 0 1-2.671-4.22v-4l-13.09-28.897a4.693 4.693 0 0 1 .41-4.578l1.656-2.4-7.486-8.755a4.648 4.648 0 0 1-1.11-3.329l.781-12.289a4.663 4.663 0 0 1 .46-1.739l-5.33-3.908a4.69 4.69 0 0 1-1.887-4.215l.449-4.638-7.325-15.865a4.652 4.652 0 0 1-.364-2.724l3.362-20.172-5.448-16.34a4.67 4.67 0 0 1 .387-3.815l10.765-18.62-1.664-5.546a4.672 4.672 0 0 1 .506-3.805l2.68-4.315-.175-19.183a4.68 4.68 0 0 1 .562-2.264l22.26-41.17 7.813-23.25c.128-.377.303-.737.522-1.07 0-.306.031-.612.091-.913l.82-4.102a4.681 4.681 0 0 1 1.09-2.184l.838-.943-.614-1.288a4.668 4.668 0 0 1 .358-4.64l-.452-.452a4.654 4.654 0 0 1-1.267-4.277l2.258-10.588-2.923-15.156a4.666 4.666 0 0 1 4.589-5.556c.616 0 1.216.12 1.785.356l29.499 12.209-.549-.76a4.662 4.662 0 0 1 .499-6.05L75.8 33.295a4.643 4.643 0 0 1 .136-5.26 4.686 4.686 0 0 1 4.943-1.797l88.505 22.559.12.017c.297.05.588.13.867.235l14.405 3.672 180.956 21.217 99.537-1.593a4.8 4.8 0 0 1 1.337.176c8.618-.118 15.735-.325 22.314-.65.048-1.951.403-3.58 1.106-5.1l.108-.232a4.692 4.692 0 0 1 4.686-2.685l.256.025c1.782.173 3.513.519 5.009 1 2.18.703 3.859 1.664 5.136 2.937.138.137.407.421.635.772 1.048 1.58 1.548 3.23 1.988 4.687l.221.72c.188.604.433 1.333.707 1.789 1.198.704 2.307 1.047 3.384 1.047 2.49 0 4.802.181 7.037.356 2.05.16 3.975.31 5.885.31 1.99 0 3.674-.164 5.3-.512a11.132 11.132 0 0 1 3.221-.464c2.398.003 4.456.686 6.271 1.29.16.05.196.063.25.085 2.3.864 4.392 1.954 6.414 3.01.901.47 1.831.955 2.724 1.387 2.068 1 4.525 2.024 7.075 2.024.144 0 .432.007.738.054 1.971.304 4.004.451 6.214.451 4 0 7.972-.48 12.176-.99 2.894-.349 5.826-.703 8.848-.91l1.03-.072a4.676 4.676 0 0 1 4.587 2.802 4.678 4.678 0 0 1-1.101 5.276l-.741.69c-3.833 3.571-7.994 6.525-12.019 9.382-1.708 1.213-3.453 2.45-5.123 3.704-2.32 1.74-4.897 3.786-7.339 6.284l.67-.395a4.668 4.668 0 0 1 4.514-.134 4.645 4.645 0 0 1 2.517 3.744l.223 2.531 2.317.103.53-.365c.586-.4 1.231-.844 1.84-1.257 1.345-.911 1.992-1.335 2.385-1.562a7.544 7.544 0 0 1 1.481-.628c.318-.101.69-.206 1.11-.313a60.491 60.491 0 0 1 2.346-.539c.334-.071.662-.139.972-.201 1.054-1.488 2.39-3.354 3.108-4.278.307-.395.539-.665.775-.902.398-.39.76-.651 1.127-.906.27-.185.593-.395.956-.626.58-.369 1.323-.824 2.266-1.39.69-.414 1.366-.814 1.902-1.128l2.761-4.602a4.7 4.7 0 0 1 2.23-1.918l14.61-6.002a4.649 4.649 0 0 1 1.773-.35 4.7 4.7 0 0 1 3.385 1.452 4.647 4.647 0 0 1 .843 5.207l-3.453 7.336c-.04.085-.082.169-.126.25l1.413.118a4.703 4.703 0 0 1 2.7 1.152l5.075 4.477 9.284.258 4.305-4.86a4.66 4.66 0 0 1 2.246-1.403l8.917-2.477 2.33-2.328a4.686 4.686 0 0 1 2.787-1.34l3.978-.442a4.659 4.659 0 0 1 4.015 1.53 4.683 4.683 0 0 1 1.069 4.15l-.402 1.755 5.696-1.168a4.71 4.71 0 0 1 2.894.33l7.202 3.309a4.645 4.645 0 0 1 2.68 3.64l.649 4.973a4.688 4.688 0 0 1-1.387 3.965A4.643 4.643 0 0 1 678.1 121l-3.776-.63a4.052 4.052 0 0 1-.166.25l20.207 3.735a4.655 4.655 0 0 1 3.227 2.311 4.646 4.646 0 0 1 .284 3.958l-1.278 3.324 4.823 10.929a4.659 4.659 0 0 1 .167 3.336l-.375 1.147a4.67 4.67 0 0 1 1.382.14l8.486 2.169a4.681 4.681 0 0 1 3.203 2.845l6.992 18.14c.108.283.192.583.246.89l1.342 7.863a4.664 4.664 0 0 1-1.026 3.787l-7.054 8.4.57 1.638c.114.326.192.67.23 1.019l.388 3.484a4.694 4.694 0 0 1-.27 2.159l-.059.16 1.705.232 5.16.136 34.334-24.189 15.308-15.472.012-.33-.955-.585a4.693 4.693 0 0 1-1.909-2.265l-.044-.112a32.866 32.866 0 0 1-.664-1.874c-.36-1.144-.774-2.634-.782-4.044 0-.56.063-1.083.19-1.601.26-1 .748-1.863 1.455-2.572.422-.414.795-.66 1.016-.81.199-.129.418-.267.686-.426.421-.251.98-.57 1.66-.947a300.86 300.86 0 0 1 4.417-2.39 791.414 791.414 0 0 1 6.037-3.173l.23-.12.039-.017a4.524 4.524 0 0 1 1.671-.466l13.618-1.148 6.766-7.391a4.686 4.686 0 0 1 1.824-1.228l1.06-.393-.896-.86a4.646 4.646 0 0 1-.84-5.655 4.657 4.657 0 0 1-2.729-1.603 4.643 4.643 0 0 1-.844-4.467l1.528-4.583a4.648 4.648 0 0 1 1.6-2.235l2.59-1.973.885-3.661a4.51 4.51 0 0 1 .077-.29l3.418-11.2a4.667 4.667 0 0 1 2.628-2.927l28.893-12.38 27.16-12.673 3.321-3.197.197-.473c.029-.07.061-.146.097-.22.806-1.917 2.355-5.55 3.522-8.005.33-.69.596-1.223.828-1.656-.033-.31-.08-.706-.147-1.206a143.703 143.703 0 0 0-.627-4.123 423.06 423.06 0 0 0-1.513-8.529 427.15 427.15 0 0 0-.414-2.199l-.083-.43v-.069a4.803 4.803 0 0 1-.003-1.236l3.24-24.002a4.66 4.66 0 0 1 2.055-3.272 4.678 4.678 0 0 1 3.823-.604l7.424 2.061L899 3.05a4.667 4.667 0 0 1 4.266-1.554l.165.027-.038.72.114-.71c.25.04.963.15 1.847.28 1.435.216 2.574.376 3.39.479.642.082.926.105.985.11a5.015 5.015 0 0 1 2.449.704c.176.102.354.222.529.359l.13.101c.127.1.249.207.367.322a6.4 6.4 0 0 1 .718.829c.246.334.498.724.792 1.227.434.739.971 1.736 1.642 3.046 1.07 2.094 2.483 4.992 4.198 8.614a992.15 992.15 0 0 1 5.21 11.205l19.053 14.017a4.687 4.687 0 0 1 1.862 3.138 4.689 4.689 0 0 1-.965 3.521l-13.385 16.912-2.81 5.432a4.688 4.688 0 0 1-4.151 2.525 4.65 4.65 0 0 1-1.784-.355l-1.77 5.314a4.69 4.69 0 0 1-.725 1.365l-4.388 5.723a4.703 4.703 0 0 1-1.669 1.358l-4.26 2.065-1.667 5.515-1.259 10.071a4.51 4.51 0 0 1-.149.718l-.795 2.74 2.177 1.904a4.667 4.667 0 0 1 1.557 2.935l.725 5.792 2.931 2.72a4.686 4.686 0 0 1 1.635-2.864 4.671 4.671 0 0 1 4.199-.909l7.593 2.052a4.646 4.646 0 0 1 3.257 3.165l1.222 4.07a4.647 4.647 0 0 1-.352 3.542l-1.606 3.005a4.69 4.69 0 0 1-1.416 1.611l-5.911 4.194a4.694 4.694 0 0 1-1.26.631l-3.487 1.13v1.06a4.664 4.664 0 0 1-1.628 3.544 4.678 4.678 0 0 1-3.754 1.072l-4.42-.68a4.702 4.702 0 0 1-1.045 2.186l-3.442 4.017c-.13.152-.403.45-.757.717l-8.518 6.433a4.667 4.667 0 0 1-2.252.91l-4.843.588-8.643 6.912-3.38 4.596a4.473 4.473 0 0 1-.582.84l-2.598 6.266-.134 1.55 2.45.648a4.645 4.645 0 0 1 3.28 3.144l1.59 5.164a4.72 4.72 0 0 1-.079 2.978l-2.712 7.41-2.732 13.655a4.626 4.626 0 0 1-.158.587l-3.018 8.853c-.249.73-.67 1.38-1.23 1.901.032.265.041.532.028.798l-.938 18.01v10.834a4.64 4.64 0 0 1-1.368 3.301l-4.93 4.928a4.631 4.631 0 0 1-3.104 1.365c.176.215.333.444.47.688 1.06.112 2.041.58 2.801 1.343l4.084 4.083c.064.063.134.136.218.23l1.202 1.363a4.692 4.692 0 0 1 .442 5.59l-.042.067a4.597 4.597 0 0 1-.195.723l2.111 4.335c.38.778.535 1.632.457 2.475a4.658 4.658 0 0 1 3.863 2.439l3.757 6.918a4.694 4.694 0 0 1-.085 4.604l-5.06 8.558a4.665 4.665 0 0 1-3.729 2.286l-1.874.117a4.66 4.66 0 0 1 3.053 4.951l-.825 6.795a4.693 4.693 0 0 1-2.726 3.7l-9.444 4.233-9.137 17.234a4.68 4.68 0 0 1-1.55 1.709l-12.336 8.164-3.114 11.18a4.647 4.647 0 0 1-2.163 2.791l-4.042 2.333-3.185 9.715a4.691 4.691 0 0 1-2.43 2.76l-1.737.827-.315 1.732a4.696 4.696 0 0 1-2.08 3.098l-9.675 6.184-.637 3.563a4.67 4.67 0 0 1-3.922 3.8l.161 3.358c.015.314.011.932-.175 1.573l-5.566 19.302 4.085 12.419a4.661 4.661 0 0 1-.774 4.354l3.136 10.51 3.172 4.838c.083.13.156.258.222.384l4.322 8.292 5.849 5.851 5.288 4.37a4.654 4.654 0 0 1 1.44 2.079l3.769 10.928a4.643 4.643 0 0 1-.47 4.019l2.241 3.108c.093.13.178.264.26.407l5.251 9.186c.09.154.172.32.25.503l6.586 15.614c.304.725.421 1.519.34 2.296l-2.34 22.498 1.276 4.626a4.691 4.691 0 0 1-.21 3.08l-2.993 6.983a4.668 4.668 0 0 1-6.135 2.453l-.619-.265-1.756 2.341a4.693 4.693 0 0 1-3.74 1.869 4.66 4.66 0 0 1-2.59-.786l-5.4-3.6a4.703 4.703 0 0 1-2.076-3.795 4.724 4.724 0 0 1-.766-1.068l-3.382-6.493-2.473-.088a4.644 4.644 0 0 1-3.587-1.885l-8.776-11.826a4.671 4.671 0 0 1-.92-2.944l-1.441-.96a4.636 4.636 0 0 1-1.59.327l-.155.002a4.612 4.612 0 0 1-3.732-1.886l-10.112-13.609a4.69 4.69 0 0 1-.85-3.621l.33-1.81-.03-.005a4.647 4.647 0 0 1-3.597-2.702l-2.872-6.36a4.584 4.584 0 0 1-.4-1.537l-1.212-14.536-2.38-3.81-11.783-6.316a4.656 4.656 0 0 1-1.495-1.267l-5.947-7.73-6.503.212-5.356 6.694a4.685 4.685 0 0 1-2.599 1.633l-10.047 2.319a4.68 4.68 0 0 1-4.494-1.403l-7.44-8.14-1.76.911a4.672 4.672 0 0 1-3.677.265l-7.53-2.61-5.95 2.379a4.654 4.654 0 0 1-1.736.334 4.633 4.633 0 0 1-3.303-1.369l-.32-.319-.463 1.682a4.692 4.692 0 0 1-3.283 3.265l-9.414 2.548a4.662 4.662 0 0 1-5.097-1.9l-.372-.552a4.688 4.688 0 0 1-2.503 1.173l-14.654 1.987-3.656 1.687c.733.335 1.278.596 1.425.668l.247.12a4.66 4.66 0 0 1 2.59 4.83l-.643 4.717a4.69 4.69 0 0 1-2.884 3.702l5.51 5.063c.49.447.875.988 1.141 1.606l1.866 4.356a4.677 4.677 0 0 1-.038 3.772 4.686 4.686 0 0 1-2.816 2.513l-6.937 2.242a4.653 4.653 0 0 1-4.683-1.086l-4.825-4.664-3.17-.853-.332 3.051a4.685 4.685 0 0 1-1.844 3.234 4.705 4.705 0 0 1-3.623.859l-7.686-1.372-1.93 2.739a4.681 4.681 0 0 1-3.82 1.98 4.686 4.686 0 0 1-2.93-1.034l-7.169-5.775a4.682 4.682 0 0 1-1.733-3.9l.003-.043a4.666 4.666 0 0 1-1.388-.888l-3.915-3.624-3.985.426-.12 1.8a4.668 4.668 0 0 1-4.66 4.36c-.323 0-.644-.034-.955-.098l-20.41-4.258-27.617 11.006a4.646 4.646 0 0 1-1.286.314 4.643 4.643 0 0 1-1.487 1.537l-4.717 3.034-9.67 12.71a4.651 4.651 0 0 1-4.033 1.832l-8.796-.6a4.649 4.649 0 0 1-.991 3.016 4.648 4.648 0 0 1-3.684 1.794c-.245 0-.495-.02-.744-.06l-3.913-.637-.946 4.636a4.64 4.64 0 0 1-3.38 3.58l-2.229.592a4.628 4.628 0 0 1-.216.997L492 558.055a4.632 4.632 0 0 1-2.2 2.629 4.74 4.74 0 0 1 .089 1.558l-.61 5.496a4.684 4.684 0 0 1-1.073 2.5l.022.048c.427.945.484 1.726.49 2.23v.08c-.009.972-.22 1.864-.56 2.982a46.221 46.221 0 0 1-.847 2.452c-.125.335-.258.683-.398 1.043l5.163 13.292 4.863 5.985a4.68 4.68 0 0 1 .548 5.043 4.648 4.648 0 0 1-4.174 2.572l-.149-.003z" fill="#FFF"/><path d="M659.176 122.422l1.025-.077-2.262 4.202a5.36 5.36 0 0 0-.114 4.892 5.382 5.382 0 0 0-.684 1.25 5.41 5.41 0 0 0-1.035-.112h-.068a5.38 5.38 0 0 0-4.76 2.86l-3.51 6.604a5.21 5.21 0 0 0-.183.38l-4.144 9.415a5.404 5.404 0 0 0-.436 2.634l1.887 21.898a5.39 5.39 0 0 0 1.693 3.477l3.806 3.55-.639 21.709-2.176 5.04-5.294 2.134-1.526-2.034-2.032-13.373a5.46 5.46 0 0 0-.369-1.3l-5.052-11.835 1.374-3.317a5.374 5.374 0 0 0 .06-3.969l-1.172-3.097 2.078-1.633a5.393 5.393 0 0 0 1.994-5.078l-1.069-6.766.134-4.02 5.234-12.704a5.392 5.392 0 0 0-1.17-5.861 5.39 5.39 0 0 0 4.89-2.33l4.128-6.047 3.722-.839a5.378 5.378 0 0 0 3.23-2.168l2.44-3.485zM902.529.72a5.387 5.387 0 0 0-4.072 1.86l-5.037 5.81-6.985-1.94a5.374 5.374 0 0 0-4.414.697 5.38 5.38 0 0 0-2.37 3.776l-3.24 24.002a5.674 5.674 0 0 0-.003 1.382v.087l.026.135.032.165.032.165.023.12v.002c.071.371.213 1.116.397 2.104a433.07 433.07 0 0 1 1.509 8.515c.269 1.63.479 3.01.625 4.101.046.353.087.678.12.97a45.97 45.97 0 0 0-.737 1.487c-1.164 2.449-2.714 6.08-3.54 8.043a4.891 4.891 0 0 0-.102.234l-.131.317-3.128 3.01-27.052 12.622-28.873 12.371a5.386 5.386 0 0 0-3.031 3.377l-3.416 11.195c-.045.15-.073.255-.096.359l-.82 3.392-2.387 1.818a5.36 5.36 0 0 0-1.845 2.577l-1.53 4.584a5.36 5.36 0 0 0 .976 5.157 5.387 5.387 0 0 0 2.276 1.608 5.36 5.36 0 0 0 1.346 5.706l.069.066a5.42 5.42 0 0 0-2.09 1.413l-6.575 7.183-13.339 1.124a5.347 5.347 0 0 0-1.922.533l-.011.005-.08.04-.066.034-.037.018-.044.023-.021.012-.029.016c-2.114 1.1-4.26 2.228-6.043 3.177a293.317 293.317 0 0 0-4.428 2.396c-.689.382-1.254.704-1.678.956-.28.167-.51.31-.71.442-.253.169-.659.44-1.122.893a6.278 6.278 0 0 0-1.652 2.904 7.32 7.32 0 0 0-.215 1.786c.007 1.513.44 3.072.814 4.26.285.891.573 1.653.685 1.933l.038.099a5.434 5.434 0 0 0 2.206 2.62l.377.23-14.834 14.993-34.087 24.015-4.882-.129-.825-.112a5.4 5.4 0 0 0 .104-1.804l-.388-3.482a5.347 5.347 0 0 0-.265-1.175l-.435-1.252 6.79-8.088a5.381 5.381 0 0 0 1.185-4.368l-1.342-7.862a5.507 5.507 0 0 0-.284-1.03l-6.993-18.14a5.4 5.4 0 0 0-3.696-3.283l-8.483-2.17a5.489 5.489 0 0 0-.587-.115l.083-.252a5.377 5.377 0 0 0-.193-3.85l-4.703-10.657 1.172-3.047a5.367 5.367 0 0 0-.327-4.567 5.378 5.378 0 0 0-3.725-2.666l-13.197-2.44a5.41 5.41 0 0 0 2.918-5.512l-.65-4.975a5.362 5.362 0 0 0-3.092-4.199l-7.203-3.308a5.419 5.419 0 0 0-2.25-.493 5.33 5.33 0 0 0-1.09.112l-4.599.943.152-.667a5.398 5.398 0 0 0-1.234-4.788 5.38 5.38 0 0 0-4.638-1.765l-3.969.44a5.407 5.407 0 0 0-3.217 1.547l-2.195 2.194-8.735 2.426a5.388 5.388 0 0 0-2.593 1.62l-4.083 4.608-8.686-.241-4.88-4.305a5.434 5.434 0 0 0-3.116-1.33l-.374-.03 3.13-6.65a5.356 5.356 0 0 0-.972-6.009 5.42 5.42 0 0 0-3.907-1.675 5.37 5.37 0 0 0-2.044.403l-14.61 6.002a5.43 5.43 0 0 0-2.575 2.214l-2.666 4.444c-.51.3-1.123.664-1.75 1.04a105.1 105.1 0 0 0-2.282 1.4c-.37.233-.699.448-.97.634a9.04 9.04 0 0 0-1.223.983c-.273.275-.522.564-.847.982-.569.73-1.565 2.1-2.962 4.07l-.699.146c-.925.196-1.725.38-2.374.546-.43.11-.816.218-1.147.323a8.162 8.162 0 0 0-1.618.686c-.424.245-1.081.676-2.438 1.595-.609.414-1.257.858-1.84 1.26l-.334.228-1.448-.063-.168-1.905a5.359 5.359 0 0 0-2.904-4.32 5.412 5.412 0 0 0-2.622-.594c1.66-1.482 3.327-2.783 4.879-3.947 1.652-1.24 3.397-2.479 5.086-3.677 4.056-2.88 8.241-5.85 12.114-9.457l.742-.691a5.397 5.397 0 0 0 1.27-6.088 5.396 5.396 0 0 0-5.28-3.234l-1.046.072c-3.038.21-5.98.565-8.827.909l-.052.006c-4.187.507-8.138.985-12.095.985-2.173 0-4.17-.145-6.105-.443a5.689 5.689 0 0 0-.848-.062c-2.403 0-4.766-.987-6.76-1.953a99.046 99.046 0 0 1-2.689-1.368c-2.055-1.073-4.168-2.175-6.5-3.05a2.595 2.595 0 0 0-.268-.094l-.022-.007c-1.863-.619-3.98-1.321-6.493-1.324a12.03 12.03 0 0 0-3.43.491c-1.558.33-3.178.484-5.092.484-1.875 0-3.784-.148-5.806-.305-2.266-.177-4.595-.359-7.116-.36-.897 0-1.832-.28-2.853-.853-.237-.468-.466-1.205-.551-1.476a47.855 47.855 0 0 1-.186-.607l-.034-.11c-.431-1.428-.969-3.207-2.08-4.88a5.64 5.64 0 0 0-.727-.882c-1.356-1.353-3.13-2.37-5.418-3.11-1.545-.497-3.329-.853-5.16-1.031l-.255-.025a5.412 5.412 0 0 0-5.41 3.095l-.108.235c-.664 1.435-1.035 2.955-1.143 4.716-6.369.305-13.26.502-21.533.616a5.383 5.383 0 0 0-1.37-.176l-.078.001-99.482 1.592-180.86-21.206-14.321-3.65a5.4 5.4 0 0 0-.96-.256l-.124-.02-88.444-22.543a5.407 5.407 0 0 0-5.706 2.073 5.356 5.356 0 0 0-.156 6.068l4.538 7.045a5.38 5.38 0 0 0-.821 5.372L51.462 34.739a5.354 5.354 0 0 0-2.06-.41c-1.239 0-2.45.43-3.409 1.213a5.384 5.384 0 0 0-1.885 5.197l2.894 15.012-2.227 10.446a5.373 5.373 0 0 0 1.462 4.935l.055.055a5.383 5.383 0 0 0-.101 4.838l.408.857-.522.587a5.402 5.402 0 0 0-1.256 2.52L44 84.091c-.056.278-.09.56-.1.84a5.335 5.335 0 0 0-.49 1.057l-7.793 23.19-22.232 41.117a5.39 5.39 0 0 0-.648 2.613l.172 18.973-2.57 4.138a5.392 5.392 0 0 0-.582 4.39l1.575 5.249-10.61 18.351a5.391 5.391 0 0 0-.447 4.401l5.392 16.172-3.334 19.997a5.375 5.375 0 0 0 .421 3.141L10 263.41l-.43 4.444a5.412 5.412 0 0 0 2.177 4.864l4.874 3.574a5.373 5.373 0 0 0-.297 1.447l-.78 12.29a5.367 5.367 0 0 0 1.28 3.84l7.128 8.335-1.343 1.946a5.415 5.415 0 0 0-.473 5.283l13.026 28.756v3.843a5.413 5.413 0 0 0 3.082 4.87l.347.164-.445 13.477a5.412 5.412 0 0 0 3.325 5.156l17.694 7.327 11.24 11.062a5.362 5.362 0 0 0 2.9 1.476l1.704.284 1.918 3.835a5.37 5.37 0 0 0 2.276 2.34l4.12 2.207 9.259 13.268-.431 6.039a5.355 5.355 0 0 0 2.643 5.028l.214.126-.06.62a5.388 5.388 0 0 0 4.58 5.842l43.688 6.423 70.846 42.053a5.43 5.43 0 0 0 2.295.737l55.763 4.708a5.398 5.398 0 0 0 3.99-1.303 5.415 5.415 0 0 0 1.846-3.772l.267-4.887 21.02 1.213 17.548 19.607a5.37 5.37 0 0 0 2.687 1.63l6.07 1.548 10.54 26.004a5.42 5.42 0 0 0 2.288 2.637l12.872 7.459 14.132 9.23a5.38 5.38 0 0 0 2.948.877 5.417 5.417 0 0 0 3.872-1.64l15.301-15.774 20.261 9.383 21.95 32.377a5.418 5.418 0 0 0 1.895 1.716l4.777 2.592 9.944 25.113a5.383 5.383 0 0 0 3.264 3.115l28.048 9.597c.48.166.99.263 1.508.286l13.935.597a5.364 5.364 0 0 0 5.047-2.963 5.399 5.399 0 0 0-.632-5.818L492.705 592l-5.02-12.927c.103-.272.204-.536.299-.792.354-.949.643-1.785.86-2.488.36-1.185.583-2.13.593-3.204l.001-.017v-.042a6.194 6.194 0 0 0-.407-2.186c.526-.741.86-1.61.962-2.527l.61-5.495a5.425 5.425 0 0 0-.01-1.278 5.363 5.363 0 0 0 2.09-2.762l1.458-4.373a5.29 5.29 0 0 0 .173-.65l1.774-.472a5.353 5.353 0 0 0 3.9-4.132l.808-3.958 3.227.525c.29.047.579.07.863.07a5.361 5.361 0 0 0 4.25-2.07 5.367 5.367 0 0 0 1.11-2.69l8.06.549a5.364 5.364 0 0 0 4.657-2.115l9.593-12.609 4.61-2.965a5.376 5.376 0 0 0 1.523-1.473 5.39 5.39 0 0 0 1.13-.314l27.412-10.926 20.199 4.213c.362.076.732.114 1.1.114a5.42 5.42 0 0 0 3.261-1.098 5.384 5.384 0 0 0 2.118-3.932l.08-1.199 3.06-.327 3.675 3.402c.346.32.734.594 1.15.814a5.405 5.405 0 0 0 2.005 4.05l7.169 5.775a5.408 5.408 0 0 0 4.141 1.14 5.4 5.4 0 0 0 3.648-2.232l1.666-2.366 7.237 1.292c.309.056.63.085.95.085a5.426 5.426 0 0 0 3.229-1.076 5.407 5.407 0 0 0 2.128-3.732l.24-2.217 2.18.587 4.693 4.535a5.393 5.393 0 0 0 5.402 1.255l6.937-2.243a5.408 5.408 0 0 0 3.25-2.898 5.404 5.404 0 0 0 .045-4.356l-1.866-4.354a5.354 5.354 0 0 0-1.319-1.855l-4.76-4.374a5.404 5.404 0 0 0 2.364-3.761l.643-4.717a5.38 5.38 0 0 0-2.99-5.576l-.21-.102-.007-.003-.026-.013-.036-.018 2.154-.993 14.546-1.974a5.372 5.372 0 0 0 2.24-.847 5.38 5.38 0 0 0 5.823 2.11l9.415-2.55a5.413 5.413 0 0 0 3.787-3.768l.152-.548a5.348 5.348 0 0 0 3.242 1.083c.69 0 1.363-.13 2.003-.386l5.701-2.28 7.274 2.523a5.417 5.417 0 0 0 1.766.297c.86 0 1.716-.208 2.478-.602l1.271-.659 7.069 7.734a5.402 5.402 0 0 0 5.183 1.619l10.052-2.32a5.402 5.402 0 0 0 2.997-1.885l5.149-6.434 5.804-.19 5.723 7.437a5.353 5.353 0 0 0 1.725 1.464l11.613 6.225 2.188 3.5 1.198 14.365c.05.613.205 1.21.46 1.773l2.87 6.358a5.361 5.361 0 0 0 3.453 2.971l-.204 1.12a5.41 5.41 0 0 0 .979 4.18l10.11 13.61a5.326 5.326 0 0 0 4.495 2.172 5.27 5.27 0 0 0 1.46-.248l.826.55a5.395 5.395 0 0 0 1.058 2.987l8.775 11.824a5.36 5.36 0 0 0 4.141 2.175l2.053.073 3.19 6.12c.192.372.426.716.696 1.03a5.423 5.423 0 0 0 2.382 4.1l5.401 3.601c.89.593 1.924.906 2.99.906 1.689 0 3.3-.805 4.313-2.155l1.418-1.89.102.044a5.384 5.384 0 0 0 7.077-2.832l2.993-6.984a5.405 5.405 0 0 0 .243-3.552l-1.241-4.497 2.326-22.363a5.388 5.388 0 0 0-.393-2.648l-6.584-15.612a5.457 5.457 0 0 0-.29-.584l-5.25-9.186a5.438 5.438 0 0 0-.3-.465l-1.974-2.739c.665-1.293.782-2.8.296-4.208l-3.768-10.928a5.375 5.375 0 0 0-1.661-2.397l-5.285-4.372-5.724-5.725-4.272-8.197a5.639 5.639 0 0 0-.25-.43l-3.121-4.765-3.003-10.067a5.379 5.379 0 0 0 .665-4.714l-4.016-12.21 5.505-19.089a5.764 5.764 0 0 0 .202-1.803l-.13-2.75a5.39 5.39 0 0 0 3.882-4.25l.58-3.253 9.41-6.015a5.409 5.409 0 0 0 2.4-3.572l.249-1.372 1.405-.67a5.414 5.414 0 0 0 2.803-3.183l3.101-9.455 3.803-2.196a5.361 5.361 0 0 0 2.497-3.22l3.042-10.921 12.112-8.018a5.393 5.393 0 0 0 1.789-1.972l9.02-17.014 9.219-4.131a5.418 5.418 0 0 0 3.147-4.27l.823-6.795a5.372 5.372 0 0 0-1.546-4.465 5.385 5.385 0 0 0 4.003-2.61l5.058-8.559a5.41 5.41 0 0 0 .098-5.31l-3.757-6.92a5.38 5.38 0 0 0-3.76-2.733 5.401 5.401 0 0 0-.544-2.153l-1.985-4.074c.04-.133.073-.266.102-.401a5.412 5.412 0 0 0-.54-6.401l-1.2-1.359a5.394 5.394 0 0 0-.266-.28l-4.07-4.07a5.347 5.347 0 0 0-1.876-1.223 5.378 5.378 0 0 0 1.711-1.157l4.928-4.926a5.354 5.354 0 0 0 1.58-3.81v-10.833l.156-3.003.005-.111.774-14.86c.01-.188.01-.376 0-.563a5.355 5.355 0 0 0 1.165-1.941l3.018-8.85c.077-.228.138-.456.183-.682l2.721-13.6 2.693-7.358a5.425 5.425 0 0 0 .09-3.435l-1.59-5.165a5.36 5.36 0 0 0-3.786-3.629l-1.862-.492.072-.838 2.511-6.056c.214-.255.406-.536.57-.835l3.296-4.481 8.41-6.726 4.64-.563a5.385 5.385 0 0 0 2.6-1.05l8.515-6.432c.385-.291.686-.609.87-.823l3.443-4.016a5.42 5.42 0 0 0 1.032-1.846l3.778.581a5.38 5.38 0 0 0 4.33-1.237 5.38 5.38 0 0 0 1.88-4.089v-.537l2.99-.97a5.389 5.389 0 0 0 1.452-.727l5.911-4.194a5.422 5.422 0 0 0 1.637-1.86l1.604-3.004a5.352 5.352 0 0 0 .407-4.087l-1.221-4.07a5.36 5.36 0 0 0-3.759-3.653l-7.594-2.052a5.369 5.369 0 0 0-1.403-.188 5.408 5.408 0 0 0-3.438 1.236 5.407 5.407 0 0 0-1.547 2.098l-1.882-1.748-.692-5.532a5.384 5.384 0 0 0-1.797-3.386l-1.833-1.604.668-2.3c.077-.267.136-.544.17-.824l1.253-10.015 1.56-5.156 3.976-1.928a5.412 5.412 0 0 0 1.924-1.567l4.387-5.722a5.409 5.409 0 0 0 .837-1.576l1.545-4.634a5.372 5.372 0 0 0 2.097.111 5.406 5.406 0 0 0 4.02-2.859l2.779-5.37 13.34-16.857a5.415 5.415 0 0 0 1.116-4.064 5.41 5.41 0 0 0-2.148-3.62L926.34 28.341a982.741 982.741 0 0 0-5.136-11.044c-1.718-3.629-3.134-6.534-4.208-8.634-.68-1.328-1.223-2.337-1.662-3.083a14.87 14.87 0 0 0-.834-1.29 7.134 7.134 0 0 0-.796-.919 5.387 5.387 0 0 0-.423-.37l-.128-.1a5.81 5.81 0 0 0-3.4-1.219 22.91 22.91 0 0 1-.918-.103c-.807-.102-1.942-.262-3.375-.475-.882-.132-1.592-.241-1.819-.277l-.015-.003-.04-.006-.073-.01-.13-.021a5.413 5.413 0 0 0-.854-.068zm-47.66 258.274l-.647-5.697-.86 4.083a3.966 3.966 0 0 1-.15.53l1.657 1.084zm-.748-7.854l.009-.05.322-1.88a3.924 3.924 0 0 1-2.857-3.025c-.176.407-.42.786-.729 1.119l2.3 2.299c.441.44.764.968.955 1.537zM641.203 135.871a3.926 3.926 0 0 1-1.681-.376l-2.648-1.246a3.953 3.953 0 0 1-3.374.87l-1.67 4.34 3.17-1.796a3.953 3.953 0 0 1 4.567.474 3.953 3.953 0 0 1 1.04 4.467l-5.332 12.946-.148 4.415 1.09 6.9a3.953 3.953 0 0 1-1.462 3.725l-2.908 2.285 1.546 4.084a3.938 3.938 0 0 1-.044 2.91l-1.605 3.875 5.287 12.389c.13.306.222.628.271.955l2.087 13.73 2.405 3.206 6.867-2.768 2.52-5.836.665-22.631-4.28-3.995a3.952 3.952 0 0 1-1.242-2.549l-1.887-21.898a3.958 3.958 0 0 1 .32-1.932l4.147-9.424c.04-.091.083-.181.133-.276l3.51-6.604a3.945 3.945 0 0 1 3.491-2.097h.049a3.935 3.935 0 0 1 2.135.655 3.957 3.957 0 0 1 1.403-3.066 3.922 3.922 0 0 1-.42-4.375l2.865-5.321a3.96 3.96 0 0 1 .648-.887l-.402-.274-3.927.294-2.83 4.043a3.947 3.947 0 0 1-2.37 1.59l-4.273.964-4.448 6.513a3.953 3.953 0 0 1-3.265 1.721zM83.005 55.356l.025-.03-.048-.77-.342.548c.126.077.248.162.365.252zm819.524-53.2c.208 0 .418.016.623.05l.163.026.053.007.025.004.024.003c.23.037.944.147 1.831.279 1.441.215 2.586.377 3.405.48.666.085.961.108 1.023.114a4.355 4.355 0 0 1 2.589.912l.128.1c.107.085.21.175.31.273.227.22.43.455.64.74.228.308.467.678.752 1.163.424.723.954 1.707 1.621 3.01 1.066 2.086 2.475 4.977 4.189 8.595a986.855 986.855 0 0 1 5.283 11.366l19.204 14.127c.86.632 1.434 1.6 1.575 2.655a3.972 3.972 0 0 1-.817 2.98l-13.427 16.965-2.843 5.494a3.965 3.965 0 0 1-3.512 2.137c-.784 0-1.55-.238-2.197-.669l-2.04 6.119a3.94 3.94 0 0 1-.613 1.156l-4.388 5.721a3.958 3.958 0 0 1-1.41 1.149l-4.543 2.203-1.777 5.875-1.266 10.131a3.975 3.975 0 0 1-.127.607l-.923 3.179 2.522 2.206a3.949 3.949 0 0 1 1.317 2.483l.757 6.051 4.1 3.806c.08.075.158.154.232.235l-.049-.634a3.963 3.963 0 0 1 1.423-3.346 3.968 3.968 0 0 1 2.521-.907c.35.001.697.048 1.03.138l7.595 2.052a3.931 3.931 0 0 1 2.755 2.68l1.223 4.07a3.926 3.926 0 0 1-.299 2.996l-1.605 3.005a3.97 3.97 0 0 1-1.2 1.364l-5.909 4.193a3.95 3.95 0 0 1-1.065.534l-3.984 1.292v1.581a3.948 3.948 0 0 1-3.952 3.952c-.203 0-.407-.016-.602-.046l-5.166-.795-.009.173a3.976 3.976 0 0 1-.946 2.372l-3.443 4.016a4.272 4.272 0 0 1-.644.611l-8.516 6.433a3.961 3.961 0 0 1-1.907.77l-5.045.611-8.877 7.1-3.467 4.716a3.834 3.834 0 0 1-.514.75l-.078.09-2.685 6.475-.194 2.264 3.033.802a3.93 3.93 0 0 1 2.776 2.66l1.59 5.165a3.98 3.98 0 0 1-.066 2.52l-2.73 7.46-2.744 13.709a3.98 3.98 0 0 1-.133.5l-3.018 8.85a3.942 3.942 0 0 1-1.326 1.85c.074.339.104.689.086 1.044l-.776 14.884-.003.087-.16 3.039v10.87a3.925 3.925 0 0 1-1.157 2.794l-4.93 4.928a3.923 3.923 0 0 1-2.796 1.158 3.93 3.93 0 0 1-2.648-1.021 3.948 3.948 0 0 1-.24.518l1.299.672a3.944 3.944 0 0 1 1.8 1.927 3.913 3.913 0 0 1 2.75 1.157l4.086 4.084c.06.06.12.122.19.2l1.2 1.36a3.97 3.97 0 0 1 .374 4.729l-.116.182-.027.142c-.057.305-.15.6-.274.88l2.251 4.621a3.94 3.94 0 0 1 .226 2.906l.378-.022a3.937 3.937 0 0 1 3.73 2.06l3.756 6.918a3.968 3.968 0 0 1-.071 3.894l-5.059 8.559a3.951 3.951 0 0 1-3.156 1.934l-4.234.264c.094.341.143.692.145 1.042l.446-.028a3.988 3.988 0 0 1 3.106 1.234 3.94 3.94 0 0 1 1.047 3.188l-.824 6.795a3.973 3.973 0 0 1-2.307 3.13l-9.67 4.333-9.252 17.452a3.957 3.957 0 0 1-1.312 1.446l-12.56 8.313-3.185 11.439a3.93 3.93 0 0 1-1.831 2.36l-4.28 2.471-3.27 9.976a3.976 3.976 0 0 1-2.056 2.335l-2.07.986-.381 2.094a3.965 3.965 0 0 1-1.76 2.62l-9.938 6.355-.693 3.872a3.954 3.954 0 0 1-3.891 3.258h-.052l-.008.295.179 3.766c.01.215.016.775-.147 1.338l-5.628 19.516 4.154 12.63a3.973 3.973 0 0 1-.912 3.979c.06.139.112.282.155.428l3.143 10.537 3.229 4.927c.067.105.13.212.185.32l4.375 8.393 5.927 5.928 5.338 4.416a3.938 3.938 0 0 1 1.218 1.758l3.77 10.93a3.96 3.96 0 0 1-.677 3.785l2.544 3.528a4 4 0 0 1 .22.343l5.251 9.186c.075.132.146.274.212.428l6.584 15.61c.258.614.357 1.286.288 1.943l-2.355 22.632 1.313 4.758a3.961 3.961 0 0 1-.177 2.605l-2.994 6.984a3.948 3.948 0 0 1-5.19 2.076l-1.14-.488-2.095 2.793a3.971 3.971 0 0 1-3.163 1.581 3.95 3.95 0 0 1-2.193-.664l-5.4-3.601a3.976 3.976 0 0 1-1.752-3.495 3.956 3.956 0 0 1-.85-1.103l-3.576-6.864-2.89-.102a3.933 3.933 0 0 1-3.037-1.595l-8.776-11.825a3.957 3.957 0 0 1-.77-2.639l.017-.245-1.945-1.297a4.653 4.653 0 0 1-.168-.118 3.893 3.893 0 0 1-1.817.434 3.902 3.902 0 0 1-3.156-1.597l-10.111-13.61a3.965 3.965 0 0 1-.718-3.064l.477-2.62a3.931 3.931 0 0 1-.786-.034 3.933 3.933 0 0 1-3.043-2.286l-2.871-6.36a3.918 3.918 0 0 1-.338-1.3l-1.227-14.711-2.575-4.12-11.95-6.406a3.925 3.925 0 0 1-1.265-1.073l-6.172-8.022-7.203.236-5.563 6.952a3.962 3.962 0 0 1-2.198 1.382l-10.048 2.318a3.96 3.96 0 0 1-3.802-1.186l-7.812-8.548-2.25 1.165a3.974 3.974 0 0 1-3.111.224l-7.782-2.699-6.199 2.48c-.47.188-.964.283-1.469.283a3.923 3.923 0 0 1-2.794-1.158l-.773-.772h-.535l-.677 2.45a3.969 3.969 0 0 1-2.778 2.763l-9.414 2.549a3.947 3.947 0 0 1-4.313-1.608l-.886-1.315a3.974 3.974 0 0 1-2.683 1.624l-14.759 2.002-5.193 2.397a83.156 83.156 0 0 1 2.853 1.302l.017.008.016.008.212.104a3.944 3.944 0 0 1 2.192 4.088l-.642 4.716a3.966 3.966 0 0 1-3.66 3.41l6.51 5.98c.418.381.743.838.968 1.361l1.866 4.356a3.96 3.96 0 0 1-.033 3.193 3.968 3.968 0 0 1-2.383 2.126l-6.936 2.242a3.954 3.954 0 0 1-3.962-.92l-4.959-4.793-3.888-1.047a3.795 3.795 0 0 1-.27-.083l-.424 3.897a3.96 3.96 0 0 1-1.56 2.736 3.977 3.977 0 0 1-3.065.727l-8.139-1.454-2.192 3.114a3.961 3.961 0 0 1-3.233 1.677 3.968 3.968 0 0 1-2.48-.876l-7.168-5.775a3.962 3.962 0 0 1-1.465-3.3l.033-.584a3.947 3.947 0 0 1-1.648-.915l-4.155-3.846-4.911.525-.16 2.403a3.953 3.953 0 0 1-4.752 3.605l-20.622-4.3-27.817 11.085a3.934 3.934 0 0 1-1.461.283 3.94 3.94 0 0 1-1.434 1.63l-4.824 3.103-9.747 12.81a3.936 3.936 0 0 1-3.415 1.551l-9.667-.658a3.95 3.95 0 0 1-.733 3.348 3.932 3.932 0 0 1-3.75 1.467l-4.589-.747-1.085 5.312a3.926 3.926 0 0 1-2.86 3.03l-2.74.727c.009.443-.056.892-.202 1.329l-1.457 4.373a3.932 3.932 0 0 1-2.39 2.462 3.93 3.93 0 0 1 .244 1.874l-.61 5.494a3.944 3.944 0 0 1-1.238 2.463c.09.15.175.305.25.468a4.71 4.71 0 0 1 .424 1.937v.05c-.009.9-.208 1.733-.53 2.794a45.31 45.31 0 0 1-.833 2.41c-.153.41-.319.843-.494 1.293l5.304 13.658 4.934 6.072a3.959 3.959 0 0 1 .463 4.267 3.933 3.933 0 0 1-3.7 2.173l-13.933-.596a3.957 3.957 0 0 1-1.107-.21l-28.046-9.598a3.947 3.947 0 0 1-2.395-2.284l-10.135-25.598-5.238-2.843a3.966 3.966 0 0 1-1.39-1.257l-22.173-32.707-21.549-9.98-16.012 16.507a3.97 3.97 0 0 1-2.84 1.203 3.941 3.941 0 0 1-2.161-.644L352 527.986l-12.903-7.479a3.97 3.97 0 0 1-1.68-1.934l-10.813-26.675-6.774-1.73a3.937 3.937 0 0 1-1.97-1.194l-17.943-20.05-23.053-1.33-.345 6.326a3.957 3.957 0 0 1-4.28 3.722l-55.762-4.708a3.99 3.99 0 0 1-1.683-.54l-71.09-42.199-43.968-6.464a3.951 3.951 0 0 1-3.358-4.285l.145-1.53-1.002-.59a3.927 3.927 0 0 1-1.938-3.687l.468-6.546-9.748-13.967-4.424-2.37a3.932 3.932 0 0 1-1.668-1.716l-2.245-4.489-2.429-.405a3.934 3.934 0 0 1-2.125-1.082l-11.44-11.258-17.953-7.434a3.97 3.97 0 0 1-2.438-3.781l.475-14.42-1.198-.568a3.97 3.97 0 0 1-2.261-3.571v-4.154L23.445 308.84a3.97 3.97 0 0 1 .346-3.873l1.97-2.857-7.845-9.173a3.938 3.938 0 0 1-.939-2.817l.781-12.289c.046-.714.287-1.4.686-1.984l-5.848-4.288A3.969 3.969 0 0 1 11 267.993l.467-4.833-7.406-16.041a3.939 3.939 0 0 1-.309-2.304l3.393-20.349-5.505-16.51a3.956 3.956 0 0 1 .328-3.228l10.92-18.888-1.753-5.843a3.953 3.953 0 0 1 .428-3.22l2.788-4.493-.176-19.39a3.959 3.959 0 0 1 .476-1.916l22.29-41.226 7.833-23.306a3.96 3.96 0 0 1 .564-1.084 3.99 3.99 0 0 1 .072-.99l.82-4.1a3.962 3.962 0 0 1 .922-1.848l1.155-1.3-.819-1.717a3.95 3.95 0 0 1 .67-4.387l-.905-.904a3.938 3.938 0 0 1-1.072-3.62l2.288-10.73-2.95-15.3a3.948 3.948 0 0 1 1.383-3.81 3.964 3.964 0 0 1 2.5-.89c.521 0 1.03.102 1.51.301l30.345 12.56a3.947 3.947 0 0 1 1.424 1.002l-.033-.528-1.928-2.67a3.958 3.958 0 0 1-.664-3.125 3.96 3.96 0 0 1 1.523-2.368l-5.176-8.033a3.927 3.927 0 0 1 .115-4.45 3.965 3.965 0 0 1 4.185-1.52l88.502 22.558.18.03c.263.045.52.116.767.212l14.492 3.693 181.05 21.229 99.576-1.594h.056c.405 0 .8.059 1.179.178 8.998-.122 16.253-.337 23.13-.687-.002-.074-.002-.15-.002-.225 0-2.046.331-3.715 1.044-5.255l.108-.234a3.97 3.97 0 0 1 3.968-2.27l.254.024c1.73.169 3.409.503 4.857.969 2.068.667 3.655 1.572 4.848 2.762.12.119.35.363.542.655.993 1.498 1.476 3.095 1.901 4.503l.031.102c.063.207.125.414.192.626.239.765.526 1.593.88 2.103 1.368.831 2.645 1.236 3.897 1.236 2.465.001 4.758.18 6.99.355 2.056.16 3.997.31 5.932.31 2.039 0 3.774-.167 5.45-.527a10.568 10.568 0 0 1 3.07-.448c2.282.002 4.282.666 6.045 1.252l.052.017c.11.034.128.042.183.064 2.25.844 4.31 1.92 6.327 2.972.905.472 1.841.96 2.74 1.395 2.141 1.036 4.693 2.096 7.387 2.096.125 0 .371.006.63.046 2.008.309 4.074.46 6.323.46 4.043 0 8.036-.484 12.263-.996l.057-.006c2.827-.342 5.752-.695 8.753-.902l1.03-.07a3.96 3.96 0 0 1 3.879 2.37 3.96 3.96 0 0 1-.932 4.465l-.742.69c-3.805 3.544-7.95 6.486-11.965 9.337-1.697 1.204-3.45 2.448-5.117 3.699-3.436 2.577-7.188 5.665-10.339 9.67 1.07-.606 2.077-1.19 2.704-1.553.63-.367 1.08-.631 1.218-.713l.008-.005.047-.028.489-.288a3.95 3.95 0 0 1 3.82-.114 3.931 3.931 0 0 1 2.13 3.167l.278 3.16 3.188.14.729-.5c.582-.401 1.228-.844 1.835-1.255 1.307-.886 1.959-1.315 2.34-1.535a6.807 6.807 0 0 1 1.34-.566c.306-.097.666-.197 1.07-.3.633-.162 1.413-.34 2.318-.533.434-.092.858-.18 1.244-.257 1.168-1.65 2.529-3.552 3.253-4.483.283-.364.497-.616.718-.838.352-.344.68-.58 1.028-.823a31.5 31.5 0 0 1 .93-.608 103.16 103.16 0 0 1 2.251-1.38c.758-.455 1.497-.892 2.054-1.219l2.855-4.759a3.985 3.985 0 0 1 1.888-1.623l14.609-6.002a3.946 3.946 0 0 1 1.5-.295c1.077 0 2.12.448 2.865 1.229a3.93 3.93 0 0 1 .712 4.406l-3.453 7.336c-.207.44-.49.833-.832 1.163l2.71.226a3.98 3.98 0 0 1 2.285.975l5.27 4.649 9.878.274 4.528-5.11a3.948 3.948 0 0 1 1.902-1.188l9.099-2.527 2.463-2.462a3.966 3.966 0 0 1 2.358-1.134l3.979-.442a3.944 3.944 0 0 1 3.398 1.295 3.96 3.96 0 0 1 .905 3.511l-.626 2.74.237.05 6.528-1.339a3.98 3.98 0 0 1 2.449.28l7.202 3.308a3.932 3.932 0 0 1 2.268 3.08l.65 4.974a3.969 3.969 0 0 1-1.174 3.354 3.93 3.93 0 0 1-3.396 1.055l-4.281-.714a3.998 3.998 0 0 1-1.23 1.504l21.524 3.98a3.942 3.942 0 0 1 2.731 1.955 3.938 3.938 0 0 1 .24 3.349l-1.384 3.6 4.942 11.2c.395.893.445 1.896.142 2.824l-.75 2.297a3.95 3.95 0 0 1 2.263-.091l8.485 2.17a3.96 3.96 0 0 1 2.71 2.407l6.992 18.14c.093.24.163.493.208.755l1.344 7.86a3.947 3.947 0 0 1-.87 3.204l-7.315 8.713.703 2.023c.097.278.163.568.195.862l.387 3.484a3.972 3.972 0 0 1-.227 1.828l-.375 1.002 2.635.36 5.437.143 34.582-24.363 15.55-15.717.036-1.031-1.314-.803a3.974 3.974 0 0 1-1.615-1.917l-.044-.111a29.88 29.88 0 0 1-.647-1.829c-.345-1.093-.742-2.513-.747-3.828 0-.499.053-.957.168-1.426a4.82 4.82 0 0 1 1.266-2.237 5.92 5.92 0 0 1 .906-.719c.186-.121.399-.254.655-.407a67.71 67.71 0 0 1 1.642-.936 294.5 294.5 0 0 1 4.405-2.383 829.405 829.405 0 0 1 6.03-3.172l.04-.02.025-.013.014-.008.055-.028.067-.035.009-.004a3.917 3.917 0 0 1 1.459-.415l13.9-1.172 6.954-7.598c.42-.46.955-.82 1.545-1.04l2.135-.79-1.725-1.654a3.932 3.932 0 0 1-.348-5.32l.395-.493a3.935 3.935 0 0 1-3.56-1.385 3.932 3.932 0 0 1-.715-3.783l1.528-4.582a3.938 3.938 0 0 1 1.354-1.89l2.793-2.128.945-3.91c.017-.077.038-.154.068-.255l3.416-11.193a3.947 3.947 0 0 1 2.222-2.476l28.894-12.38 27.29-12.733 3.514-3.384.255-.61a2.92 2.92 0 0 1 .082-.188c.83-1.97 2.37-5.58 3.522-8.005.375-.786.666-1.363.917-1.818-.034-.34-.088-.812-.173-1.448a140.22 140.22 0 0 0-.63-4.145 429.651 429.651 0 0 0-1.515-8.544c-.207-1.114-.361-1.92-.42-2.23l-.001-.002-.028-.142-.005-.027-.031-.165v-.037a4.272 4.272 0 0 1-.01-1.102l3.24-24.002a3.945 3.945 0 0 1 1.738-2.77 3.943 3.943 0 0 1 3.237-.51l7.86 2.182 5.633-6.496a3.947 3.947 0 0 1 2.985-1.364z" fill="#BFBFBF"/><path fill="#5B5B5B" d="M253.973 471.774l18.26 1.541.56-10.274 28.709 1.656-.253-5.184 70.843 2.59 1.295-114.008-109.566-5.814z"/><path stroke="#FFF" stroke-width="4" d="M253.973 471.774l18.26 1.541.56-10.274 28.709 1.656-.253-5.184 70.843 2.59 1.295-114.008-109.566-5.814z"/><path fill="#5B5B5B" d="M235.555 246.763l2.801-19.84-49.962-10.847-16.209 114.243 91.636 11.962 7.717-91.84z"/><path stroke="#FFF" stroke-width="4" d="M235.555 246.763l2.801-19.84-49.962-10.847-16.209 114.243 91.636 11.962 7.717-91.84z"/><path fill="#5B5B5B" d="M238.356 161.547l-3.994 6.487-8.985-3.493-7.488 1.996-6.49-4.492-7.986-24.453-7.488.499 2.995-23.456-16.972-21.957 2.874-34.888-.966-.113-15.55-3.964.003.001-11.38 66.399-.162-.03 3.626 3.988v8.41l-5.939 4.7-1.484 8.411-6.434 5.195.247 7.174 3.217 2.474-3.711 5.194-6.928 39.827 49.033 10.62 49.962 10.846 7.986-60.385z"/><path stroke="#FFF" stroke-width="4" d="M238.356 161.547l-3.994 6.487-8.985-3.493-7.488 1.996-6.49-4.492-7.986-24.453-7.488.499 2.995-23.456-16.972-21.957 2.874-34.888-.966-.113-15.55-3.964.003.001-11.38 66.399-.162-.03 3.626 3.988v8.41l-5.939 4.7-1.484 8.411-6.434 5.195.247 7.174 3.217 2.474-3.711 5.194-6.928 39.827 49.033 10.62 49.962 10.846 7.986-60.385z"/><path fill="#5B5B5B" d="M172.185 330.32l-2.727 19.216-12.939-2.208-.947 6.625 1.263 8.834-3.785 7.277 9.165 21.102-6.388 2.499-3.055 11.66-3.888 2.5-.555 5.83 3.054 9.995-4.444-.554-.871 3.488-.894-.53 71.751 42.59 37.047 3.13 9.849-129.493z"/><path stroke="#FFF" stroke-width="4" d="M172.185 330.32l-2.727 19.216-12.939-2.208-.947 6.625 1.263 8.834-3.785 7.277 9.165 21.102-6.388 2.499-3.055 11.66-3.888 2.5-.555 5.83 3.054 9.995-4.444-.554-.871 3.488-.894-.53 71.751 42.59 37.047 3.13 9.849-129.493z"/><path fill="#5B5B5B" d="M169.458 349.536l18.936-133.46-49.033-10.62-51.275-13.23-14.742 69.554 79.706 108.283 3.785-7.276-1.263-8.834.947-6.626z"/><path stroke="#FFF" stroke-width="4" d="M169.458 349.536l18.936-133.46-49.033-10.62-51.275-13.23-14.742 69.554 79.706 108.283 3.785-7.276-1.263-8.834.947-6.626z"/><path fill="#296DA7" d="M153.05 370.064L73.343 261.78l14.755-69.614-69.782-18.092.359-.578-3.364 5.417 2.243 7.472-11.772 20.36 5.793 17.374-3.551 21.296 7.848 16.998-.56 5.79 8.408 6.166.373-6.912 5.046 1.495-1.869 10.087-5.232-.56-.748 11.768 9.904 11.581-3.738 5.418 13.455 29.702v4.856l3.55 1.68-.561 17 18.5 7.66 11.957 11.768 4.485.747 3.176 6.351 5.232 2.803 11.211 16.065-.56 7.846 3.176 1.868-.373 3.923 44.47 6.538.894.53.872-3.487 4.443.554-3.054-9.995.555-5.83 3.888-2.5 3.055-11.66 6.388-2.5z"/><path stroke="#FFF" stroke-width="4" d="M153.05 370.064L73.343 261.78l14.755-69.614-69.782-18.092.359-.578-3.364 5.417 2.243 7.472-11.772 20.36 5.793 17.374-3.551 21.296 7.848 16.998-.56 5.79 8.408 6.166.373-6.912 5.046 1.495-1.869 10.087-5.232-.56-.748 11.768 9.904 11.581-3.738 5.418 13.455 29.702v4.856l3.55 1.68-.561 17 18.5 7.66 11.957 11.768 4.485.747 3.176 6.351 5.232 2.803 11.211 16.065-.56 7.846 3.176 1.868-.373 3.923 44.47 6.538.894.53.872-3.487 4.443.554-3.054-9.995.555-5.83 3.888-2.5 3.055-11.66 6.388-2.5z"/><path d="M80.523 31.339l81.243 20.707L80.523 31.34zM66.86 103.786l-5.023-12.67-13.08-2.99-7.848 23.35-22.422 41.47.187 20.55-.36.579 121.046 31.382 6.928-39.827 3.711-5.195-3.216-2.474-.247-7.174 6.433-5.195 1.485-8.41 5.939-4.7v-8.411l-3.626-3.987-89.907-16.298z" fill="#5B5B5B"/><path d="M80.523 31.339l81.243 20.707L80.523 31.34zM66.86 103.786l-5.023-12.67-13.08-2.99-7.848 23.35-22.422 41.47.187 20.55-.36.579 121.046 31.382 6.928-39.827 3.711-5.195-3.216-2.474-.247-7.174 6.433-5.195 1.485-8.41 5.939-4.7v-8.411l-3.626-3.987-89.907-16.298z" stroke="#FFF" stroke-width="4"/><path fill="#296DA7" d="M49.692 84.95l12.146 6.165 5.023 12.67 90.068 16.328 11.38-66.4L80.522 31.34l7.1 11.021-3.176 1.868 2.429 3.362.561 9.154-4.111 5.043-.56 6.165-8.035 5.604-5.793-2.242 9.904-5.23 1.307-7.286-4.672-.373 3.739-5.978-29.337-12.142 2.99 15.504-2.43 11.395 5.42 5.417-4.298 1.309 1.868 3.922-2.99 3.363z"/><path stroke="#FFF" stroke-width="4" d="M49.692 84.95l12.146 6.165 5.023 12.67 90.068 16.328 11.38-66.4L80.522 31.34l7.1 11.021-3.176 1.868 2.429 3.362.561 9.154-4.111 5.043-.56 6.165-8.035 5.604-5.793-2.242 9.904-5.23 1.307-7.286-4.672-.373 3.739-5.978-29.337-12.142 2.99 15.504-2.43 11.395 5.42 5.417-4.298 1.309 1.868 3.922-2.99 3.363z"/><path fill="#5B5B5B" d="M198.92 114.636l-2.995 23.455 7.488-.499 7.987 24.453 6.49 4.492 7.487-1.996 8.985 3.493 3.994-6.487 7.986 4.99.374-8.36 113.814 7.86-.02.933 3.167-88.21-179.82-21.083.965.113-2.874 34.887z"/><path stroke="#FFF" stroke-width="4" d="M198.92 114.636l-2.995 23.455 7.488-.499 7.987 24.453 6.49 4.492 7.487-1.996 8.985 3.493 3.994-6.487 7.986 4.99.374-8.36 113.814 7.86-.02.933 3.167-88.21-179.82-21.083.965.113-2.874 34.887z"/><path d="M559.558 480.172l-4.967-13.242-3.312-1.655-6.291-13.904-.331-31.121-22.187-5.628-10.597.663-10.265 5.297-26.49-5.297-4.969.662-5.297-3.641-13.244-.33-7.285-5.96-4.304 2.317-12.252-5.627-.331-42.375-54.185-.297-1.16 102.07-70.842-2.592.253 5.185-28.708-1.657 29.149 1.682 19.06 21.296 8.781 2.242 11.585 28.58 12.892 7.473 14.014 9.152 17.938-18.493 25.412 11.769 22.797 33.624 6.539 3.55 10.651 26.9 27.84 9.526 13.078.56-4.858-5.978-6.167-15.878s2.803-6.725 2.057-6.725c-.748 0-5.046-.934-5.046-.934l-1.307-3.55 7.1-.933.56-5.044s-3.737-3.735-3.176-4.296c.56-.56 5.605-1.307 5.605-1.307l1.308-3.923-3.363-2.616 9.156-2.428 1.868-9.154 8.034 1.308-2.242-5.23 16.444 1.12 10.09-13.263 5.231-3.362-2.055-6.352 5.42-4.857.934 8.592 17.867-7.121 1.581-12.91-2.649-2.977v-8.94l4.636-3.971z" fill="#5B5B5B"/><path d="M559.558 480.172l-4.967-13.242-3.312-1.655-6.291-13.904-.331-31.121-22.187-5.628-10.597.663-10.265 5.297-26.49-5.297-4.969.662-5.297-3.641-13.244-.33-7.285-5.96-4.304 2.317-12.252-5.627-.331-42.375-54.185-.297-1.16 102.07-70.842-2.592.253 5.185-28.708-1.657 29.149 1.682 19.06 21.296 8.781 2.242 11.585 28.58 12.892 7.473 14.014 9.152 17.938-18.493 25.412 11.769 22.797 33.624 6.539 3.55 10.651 26.9 27.84 9.526 13.078.56-4.858-5.978-6.167-15.878s2.803-6.725 2.057-6.725c-.748 0-5.046-.934-5.046-.934l-1.307-3.55 7.1-.933.56-5.044s-3.737-3.735-3.176-4.296c.56-.56 5.605-1.307 5.605-1.307l1.308-3.923-3.363-2.616 9.156-2.428 1.868-9.154 8.034 1.308-2.242-5.23 16.444 1.12 10.09-13.263 5.231-3.362-2.055-6.352 5.42-4.857.934 8.592 17.867-7.121 1.581-12.91-2.649-2.977v-8.94l4.636-3.971z" stroke="#FFF" stroke-width="4"/><path d="M649.673 508.246l-6.913-6.351-3.364-4.109.935-3.55 5.232.56.56-4.109s-6.165-2.99-6.727-2.429c-.56.562-3.737 4.857-3.737 4.857l-1.868-5.417-4.485-.186v2.989l-8.22 2.801-1.123-4.67-4.11-3.923h6.913l.187-3.175 13.19 2.813-3.811-6.74-1.49-8.446-34.79 1.242-.247-9.688 8.449-11.924-2.983-19.627-56.49 2.733.207 19.474 6.291 13.903 3.312 1.656 4.966 13.242-4.635 3.972v8.939l2.65 2.978-1.582 12.91 10.72-4.273 21.49 4.483.372-5.605 10.465-1.12 5.044 4.67.374-5.231-4.858-4.296 2.99-.746 5.605 5.603-.56 9.9 6.725 5.418 3.552-5.044 10.463 1.87.934-8.595-5.418-3.735 2.989-3.551 7.66 8.78 4.86 1.308 5.605 5.417 6.353-2.053-1.682-3.925z" fill="#5B5B5B"/><path d="M649.673 508.246l-6.913-6.351-3.364-4.109.935-3.55 5.232.56.56-4.109s-6.165-2.99-6.727-2.429c-.56.562-3.737 4.857-3.737 4.857l-1.868-5.417-4.485-.186v2.989l-8.22 2.801-1.123-4.67-4.11-3.923h6.913l.187-3.175 13.19 2.813-3.811-6.74-1.49-8.446-34.79 1.242-.247-9.688 8.449-11.924-2.983-19.627-56.49 2.733.207 19.474 6.291 13.903 3.312 1.656 4.966 13.242-4.635 3.972v8.939l2.65 2.978-1.582 12.91 10.72-4.273 21.49 4.483.372-5.605 10.465-1.12 5.044 4.67.374-5.231-4.858-4.296 2.99-.746 5.605 5.603-.56 9.9 6.725 5.418 3.552-5.044 10.463 1.87.934-8.595-5.418-3.735 2.989-3.551 7.66 8.78 4.86 1.308 5.605 5.417 6.353-2.053-1.682-3.925z" stroke="#FFF" stroke-width="4"/><path fill="#5B5B5B" d="M636.967 484.523l12.146-5.605 10.171-1.38-9.06-104.515-37.99 4.557-5.992 17.304-7.455 14.657 2.982 8.198-.498 11.426 2.982 19.626-8.448 11.923.247 9.69 34.79-1.243 1.49 8.446 3.81 6.74"/><path stroke="#FFF" stroke-width="4" d="M636.967 484.523l12.146-5.605 10.171-1.38-9.06-104.515-37.99 4.557-5.992 17.304-7.455 14.657 2.982 8.198-.498 11.426 2.982 19.626-8.448 11.923.247 9.69 34.79-1.243 1.49 8.446 3.81 6.74"/><path fill="#5B5B5B" d="M717.567 423.95l3.727-4.225-6.958-7.948-14.412-47.946-36.777 7.7-1.987-2.732-8.697 1.989-2.217 2.49 9.038 104.26 4.964-.674 1.308-8.407 6.54 9.714 4.726-1.28-.256-5.988-2.236-8.696 46.467-10.932z"/><path stroke="#FFF" stroke-width="4" d="M717.567 423.95l3.727-4.225-6.958-7.948-14.412-47.946-36.777 7.7-1.987-2.732-8.697 1.989-2.217 2.49 9.038 104.26 4.964-.674 1.308-8.407 6.54 9.714 4.726-1.28-.256-5.988-2.236-8.696 46.467-10.932z"/><path fill="#5B5B5B" d="M835.778 528.982l-6.54-15.503-5.232-9.154-11.585-16.066 1.495-2.428 2.803.56 4.858 9.528-3.736-10.835-5.42-4.483-6.54-6.54-4.67-8.964-3.55-5.419-3.177-10.647-2.242 1.681 2.616 12.329-4.858-6.912.374-8.966 4.67-3.176-.74-2.25-12.876 1.84-.746 10.681-5.217-4.224-46.468 6.957-8.2-5.715-46.467 10.93 2.236 8.696.256 5.989-3.414.925 7.656-2.073 1.496-5.417h5.605l1.868 1.868 7.474-2.989 9.157 3.175 5.044-2.615 9.903 10.835 9.717-2.241 6.726-8.406 11.398-.374 7.474 9.714 12.894 6.911 3.736 5.979 1.308 15.69 2.616 5.792 2.243-2.616 3.176 2.243-1.494 8.218 9.715 13.077 2.99-4.483 1.495 5.23 3.924 2.615-.187 2.616 8.596 11.58 5.23.188 4.673 8.967 6.165 2.241-4.297 1.307 4.484 2.99 3.924-5.23 3.924 1.68 2.803-6.538-1.495-5.417z"/><path stroke="#FFF" stroke-width="4" d="M835.778 528.982l-6.54-15.503-5.232-9.154-11.585-16.066 1.495-2.428 2.803.56 4.858 9.528-3.736-10.835-5.42-4.483-6.54-6.54-4.67-8.964-3.55-5.419-3.177-10.647-2.242 1.681 2.616 12.329-4.858-6.912.374-8.966 4.67-3.176-.74-2.25-12.876 1.84-.746 10.681-5.217-4.224-46.468 6.957-8.2-5.715-46.467 10.93 2.236 8.696.256 5.989-3.414.925 7.656-2.073 1.496-5.417h5.605l1.868 1.868 7.474-2.989 9.157 3.175 5.044-2.615 9.903 10.835 9.717-2.241 6.726-8.406 11.398-.374 7.474 9.714 12.894 6.911 3.736 5.979 1.308 15.69 2.616 5.792 2.243-2.616 3.176 2.243-1.494 8.218 9.715 13.077 2.99-4.483 1.495 5.23 3.924 2.615-.187 2.616 8.596 11.58 5.23.188 4.673 8.967 6.165 2.241-4.297 1.307 4.484 2.99 3.924-5.23 3.924 1.68 2.803-6.538-1.495-5.417z"/><path d="M796.54 409.615l-.068-1.427-2.804-1.444-10.003-9.375-1.243-8.197-28.824-18.384-3.728-5.963-8.697-5.465v-5.962l-41.25 10.433 14.413 47.946 6.958 7.948-3.727 4.225 3.23 27.326 8.2 5.715 46.468-6.957 5.218 4.224.745-10.682 12.877-1.84-3.744-11.386 5.979-20.735zm-85.259 60.372l.428-.222-.428.222z" fill="#5B5B5B"/><path d="M796.54 409.615l-.068-1.427-2.804-1.444-10.003-9.375-1.243-8.197-28.824-18.384-3.728-5.963-8.697-5.465v-5.962l-41.25 10.433 14.413 47.946 6.958 7.948-3.727 4.225 3.23 27.326 8.2 5.715 46.468-6.957 5.218 4.224.745-10.682 12.877-1.84-3.744-11.386 5.979-20.735zm-85.259 60.372l.428-.222-.428.222z" stroke="#FFF" stroke-width="4"/><path fill="#5B5B5B" d="M808.67 338.959l-22.215 6.238-5.49-4.491-26.458 4.49-13.334 8.202v5.962l8.697 5.466 3.728 5.962 28.824 18.383 1.243 8.199 10.003 9.374 2.804 1.444.068 1.428-.187-3.923.187-7.098 3.924 2.241.935-5.23 11.396-7.285.749-4.11 3.924-1.87 3.736-11.394 5.58-3.22 3.33-11.953z"/><path stroke="#FFF" stroke-width="4" d="M808.67 338.959l-22.215 6.238-5.49-4.491-26.458 4.49-13.334 8.202v5.962l8.697 5.466 3.728 5.962 28.824 18.383 1.243 8.199 10.003 9.374 2.804 1.444.068 1.428-.187-3.923.187-7.098 3.924 2.241.935-5.23 11.396-7.285.749-4.11 3.924-1.87 3.736-11.394 5.58-3.22 3.33-11.953z"/><path d="M859.136 307.434l2.43-3.736 1.493 2.803 5.98-.374 4.858-8.22-3.55-6.538-3.176.187-.748 3.55-5.605-1.122-4.859 3.176-5.044-8.735 1.68-.978 3.364 4.296 9.717-5.978-3.293-6.757-100.4 30.626-.188 8.77-8.773 2.8-2.799 5.784s-5.413-.746-5.974-.186c-.559.56-24.825 25.937-24.825 25.937l1.054 5.893-9.426 2.385 30.12-7.62 13.335-8.2 26.457-4.491 5.49 4.49 22.215-6.238 21.444 16.816.248-.892 13.826-9.153 9.903-18.68 10.838-4.857.748-6.165-2.99.187-2.616 3.176-4.11 1.12-3.55-1.867 5.23-1.308 3.178-5.23h-5.98l-3.55-3.176 5.232.56 2.616-2.055z" fill="#5B5B5B"/><path d="M859.136 307.434l2.43-3.736 1.493 2.803 5.98-.374 4.858-8.22-3.55-6.538-3.176.187-.748 3.55-5.605-1.122-4.859 3.176-5.044-8.735 1.68-.978 3.364 4.296 9.717-5.978-3.293-6.757-100.4 30.626-.188 8.77-8.773 2.8-2.799 5.784s-5.413-.746-5.974-.186c-.559.56-24.825 25.937-24.825 25.937l1.054 5.893-9.426 2.385 30.12-7.62 13.335-8.2 26.457-4.491 5.49 4.49 22.215-6.238 21.444 16.816.248-.892 13.826-9.153 9.903-18.68 10.838-4.857.748-6.165-2.99.187-2.616 3.176-4.11 1.12-3.55-1.867 5.23-1.308 3.178-5.23h-5.98l-3.55-3.176 5.232.56 2.616-2.055z" stroke="#FFF" stroke-width="4"/><path fill="#5B5B5B" d="M859.51 245.229l-1.121 6.538.933 8.22 4.3-4.298v-10.835l.137-2.647-8.075 2.317.089.518z"/><path stroke="#FFF" stroke-width="4" d="M859.51 245.229l-1.121 6.538.933 8.22 4.3-4.298v-10.835l.137-2.647-8.075 2.317.089.518z"/><path d="M863.51 277.71a4.138 4.138 0 0 1 .563-1.446l-1.013-1.147-3.924-3.923-3.364 1.494-2.428 1.682-9.53-3.923 6.726-.935 3.738 2.242.934-3.176-5.045-2.614 2.055-3.55-10.276-6.725 2.056-1.868 5.232 2.242.747-3.549-4.938-4.937-1.931.555-10.233 1.247-5.242-4.49-.5-10.73-4.592-2.296-1.148-3.444-7.488-1.746.274 4.288c-.395.913-.855 1.7-1.272 1.7-1 0-5.99.749-5.99.749l-10.483 21.21-7.239 3.493-7.986 13.224.998 11.728-4.742 3.743-10.732 4.242-3.994 5.739-12.979-7.237-8.236 12.477v5.24l-5.56 7.628 26.014-5.264 100.402-30.625-.258-.529 1.383-.768z" fill="#5B5B5B"/><path d="M863.51 277.71a4.138 4.138 0 0 1 .563-1.446l-1.013-1.147-3.924-3.923-3.364 1.494-2.428 1.682-9.53-3.923 6.726-.935 3.738 2.242.934-3.176-5.045-2.614 2.055-3.55-10.276-6.725 2.056-1.868 5.232 2.242.747-3.549-4.938-4.937-1.931.555-10.233 1.247-5.242-4.49-.5-10.73-4.592-2.296-1.148-3.444-7.488-1.746.274 4.288c-.395.913-.855 1.7-1.272 1.7-1 0-5.99.749-5.99.749l-10.483 21.21-7.239 3.493-7.986 13.224.998 11.728-4.742 3.743-10.732 4.242-3.994 5.739-12.979-7.237-8.236 12.477v5.24l-5.56 7.628 26.014-5.264 100.402-30.625-.258-.529 1.383-.768z" stroke="#FFF" stroke-width="4"/><path d="M748.978 289.126c.176-.08.353-.161.53-.24l.257.667 12.978 7.236 3.994-5.739 10.732-4.242 4.742-3.743-.998-11.727 7.987-13.226 7.237-3.492 10.483-21.21s4.992-.749 5.99-.749c.418 0 .878-.787 1.273-1.7l-.273-4.289.45.105-.45-2.1s-5.492-.5-6.49-.5c-.998 0-3.244 4.741-3.244 4.741l-6.99-.498-2.995 4.99-2.995.998-.498 2.995-4.243.998-2.496-7.487-17.472 3.744-5.242-19.963-3.493 26.95-6.99 7.485-.749 10.73-2.995 2.245-2.246-5.49-1.996 2.246 1.747 4.991-5.996 10.045-.244-1.062 2.745 11.977 7.95 4.314z" fill="#5B5B5B"/><path d="M748.978 289.126c.176-.08.353-.161.53-.24l.257.667 12.978 7.236 3.994-5.739 10.732-4.242 4.742-3.743-.998-11.727 7.987-13.226 7.237-3.492 10.483-21.21s4.992-.749 5.99-.749c.418 0 .878-.787 1.273-1.7l-.273-4.289.45.105-.45-2.1s-5.492-.5-6.49-.5c-.998 0-3.244 4.741-3.244 4.741l-6.99-.498-2.995 4.99-2.995.998-.498 2.995-4.243.998-2.496-7.487-17.472 3.744-5.242-19.963-3.493 26.95-6.99 7.485-.749 10.73-2.995 2.245-2.246-5.49-1.996 2.246 1.747 4.991-5.996 10.045-.244-1.062 2.745 11.977 7.95 4.314z" stroke="#FFF" stroke-width="4"/><path fill="#5B5B5B" d="M850.849 188.994l-3.245-11.228 5.74-9.233-5.49-.748-9.984-10.23-83.954 29.052 7.33 28.089 5.24 19.961 17.473-3.742 67.888-22.458 7.488-12.226-.75-4.492z"/><path stroke="#FFF" stroke-width="4" d="M850.849 188.994l-3.245-11.228 5.74-9.233-5.49-.748-9.984-10.23-83.954 29.052 7.33 28.089 5.24 19.961 17.473-3.742 67.888-22.458 7.488-12.226-.75-4.492z"/><path d="M846.78 210.134l-62.821 20.78 2.496 7.486 4.243-.998.498-2.994 2.995-.999 2.995-4.99 6.99.5s2.246-4.741 3.244-4.741c.998 0 6.49.498 6.49.498l.45 2.101-.45-.105 7.487 1.747 1.148 3.444 4.592 2.295.5 10.73 5.241 4.492 10.234-1.249 1.93-.554 1.789 1.788-2.456-2.455 3.177-2.429-.748-2.802-5.045-3.176-4.484-12.515 2.055-6.165 2.99-1.68 1.12 7.845-.746 2.428 4.11 3.176-.748 3.549 4.859 4.11 3.55-1.868 1.22 7.14 8.073-2.316.423-8.113-8.59 1.561-8.811-25.521z" fill="#5B5B5B"/><path d="M846.78 210.134l-62.821 20.78 2.496 7.486 4.243-.998.498-2.994 2.995-.999 2.995-4.99 6.99.5s2.246-4.741 3.244-4.741c.998 0 6.49.498 6.49.498l.45 2.101-.45-.105 7.487 1.747 1.148 3.444 4.592 2.295.5 10.73 5.241 4.492 10.234-1.249 1.93-.554 1.789 1.788-2.456-2.455 3.177-2.429-.748-2.802-5.045-3.176-4.484-12.515 2.055-6.165 2.99-1.68 1.12 7.845-.746 2.428 4.11 3.176-.748 3.549 4.859 4.11 3.55-1.868 1.22 7.14 8.073-2.316.423-8.113-8.59 1.561-8.811-25.521z" stroke="#FFF" stroke-width="4"/><path fill="#5B5B5B" d="M855.586 220.01l-3.364-7.846-.963-3.513-4.518 1.495.039-.012 8.81 25.522 8.378-1.523.219-.14.367-7.071z"/><path stroke="#FFF" stroke-width="4" d="M855.586 220.01l-3.364-7.846-.963-3.513-4.518 1.495.039-.012 8.81 25.522 8.378-1.523.219-.14.367-7.071z"/><path d="M867.82 147.573l-3.244-24.204L847.322 83.4l-.519.242-28.775 12.33-3.363 11.02-1.309 5.418-3.923 2.988-1.309 3.924 5.232-.748.935 4.296-2.99 3.737 4.672 4.484-1.682 2.988-5.045 1.867-8.035 8.78-15.509 1.308s-12.05 6.258-12.706 6.912c-.654.654.934 4.67.934 4.67l3.364 2.054-.186 5.231-17.004 17.186-6.2 4.368c.086.023.173.042.256.067l83.71-28.968 9.984 10.23 5.49.748 13.729 1.247 3.695 1.344 4.437-6.034.155-.124-7.54-17.393z" fill="#5B5B5B"/><path d="M867.82 147.573l-3.244-24.204L847.322 83.4l-.519.242-28.775 12.33-3.363 11.02-1.309 5.418-3.923 2.988-1.309 3.924 5.232-.748.935 4.296-2.99 3.737 4.672 4.484-1.682 2.988-5.045 1.867-8.035 8.78-15.509 1.308s-12.05 6.258-12.706 6.912c-.654.654.934 4.67.934 4.67l3.364 2.054-.186 5.231-17.004 17.186-6.2 4.368c.086.023.173.042.256.067l83.71-28.968 9.984 10.23 5.49.748 13.729 1.247 3.695 1.344 4.437-6.034.155-.124-7.54-17.393z" stroke="#FFF" stroke-width="4"/><path fill="#5B5B5B" d="M894.7 136.171l-26.984 10.614.105.788 7.539 17.393-.155.124 10.277-8.219 6.166-.747 8.408-6.352.115-.134z"/><path stroke="#FFF" stroke-width="4" d="M894.7 136.171l-26.984 10.614.105.788 7.539 17.393-.155.124 10.277-8.219 6.166-.747 8.408-6.352.115-.134z"/><path fill="#5B5B5B" d="M878.578 83.922l-1.3-6.239-2.848-6.93L847.322 83.4l17.254 39.97 1.005 7.497 11.437-5.353-3.901-21.316 1.3-17.157z"/><path stroke="#FFF" stroke-width="4" d="M878.578 83.922l-1.3-6.239-2.848-6.93L847.322 83.4l17.254 39.97 1.005 7.497 11.437-5.353-3.901-21.316 1.3-17.157z"/><path fill="#5B5B5B" d="M901.98 132.532l-7.28 3.64 5.471 13.466-.115.134 3.363-3.923.374-7.472.611.458z"/><path stroke="#FFF" stroke-width="4" d="M901.98 132.532l-7.28 3.64 5.471 13.466-.115.134 3.363-3.923.374-7.472.611.458z"/><path fill="#5B5B5B" d="M926.215 125.301l-6.912-1.868.186 2.429 2.99 2.428-2.056 3.362-4.297.374-4.299-5.23-5.231-4.858-.935-7.472-4.108-3.594-6.074 7.623-18.461 7.019-11.437 5.354-.64-4.78 2.88 21.486-.106-.789 26.984-10.614 7.28-3.639 2.425 6.303 3.873 2.904 4.859.748v-4.297l6.913-2.242 5.792-4.109 1.496-2.801z"/><path stroke="#FFF" stroke-width="4" d="M926.215 125.301l-6.912-1.868.186 2.429 2.99 2.428-2.056 3.362-4.297.374-4.299-5.23-5.231-4.858-.935-7.472-4.108-3.594-6.074 7.623-18.461 7.019-11.437 5.354-.64-4.78 2.88 21.486-.106-.789 26.984-10.614 7.28-3.639 2.425 6.303 3.873 2.904 4.859.748v-4.297l6.913-2.242 5.792-4.109 1.496-2.801z"/><path d="M877.278 77.683l1.3 6.24-4.16 3.118-1.3 17.157 3.9 21.316 18.461-7.018 6.074-7.623 2.259 1.976-2.636-2.306.757-2.604-5.674-2.181-16.473-40.357c-.179.428-.283.682-.283.682l-4.672 4.484-.401.187 2.848 6.93z" fill="#5B5B5B"/><path d="M877.278 77.683l1.3 6.24-4.16 3.118-1.3 17.157 3.9 21.316 18.461-7.018 6.074-7.623 2.259 1.976-2.636-2.306.757-2.604-5.674-2.181-16.473-40.357c-.179.428-.283.682-.283.682l-4.672 4.484-.401.187 2.848 6.93z" stroke="#FFF" stroke-width="4"/><path d="M921.73 32.086S910.518 7.428 909.585 7.428c-.933 0-6.913-.934-6.913-.934l-7.287 8.405-10.09-2.801-3.177 23.537s3.525 18.263 2.803 18.68c-.662.382-4.652 9.925-5.321 11.534l.187-.448 16.472 40.357 5.673 2.181.927-3.187 1.308-10.46 2.428-8.033 6.166-2.989 4.298-5.604 2.43-7.286-2.056-3.548 2.99-2.803 4.857 5.044 2.804-5.417 13.453-17-19.807-14.57z" fill="#5B5B5B"/><path d="M921.73 32.086S910.518 7.428 909.585 7.428c-.933 0-6.913-.934-6.913-.934l-7.287 8.405-10.09-2.801-3.177 23.537s3.525 18.263 2.803 18.68c-.662.382-4.652 9.925-5.321 11.534l.187-.448 16.472 40.357 5.673 2.181.927-3.187 1.308-10.46 2.428-8.033 6.166-2.989 4.298-5.604 2.43-7.286-2.056-3.548 2.99-2.803 4.857 5.044 2.804-5.417 13.453-17-19.807-14.57z" stroke="#FFF" stroke-width="4"/><path d="M854.936 218.492l-2.713-6.328 2.712 6.327zm18.214-31.173l-6.353-1.681.56-6.538 3.177-7.659.14-.191-.016-.001.11-.125-3.695-1.343-13.729-1.248-.041-.006-.537.937-5.162 8.302 3.245 11.228 7.736 2.745.75 4.492-7.488 12.226-.588.195.964 3.512 8.595 3.363 5.419 6.538 2.802-8.22 2.803-14.01 2.803-7.658-1.495-4.858z" fill="#5B5B5B"/><path d="M854.936 218.492l-2.713-6.328 2.712 6.327zm18.214-31.173l-6.353-1.681.56-6.538 3.177-7.659.14-.191-.016-.001.11-.125-3.695-1.343-13.729-1.248-.041-.006-.537.937-5.162 8.302 3.245 11.228 7.736 2.745.75 4.492-7.488 12.226-.588.195.964 3.512 8.595 3.363 5.419 6.538 2.802-8.22 2.803-14.01 2.803-7.658-1.495-4.858z" stroke="#FFF" stroke-width="4"/><path fill="#5B5B5B" d="M263.821 342.28l109.566 5.815 17.72.007.625-90.077-120.194-7.584z"/><path stroke="#FFF" stroke-width="4" d="M263.821 342.28l109.566 5.815 17.72.007.625-90.077-120.194-7.584z"/><path fill="#5B5B5B" d="M358.54 255.931l1.99-89.894-113.814-7.859-.374 8.359-7.986 60.385-2.801 19.84 35.983 3.68z"/><path stroke="#FFF" stroke-width="4" d="M358.54 255.931l1.99-89.894-113.814-7.859-.374 8.359-7.986 60.385-2.801 19.84 35.983 3.68z"/><path fill="#5B5B5B" d="M472.784 104.038l-4.093-2.813-.257-16.625-3.334-7.222-99.623 1.594-1.8-.211-2.432 67.716 119.213-.75z"/><path stroke="#FFF" stroke-width="4" d="M472.784 104.038l-4.093-2.813-.257-16.625-3.334-7.222-99.623 1.594-1.8-.211-2.432 67.716 119.213-.75z"/><path d="M487.525 206.732l-3.035-5.634-.867-39.867-6.068-5.85-.434-4.116 2.524-5.534-118.376.747a.937.937 0 0 1-.024.009l-.736 20.479-.988 44.606 95.28 1.66 3.467 2.817s8.667-4.117 9.535-4.117c.867 0 20.155 10.617 20.155 10.617l-.433-15.817z" fill="#5B5B5B"/><path d="M487.525 206.732l-3.035-5.634-.867-39.867-6.068-5.85-.434-4.116 2.524-5.534-118.376.747a.937.937 0 0 1-.024.009l-.736 20.479-.988 44.606 95.28 1.66 3.467 2.817s8.667-4.117 9.535-4.117c.867 0 20.155 10.617 20.155 10.617l-.433-15.817z" stroke="#FFF" stroke-width="4"/><path d="M391.588 278.819l117.618-3.513-8.786-17.765-2.343-12.494-10.119-22.498s-19.289-10.617-20.155-10.617c-.868 0-9.535 4.117-9.535 4.117l-3.467-2.817-95.28-1.66-.982 44.359 33.193 2.095-.144 20.793z" fill="#5B5B5B"/><path d="M391.588 278.819l117.618-3.513-8.786-17.765-2.343-12.494-10.119-22.498s-19.289-10.617-20.155-10.617c-.868 0-9.535 4.117-9.535 4.117l-3.467-2.817-95.28-1.66-.982 44.359 33.193 2.095-.144 20.793z" stroke="#FFF" stroke-width="4"/><path fill="#5B5B5B" d="M526.074 295.45l-7.525-2.29-.98-11.119-8.362-6.735-117.62 3.513-.48 69.283 137.256-2.617z"/><path stroke="#FFF" stroke-width="4" d="M526.074 295.45l-7.525-2.29-.98-11.119-8.362-6.735-117.62 3.513-.48 69.283 137.256-2.617z"/><path fill="#5B5B5B" d="M528.363 345.485l-137.257 2.617-17.719-.007-.136 11.94 54.184.296.332 42.375 12.252 5.628 4.304-2.318 7.285 5.96 13.245.33 5.297 3.642 4.968-.663 26.49 5.298 10.265-5.298 10.597-.662 12.867 3.264-.76-34.467z"/><path stroke="#FFF" stroke-width="4" d="M528.363 345.485l-137.257 2.617-17.719-.007-.136 11.94 54.184.296.332 42.375 12.252 5.628 4.304-2.318 7.285 5.96 13.245.33 5.297 3.642 4.968-.663 26.49 5.298 10.265-5.298 10.597-.662 12.867 3.264-.76-34.467z"/><path fill="#5B5B5B" d="M619.661 356.13l-11.43-.994v-9.192l-78.606 7.25 4.951 30.226.761 34.466 9.32 2.364.124 11.647 56.49-2.732.498-11.426-2.982-8.198 7.455-14.657z"/><path stroke="#FFF" stroke-width="4" d="M619.661 356.13l-11.43-.994v-9.192l-78.606 7.25 4.951 30.226.761 34.466 9.32 2.364.124 11.647 56.49-2.732.498-11.426-2.982-8.198 7.455-14.657z"/><path d="M569.81 180.673c-4.493-2.245-10.483-2.245-11.98-8.234-4.493-2.995-10.484-3.743-15.725-5.24 0-5.24.75-9.732 1.497-14.223.75-2.246-1.497-3.743-3.744-5.24-.748-.749-.748-1.497-.748-2.246 2.995-3.743 5.241-8.235 7.488-11.977.748-2.995-2.247-5.989-.749-8.983 2.246-2.994 5.24-5.24 7.488-8.234 7.487-13.475 20.966-18.715 31.315-28.357-9.601.66-18.586 2.905-28.32 1.408-6.74 0-11.98-4.492-17.97-6.738-2.247-.748-4.493-1.496-6.74-.748-6.739 1.497-12.729 0-19.468 0-2.246 0-4.492-.748-6.74-2.246-2.245-2.245-2.245-5.988-3.743-8.234-1.498-1.497-4.493-2.246-7.08-2.496-1.157 2.496-.408 5.49-.408 7.737-9.759.59-19.4.83-28.994.948l3.245 7.03.257 16.625 4.093 2.813 7.674 41.688-.812.006-2.524 5.533.434 4.116 6.067 5.85.858 39.474c30.139-3.631 58.872-5.867 88.218-9.28a.384.384 0 0 0-.118-.215c-1.885-3.247.892-7.607-2.771-10.537" fill="#5B5B5B"/><path d="M569.81 180.673c-4.493-2.245-10.483-2.245-11.98-8.234-4.493-2.995-10.484-3.743-15.725-5.24 0-5.24.75-9.732 1.497-14.223.75-2.246-1.497-3.743-3.744-5.24-.748-.749-.748-1.497-.748-2.246 2.995-3.743 5.241-8.235 7.488-11.977.748-2.995-2.247-5.989-.749-8.983 2.246-2.994 5.24-5.24 7.488-8.234 7.487-13.475 20.966-18.715 31.315-28.357-9.601.66-18.586 2.905-28.32 1.408-6.74 0-11.98-4.492-17.97-6.738-2.247-.748-4.493-1.496-6.74-.748-6.739 1.497-12.729 0-19.468 0-2.246 0-4.492-.748-6.74-2.246-2.245-2.245-2.245-5.988-3.743-8.234-1.498-1.497-4.493-2.246-7.08-2.496-1.157 2.496-.408 5.49-.408 7.737-9.759.59-19.4.83-28.994.948l3.245 7.03.257 16.625 4.093 2.813 7.674 41.688-.812.006-2.524 5.533.434 4.116 6.067 5.85.858 39.474c30.139-3.631 58.872-5.867 88.218-9.28a.384.384 0 0 0-.118-.215c-1.885-3.247.892-7.607-2.771-10.537z" stroke="#FFF" stroke-width="4"/><path d="M596.554 226.951l-13.668-16.396-7.702-3.23-2.568-15.89c-29.317 3.407-58.024 5.642-88.135 9.27l.01.394 3.034 5.633.433 15.817 10.119 22.498 2.343 12.494 4.045 8.18 65.003-7.22 8.2 6.458-.248-8.694 7.951-11.924-6.212-5.466 11.68-2.733 5.715-9.191z" fill="#5B5B5B"/><path d="M596.554 226.951l-13.668-16.396-7.702-3.23-2.568-15.89c-29.317 3.407-58.024 5.642-88.135 9.27l.01.394 3.034 5.633.433 15.817 10.119 22.498 2.343 12.494 4.045 8.18 65.003-7.22 8.2 6.458-.248-8.694 7.951-11.924-6.212-5.466 11.68-2.733 5.715-9.191z" stroke="#FFF" stroke-width="4"/><path fill="#5B5B5B" d="M644.263 298.994l7.952-11.924-6.461-13.912 2.982-8.197-8.403-45.699-5.044-6.726-1.399-9.198-50.092 8.31-.911-1.093 13.667 16.396-5.716 9.192-11.679 2.732 6.213 5.465-7.952 11.925.248 8.694 2.733 10.684 8.697 3.229 5.964 11.18 9.443.496-3.48 6.708.995 7.204 13.17 9.937 4.224 11.924 7.951 2.484 1.243-4.223 4.473-.497 6.46 2.733-.248-5.466 5.218-5.713z"/><path stroke="#FFF" stroke-width="4" d="M644.263 298.994l7.952-11.924-6.461-13.912 2.982-8.197-8.403-45.699-5.044-6.726-1.399-9.198-50.092 8.31-.911-1.093 13.667 16.396-5.716 9.192-11.679 2.732 6.213 5.465-7.952 11.925.248 8.694 2.733 10.684 8.697 3.229 5.964 11.18 9.443.496-3.48 6.708.995 7.204 13.17 9.937 4.224 11.924 7.951 2.484 1.243-4.223 4.473-.497 6.46 2.733-.248-5.466 5.218-5.713z"/><path fill="#5B5B5B" d="M619.414 326.32l-4.225-11.923-13.17-9.937-.994-7.205 3.48-6.707-9.444-.497-5.964-11.18-8.696-3.228-2.733-10.683-8.2-6.459-65.003 7.22 4.742 9.585 8.361 6.736.981 11.118 7.525 2.29 2.289 50.035 3.568 21.79h.001l-2.306-14.08 78.605-7.25v9.191l11.43.994 2.486-13.413 6.212-4.223-.993-9.688z"/><path stroke="#FFF" stroke-width="4" d="M619.414 326.32l-4.225-11.923-13.17-9.937-.994-7.205 3.48-6.707-9.444-.497-5.964-11.18-8.696-3.228-2.733-10.683-8.2-6.459-65.003 7.22 4.742 9.585 8.361 6.736.981 11.118 7.525 2.29 2.289 50.035 3.568 21.79h.001l-2.306-14.08 78.605-7.25v9.191l11.43.994 2.486-13.413 6.212-4.223-.993-9.688z"/><path d="M652.228 331.84l-4.293 4.292-19.576 2.361-6.212 4.225-2.486 13.412-7.427 21.45 37.99-4.557.022.256 2.217-2.492 8.697-1.988 1.987 2.733 36.777-7.7 20.554-5.2-1.054-5.893s24.267-25.378 24.825-25.938c.56-.56 5.974.187 5.974.187l2.8-5.785 8.772-2.8.187-8.77-109.754 22.207z" fill="#296DA7"/><path d="M652.228 331.84l-4.293 4.292-19.576 2.361-6.212 4.225-2.486 13.412-7.427 21.45 37.99-4.557.022.256 2.217-2.492 8.697-1.988 1.987 2.733 36.777-7.7 20.554-5.2-1.054-5.893s24.267-25.378 24.825-25.938c.56-.56 5.974.187 5.974.187l2.8-5.785 8.772-2.8.187-8.77-109.754 22.207z" stroke="#FFF" stroke-width="4"/><path fill="#5B5B5B" d="M665.744 124.179l-2.616 4.856 3.644 3.643-4.204 2.149 1.12 7.845-4.857 1.681-2.803-5.604-3.176 5.978-4.111 9.34 1.868 21.67 5.606 5.23-.748 25.405-3.55 8.22 57.376-8.328-.573-.079 2.242-5.976-.373-3.363-1.495-4.297 8.782-10.46-1.308-7.66-6.913-17.933-8.035-2.055-5.232 9.527h-5.232l-1.495-5.417 4.11-2.615 2.99-9.153-5.605-12.704 1.868-4.856z"/><path stroke="#FFF" stroke-width="4" d="M665.744 124.179l-2.616 4.856 3.644 3.643-4.204 2.149 1.12 7.845-4.857 1.681-2.803-5.604-3.176 5.978-4.111 9.34 1.868 21.67 5.606 5.23-.748 25.405-3.55 8.22 57.376-8.328-.573-.079 2.242-5.976-.373-3.363-1.495-4.297 8.782-10.46-1.308-7.66-6.913-17.933-8.035-2.055-5.232 9.527h-5.232l-1.495-5.417 4.11-2.615 2.99-9.153-5.605-12.704 1.868-4.856z"/><path fill="#5B5B5B" d="M645.754 273.158l6.46 13.912-7.951 11.925.121 8.14 4.296.134 4.243-3.992 6.49 1.746 5.74-4.242 5.741-.499-.25-5.49 5.242 4.492 5.242-9.98 3.493-1.747-1.247-6.239 15.724-5.24-15.122-66.14-32.059 4.654-11.584 4.67 8.402 45.699z"/><path stroke="#FFF" stroke-width="4" d="M645.754 273.158l6.46 13.912-7.951 11.925.121 8.14 4.296.134 4.243-3.992 6.49 1.746 5.74-4.242 5.741-.499-.25-5.49 5.242 4.492 5.242-9.98 3.493-1.747-1.247-6.239 15.724-5.24-15.122-66.14-32.059 4.654-11.584 4.67 8.402 45.699z"/><path fill="#296DA7" d="M741.028 284.812l-2.745-11.977-10.482-7.486-3.994 3.493-10.483 1.997-16.746-5.78 2.52 11.02-15.725 5.24 1.248 6.238-3.494 1.747-5.241 9.98-5.242-4.491.25 5.49-5.741.499-5.74 4.242-6.49-1.747-4.242 3.992-4.297-.134.127 8.504-5.218 5.714.248 5.465-6.46-2.733-4.473.497-1.243 4.223.994 9.689 19.576-2.363 4.293-4.291 83.74-16.943 5.56-7.628v-5.24l8.236-12.476z"/><path stroke="#FFF" stroke-width="4" d="M741.028 284.812l-2.745-11.977-10.482-7.486-3.994 3.493-10.483 1.997-16.746-5.78 2.52 11.02-15.725 5.24 1.248 6.238-3.494 1.747-5.241 9.98-5.242-4.491.25 5.49-5.741.499-5.74 4.242-6.49-1.747-4.242 3.992-4.297-.134.127 8.504-5.218 5.714.248 5.465-6.46-2.733-4.473.497-1.243 4.223.994 9.689 19.576-2.363 4.293-4.291 83.74-16.943 5.56-7.628v-5.24l8.236-12.476z"/><path fill="#5B5B5B" d="M753.881 186.472l-29.84 21.021-7.1-.186-8.221-1.121.573.078-25.317 3.675 12.602 55.12 16.746 5.78 10.483-1.997 3.994-3.493 10.482 7.486.244 1.062 5.996-10.045-1.747-4.99 1.997-2.247 2.246 5.49 2.995-2.245.749-10.73 6.99-7.486 3.492-26.949z"/><path stroke="#FFF" stroke-width="4" d="M753.881 186.472l-29.84 21.021-7.1-.186-8.221-1.121.573.078-25.317 3.675 12.602 55.12 16.746 5.78 10.483-1.997 3.994-3.493 10.482 7.486.244 1.062 5.996-10.045-1.747-4.99 1.997-2.247 2.246 5.49 2.995-2.245.749-10.73 6.99-7.486 3.492-26.949z"/><path d="M576.805 120.905l.412-.284-.412.284zm50.262 62.864l2.242-5.417-2.616-6.912 5.232-4.11-1.12-7.098.185-5.605 5.233-12.702-5.606 3.176-1.308 7.098-2.803 1.121-.56 4.484-3.738 1.494-2.055-2.802 3.738-5.418.934-5.043.933-2.802-.92 2.762-4.928-8.725 2.486-3.726h-4.473l-3.976-3.974-29.819-2.733-7.84-5.576.358-.247-1.336.923-8.408-.373-.561-6.352s-8.222 4.857-8.968 4.857c-.398 0-2.582.105-4.546.204l-7.364 5.576c-.304 2.555 1.773 5.11 1.135 7.663-2.246 3.743-4.493 8.235-7.487 11.978 0 .748 0 1.497.748 2.246 2.246 1.497 4.493 2.994 3.744 5.24-.749 4.491-1.498 8.983-1.498 14.223 5.241 1.497 11.232 2.245 15.725 5.24 1.497 5.988 7.487 5.988 11.98 8.234 3.663 2.93.886 7.29 2.77 10.537a.38.38 0 0 1 .119.215 3.228 3.228 0 0 0-.083.01l2.567 15.89 7.704 3.23.91 1.093 50.093-8.31-.844-5.559-5.98-14.01zm-50.421-62.755l.159-.109-.159.11z" fill="#5B5B5B"/><path d="M576.805 120.905l.412-.284-.412.284zm50.262 62.864l2.242-5.417-2.616-6.912 5.232-4.11-1.12-7.098.185-5.605 5.233-12.702-5.606 3.176-1.308 7.098-2.803 1.121-.56 4.484-3.738 1.494-2.055-2.802 3.738-5.418.934-5.043.933-2.802-.92 2.762-4.928-8.725 2.486-3.726h-4.473l-3.976-3.974-29.819-2.733-7.84-5.576.358-.247-1.336.923-8.408-.373-.561-6.352s-8.222 4.857-8.968 4.857c-.398 0-2.582.105-4.546.204l-7.364 5.576c-.304 2.555 1.773 5.11 1.135 7.663-2.246 3.743-4.493 8.235-7.487 11.978 0 .748 0 1.497.748 2.246 2.246 1.497 4.493 2.994 3.744 5.24-.749 4.491-1.498 8.983-1.498 14.223 5.241 1.497 11.232 2.245 15.725 5.24 1.497 5.988 7.487 5.988 11.98 8.234 3.663 2.93.886 7.29 2.77 10.537a.38.38 0 0 1 .119.215 3.228 3.228 0 0 0-.083.01l2.567 15.89 7.704 3.23.91 1.093 50.093-8.31-.844-5.559-5.98-14.01zm-50.421-62.755l.159-.109-.159.11z" stroke="#FFF" stroke-width="4"/><path d="M576.289 121.26l7.84 5.577 29.818 2.733 3.976 3.975h4.472l-2.484 3.726 4.927 8.724.92-2.762 6.54-17 2.056 4.297 3.176-4.67h2.43l-2.055 4.11 3.176 1.494 5.231-7.66 5.793-1.306 3.924-5.604 7.474-.56 3.55 2.427 2.99-1.12.56-2.989 7.848 1.307-.56-4.296-6.914-3.175-7.287 1.494-5.42-1.12 1.495-6.54-3.362.374-3.177 3.176-10.09 2.803-5.793 6.537-13.452-.373-6.352-5.604-6.727-.561s-4.485 3.923-4.485 2.989c0-.934 1.308-8.78 1.308-8.78l4.672-1.308 2.99-6.35-13.641 5.603-3.363 5.605s-5.792 3.362-6.353 3.922c-.56.56-4.484 6.165-4.484 6.165s-5.55 1.03-6.354 1.494c-.578.334-3.32 2.216-4.813 3.246" fill="#5B5B5B"/><path d="M576.289 121.26l7.84 5.577 29.818 2.733 3.976 3.975h4.472l-2.484 3.726 4.927 8.724.92-2.762 6.54-17 2.056 4.297 3.176-4.67h2.43l-2.055 4.11 3.176 1.494 5.231-7.66 5.793-1.306 3.924-5.604 7.474-.56 3.55 2.427 2.99-1.12.56-2.989 7.848 1.307-.56-4.296-6.914-3.175-7.287 1.494-5.42-1.12 1.495-6.54-3.362.374-3.177 3.176-10.09 2.803-5.793 6.537-13.452-.373-6.352-5.604-6.727-.561s-4.485 3.923-4.485 2.989c0-.934 1.308-8.78 1.308-8.78l4.672-1.308 2.99-6.35-13.641 5.603-3.363 5.605s-5.792 3.362-6.353 3.922c-.56.56-4.484 6.165-4.484 6.165s-5.55 1.03-6.354 1.494c-.578.334-3.32 2.216-4.813 3.246z" stroke="#FFF" stroke-width="4"/><path fill="#333" d="M97.307 45.243h159.03V11.519H97.307z"/><path fill="#FFF" d="M135.778 33.962h-7.092v-12.31h7.092v2.139h-4.48v2.702h4.168v2.14h-4.169v3.174h4.481zm9.593-12.31h2.637l-4.186 12.31h-2.847l-4.178-12.31h2.636l2.317 7.325c.13.433.262.936.4 1.512.137.576.223.975.257 1.2.061-.517.272-1.42.631-2.712l2.333-7.325zm11.279 12.31h-7.092v-12.31h7.091v2.139h-4.48v2.702h4.168v2.14h-4.168v3.174h4.48zm5.18-6.845h.841c.826 0 1.435-.138 1.828-.413.393-.275.59-.708.59-1.297 0-.583-.201-1-.603-1.246-.4-.247-1.023-.37-1.865-.37h-.792v3.326zm0 2.121v4.724h-2.612v-12.31h3.588c1.674 0 2.911.304 3.714.913.804.61 1.205 1.534 1.205 2.775 0 .724-.2 1.368-.598 1.932-.4.564-.963 1.006-1.693 1.327a489.503 489.503 0 0 0 3.622 5.363h-2.898l-2.939-4.724h-1.39zm15.867 4.724h-7.091v-12.31h7.091v2.139h-4.48v2.702h4.168v2.14h-4.168v3.174h4.48zm7.319 0h-2.61V23.824h-3.344v-2.172h9.298v2.172h-3.344zm9.99 0h-2.612V23.824h-3.343v-2.172h9.298v2.172h-3.343zm7.554-1.81c-.291 1.134-.786 2.478-1.482 4.033h-1.853a48.86 48.86 0 0 0 .851-4.227h2.358l.127.194zm19.162 1.81h-2.973l-1.668-6.467c-.062-.23-.167-.705-.315-1.427-.15-.721-.235-1.205-.258-1.453-.033.304-.118.79-.252 1.461-.135.671-.239 1.15-.312 1.436l-1.66 6.45h-2.964l-3.142-12.31h2.569l1.575 6.72a39.47 39.47 0 0 1 .598 3.224c.034-.32.111-.815.232-1.486.12-.671.234-1.192.341-1.562l1.794-6.896h2.468l1.794 6.896c.079.309.177.78.295 1.415.118.634.208 1.178.27 1.633.056-.438.145-.984.269-1.637.124-.654.236-1.184.336-1.588l1.567-6.72h2.569l-3.133 12.311zm10.705-5.119a813.748 813.748 0 0 1-1.394-4.506 12.299 12.299 0 0 1-.223-.824c-.185.718-.716 2.495-1.592 5.33h3.21zm1.516 5.12l-.893-2.931h-4.489l-.893 2.93h-2.813l4.346-12.36h3.192l4.363 12.36h-2.813z"/><path fill="#333" d="M61.56 323.437h143.787v-33.724H61.56z"/><path fill="#FFF" d="M93.407 312.157h-2.569v-12.311h7.058v2.14h-4.49v3.174h4.178v2.13h-4.177zm9.509-6.846h.842c.825 0 1.435-.137 1.828-.412.393-.276.59-.708.59-1.297 0-.584-.201-1-.603-1.246-.401-.248-1.023-.371-1.865-.371h-.792v3.326zm0 2.122v4.724h-2.611v-12.31h3.588c1.674 0 2.911.303 3.714.913.804.61 1.205 1.534 1.205 2.774 0 .724-.2 1.369-.598 1.933-.4.564-.963 1.006-1.693 1.326a489.487 489.487 0 0 0 3.622 5.364h-2.898l-2.94-4.724h-1.39zm15.868 4.724h-7.092v-12.311h7.092v2.14h-4.48v2.702h4.168v2.139h-4.168V310h4.48zm9.838-3.419c0 1.112-.4 1.988-1.2 2.627-.8.64-1.914.96-3.34.96-1.314 0-2.477-.247-3.487-.74v-2.426c.83.37 1.534.632 2.11.783a6.237 6.237 0 0 0 1.58.227c.572 0 1.011-.109 1.317-.328.306-.22.459-.545.459-.976 0-.242-.067-.457-.202-.645a2.277 2.277 0 0 0-.594-.543c-.26-.174-.793-.451-1.596-.834-.752-.353-1.317-.693-1.693-1.019a3.808 3.808 0 0 1-.9-1.136c-.226-.432-.338-.937-.338-1.516 0-1.089.37-1.945 1.108-2.568.738-.623 1.759-.935 3.061-.935.64 0 1.25.076 1.832.227.581.152 1.19.365 1.824.64l-.843 2.03c-.657-.27-1.2-.458-1.629-.564a5.267 5.267 0 0 0-1.268-.16c-.494 0-.873.115-1.137.345-.264.23-.396.53-.396.901 0 .23.053.43.16.602.107.171.276.337.51.497.233.16.784.447 1.655.863 1.15.55 1.94 1.101 2.366 1.655.427.552.64 1.23.64 2.033m13.157 3.419h-3.319l-5.356-9.313h-.076c.107 1.644.16 2.818.16 3.52v5.793h-2.333v-12.311h3.293l5.348 9.22h.059c-.084-1.6-.126-2.73-.126-3.393v-5.827h2.35v12.31zm5.289-6.172c0 1.375.261 2.41.783 3.107.522.696 1.303 1.044 2.342 1.044 2.083 0 3.124-1.384 3.124-4.151 0-2.773-1.035-4.16-3.107-4.16-1.039 0-1.822.35-2.35 1.048-.528.7-.792 1.736-.792 3.112m8.987 0c0 2.037-.505 3.604-1.516 4.698-1.011 1.095-2.46 1.642-4.346 1.642-1.887 0-3.336-.547-4.346-1.642-1.01-1.094-1.517-2.666-1.517-4.715 0-2.05.507-3.614 1.521-4.695 1.014-1.08 2.466-1.62 4.359-1.62 1.892 0 3.34.544 4.341 1.633 1.003 1.09 1.504 2.655 1.504 4.699m4.868 4.361c-.292 1.134-.786 2.479-1.482 4.034h-1.853a48.86 48.86 0 0 0 .85-4.228h2.359l.126.194zm12.398-8.504c-.982 0-1.743.37-2.282 1.107-.54.738-.809 1.767-.809 3.086 0 2.745 1.03 4.117 3.091 4.117.865 0 1.912-.215 3.142-.648v2.19c-1.01.42-2.14.631-3.386.631-1.791 0-3.161-.543-4.11-1.63-.95-1.085-1.424-2.644-1.424-4.677 0-1.28.233-2.4.7-3.364.465-.962 1.135-1.7 2.009-2.214.872-.514 1.896-.77 3.07-.77 1.195 0 2.397.288 3.604.867l-.842 2.122c-.46-.22-.924-.41-1.39-.573a4.137 4.137 0 0 0-1.373-.244m11.783 5.195a813.89 813.89 0 0 1-1.393-4.505 12.3 12.3 0 0 1-.224-.825c-.185.719-.716 2.496-1.592 5.33h3.21zm1.516 5.12l-.892-2.93h-4.49l-.892 2.93h-2.813l4.346-12.361h3.192l4.362 12.36h-2.813z"/><path fill="#333" d="M731.66 276.664h165.97V242.94H731.66z"/><path fill="#FFF" d="M762.875 265.384h-2.569v-12.31h7.058v2.138h-4.489v3.175h4.177v2.13h-4.177zm9.509-6.846h.843c.825 0 1.434-.137 1.827-.412.393-.276.59-.708.59-1.297 0-.584-.2-1-.603-1.246-.4-.248-1.023-.371-1.865-.371h-.792v3.326zm0 2.122v4.723h-2.61v-12.31h3.587c1.674 0 2.912.304 3.714.914.804.61 1.205 1.534 1.205 2.774 0 .724-.2 1.369-.598 1.933-.399.564-.963 1.006-1.693 1.326a489.492 489.492 0 0 0 3.622 5.363h-2.898l-2.939-4.723h-1.39zm14.799-.396a813.921 813.921 0 0 1-1.394-4.505 12.3 12.3 0 0 1-.223-.825c-.186.719-.716 2.496-1.592 5.33h3.209zm1.515 5.12l-.892-2.93h-4.49l-.892 2.93h-2.813l4.346-12.361h3.192l4.363 12.36h-2.814zm15.288 0h-3.319l-5.356-9.313h-.076c.107 1.645.16 2.818.16 3.52v5.793h-2.333v-12.31h3.293l5.348 9.22h.059c-.084-1.6-.127-2.732-.127-3.394v-5.827h2.35v12.31zm13.004 0h-2.965l-3.225-5.187-1.103.791v4.396h-2.612v-12.31h2.612v5.632l1.027-1.448 3.335-4.185h2.897l-4.295 5.448zm1.55 0v-12.31h2.611v10.154h4.994v2.156zm9.745 0h2.61v-12.311h-2.61zm16.635 0h-3.32l-5.357-9.313h-.076c.107 1.645.16 2.818.16 3.52v5.793h-2.332v-12.31h3.293l5.348 9.22h.059c-.084-1.6-.127-2.732-.127-3.394v-5.827h2.35v12.31zm5.415-1.811c-.292 1.134-.786 2.479-1.483 4.033H847a48.86 48.86 0 0 0 .85-4.227h2.359l.126.194zm11.918 1.811h-2.611v-10.138h-3.344v-2.173h9.299v2.173h-3.344zm16.163 0h-3.318l-5.357-9.313h-.076c.107 1.645.16 2.818.16 3.52v5.793h-2.333v-12.31h3.293l5.348 9.22h.06c-.085-1.6-.127-2.732-.127-3.394v-5.827h2.35v12.31z"/><path fill="#333" d="M466.512 349.086h169.71v-33.724h-169.71z"/><path fill="#FFF" d="M488.716 337.806h-2.569v-12.31h7.058v2.138h-4.489v3.175h4.177v2.13h-4.177zm6.898 0v-12.31h2.611v10.154h4.995v2.156zm11.936-6.172c0 1.375.26 2.41.782 3.107.522.696 1.303 1.044 2.342 1.044 2.083 0 3.124-1.383 3.124-4.151 0-2.773-1.035-4.16-3.107-4.16-1.039 0-1.822.35-2.35 1.048-.528.7-.792 1.736-.792 3.112m8.987 0c0 2.038-.505 3.604-1.516 4.698-1.011 1.095-2.46 1.642-4.346 1.642-1.887 0-3.336-.547-4.346-1.642-1.01-1.094-1.517-2.666-1.517-4.715 0-2.05.507-3.614 1.521-4.695 1.014-1.08 2.466-1.62 4.359-1.62 1.892 0 3.34.544 4.341 1.633 1.003 1.09 1.504 2.655 1.504 4.699m5.163-.674h.842c.825 0 1.435-.137 1.828-.412.393-.276.59-.708.59-1.297 0-.584-.201-1-.603-1.246-.4-.247-1.023-.371-1.865-.371h-.792v3.326zm0 2.122v4.724h-2.611v-12.31h3.588c1.674 0 2.911.304 3.714.913.804.61 1.205 1.534 1.205 2.774 0 .724-.2 1.369-.598 1.933-.4.564-.963 1.006-1.693 1.326a489.497 489.497 0 0 0 3.622 5.364h-2.898l-2.939-4.724h-1.39zm15.868 4.724h-7.092v-12.31h7.092v2.138h-4.48v2.703h4.168v2.139h-4.168v3.174h4.48zm13.493 0h-3.318l-5.357-9.313h-.076c.107 1.645.16 2.818.16 3.52v5.793h-2.333v-12.31h3.293l5.348 9.22h.06c-.085-1.6-.127-2.732-.127-3.394v-5.827h2.35v12.31zm8.33-10.316c-.982 0-1.744.37-2.283 1.108-.539.738-.808 1.767-.808 3.086 0 2.745 1.03 4.117 3.091 4.117.865 0 1.912-.215 3.142-.648v2.19c-1.011.42-2.14.631-3.386.631-1.791 0-3.161-.543-4.11-1.63-.95-1.085-1.424-2.644-1.424-4.677 0-1.28.233-2.4.7-3.363.465-.963 1.135-1.701 2.008-2.215.873-.514 1.896-.77 3.07-.77 1.196 0 2.398.289 3.605.867l-.842 2.122c-.46-.22-.924-.41-1.39-.573a4.137 4.137 0 0 0-1.373-.244m12.853 10.315h-7.092v-12.31h7.092v2.138h-4.48v2.703h4.168v2.139h-4.169v3.174h4.48zm4.885-1.811c-.292 1.134-.786 2.479-1.483 4.034h-1.853a48.86 48.86 0 0 0 .851-4.228h2.358l.127.194zm17.072 1.811h-2.964l-3.226-5.187-1.103.792v4.395h-2.611v-12.31h2.61v5.632l1.028-1.448 3.336-4.185h2.897l-4.295 5.448zm5.382-7.242l2.57-5.069h2.812l-4.084 7.52v4.79h-2.595V333.1l-4.084-7.604h2.83z"/><path d="M88.27 45.26c-.706-1.319-1.525-2.69-2.392-4.142-2.847-4.766-6.074-10.168-6.074-15.693 0-9.649 7.852-17.499 17.503-17.499 5.836 0 11.031 2.764 14.256 7.581 3.355 5.014 3.968 11.372 1.64 17.008-1.216 2.943-2.859 5.764-4.447 8.49-.816 1.4-1.659 2.848-2.424 4.278L97.307 62.18l-9.038-16.92" fill="#F06022"/><path d="M97.307 7.208c-10.047 0-18.221 8.172-18.221 18.217 0 5.723 3.28 11.215 6.174 16.06.864 1.445 1.679 2.81 2.387 4.136l8.392 15.711 1.268 2.374 1.268-2.374 4.196-7.855 2.885-5.4c.736-1.38 1.107-2.073 1.293-2.465l.018.01c.758-1.42 1.599-2.863 2.412-4.258 1.6-2.747 3.254-5.587 4.489-8.575 2.42-5.857 1.78-12.467-1.708-17.681-3.36-5.021-8.773-7.9-14.853-7.9m0 1.437c12.269 0 19.78 12.586 15.232 23.595-1.822 4.41-4.593 8.498-6.84 12.705l-8.392 15.71-8.392-15.71c-3.143-5.885-8.392-12.596-8.392-19.52 0-9.268 7.515-16.78 16.784-16.78" fill="#FFF"/><path d="M105.541 24.504a8.233 8.233 0 0 1-8.234 8.231 8.233 8.233 0 1 1 0-16.463 8.233 8.233 0 0 1 8.234 8.232" fill="#FFF"/><path d="M52.525 323.46c-.707-1.325-1.527-2.697-2.394-4.148-2.846-4.767-6.073-10.168-6.074-15.693 0-9.648 7.853-17.498 17.504-17.498 5.836 0 11.031 2.763 14.255 7.581 3.356 5.014 3.969 11.372 1.64 17.007-1.215 2.943-2.857 5.761-4.445 8.488-.816 1.401-1.66 2.85-2.425 4.28l-9.025 16.898-9.036-16.915" fill="#F06022"/><path d="M61.56 285.402c-10.047 0-18.22 8.172-18.22 18.217 0 5.723 3.28 11.216 6.174 16.061.863 1.445 1.678 2.81 2.387 4.136l8.392 15.71 1.267 2.375 1.268-2.374 8.392-15.711c.758-1.42 1.6-2.862 2.412-4.257 1.6-2.747 3.255-5.588 4.49-8.575 2.419-5.858 1.78-12.468-1.708-17.681-3.36-5.022-8.774-7.9-14.854-7.9m0 1.436c12.27 0 19.78 12.586 15.232 23.596-1.822 4.41-4.592 8.497-6.84 12.704l-8.392 15.71-8.391-15.71c-3.143-5.884-8.392-12.596-8.392-19.52 0-9.267 7.514-16.78 16.783-16.78" fill="#FFF"/><path d="M69.795 302.698a8.233 8.233 0 0 1-8.234 8.232 8.233 8.233 0 1 1 0-16.464 8.233 8.233 0 0 1 8.234 8.232" fill="#FFF"/><path d="M623.246 349.128c-.718-1.343-1.537-2.715-2.405-4.168-2.846-4.766-6.072-10.166-6.072-15.692 0-9.648 7.852-17.498 17.503-17.498 5.836 0 11.032 2.764 14.256 7.582 3.355 5.013 3.967 11.371 1.64 17.007-1.217 2.943-2.86 5.763-4.448 8.49-.815 1.4-1.658 2.848-2.423 4.277l-9.025 16.899-9.026-16.897" fill="#F06022"/><path d="M632.271 311.051c-10.047 0-18.22 8.172-18.22 18.217 0 5.723 3.28 11.216 6.174 16.061.863 1.445 1.678 2.81 2.387 4.136l8.391 15.71 1.268 2.375 1.268-2.374 8.392-15.711c.758-1.42 1.6-2.862 2.412-4.257 1.6-2.747 3.254-5.588 4.49-8.575 2.418-5.858 1.78-12.468-1.709-17.682-3.359-5.02-8.773-7.9-14.853-7.9m0 1.437c12.269 0 19.78 12.586 15.232 23.596-1.822 4.41-4.592 8.497-6.84 12.704l-8.392 15.71-8.392-15.71c-3.143-5.884-8.391-12.596-8.391-19.52 0-9.267 7.514-16.78 16.783-16.78" fill="#FFF"/><path d="M640.505 328.347a8.233 8.233 0 0 1-8.233 8.232 8.233 8.233 0 1 1 0-16.463 8.233 8.233 0 0 1 8.233 8.231" fill="#FFF"/><path d="M722.635 276.706c-.718-1.343-1.538-2.715-2.405-4.168-2.846-4.766-6.073-10.166-6.073-15.692 0-9.649 7.852-17.499 17.503-17.499 5.836 0 11.032 2.764 14.256 7.582 3.355 5.014 3.968 11.372 1.64 17.007-1.216 2.944-2.859 5.764-4.448 8.491-.815 1.4-1.658 2.848-2.423 4.277l-9.025 16.899-9.025-16.897" fill="#F06022"/><path d="M731.66 238.63c-10.047 0-18.221 8.171-18.221 18.216 0 5.723 3.28 11.216 6.174 16.06.863 1.446 1.678 2.81 2.387 4.137l8.392 15.71 1.268 2.375 1.268-2.374 8.391-15.711c.759-1.42 1.6-2.862 2.413-4.258 1.6-2.746 3.254-5.587 4.489-8.575 2.419-5.857 1.78-12.467-1.708-17.68-3.36-5.021-8.774-7.9-14.853-7.9m0 1.436c12.268 0 19.78 12.586 15.232 23.596-1.822 4.41-4.593 8.497-6.84 12.704l-8.392 15.71-8.392-15.71c-3.143-5.884-8.392-12.596-8.392-19.52 0-9.267 7.514-16.78 16.784-16.78" fill="#FFF"/><path d="M739.894 255.925a8.233 8.233 0 0 1-8.234 8.232 8.233 8.233 0 1 1 0-16.464 8.233 8.233 0 0 1 8.234 8.232" fill="#FFF"/></g></svg>