<svg id="Layer_1" data-name="Layer 1" xmlns="http://www.w3.org/2000/svg" viewBox="0 0 100 100"><defs><style>.cls-1{fill:#fff}</style></defs><title>products_circle</title><path class="cls-1" d="M70.08 37.21a6.18 6.18 0 1 0 5.76 6.56 6.18 6.18 0 0 0-5.76-6.56zM69.51 46a2.6 2.6 0 1 1 2.77-2.43A2.6 2.6 0 0 1 69.51 46zm-33.99 5.46a8.28 8.28 0 1 0 8 8.6 8.28 8.28 0 0 0-8-8.6zM35 63.57a3.84 3.84 0 1 1 4-3.69 3.84 3.84 0 0 1-4 3.69z"/><path class="cls-1" d="M50 0a50 50 0 1 0 50 50A50 50 0 0 0 50 0zm4.36 60.48a19.3 19.3 0 0 1-.29 2.65l-4.84.9a14.54 14.54 0 0 1-1.65 3.58L50 71.87a19.23 19.23 0 0 1-3.9 3.61l-4.01-2.78a14.53 14.53 0 0 1-3.7 1.36l-1.27 4.76a19 19 0 0 1-5.32-.21l-.9-4.84a14.54 14.54 0 0 1-3.58-1.65l-4.26 2.46a19.23 19.23 0 0 1-3.62-3.9l2.79-4.06a14.51 14.51 0 0 1-1.36-3.7l-4.76-1.27a19 19 0 0 1 .21-5.32l4.84-.9a14.6 14.6 0 0 1 1.65-3.58l-2.47-4.26A19.34 19.34 0 0 1 24.25 44l4.06 2.79A14.54 14.54 0 0 1 32 45.42l1.27-4.76a18.87 18.87 0 0 1 5.32.21l.9 4.84a14.57 14.57 0 0 1 3.58 1.65l4.26-2.47a19.34 19.34 0 0 1 3.61 3.91l-2.79 4.06a14.57 14.57 0 0 1 1.36 3.7l4.76 1.27a19.28 19.28 0 0 1 .09 2.65zm-1.59-20.13l.32 3A11.79 11.79 0 0 1 50 44.44l-1.59-2.61a9 9 0 0 1-2.44-.16L44 44a12 12 0 0 1-3-1.46l.72-3a9 9 0 0 1-1.61-1.84l-3 .32A11.83 11.83 0 0 1 36.07 35l2.6-1.59a9.07 9.07 0 0 1 .16-2.44L36.47 29a11.93 11.93 0 0 1 1.46-3l3 .72a9 9 0 0 1 1.84-1.61l-.32-3a12.24 12.24 0 0 1 1.53-.64 12.1 12.1 0 0 1 1.6-.42l1.59 2.6a9 9 0 0 1 2.44.16l1.92-2.37a11.91 11.91 0 0 1 3 1.46l-.72 3a9.09 9.09 0 0 1 1.61 1.84l3-.32a11.77 11.77 0 0 1 1.06 3.12l-2.6 1.59a9 9 0 0 1-.16 2.44L59 36.51a12 12 0 0 1-1.46 3l-3-.72a9 9 0 0 1-1.77 1.56zm31.18 4a14.37 14.37 0 0 1-.27 2l-3.63.57a10.85 10.85 0 0 1-1.3 2.64l1.75 3.23a14.35 14.35 0 0 1-3 2.62l-3-2.16a10.84 10.84 0 0 1-2.78.94l-1 3.52a14.12 14.12 0 0 1-4-.26l-.57-3.63a10.86 10.86 0 0 1-2.64-1.3l-3.22 1.75a14.34 14.34 0 0 1-2.62-3l2.16-3a10.84 10.84 0 0 1-.95-2.78l-3.52-1a14.18 14.18 0 0 1 .26-4l3.63-.58a10.89 10.89 0 0 1 1.3-2.64L58.84 34a14.44 14.44 0 0 1 3-2.62l3 2.16a10.83 10.83 0 0 1 2.78-.95l1-3.52a14.09 14.09 0 0 1 4 .26l.53 3.67a10.86 10.86 0 0 1 2.64 1.3L79 32.54a14.42 14.42 0 0 1 2.62 3l-2.16 3a10.89 10.89 0 0 1 .94 2.78l3.52 1a14.36 14.36 0 0 1 .03 1.98z"/><circle class="cls-1" cx="47.75" cy="32.76" r="4.16" transform="rotate(-18.67 47.749 32.777)"/></svg>