<svg id="Layer_1" data-name="Layer 1" xmlns="http://www.w3.org/2000/svg" viewBox="0 0 82 82"><defs><style>.cls-1{fill:#42197f}.cls-2{fill:#fff}</style></defs><title>product_flags</title><path class="cls-1" d="M2 0a2 2 0 0 0-2 2v80L82 0z"/><path class="cls-2" d="M9.86 26.8l1.74-1.74a4.73 4.73 0 0 1 2.06-1.39 1.66 1.66 0 0 1 1.61.54 1.91 1.91 0 0 1 .59 1.06 1.32 1.32 0 0 1-.24 1 1.74 1.74 0 0 1 1.24-.27 2 2 0 0 1 1.1.63 2 2 0 0 1 .64 1.74 3.37 3.37 0 0 1-1.07 1.92l-2.09 2.09zm3.39 1l.69-.69a1.78 1.78 0 0 0 .55-.85.79.79 0 0 0-.28-.71.7.7 0 0 0-.69-.22 2.13 2.13 0 0 0-.88.6l-.62.62zm.94.94l1.45 1.45.77-.77a1.62 1.62 0 0 0 .53-.91 1 1 0 0 0-.34-.81q-.69-.69-1.69.3zM23.86 24l-3.21 3.21-5.58-5.58 3.21-3.21 1 1-2 2 1.22 1.22 1.89-1.89 1 1-1.89 1.89L20.86 25l2-2zm2.87-6a2 2 0 0 1 .65 1.73 3.34 3.34 0 0 1-1.08 1.95 5 5 0 0 1-1.92 1.24l-1.1-1.1a9.19 9.19 0 0 0 1.31-.6 4 4 0 0 0 .82-.61 1.44 1.44 0 0 0 .45-.75.72.72 0 0 0-.23-.65.69.69 0 0 0-.38-.2 1.45 1.45 0 0 0-.52 0 9.9 9.9 0 0 0-1.1.35 4.85 4.85 0 0 1-1.23.31 2.45 2.45 0 0 1-.92-.11 2.08 2.08 0 0 1-.84-.53 2 2 0 0 1-.64-1.66 3 3 0 0 1 1-1.81 4.63 4.63 0 0 1 .93-.73A8.08 8.08 0 0 1 23 14.3l.54 1.3a7.89 7.89 0 0 0-1 .48 3.37 3.37 0 0 0-.65.5 1.08 1.08 0 0 0-.36.67.73.73 0 0 0 .23.59.72.72 0 0 0 .35.2 1.12 1.12 0 0 0 .46 0 10 10 0 0 0 1.14-.36 4.22 4.22 0 0 1 1.82-.32 2.07 2.07 0 0 1 1.2.64zm4.68-1.59l-1.18 1.18-4.6-4.59-1.51 1.51-1-1 4.21-4.21 1 1-1.51 1.51zM17.22 49.36l-1.35 1.34-3.69-2.18-.79-.5q-.59-.39-.77-.54.18.23.55.78t.51.79l2.17 3.67-1.35 1.35-7-4.16 1.16-1.16 3.76 2.33q1 .66 1.73 1.19-.19-.24-.57-.78t-.58-.86l-2.28-3.94 1.12-1.12 3.94 2.31q.26.16.77.51t.86.62q-.26-.34-.62-.86t-.57-.87l-2.34-3.75 1.16-1.16zm5.53-5.54L21 42.9l-2 2 .92 1.73-1.27 1.27L15 40.37l1.45-1.45L24 42.55zm-3-1.63l-2.67-1.41-.47-.27q.36.61 1.69 3.14zm4.02-3.67l2.14 2.14-1.18 1.18-5.58-5.58 1.63-1.63a3.93 3.93 0 0 1 2.1-1.27 2.33 2.33 0 0 1 2.41 1.86 2.53 2.53 0 0 1-.17 1.37l4.07.79-1.32 1.32-3.47-.81zm-1-1l.38-.38a2.07 2.07 0 0 0 .64-1 .94.94 0 0 0-.32-.85.86.86 0 0 0-.84-.29 2.34 2.34 0 0 0-1 .68l-.36.36zm6.16-4.16l2.14 2.14-1.18 1.18-5.58-5.58 1.63-1.63A3.93 3.93 0 0 1 28 28.21a2.33 2.33 0 0 1 2.41 1.86 2.53 2.53 0 0 1-.17 1.37l4.07.79L33 33.54l-3.47-.81zm-1-1l.38-.38A2.07 2.07 0 0 0 29 31a.94.94 0 0 0-.32-.85.86.86 0 0 0-.84-.29 2.34 2.34 0 0 0-1 .68l-.36.36zm10.53-4.25l-1.73-.92-2 2 .89 1.81-1.27 1.27-3.63-7.57 1.45-1.45 7.58 3.63zm-3-1.63l-2.67-1.41-.47-.27q.36.61 1.69 3.14zm9.93-5.3l-1.5 1.5-6.65-1.79q1.19 1 1.67 1.52l2.63 2.63-1.06 1.06-5.58-5.58 1.49-1.49L43 20.82q-1.14-1-1.6-1.48l-2.64-2.64 1.06-1.06zm3.55-3.55l-1.18 1.18-4.59-4.59-1.51 1.51-1-1 4.21-4.21 1 1L44.35 13zm.83-7.39l-1.13-3.46 1.27-1.28 1.56 5.26 2.17 2.17-1.18 1.18L50.33 12 45 10.38l1.32-1.28z"/></svg>