<svg id="Layer_1" data-name="Layer 1" xmlns="http://www.w3.org/2000/svg" viewBox="0 0 82 82"><defs><style>.cls-1{fill:#296da7}.cls-2{fill:#fff}</style></defs><title>product_flags</title><path class="cls-1" d="M2 0a2 2 0 0 0-2 2v80L82 0z"/><path class="cls-2" d="M9.64 26.94l1.74-1.74a4.73 4.73 0 0 1 2.06-1.39 1.66 1.66 0 0 1 1.61.54 1.91 1.91 0 0 1 .59 1.06 1.32 1.32 0 0 1-.24 1 1.74 1.74 0 0 1 1.21-.32 2 2 0 0 1 1.1.63 2 2 0 0 1 .64 1.74 3.37 3.37 0 0 1-1.07 1.92l-2.09 2.09zM13 28l.69-.69a1.78 1.78 0 0 0 .55-.85.79.79 0 0 0-.28-.71.7.7 0 0 0-.69-.22 2.13 2.13 0 0 0-.88.6l-.62.62zm.94.94l1.45 1.45.77-.77a1.62 1.62 0 0 0 .53-.91 1 1 0 0 0-.34-.81q-.69-.69-1.69.3zm9.71-4.85l-3.21 3.21-5.58-5.58 3.21-3.21 1 1-2 2 1.22 1.22 1.89-1.89 1 1-1.98 1.87 1.44 1.44 2-2zm2.87-5.96a2 2 0 0 1 .65 1.73 3.34 3.34 0 0 1-1.08 1.95 5 5 0 0 1-1.92 1.24L23.07 22a9.19 9.19 0 0 0 1.31-.6 4 4 0 0 0 .82-.61 1.44 1.44 0 0 0 .45-.75.72.72 0 0 0-.23-.65.69.69 0 0 0-.38-.2 1.45 1.45 0 0 0-.52 0 9.9 9.9 0 0 0-1.1.35 4.85 4.85 0 0 1-1.23.31 2.45 2.45 0 0 1-.92-.11 2.08 2.08 0 0 1-.84-.53 2 2 0 0 1-.66-1.67 3 3 0 0 1 1-1.81 4.63 4.63 0 0 1 .93-.73 8.08 8.08 0 0 1 1.12-.54l.54 1.3a7.89 7.89 0 0 0-1 .48 3.37 3.37 0 0 0-.65.5 1.08 1.08 0 0 0-.36.67.73.73 0 0 0 .23.59.72.72 0 0 0 .35.2 1.12 1.12 0 0 0 .46 0 10 10 0 0 0 1.14-.36 4.22 4.22 0 0 1 1.82-.32 2.07 2.07 0 0 1 1.17.61zm4.67-1.58L30 17.73l-4.59-4.59-1.51 1.51-1-1 4.21-4.21 1 1L26.6 12zM22 41.41a2 2 0 0 1 .65 1.73 3.34 3.34 0 0 1-1.08 1.95 5 5 0 0 1-1.92 1.24l-1.1-1.1a9.19 9.19 0 0 0 1.31-.6 4 4 0 0 0 .82-.61 1.44 1.44 0 0 0 .45-.75.72.72 0 0 0-.23-.65.69.69 0 0 0-.38-.2 1.45 1.45 0 0 0-.52 0 9.9 9.9 0 0 0-1.1.35 4.85 4.85 0 0 1-1.23.31 2.45 2.45 0 0 1-.92-.11 2.08 2.08 0 0 1-.84-.53 2 2 0 0 1-.66-1.67 3 3 0 0 1 1-1.81 4.63 4.63 0 0 1 .93-.73 8.08 8.08 0 0 1 1.12-.54l.54 1.3a7.89 7.89 0 0 0-1 .48 3.37 3.37 0 0 0-.65.5 1.08 1.08 0 0 0-.36.67.73.73 0 0 0 .23.59.72.72 0 0 0 .35.2 1.12 1.12 0 0 0 .46 0A10 10 0 0 0 19 41.1a4.22 4.22 0 0 1 1.82-.32 2.07 2.07 0 0 1 1.18.63zm5.77-2.68l-3.21 3.21L19 36.37l3.21-3.21 1 1-2 2 1.22 1.22 1.89-1.89 1 1-1.89 1.89 1.44 1.44 2-2zm1.16-1.16L23.35 32l1.18-1.18 4.6 4.6 2.26-2.26 1 1zm4.41-4.42l-5.58-5.58 1.18-1.18 4.6 4.6 2.26-2.26 1 1zM41 25.53l-3.21 3.21-5.58-5.58 3.21-3.21 1 1-2 2 1.22 1.22 1.89-1.89 1 1-1.89 1.89L38 26.58l2-2zm.18-4.53l2.14 2.14-1.18 1.18-5.58-5.58 1.63-1.63a3.93 3.93 0 0 1 2.1-1.27 2.33 2.33 0 0 1 2.41 1.86 2.53 2.53 0 0 1-.17 1.37l4.07.79-1.31 1.31-3.47-.81zm-1-1l.38-.38a2.07 2.07 0 0 0 .64-1 .94.94 0 0 0-.32-.85.86.86 0 0 0-.84-.29 2.34 2.34 0 0 0-1 .68l-.36.36z"/></svg>