<svg id="Layer_1" xmlns="http://www.w3.org/2000/svg" viewBox="0 0 124 108"><style>.st0{fill:#fefefe}.st1{fill:#8c8c8c}</style><path class="st0" d="M108.1 91.5c7.8-10.3 12.1-23.1 12-36 .1-12.9-4.2-25.8-12-36-.1-.1 0-.2 0-.3.1-.1.2-.1.2 0 5 4.4 9 10 11.6 16.3 2.7 6.3 4 13.1 4 20-.1 3.4-.4 6.8-1 10.2-.7 3.3-1.6 6.7-3 9.8-2.6 6.3-6.6 11.9-11.6 16.3-.1.1-.2.1-.3 0 0-.2 0-.3.1-.3zm-92.5.2c-5-4.4-9-10-11.6-16.3-1.4-3.1-2.3-6.4-3-9.8-.6-3.4-.9-6.8-1-10.2.1-6.8 1.3-13.7 4-20 2.6-6.3 6.6-11.9 11.6-16.3.1-.1.2-.1.3 0 .1.1.1.2 0 .2-7.8 10.3-12.1 23.1-12 36-.1 12.9 4.2 25.8 12 36 .1.1 0 .2 0 .3-.1.2-.2.2-.3.1zm72.6-.5c-2.1-1.1-3.9-2.5-5.7-4-3.5-3.1-6.6-6.6-9.4-10.4-1.5-2-2.9-4.1-4.3-6.1 5.1-.9 8.6-2.8 12.3-5.5 5.3-3.9 9.8-11.6 11.1-19 1.4-7.3-.2-14.5-5-19.2-3.3-3.2-7.9-5.3-21.3-5.3H42.4L28.9 94.1h17.7L50.2 75c1.6 1.6 20.9 19.8 30.4 19.8H92s2.7-1.5 3.1-1.8c-2.6.1-4.8-.7-6.9-1.8zM53.8 54.8l3.1-16.7h12.9c4.7 0 7.5 1.8 7.5 5.6 0 5.2-3.4 11.1-11.3 11.1H53.8z"/><path class="st0" d="M101.7 77.7c-.5-5.2-1.8-10.3-3.4-15.2-1.7-5.1-3.9-10-6.3-14.7-.4 1.8-1.1 3.6-1.8 5.4 2 3.4 3.9 6.8 5.6 10.4 2.1 4.5 3.8 9.3 4.7 14.2.5 3.6 1 12.3-4.6 14.9-.4.2-.8.3-1.2.4-.2.1-.5.2-.7.2h-.1c-1.2.2-2.5.2-3.7 0-2.5-.3-4.9-1.3-7.2-2.4-4.6-2.3-8.7-5.4-12.6-8.7-7.6-6.8-14.2-14.7-20.1-23-4.2-6-8.1-12.4-11.2-19-1.2-2.5-2.3-5-3.3-7.6C34 27.9 32.6 23 32 18.2c-.3-2.4-.3-4.9.1-7.1.4-2.2 1.4-4.2 2.9-5.2 1.5-1.1 3.6-1.3 5.8-.9 2.2.4 4.5 1.2 6.6 2.3 4.3 2.2 8.4 5.1 12.1 8.4 2.3 2 4.5 4.1 6.6 6.2 3 0 5.5.1 7.7.3-3.4-3.7-7.1-7.3-11.1-10.5-4.1-3.3-8.5-6.3-13.5-8.6C46.7 2 44.1 1 41.2.7 38.4.3 35 .6 32.3 2.6s-3.9 5.1-4.4 7.9c-.5 2.8-.3 5.6 0 8.3.8 5.3 2.4 10.4 4.4 15.2 1.6 3.9 3.5 7.6 5.5 11.3 3 5.4 6.4 10.6 10 15.6C54.3 69 61.4 76.6 69.5 83c.7.5 1.4 1.1 2.1 1.6l-.3-.2c9.3 6.8 14.3 9.1 17.3 10 .2.1.5.1.7.2h.1c.2 0 .4.1.6.1h.1c.2 0 .3 0 .5.1h1.7c6.7 0 8.4-5.9 9-9 0-.1.1-.2.1-.3.5-2.6.6-5.2.3-7.8z"/><path class="st1" d="M29.1 95.4l-3.7-3.2-.5.2s1.3 1.5 5.7 4.9c2.5 1.9 5.9 3.8 9 5.2 1.6.7 3.1 1.3 4.7 2l1.2.5 1.3.4c.8.3 1.6.5 2.5.7 6.7 1.7 13.6 2 20.4 1.1 10.1-1.4 18.6-4.8 26.2-11.7 0 0-1.1.5-2.1.8-1 .3-2 .5-2 .5-3.6 2.6-6.4 3.5-10.5 5.1-.8-.7-1.6-1.3-2.4-2 2.2-1.1 3.8-1.9 5.7-3.3l-3.6-.4c-1.6.9-2.7 1.2-4.3 1.9-3.3-2.7-12.2-9.6-12.2-9.7-1.5-1.1-3-2.2-4.6-3.3l-1.3.4c1.6 1.3 3.2 2.5 4.8 3.8-1.1.8-2.2 1.5-3.3 2.2-4.3 2.7-9 4.9-13.9 6.1h-.1c-1.3-1-2.1-1.4-3.5-2.3H41c1.3 1.1 2.1 1.6 3.5 2.7-2.6.5-5.2.6-7.8.1-1.3-.8-2.8-1.9-4.1-2.8l-3.5.1zm49.2 4.6l2.7 1.8c-3.8 1.5-7.7 2.5-11.8 3.1-2.8.4-5.7.5-8.6.4 2.4-.2 4.7-.6 7-1.1 3.7-1 7.3-2.4 10.7-4.2zm-38.4-.1c2.3.3 4.6.2 6.8-.2 1.4 1.1 2.9 2.1 4.4 3.1-.7-.1-1.5-.1-2.2-.2-1.8-.3-3.6-.7-5.4-1.2-.9-.4-1.9-.8-2.8-1.2-.3-.1-.6-.2-.8-.3zm21.6-6.1c1.4-.9 2.8-1.8 4.1-2.8 3.5 2.6 6.9 5.1 10.5 7.5-2.9 1.3-6 2.4-9.1 3.1-4.7 1.2-9.5 1.6-14.3 1.4-1.5-1.2-2.9-2.5-4.5-3.6 4.8-1.1 9.2-3.2 13.3-5.6zm37.2-13.2c0-.7-.1-1.3-.1-1.8-1.6 2.4-3.3 4.8-5.2 7l-3.6-3.6-8.9-8.9-.7-.7c4.4-3.6 8.3-7.8 11.7-12.4-.4-.7-.8-1.4-1.2-2.2-.6.9-1.1 1.8-1.8 2.7-2.7 4-5.7 7.9-8.8 11.8l-2.8-2.8c-.4.2-.8.4-1.2.5l3.1 3.2-3.9 3c.2.2.3.4.5.6l.1.1c1.2-1.2 2.3-2.4 3.4-3.7l.7.7 8.9 8.9 3.6 3.6c-1.1.9-2.3 1.8-3.4 2.7h.1l.6.3c1-.9 1.9-1.9 2.8-3l.8.8 2.2 2.2.3.3.9-.9-.3-.3-2.2-2.2-.8-.8c1.9-1.4 3.6-3.2 5.2-5.1zm-63-68.2c.2-.2.5-.3.7-.4 1-.6 2-1.2 3-1.7 1.7-.9 3.5-1.6 5.2-2.2-.7-.3-1.3-.5-1.9-.7-1.3.5-2.6 1.1-3.9 1.7-1.8.9-3.5 1.9-5.1 3-.1.5-.1 1.1-.2 1.7l.1-.1c.8-.4 1.5-.9 2.1-1.3zm-1.6 7.8c0 .3.1.5.1.8 1.2-.9 2.5-1.8 3.8-2.7 2.6-1.7 5.3-3.2 8.1-4.5 1.7-.8 3.5-1.4 5.3-2-.8-.5-1.6-1.1-2.4-1.5-1.3.5-2.5 1.1-3.8 1.8-2.8 1.5-5.5 3.3-8 5.2-1 .9-2 1.9-3.1 2.9z"/><path class="st1" d="M113.3 47.5c-.4-2.6-1-5.3-1.8-7.8-.8-2.6-1.8-5.1-3-7.5-1.2-2.4-2.6-4.8-4.2-7-1.6-2.3-3.5-4.4-5.4-6.4-2-2-4.1-3.8-6.4-5.4-2.2-1.6-4.6-3-7-4.2-2.2-1-5.2-2.2-7.5-3-2.5-.8-5.1-1.4-7.8-1.8-2.6-.4-5.2-.6-7.8-.6H62c-2.1 0-4.2.2-6.3.4.6.4 1.2.7 1.8 1.1 1.5-.2 3-.3 4.5-.3h.2c2.5 0 5.1.2 7.6.6 1.9.3 3.8.7 5.6 1.2-3.9-.6-7.9-.7-11.8-.4L60 7c.9.7 1.9 1.4 2.9 2.2.3 0 .6-.1 1-.1 4.8-.5 9.6-.3 14.4.6l3.9 4.2c-3.8.3-7.5 1.2-11.1 2.5.7.6 1.3 1.3 2 2 3.5-1.3 7.1-2.2 10.8-2.6h.1c2.9 2.8 5.8 5.6 8.9 8.1-1 1-2.1 1.9-3.1 2.9.3.4.6.7.9 1.1 1-1.1 2-2.1 3-3.2 2.4 2.9 5 5.7 7.6 8.4 0 .2 0 .3-.1.5-.8 4.9-2.5 9.7-4.6 14.2-.4.8-.8 1.6-1.2 2.5.8 1.7 1.6 3.4 2.3 5.2l8.2 7.9c-.8 2.6-1.8 5.1-2.9 7.6l-.3.6c.2 1 .4 1.9.5 2.9.5-.8 1.1-1.7 1.5-2.5 1.2-2.2 2.2-4.4 3-6.7 1.1 1 2.1 1.9 3.2 2.9-.2 1-.5 1.9-.8 2.9-.8 2.5-1.8 4.9-3 7.3-.5 1-1.1 2.1-1.7 3.1-.1.3-.3.5-.4.8-.4.7-.9 1.4-1.4 2.1 0 .1-.1.1-.1.2l-.3 1.8-.1.3c-.1.3-.1.6-.2.8.4-.5.8-.9 1.1-1.4 1.6-2.2 3-4.6 4.2-7 1.2-2.4 2.2-4.9 3-7.5.8-2.5 1.4-5.1 1.8-7.8.4-2.6.6-5.3.6-7.9.3-3.1.1-5.8-.3-8.4zm-3.1-7.4c.1.4.2.7.3 1.1-.1-.1-.2-.2-.2-.3-.1-.5-.2-1-.3-1.6 0 .3.1.6.2.8zM102 24.6c2.1 3.4 3.7 7 4.8 10.8.2.7.3 1.3.4 2-1.3-1.4-2.6-2.8-4-4.2.1-2.5-.1-5-.8-7.4-.1-.4-.3-.8-.4-1.2zm-4.2-4.8c0 .1 0 .1-.1.1l.1-.1zm-14.1-6c-1.3-1.3-2.6-2.5-3.9-3.7.7.2 1.5.3 2.2.5 3.6 1 7.1 2.6 10.4 4.6-.2-.1-.4-.2-.7-.3-2.6-.9-5.3-1.2-8-1.1zm9.3 10c-2.3-2.8-4.8-5.5-7.4-8.1 3.3-.1 6.6.3 9.6 1.7.9.8 1.7 1.5 2.5 2.3-.2.1-.5.4-1 .8-1.2 1.1-2.5 2.1-3.7 3.3zm.8.8c1.4-1.5 2.8-3.1 4.1-4.8.8.8 1.5 1.6 2.2 2.4 1.3 2.9 1.6 6.1 1.4 9.3-2.5-2.4-5.1-4.8-7.7-6.9zm12.4 37.9c-3.1-3.3-6.2-6.5-9.3-9.7.7-1.3 1.4-2.6 2.1-4 2-4.4 3.6-9.1 4.1-14l4.5 4.2c.9 4.7 1 9.6.4 14.4-.3 3.1-1 6.1-1.8 9.1zm5.8.7c-.2 1.6-.6 3.1-1 4.7l-3-3.3c1.2-3.5 2.2-7.1 2.6-10.8.5-4.1.4-8.2-.3-12.3.1.1.2.2.3.2.6 2 1 4 1.3 6 .4 2.6.6 5.2.6 7.7.1 2.6-.1 5.2-.5 7.8zm-89.6 14c.5-5 2.1-9.9 4.2-14.6.5-1.2 1.1-2.4 1.7-3.6 1.5 1.4 2.9 2.8 4.4 4.3l.2-1.3c-1.3-1.3-2.6-2.7-3.9-4l-.1-.1c2-3.9 4.3-7.6 6.8-11.2l.2-1.2c-.2-.4-.4-.7-.6-1-3.2 3.6-6 7.4-8.4 11.6-3.1-3-6.2-6-9.3-8.9.8-2.6 1.7-5.1 2.8-7.6 1.3-2.8 2.8-5.5 4.5-8.1.9-1.5 2-2.9 3-4.3-.1-.2-.1-.4-.2-.6-3.6 3.6-6.7 7.7-9.1 12.2-1.2 2.1-2.1 4.4-2.9 6.7-.8-.7-1.5-1.4-2.3-2.1 2-8.6 6.3-16.6 12.5-23.1l.1.1.4.4c-.1-.6-.2-1.2-.3-1.9 0-.2 0-.4-.1-.6-.2.2-.4.3-.5.5 0 0-.1 0-.1.1-9.7 9.4-15.6 23-15.6 36.6 0 6.9 1.3 13.7 3.9 20 .3.8.7 1.6 1 2.4l.6 1.2.6 1.1c.8 1.5 1.7 2.9 2.6 4.4 1.8 3 4 5.6 6.5 8.1.6.5 1.2 1.1 1.9 1.7l.6-3 .6-3.1-.6.6-1.1 1.2-.1.2c-1-1.1-2.1-2.2-3-3.4-.8-2.5-1.1-5.1-1-7.7 2.1 2 4.2 4 6.4 5.8l.1-.6c-2-2.6-4.2-4.9-6.4-7.2zM13.1 57c-.2 2.4-.3 4.7-.2 7.1-.5-2.9-.8-5.7-.8-8.6 0-4.1.5-8.1 1.4-12.1.7.8 1.4 1.6 2.2 2.4-1.3 3.6-2.2 7.3-2.6 11.2zm7.6 26.2c-.5-.9-1.1-1.7-1.6-2.6-.7-1.7-1.4-3.4-1.9-5.2-.2-.7-.3-1.5-.5-2.2 1.2 1.3 2.4 2.6 3.7 3.9-.1 2.3.2 4.6.8 6.8-.2-.3-.3-.5-.5-.7zm-.1-7.7l-4.2-3.9c-.9-4.7-1.1-9.6-.6-14.3.3-3.2.9-6.3 1.8-9.4 2.9 3.1 5.9 6.3 8.9 9.3-.8 1.4-1.5 2.9-2.2 4.4-2 4.3-3.4 9-3.7 13.9zm16.8-43.9l1 1 .3-1.5-2.3-2.3c.3.9.6 1.8 1 2.8zM104 91.3c.2.1.3.2.5.3.1.1.2.3.3.5.1.2.1.4.1.6 0 .2 0 .4-.1.6-.1.2-.2.3-.3.5-.1.1-.3.2-.5.3-.2.1-.4.1-.6.1-.2 0-.4 0-.6-.1-.2-.1-.3-.2-.5-.3-.1-.1-.2-.3-.3-.5-.1-.2-.1-.4-.1-.6 0-.2 0-.4.1-.6.1-.2.2-.3.3-.5.1-.1.3-.2.5-.3.2-.1.4-.1.6-.1.2 0 .4.1.6.1zm-1.1.2c-.2.1-.3.2-.4.3-.1.1-.2.2-.3.4-.1.2-.1.3-.1.5s0 .3.1.5.1.3.3.4c.1.1.2.2.4.3.1.1.3.1.5.1s.3 0 .5-.1c.1-.1.3-.2.4-.3.1-.1.2-.2.3-.4.1-.2.1-.3.1-.5s0-.3-.1-.5-.1-.3-.3-.4c-.1-.1-.2-.2-.4-.3-.2-.1-.3-.1-.5-.1s-.3.1-.5.1zm0 2v-1.7h.6c.2 0 .3 0 .4.1.1.1.1.2.1.3v.2c0 .1-.1.1-.1.1l-.1.1h-.2l.5.7h-.2l-.5-.7h-.3v.7h-.2zm.7-.9h.2s.1 0 .1-.1v-.3l-.1-.1h-.6v.6h.3c-.1-.1 0-.1.1-.1z"/></svg>