<svg id="Layer_1" xmlns="http://www.w3.org/2000/svg" viewBox="0 0 132 23.8"><style>.st0{fill:#fff}</style><path class="st0" d="M8.5 3.9h13.7c3.2 0 3.8 1.3 3.8 3.7 0 4.2-2.3 6.1-5.3 6.1h-1.3l4.8 6.8H16l-3.4-5.8-1.5 5.8H4L8.5 3.9zm4.9 8.1h3.2c1.6 0 2.3-1.2 2.3-2.3 0-.8-.6-1.2-1.5-1.2h-3.1l-.9 3.5z"/><path class="st0" d="M33.7 3.9h12.4v16.6h-7.2v-2.4H33l-1.4 2.4h-7.9l10-16.6zm5.2 4.2l-3.7 6h3.7v-6zm11.7-4.2h8.1l1.5 9.6 2.5-9.6H70l-4.5 16.6h-7.9l-1.9-8.6-2.3 8.6h-7.2l4.4-16.6zm21.7 0h12.5c2.5 0 4.9.9 4.9 4.7 0 2.1-.6 4.2-1.8 7.3-1.3 3.4-4.2 4.6-6.6 4.6H67.7l4.6-16.6zm3.8 12.2h2.6c1.6 0 2.6-1.3 2.9-2.7.3-1.4.5-2 .5-2.4 0-1.1-.5-1.6-1.9-1.6h-2.3l-1.8 6.7z"/><path class="st0" d="M93 16.7L89.5 3.9h7.8l.9 7.3h.1l4.2-7.3h8.2l-12 16.6h-8.5l2.8-3.8zm34.5-10.8c-1-1.4-3.5-2.1-7.8-2.1-6.2 0-9.9 1.7-11.5 5.2-.6 1.3-.7 2.4-.2 3.2.4.8 1.3 1.3 2.6 1.5l6.5 1c.2 0 .4.1.5.2s0 .3 0 .4c-.2.5-.8 1.1-2.8 1.1-.9 0-1.5-.1-1.8-.3-.1-.1-.3-.3-.1-.8l.1-.4h-7.9l-.1.2c-.6 1.4-.7 2.6-.1 3.5 1.2 1.9 4.8 2.1 7.8 2.1 6.9 0 10.9-1.8 12.7-5.7.6-1.2.6-2.3.2-3.1-.5-.9-1.6-1.5-3.3-1.8L115.5 9c-.2 0-.3-.1-.3-.1s0-.1.1-.3c.3-.6 1.2-1 2.7-1 .7 0 1.3.1 1.6.3.3.1.5.3.2.9l-.2.4h7.7l.1-.2c.7-1.2.7-2.3.1-3.1z"/></svg>