<svg id="Layer_1" xmlns="http://www.w3.org/2000/svg" viewBox="0 0 124 114"><style>.st0{fill:#231f20}.st1{fill:#bbbdbf}.st2{fill:#f06022}</style><path class="st0" d="M4.5 87.4h13.7c3.2 0 3.8 1.3 3.8 3.7 0 4.2-2.3 6.1-5.3 6.1h-1.3l4.8 6.8H12l-3.4-5.8-1.5 5.8H0l4.5-16.6zm4.9 8.1h3.2c1.6 0 2.3-1.2 2.3-2.3 0-.8-.6-1.2-1.5-1.2h-3.1l-.9 3.5z"/><path class="st0" d="M29.7 87.4h12.4V104h-7.2v-2.4H29l-1.4 2.4h-7.9l10-16.6zm5.2 4.2l-3.7 6h3.7v-6zm11.7-4.2h8.1l1.5 9.6 2.5-9.6H66L61.5 104h-7.9l-1.9-8.6-2.3 8.6h-7.2l4.4-16.6zm21.7 0h12.5c2.5 0 4.9.9 4.9 4.7 0 2.1-.6 4.2-1.8 7.3-1.3 3.4-4.2 4.6-6.6 4.6H63.7l4.6-16.6zm3.8 12.2h2.6c1.6 0 2.6-1.3 2.9-2.7.3-1.4.5-2 .5-2.4 0-1.1-.5-1.6-1.9-1.6h-2.3l-1.8 6.7z"/><path class="st0" d="M89 100.2l-3.5-12.8h7.8l.9 7.3h.1l4.2-7.3h8.2l-12 16.6h-8.5l2.8-3.8zm34.5-10.8c-1-1.4-3.5-2.1-7.8-2.1-6.2 0-9.9 1.7-11.5 5.2-.6 1.3-.7 2.4-.2 3.2.4.8 1.3 1.3 2.6 1.5l6.5 1c.2 0 .4.1.5.2.1.1 0 .3 0 .4-.2.5-.8 1.1-2.8 1.1-.9 0-1.5-.1-1.8-.3-.1-.1-.3-.3-.1-.8l.1-.4h-7.9l-.1.2c-.6 1.4-.7 2.6-.1 3.5 1.2 1.9 4.8 2.1 7.8 2.1 6.9 0 10.9-1.8 12.7-5.7.6-1.2.6-2.3.2-3.1-.5-.9-1.6-1.5-3.3-1.8l-6.8-1.1c-.2 0-.3-.1-.3-.1s0-.1.1-.3c.3-.6 1.2-1 2.7-1 .7 0 1.3.1 1.6.3.3.1.5.3.2.9l-.2.4h7.7l.1-.2c.7-1.2.7-2.3.1-3.1z"/><path class="st1" d="M91.3 64.3c0-.5-.1-1-.1-1.4-1.3 1.9-2.6 3.8-4.1 5.6l-2.8-2.9-7.1-7.1-.6-.5c3.5-2.9 6.6-6.3 9.3-9.9-.3-.6-.6-1.1-.9-1.7-.5.7-.9 1.5-1.4 2.2-2.2 3.2-4.6 6.3-7.1 9.4l-2.3-2.3c-.3.2-.6.3-.9.4l2.5 2.5c-1 .8-2.1 1.6-3.1 2.4.1.2.3.3.4.5l.1.1c.9-1 1.9-1.9 2.7-3l.5.5 7.1 7.1 2.9 2.8c-.9.7-1.8 1.5-2.7 2.1h.1c.2.1.3.2.5.2.8-.8 1.5-1.5 2.2-2.4l.6.6 1.8 1.8.3.3c.3-.2.5-.4.7-.7l-.3-.3-1.8-1.8-.6-.6c1.4-1 2.8-2.4 4.1-3.9zM41 9.8l.6-.3c.8-.5 1.6-.9 2.4-1.3 1.4-.7 2.8-1.3 4.2-1.8l-1.5-.6c-1.1.4-2.1.9-3.1 1.4-1.4.7-2.8 1.5-4.1 2.4-.1.4-.1.9-.1 1.3l.1-.1c.5-.3 1-.6 1.5-1zM39.8 16c0 .2.1.4.1.7 1-.8 2-1.5 3.1-2.1 2.1-1.4 4.2-2.6 6.5-3.6 1.4-.6 2.8-1.1 4.2-1.6-.6-.4-1.3-.9-1.9-1.2-1 .4-2 .9-3 1.4-2.2 1.2-4.4 2.6-6.4 4.2-1 .7-1.8 1.4-2.6 2.2z"/><path class="st1" d="M102.9 37.9c-.3-2.1-.8-4.2-1.5-6.2-.6-2-1.5-4-2.4-6-1-1.9-2.1-3.8-3.4-5.6-1.3-1.8-2.8-3.5-4.3-5.1-1.6-1.6-3.3-3-5.1-4.3-1.8-1.3-3.6-2.4-5.6-3.4-1.8-.8-4.1-1.8-5.9-2.4-2-.6-4.1-1.1-6.2-1.4-2.1-.3-4.2-.5-6.3-.5H62c-1.7 0-3.4.1-5.1.3.5.3.9.6 1.4.9 1.3-.2 2.5-.3 3.7-.3h.2c2 0 4.1.2 6.1.5 1.5.2 3 .6 4.5 1-3.1-.5-6.3-.6-9.4-.3-1 .1-1.9.3-2.9.4.8.5 1.5 1.1 2.3 1.7.3 0 .5-.1.8-.1 3.8-.4 7.7-.2 11.5.5 1 1.1 2.1 2.3 3.1 3.4-3 .2-6 1-8.8 2 .5.5 1.1 1 1.6 1.6 2.8-1 5.7-1.8 8.6-2.1h.1c2.3 2.3 4.6 4.4 7.1 6.5-.8.8-1.7 1.5-2.5 2.3.3.3.5.6.7.9.8-.9 1.6-1.7 2.4-2.6 1.9 2.3 4 4.5 6.1 6.7v.4c-.6 3.9-2 7.7-3.7 11.4-.3.7-.6 1.3-1 2 .7 1.4 1.3 2.7 1.8 4.1l6.6 6.3c-.6 2.1-1.4 4.1-2.3 6.1-.1.1-.2.3-.2.4.2.8.3 1.6.4 2.3.4-.7.8-1.3 1.2-2 1-1.7 1.7-3.5 2.4-5.4.8.8 1.7 1.6 2.5 2.3-.2.8-.4 1.5-.6 2.3-.6 2-1.4 4-2.4 5.8-.4.8-.9 1.6-1.3 2.4-.1.2-.2.4-.4.6-.4.6-.7 1.1-1.1 1.7l-.1.1c-.1.5-.1 1-.2 1.4l-.1.3c0 .2-.1.4-.2.7.3-.4.6-.7.9-1.1 1.3-1.8 2.4-3.6 3.4-5.6 1-1.9 1.8-3.9 2.4-6 .6-2 1.1-4.1 1.5-6.2.3-2.1.5-4.2.5-6.3-.1-2.2-.3-4.4-.6-6.4zm-2.4-5.9c.1.3.2.6.2.9l-.2-.2-.3-1.2c.1.1.2.3.3.5zM94 19.6c1.7 2.7 3 5.6 3.8 8.6.1.5.2 1.1.3 1.6-1-1.1-2.1-2.2-3.2-3.3.1-2 0-4-.6-5.9-.1-.4-.3-.7-.3-1-.1-.1-.1 0 0 0zm-3.4-3.9s0 .1 0 0c0 .1 0 0 0 0zm-11.3-4.8c-1-1-2.1-2-3.1-3 .6.1 1.2.2 1.8.4 2.9.8 5.7 2.1 8.3 3.7-.2-.1-.4-.2-.5-.2-2.1-.7-4.3-1-6.5-.9zm7.4 8c-1.8-2.3-3.8-4.4-5.9-6.5 2.6-.1 5.3.2 7.7 1.4.7.6 1.4 1.2 2 1.9-.1.1-.4.3-.8.6-1 .8-2 1.7-3 2.6zm.7.6c1.1-1.2 2.2-2.5 3.3-3.8.6.6 1.2 1.3 1.8 1.9 1 2.3 1.3 4.9 1.1 7.4-2.1-1.9-4.1-3.7-6.2-5.5zm9.9 30.3c-2.4-2.6-4.9-5.2-7.4-7.7.6-1 1.1-2.1 1.6-3.2 1.6-3.5 2.9-7.3 3.3-11.2 1.2 1.1 2.4 2.3 3.6 3.4.7 3.8.8 7.7.4 11.5-.3 2.4-.8 4.9-1.5 7.2zm4.6.6c-.2 1.3-.5 2.5-.8 3.7-.8-.9-1.6-1.8-2.4-2.6 1-2.8 1.7-5.7 2.1-8.6.4-3.3.3-6.6-.2-9.8l.2.2c.4 1.6.8 3.2 1.1 4.8.3 2 .5 4.1.5 6.2 0 1.9-.2 4-.5 6.1zM30.4 61.5c.4-4 1.7-7.9 3.3-11.6.4-1 .9-1.9 1.3-2.9 1.2 1.1 2.3 2.3 3.5 3.4l.2-1.1c-1-1.1-2.1-2.2-3.1-3.2l-.1-.1c1.6-3.1 3.5-6 5.5-8.9l.2-1c-.2-.3-.3-.6-.4-.8-2.5 2.9-4.8 5.9-6.7 9.3-2.4-2.4-4.9-4.8-7.4-7.1.6-2.1 1.3-4.1 2.2-6 1-2.2 2.2-4.4 3.6-6.5.7-1.2 1.6-2.3 2.4-3.4 0-.2-.1-.3-.2-.5-2.9 2.8-5.3 6.1-7.3 9.7-.9 1.7-1.7 3.5-2.3 5.3-.6-.6-1.2-1.1-1.8-1.7 1.6-6.9 5-13.3 9.9-18.4l.1.1.3.3-.3-1.5c0-.2 0-.3-.1-.5l-.4.4-.1.1c-7.8 7.5-12.4 18.3-12.5 29.2 0 5.5 1 10.9 3.1 16 .3.6.5 1.3.8 1.9l.5 1 .5.9c.7 1.2 1.4 2.3 2.1 3.5 1.5 2.4 3.2 4.4 5.2 6.4.5.4 1 .9 1.5 1.4l.4-2.4.5-2.5-.5.5-.9 1-.1.1-2.4-2.7c-.7-2-.9-4.1-.8-6.2 1.6 1.6 3.3 3.2 5.1 4.7l.1-.5c-1.4-2-3.1-3.8-4.9-5.7 0 .1 0 .1 0 0zM23 45.4c-.2 1.9-.2 3.8-.1 5.7-.4-2.3-.7-4.6-.7-6.9 0-3.3.4-6.5 1.1-9.6.6.6 1.2 1.3 1.7 1.9-1 2.9-1.7 5.8-2 8.9zm6 20.9c-.4-.7-.8-1.4-1.3-2.1-.6-1.4-1.1-2.7-1.5-4.1-.2-.6-.3-1.2-.4-1.7 1 1.1 2 2.1 3 3.1-.1 1.8.1 3.7.6 5.4-.1-.2-.2-.4-.4-.6zm-.1-6.1c-1.1-1.1-2.2-2.1-3.4-3.1-.7-3.8-.9-7.6-.5-11.5.2-2.5.8-5.1 1.5-7.5 2.3 2.5 4.7 5 7.1 7.4-.6 1.2-1.2 2.3-1.8 3.5-1.5 3.6-2.6 7.3-2.9 11.2zm13.4-35.1l.8.8.2-1.2-1.8-1.8c.3.7.5 1.5.8 2.2z"/><path class="st2" d="M98.8 72.9c6.3-8.2 9.7-18.5 9.6-28.8.1-10.3-3.3-20.6-9.6-28.8-.1-.1 0-.2 0-.2h.2c4 3.5 7.2 8 9.3 13 2.1 5 3.2 10.5 3.2 15.9 0 2.7-.3 5.5-.8 8.1-.6 2.7-1.3 5.3-2.4 7.8-2.1 5-5.3 9.5-9.3 13-.1.1-.2 0-.2 0-.1.2-.1.1 0 0zm-73.8.2c-4-3.5-7.2-8-9.3-13-1.1-2.5-1.8-5.1-2.4-7.8-.5-2.7-.8-5.4-.8-8.2 0-5.5 1.1-10.9 3.2-15.9s5.3-9.5 9.3-13c.1-.1.2 0 .2 0 0 .1.1.1 0 .2-6.3 8.2-9.7 18.5-9.6 28.8-.1 10.3 3.3 20.6 9.6 28.8.1.1 0 .2 0 .2-.1 0-.2 0-.2-.1z"/><path class="st0" d="M82.9 72.7c-1.6-.9-3.1-2-4.6-3.2-2.8-2.4-5.3-5.3-7.5-8.3-1.2-1.6-2.3-3.2-3.4-4.9 4-.8 6.9-2.2 9.9-4.4 4.2-3.1 7.8-9.3 8.9-15.2 1.1-5.9-.1-11.6-4-15.3-2.6-2.6-6.3-4.2-17-4.2H46.3L35.6 75.1h14.1l2.8-15.2c1.3 1.2 16.7 15.8 24.2 15.8h9.1s2.2-1.2 2.5-1.4c-1.9 0-3.7-.7-5.4-1.6zm-27.4-29L58 30.4h10.3c3.8 0 6 1.4 6 4.5 0 4.1-2.7 8.8-9 8.8h-9.8z"/><path class="st2" d="M93.7 62c-.4-4.2-1.4-8.2-2.7-12.2-1.4-4-3.1-8-5.1-11.8-.4 1.5-.8 2.9-1.4 4.3 1.6 2.7 3.1 5.4 4.4 8.3 1.6 3.6 3 7.4 3.8 11.3.4 2.9.8 9.8-3.7 11.9l-.9.3c-.2.1-.4.1-.6.2h-.1c-1 .2-2 .2-3 0-2-.3-3.9-1-5.8-1.9-3.7-1.8-6.9-4.3-10-6.9-6.1-5.4-11.4-11.7-16-18.4-3.4-4.8-6.4-9.9-9-15.2-1-2-1.9-4-2.7-6.1-1.4-3.8-2.6-7.6-3-11.5-.2-1.9-.2-3.9.1-5.7.3-1.8 1.1-3.3 2.3-4.2 1.2-.9 2.9-1 4.7-.8 1.8.3 3.6 1 5.3 1.8 3.5 1.7 6.7 4.1 9.7 6.7 1.8 1.6 3.6 3.2 5.3 5 2.4 0 4.4.1 6.2.2-2.7-3-5.7-5.8-8.8-8.4C59.4 6.3 55.9 3.8 52 2 50 1.1 47.9.4 45.6.1c-2.3-.3-5 0-7.1 1.6C36.4 3.3 35.4 5.8 35 8c-.4 2.3-.3 4.5 0 6.6.6 4.3 1.9 8.3 3.5 12.1 1.3 3.1 2.8 6.1 4.4 9 2.4 4.3 5.1 8.5 8 12.5 5 6.6 10.6 12.7 17.1 17.8.5.4 1.1.9 1.7 1.3l-.3-.2c7.4 5.4 11.4 7.3 13.8 7.9.2.1.4.1.6.1h.1c.2 0 .3.1.4.1h1.9c5.4 0 6.7-4.7 7.2-7.2 0-.1 0-.2.1-.2.4-1.7.4-3.8.2-5.8z"/><path class="st0" d="M15.7 111.6c-.3.4-.7 1.1-1 1.6-.1.1-.2.3-.2.4l-.1.1h-.9l-.1-.1v-5.5c-.3.5-.8 1.3-1.1 1.9l-1.1 1.7c-.1.2-.3.5-.4.7-.5.8-.5.8-.7 1.2H8.9v-1.5l-.1-2.9v-1.4l.1-.1h.8v5.5l2.6-4.3.7-1.2h1.2l.1.1v5.4l2.3-3.8c.4-.7.5-.9 1-1.6h.9l-.9 1.5-1.9 2.3zm13.4 1.2c-1 .8-2.1 1-2.9 1-1.6 0-3.1-.7-3.1-2.3 0-1.4 1.2-3.9 4.3-3.9 1.8 0 3.1.8 3.1 2.3 0 .4-.1.8-.2 1.2-.2.6-.6 1.2-1.2 1.7zm.7-2.9c0-1.2-1-1.9-2.4-1.9-2.4 0-3.5 2.2-3.5 3.4 0 .4.1.9.6 1.3.4.4 1.1.5 1.8.5 1.9 0 3-1.2 3.4-2.6 0-.1.1-.4.1-.7zm10.1-2.2c.5 0 1.3 0 1.8.1 1 .3 1 1 1 1.2 0 .4-.2.8-.7 1.2-.6.5-1.4.6-2.1.6l1.3 1.7c.1.1.6.8.7 1l-.1.1h-.9c-.2-.4-.3-.5-.6-1l-1.2-1.7H38c-.3 1-.4 1.3-.8 2.6l-.1.1h-.7l-.1-.1.6-1.9.3-1.2c.4-1.4.5-1.6.8-2.7l.1-.1 1.8.1zm-1.7 2.8h.3c1 0 2 0 2.8-.4.5-.2.8-.7.8-1.1 0-.8-.9-.9-2-.9h-1.2l-.3.8-.4 1.6zm14.6 3.1h-4.2l.6-1.8.5-1.7.7-2.3h.8l.1.1-.7 2.2-.5 1.7c-.1.4-.4 1.1-.4 1.6H53l.1.1-.3.1zm6.6 0l.4-1.2.5-1.7c.4-1.4.5-1.8.8-2.9h2.3c.8 0 1.7 0 2.4.5.6.4 1 1 1 1.8 0 1-.6 2.2-1.6 2.9-1.2.9-2.7.9-4.2.9l-1.6-.3zm1.8-3.5c-.5 1.5-.6 1.9-.9 3.1h.6c.8 0 1.8 0 2.5-.2 1.7-.5 2.5-1.9 2.5-3.1 0-.6-.3-1.1-1-1.4-.6-.3-1.3-.3-2.5-.3h-.7l-.5 1.9zm19.2 1.5c-.3.4-.7 1.1-1 1.6-.1.1-.2.3-.2.4l-.1.1h-.9l-.1-.1v-5.5c-.3.5-.8 1.3-1.1 1.9l-1.1 1.7c-.1.2-.3.5-.4.7-.5.8-.5.8-.7 1.2h-1.2v-1.5l-.1-2.9v-1.4l.1-.1h.8v5.5l2.6-4.3.7-1.2h1.2l.1.1v5.4l2.3-3.8c.4-.7.5-.9 1-1.6h.9l-.9 1.5-1.9 2.3zm7.9 2l-.8.1h-.1l.4-1.1.5-1.8c.4-1.4.5-1.7.8-3h.8l-1 3.2-.2.7-.4 1.9zm7.6 0l.4-1.2.5-1.7c.4-1.4.5-1.8.8-2.9h2.2c.8 0 1.7 0 2.4.5.6.4 1 1 1 1.8 0 1-.6 2.2-1.6 2.9-1.2.9-2.7.9-4.2.9l-1.5-.3zm1.8-3.5c-.5 1.5-.6 1.9-.9 3.1h.6c.8 0 1.8 0 2.5-.2 1.7-.5 2.5-1.9 2.5-3.1 0-.6-.3-1.1-1-1.4-.6-.3-1.3-.3-2.5-.3h-.7l-.5 1.9zm16 3.5h-4.4l-.1-.1.5-1.7.4-1.3.8-2.9h4.5l-.2.4-.1.1h-3.5l-.7 2.2h3.5v.1l-.1.4-.1.1h-3.4l-.3.9-.4 1.5h3.7l.1.1-.2.2zm-8.1-40.2c.1.1.3.1.4.2.1.1.2.2.2.4.1.1.1.3.1.5s0 .3-.1.5c-.1.1-.1.3-.2.4-.1.1-.2.2-.4.2-.1.1-.3.1-.5.1s-.3 0-.5-.1c-.1-.1-.3-.1-.4-.2-.1-.1-.2-.2-.2-.4-.1-.1-.1-.3-.1-.5s0-.3.1-.5c.1-.1.1-.3.2-.4.1-.1.2-.2.4-.2.1-.1.3-.1.5-.1s.4 0 .5.1zm-.8.2c-.1.1-.2.1-.3.2-.1.1-.2.2-.2.3 0 .1-.1.3-.1.4 0 .1 0 .3.1.4 0 .1.1.2.2.3.1.1.2.2.3.2.1.1.3.1.4.1.1 0 .3 0 .4-.1.1-.1.2-.1.3-.2.1-.1.2-.2.2-.3 0-.1.1-.3.1-.4 0-.1 0-.3-.1-.4 0-.1-.1-.2-.2-.3-.1-.1-.2-.2-.3-.2-.1-.1-.2-.1-.4-.1s-.3 0-.4.1zm0 1.5v-1.3h.5c.2 0 .3 0 .3.1.1.1.1.2.1.3v.2s0 .1-.1.1l-.1.1h-.1l.4.6h-.2l-.4-.6h-.3v.6h-.1zm.5-.7h.1s.1 0 .1-.1v-.2s0-.1-.1-.1h-.5v.5h.2c.1-.1.1-.1.2-.1z"/></svg>