<svg id="Layer_1" data-name="Layer 1" xmlns="http://www.w3.org/2000/svg" viewBox="0 0 142 142"><defs><style>.cls-1{fill:#222}</style></defs><title>rod_ratio</title><path class="cls-1" d="M36.51 49.94v29.83H43c2.82-11.09 14.29-19.4 28-19.4s25.18 8.3 28 19.4h6.48V49.94h-69z"/><path class="cls-1" d="M82.79 84.41C81.91 77 81 70.74 80.39 64.92a31.15 31.15 0 0 0-18.79 0C61 70.74 60.09 77 59.21 84.4a27.12 27.12 0 0 1 23.58 0zM71 84.8a26.1 26.1 0 1 0 26.1 26.1A26.13 26.13 0 0 0 71 84.8zm0 37.8a11.69 11.69 0 1 1 11.7-11.7A11.71 11.71 0 0 1 71 122.59zm28-81.91H42.99v6.15H99v-6.15zm-62.49-5.78v2.67h68.98V27.47H36.51v7.44zm6.48-16.69H99v6.15H42.99zM36.51 5h68.98v10.12H36.51z"/></svg>