<svg id="Layer_1" data-name="Layer 1" xmlns="http://www.w3.org/2000/svg" viewBox="0 0 100 100"><defs><style>.cls-1{fill:#fff}</style></defs><title>rod_ratio_circle</title><circle class="cls-1" cx="50" cy="73.16" r="6.2"/><path class="cls-1" d="M50 0a50 50 0 1 0 50 50A50 50 0 0 0 50 0zm0 87a13.84 13.84 0 1 1 13.84-13.84A13.86 13.86 0 0 1 50 87zm-6.25-27.89c.47-3.91.93-7.24 1.27-10.33a16.52 16.52 0 0 1 10 0c.34 3.09.81 6.43 1.27 10.33a14.38 14.38 0 0 0-12.51 0zm24.54-11.42v9h-3.44c-1.5-5.92-7.57-10.33-14.85-10.33s-13.35 4.4-14.85 10.29h-3.44V40.83h36.58zm-33.14-8.5v-3.26h29.7v3.26h-29.7zm33.14-4.91H31.71v-5.36h36.58zm-33.14-7V24h29.7v3.26zm33.14-4.91H31.71V17h36.58z"/></svg>