<svg id="Layer_1" data-name="Layer 1" xmlns="http://www.w3.org/2000/svg" viewBox="0 0 142 142"><defs><style>.cls-1{fill:#222}</style></defs><title>rpm</title><path class="cls-1" d="M71 0a71 71 0 1 0 71 71A71.08 71.08 0 0 0 71 0zm0 131.4A60.4 60.4 0 1 1 131.4 71 60.46 60.46 0 0 1 71 131.4z"/><path class="cls-1" d="M107.29 59.44l.32.95 12.87-2.96-1.43-4.28-12.07 5.33.31.96zm-5.62-10.64l.59.81 11.34-6.76-2.67-3.64-9.86 8.78.6.81zm-7.65-7.87l8.77-9.86-3.64-2.67-6.76 11.34.81.59.82.6zm-10.5-5.91l5.33-12.07-4.28-1.43-2.96 12.87.95.31.96.32zM71 32.55h1.01l1.25-13.14h-4.52l1.25 13.14H71zM59.44 34.7l.96-.31-2.97-12.87-4.28 1.43 5.33 12.07.96-.32zm-20.23-3.63l8.78 9.86.81-.6.81-.59-6.76-11.34-3.64 2.67zm1.12 17.73l.6-.81-9.86-8.78-2.67 3.64 11.34 6.76.59-.81zm-5.62 10.64l.31-.96-12.07-5.33-1.43 4.28 12.87 2.96.32-.95zm-2.16 10.55l-13.14-1.25v4.52l13.14-1.25v-2.02zm2.16 12.57l-.32-.95-12.87 2.96 1.43 4.29 12.07-5.34-.31-.96zm5.62 10.64l-.59-.81-11.34 6.76 2.67 3.64 9.86-8.78-.6-.81zm61.34 0l-.6.81 9.86 8.78 2.67-3.64-11.34-6.76-.59.81zm5.62-10.64l-.31.96 12.07 5.34 1.43-4.29-12.87-2.96-.32.95zm2.16-12.57v2.02l13.14 1.25v-4.52l-13.14 1.25zm-41.33 6.84a6.46 6.46 0 0 0 9.26-6.75L86.83 41l-1.43-.71-17.49 25.08a6.46 6.46 0 0 0 .21 11.46zm1.11-2.23a4 4 0 1 1 5.32-1.79 4 4 0 0 1-5.32 1.79zM71 113.09a41.81 41.81 0 0 1-20.86-5.56l-3.66 6.41a49.3 49.3 0 0 0 49.28-.14l-3.66-6.41a41.8 41.8 0 0 1-21.1 5.7z"/></svg>