<svg id="Layer_1" data-name="Layer 1" xmlns="http://www.w3.org/2000/svg" viewBox="0 0 100 100"><defs><style>.cls-1{fill:#fff}</style></defs><title>rpm_circle</title><path class="cls-1" d="M50 20.23A29.77 29.77 0 1 0 79.77 50 29.81 29.81 0 0 0 50 20.23zm21 15.9l-5.59 3.33-.29-.4-.29-.4 4.86-4.33zM63.88 29l1.79 1.32-4.33 4.86-.4-.29-.4-.29zm-7.19-3.39l2.11.7-2.63 6-.47-.16-.47-.15zm-5.58-1L50.5 31h-1l-.61-6.48zm-4 24a3.17 3.17 0 0 1 1.33-1.38l8.66-12.39.71.35-4.66 14.35a3.18 3.18 0 1 1-6-.94zm-3.84-23l1.5 6.39-.47.16-.47.16-2.63-6zM36.12 29l3.33 5.59-.4.29-.4.29-4.33-4.86zm-9.81 12.2l6 2.63-.16.47-.16.47-6.34-1.46zm-1.75 7.69l6.44.61v1l-6.48.61zm1.75 9.91l-.7-2.11L32 55.23l.16.47.16.47zm4 6.87L29 63.88l5.59-3.33.29.4.29.4zm4.57-26.62l-.29.4L29 36.12l1.32-1.79 4.86 4.33zM50 74.39a24.23 24.23 0 0 1-12.09-3.22L39.72 68a20.67 20.67 0 0 0 20.68-.07l1.81 3.16A24.23 24.23 0 0 1 50 74.39zm19.68-8.72l-4.86-4.33.29-.4.29-.4 5.6 3.34zm4-6.87l-6-2.63.16-.47.16-.47 6.34 1.46zm1.75-7.69L69 50.5v-1l6.48-.61zm-1-7.8L68 44.77l-.16-.47-.16-.47 6-2.63z"/><circle class="cls-1" cx="50" cy="50.02" r="1.96" transform="rotate(-63.59 49.997 50.019)"/><path class="cls-1" d="M50 0a50 50 0 1 0 50 50A50 50 0 0 0 50 0zm0 85a35 35 0 1 1 35-35 35 35 0 0 1-35 35z"/></svg>