<svg id="Layer_1" data-name="Layer 1" xmlns="http://www.w3.org/2000/svg" viewBox="0 0 142 142"><defs><style>.cls-1{fill:#222}</style></defs><title>tire_height</title><path class="cls-1" d="M71 0a71 71 0 1 0 71 71A71 71 0 0 0 71 0zm26.37 110.44a47.5 47.5 0 1 1 13.13-65.88 47.5 47.5 0 0 1-13.13 65.88z"/><circle class="cls-1" cx="71" cy="70.94" r="11" transform="rotate(-33.72 70.999 70.946)"/><path class="cls-1" d="M46 69.59l-6.78-3.43c-5.66-2.85-6.85-.77-6.69 5.75a37.64 37.64 0 0 0 6.37 19.28c3.61 5.2 5.94 6.32 8.79.67l3.43-6.79A11.56 11.56 0 0 0 46 69.59zm18.09-23.46c.24-1.89.71-5.66 1-7.54.79-6.29-1.57-6.71-7.66-4.36a37.63 37.63 0 0 0-16 12.45c-3.68 5.14-4 7.71 2.33 8.5l7.54 1a11.56 11.56 0 0 0 12.79-10.05zm14.59 47.78a11.56 11.56 0 0 0-16.29 0c-1.34 1.35-4 4-5.38 5.38-4.48 4.48-2.88 6.26 3.37 8.15a37.66 37.66 0 0 0 20.3 0c6.06-1.8 7.85-3.67 3.37-8.15zm19.65-38.73c6.29-.78 6-3.35 2.34-8.5a37.7 37.7 0 0 0-16-12.48c-6.09-2.35-8.45-1.94-7.67 4.35.24 1.89.7 5.65.94 7.54a11.55 11.55 0 0 0 12.85 10zm4.55 10.47l-6.79 3.42A11.55 11.55 0 0 0 91 84.54c.85 1.7 2.56 5.09 3.41 6.79 2.84 5.67 5.18 4.54 8.79-.65a37.65 37.65 0 0 0 6.37-19.27c.16-6.53-1.03-8.61-6.69-5.76z"/></svg>