<svg id="Layer_1" data-name="Layer 1" xmlns="http://www.w3.org/2000/svg" viewBox="0 0 142 142"><defs><style>.cls-1{fill:#222}</style></defs><title>transmission_ratio</title><path class="cls-1" d="M124.54 13H17.46A4.47 4.47 0 0 0 13 17.46v107.08a4.47 4.47 0 0 0 4.46 4.46h107.08a4.48 4.48 0 0 0 4.46-4.46V17.46a4.48 4.48 0 0 0-4.46-4.46zm-20.6 95.93a9.15 9.15 0 1 1 9.15-9.15 9.15 9.15 0 0 1-9.15 9.15zm3.93-58.46V71a3.93 3.93 0 0 1-3.93 3.93h-29v16.6a9.15 9.15 0 1 1-7.87 0v-16.6H42v16.6a9.15 9.15 0 1 1-7.87 0V50.47a9.15 9.15 0 1 1 7.87 0v16.6h25.06v-16.6a9.15 9.15 0 1 1 7.87 0v16.6H100v-16.6a9.15 9.15 0 1 1 7.87 0z"/></svg>