<svg id="Layer_1" data-name="Layer 1" xmlns="http://www.w3.org/2000/svg" viewBox="0 0 107 110"><defs><style>.cls-1{fill:#d2d1aa}.cls-2{fill:#363839}.cls-3{fill:#969696}.cls-4{fill:#d0cfcf}.cls-5{fill:#b8b7b8}.cls-6{fill:#8a8b8b}.cls-7{fill:#757677}.cls-8{fill:#8d401e}.cls-9{fill:#fff}</style></defs><title>usa_standard_logo_color</title><path class="cls-1" d="M104.95 56.76A51.45 51.45 0 1 1 53.5 5.31a51.45 51.45 0 0 1 51.45 51.45"/><path class="cls-2" d="M44.55 29.39s1.15-.31 1.34-.31.29 0 .59.26 1 .62 1 .62h.63s.37-.65.53-.88.41-.56.41-.56l1.48-.18s1.35 1.12 1.4 1.12l.4.06 1.18-1.23a9.32 9.32 0 0 1 1.45 0 1.21 1.21 0 0 1 .69.48c.2.25.47.69.69.78a2.16 2.16 0 0 0 .44.12l1.32-1.07a9.79 9.79 0 0 1 1 .16c.46.1.44.06.69.32s1 1.23 1 1.23l.28.09s1.15-.7 1.32-.78.09 0 .56.06a2.42 2.42 0 0 1 1.26.53c.22.28.87 1.44.87 1.44h.18s.92-.34 1.17-.44.13-.17.59 0a4.33 4.33 0 0 1 1.25.59 20 20 0 0 1 .9 1.87l.69-.19a4.46 4.46 0 0 1 1.23.07 7.57 7.57 0 0 1 .67.35c.22.15.41.24.52.47s.69 2 .69 2a.82.82 0 0 1 .45-.16 11.66 11.66 0 0 1 1.57.32 1.75 1.75 0 0 1 .56.37 1 1 0 0 1 .29.59c0 .26.25 1.35.29 1.53s.1.59.37.6a6.4 6.4 0 0 1 1.72.19 5 5 0 0 1 .57.62c0 .07.24 1.85.24 2.1s1.62.87 1.72 1 .06.26.1.47c.15.82.43 2.86.43 2.86h.53A9.54 9.54 0 0 1 83.45 48c.32.44 0 3 0 3s-.91 0-.26.32a3.68 3.68 0 0 1 1.19 1c.13.2.28.5.22.57s-.68 2.48-.68 2.48A12.19 12.19 0 0 1 85 56.74a3.52 3.52 0 0 1 .07.67c0 .16-.81 2.32-.81 2.32s.6 1.38.64 1.6a3.41 3.41 0 0 1 0 .76c0 .16-.53 1-.62 1.31s-.37 1-.37 1v1.26a6 6 0 0 1 .07 1.06 18.37 18.37 0 0 1-1.16 1.88 3.94 3.94 0 0 0-.37.63 10.89 10.89 0 0 1 .06 1.35 1.21 1.21 0 0 1-.35 1 12.1 12.1 0 0 1-1.22 1.38c-.26.19-.66.56-.66.56s-.06 1.15-.1 1.35a1.92 1.92 0 0 1-.13.54c-.07.1-1.6 1.63-1.75 1.75a.92.92 0 0 1-.38.22 2.41 2.41 0 0 0-.78 1.18 1.06 1.06 0 0 1-.32.82 2.33 2.33 0 0 1-.81.74 8.17 8.17 0 0 0-1.19.75c0 .06-1.31 1.51-1.53 1.76a5.73 5.73 0 0 1-1.4.82c-.4.18-.5.26-.73.38a5.07 5.07 0 0 0-1.19.68c-.32.31-.66.85-1 1a5.59 5.59 0 0 1-1 .38c-.62.21-1.38.4-1.38.4a2.45 2.45 0 0 0-1.34.35 6.56 6.56 0 0 1-1.06 1 2.8 2.8 0 0 1-1.06.34c-.44 0-.56 0-.75.06s-.35.15-.46.16-1.13.43-1.13.43a3.23 3.23 0 0 0-.73.09c-.31.09-.65.22-1 .29s-2.16.07-2.16.07a7.75 7.75 0 0 1-1.44.41c-.44 0-1.4.15-1.82.13s-1.59-.31-1.76-.28-1.16.06-1.28.07-.63 0-1 0a5.86 5.86 0 0 1-1.56-.16 10 10 0 0 0-1.31-.37c-.4-.06-.87-.22-1.28-.31s-.26.15-.56.1-1.47-.46-1.73-.54a7 7 0 0 1-.88-.47l-.42-.22a2.9 2.9 0 0 0-.78-.32 6 6 0 0 1-1.06-.2c-.24-.1-1.51-.57-1.59-.65s-.45-.4-.69-.59a1.93 1.93 0 0 0-.35-.25l-1.12-.66-1.66-.94a4.61 4.61 0 0 1-.52-.2c-.22-.13-.42-.56-.62-.78s-.18-.09-.35-.38a21.45 21.45 0 0 0-2.69-1.94c-.27-.15-.52-.22-.59-.5a1.57 1.57 0 0 0-.18-.56 7.4 7.4 0 0 0-.7-.81c-.21-.26-.16-.13-.38-.41s-.38-.07-.63-.43-.84-.82-1-1.1a1.3 1.3 0 0 1-.2-.72 1.06 1.06 0 0 0-.16-.62 2.6 2.6 0 0 0-.57-.84 4.81 4.81 0 0 1-1.12-1.44c-.38-.73-.54-1-.45-1.32a2.42 2.42 0 0 0 .1-.47c0-.18-.19-.32-.28-.6S23.9 70 23.9 70s-.59-.45-.66-.75-.43-.94-.43-1.1-.16-.41 0-.69.26-.4.22-.69-.18-.62-.22-.89 0-.24-.13-.35c-.27-.27-.69-.53-.78-1s-.35-1.29-.25-1.47.57-.73.57-.73 0-.43-.06-.69-.09-.68-.09-.68-.72-.82-.72-1.1v-1.38c0-.2.28-.35.46-.52s.28 0 .31-.56c0-.74.13-.82.13-.82a6 6 0 0 1-.68-1.31 4.86 4.86 0 0 1 .32-1.59c.18-.12.73-.21.9-.62a9.35 9.35 0 0 0 .2-1.13s-.62-1-.52-1.29l.43-1.23c0-.13.15-.16.38-.25a4.71 4.71 0 0 0 .73-.31.94.94 0 0 0 .26-.47l.29-.85-.5-1.1s.46-1.32.75-1.38l1.25-.25.57-1-.25-1.37.82-1.28 1.47-.15.76-1-.26-1.25 1-1.07 1.48.06.87-.76-.06-1.43 1.13-.88 1.51.28.91-.51.2-1.44 1.32-.82 1.53.57.81-.41.37-1.47 1.41-.53 1.51.72.66-.13a9.72 9.72 0 0 1 .73-1.53"/><path class="cls-3" d="M58.12 28.56c1.16.09.58.22.73.25a15.21 15.21 0 0 0-3.39 2.94A19.21 19.21 0 0 0 54 33.62c-.17.35-.15.26-.56 1l.69 1.23s1.09-1.27 1.53-1.7a28.6 28.6 0 0 1 3.15-2.49c.59-.31 3-1.91 3.26-2s.21-.21.44-.15l1.15.3a2.23 2.23 0 0 0-1.36.41 37.68 37.68 0 0 0-3.64 2.66 9 9 0 0 0-1.41 1.43c-.14.3-.31.59-.31.59l.51 1.27s.41-.37.72-.61 2.43-1.63 3.11-2 2.78-1.37 3.52-1.7a9.42 9.42 0 0 1 2.08-.8c.2.06 1.26.62 1.26.62a1.85 1.85 0 0 0-1.42 0 42.3 42.3 0 0 0-4.84 2.57l-1.63 1.41a7.14 7.14 0 0 0 .3 1.21c.1.1.17.16.45 0s3.45-1.74 3.86-1.88 3.64-1.17 4.35-1.33 1.19-.41 1.59-.24a6 6 0 0 1 .92.59c.06 0-.27-.35-1.25-.1s-4.39 1.55-4.86 1.76a10.6 10.6 0 0 0-1.45.63c-.27.22-.73.65-.73.65l.27 1.39s1-.41 1.7-.65 4.35-1.16 5.36-1.29 3.6-.31 3.6-.31.76.46.94.62-.66-.22-1.76-.09-5.24 1.08-5.84 1.27a6.5 6.5 0 0 0-1.27.63l.13 1.48 2.68-.55c.69-.14 1.57-.16 2.23-.23s5.44-.07 5.85 0 .22.1.82.59.5.44.5.44a2.81 2.81 0 0 0-1.55-.47 38.42 38.42 0 0 0-5.42.18 18.16 18.16 0 0 0-2.53.63v1.53a33.8 33.8 0 0 1 10 .46c1.1.2 1.65.56 1.66 1.1a13.57 13.57 0 0 0-2.23-.54 38.18 38.18 0 0 0-4.63-.38 9.29 9.29 0 0 0-2.37.37l-.1 1.34.13.12s2.2-.18 7.29 1.1a11.17 11.17 0 0 1 1.85.56A15.94 15.94 0 0 1 83.46 48c.06.16-2.88-1.22-4.3-1.5a42.33 42.33 0 0 0-4.52-.76 4.85 4.85 0 0 0-1.09.09l-.21 1.38A57.5 57.5 0 0 1 82 49.84a9.75 9.75 0 0 1 2.19 1.73c.07.12.43 1.28.43 1.28s-1.11-1.76-4.62-2.79c-2.08-.61-4-1.22-4-1.22h-.88l-.42 1.36s2.44.09 9.25 4.83c.46.32 1 .79 1 1s.13 1.32.13 1.32a2 2 0 0 0-.28-.73 25.62 25.62 0 0 0-5.33-3.38c-.66-.26-2.11-.93-2.41-1a6 6 0 0 0-.91-.09 5.45 5.45 0 0 0-.46 1s-.28.2.44.48a37.86 37.86 0 0 1 5.93 4 25.44 25.44 0 0 1 2.81 2.83c.19.29.16.27.16.65s-.03 1.1-.03 1.1a2.06 2.06 0 0 0-.37-1.12A26.68 26.68 0 0 0 81.08 58c-.85-.54-2.91-2.07-3.32-2.22a8.7 8.7 0 0 0-1-.27l-.65 1s-.19.1 0 .21a41.07 41.07 0 0 1 5.24 4.39 25 25 0 0 1 2.45 3c.09.25.6 1.12.54 1.32s-.23 1.17-.23 1.17a2.13 2.13 0 0 0-.47-1.38 34.29 34.29 0 0 0-4.32-4.6 23 23 0 0 0-2-1.54c-.4-.15-.63-.21-.63-.21l-.7 1c0 .06-.06.12.12.23a44.49 44.49 0 0 1 5.05 5.9 17.53 17.53 0 0 1 1.56 2.75.6.6 0 0 0 0 .5 1.6 1.6 0 0 1-.15 1.75c-.12.22-.12.35-.1 0a4.06 4.06 0 0 0-.66-1.81 43 43 0 0 0-2.5-3.75 27.3 27.3 0 0 0-2.83-2.91c-.25-.18-.35-.15-.41-.06a4.6 4.6 0 0 1-.59.68c-.13.09-.35.09-.1.34A33.38 33.38 0 0 1 80 71a19.82 19.82 0 0 1 .85 2.16 2.48 2.48 0 0 0-.16.88.83.83 0 0 1-.19.81c-.25.32-.45.66-.45.66a4 4 0 0 0 0-1 7.17 7.17 0 0 0-.57-1.76 27.52 27.52 0 0 0-3-5.48c-.7-.86-1.28-1.59-1.38-1.66s-.15.26-.43.38-.66.43-.6.52a47 47 0 0 1 2.23 4.21 44.88 44.88 0 0 1 1.7 5.1c.15.73.47 1.41.2 1.62a1.47 1.47 0 0 0-.41.82 1.21 1.21 0 0 1-.38.71c-.26.23-.46.38-.46.38A3.81 3.81 0 0 0 77 77a50.85 50.85 0 0 0-2.53-6.76 6.12 6.12 0 0 0-1.09-1.44l-.91.76a27.62 27.62 0 0 1 1.88 6A53 53 0 0 1 75 80.9l-.62.67v.35l-1.26 1s.44-.35.38-1.76A28.89 28.89 0 0 0 72.26 74a15.45 15.45 0 0 0-1-2.32 3.27 3.27 0 0 0-.73.29.92.92 0 0 0-.29.35 40.85 40.85 0 0 1 1.06 5.55v4.7c0 .65-.06 1.23-.06 1.23l-1 .82s.06.29-.32.48-1 .47-1 .47a8.59 8.59 0 0 0 .74-4.36 40.27 40.27 0 0 0-.66-6.06 7.23 7.23 0 0 0-.41-.94 5.38 5.38 0 0 0-1 .4c-.22.16-.91.59-1 .81a1.66 1.66 0 0 0 0 .5 29.06 29.06 0 0 1 .09 5.08c-.25 2.12-.81 5.6-.91 5.89s-.24.41-.72.59a6.07 6.07 0 0 1-1.29.23 1.75 1.75 0 0 0 1-1.1 22.47 22.47 0 0 0 .93-4.83 39.81 39.81 0 0 0 .16-4.2 4.36 4.36 0 0 0-.28-1.25l-.75.13c-.19 0-.38.07-.37.15a4.84 4.84 0 0 1-.94.43s-.15.29-.19.41-.37 3.38-.47 4.05a44.19 44.19 0 0 1-1.32 5.27l-.91 2a7.8 7.8 0 0 1-.79.18A2.46 2.46 0 0 1 59 89a2.24 2.24 0 0 0 .88-.81 33.87 33.87 0 0 0 1.83-5.57 37.22 37.22 0 0 0 .62-4 2 2 0 0 0 0-.65 6.93 6.93 0 0 0-1 .06 4 4 0 0 0-1.07.31c-.19.15-.54.47-.54.47a27.79 27.79 0 0 1-1.35 4.73c-.35.88-1.56 3.61-1.92 4.27l-.91 1.65s-.81.16-1.22.19a1 1 0 0 1-.57-.07 3.74 3.74 0 0 0 1.32-1.15 37.62 37.62 0 0 0 2.5-5.29 23.79 23.79 0 0 0 1-3.45 5.09 5.09 0 0 0 .07-.59 4.63 4.63 0 0 0-.94-.07 5.86 5.86 0 0 0-1.19.18l-.54.32a22.14 22.14 0 0 1-2.16 4.68c-.38.59-2.42 3.74-2.73 4.16s-.9 1.14-.9 1.14 0 .12-.43 0a7.69 7.69 0 0 0-1.32-.22 2.13 2.13 0 0 0 1.18-.68 20.4 20.4 0 0 0 2.82-3.82 41.19 41.19 0 0 0 2.13-4.07 5.06 5.06 0 0 0 .31-1 1.3 1.3 0 0 0-.63-.28 6.34 6.34 0 0 0-1.2 0 4.79 4.79 0 0 0-.79.18S51.48 81 51 81.75a45 45 0 0 1-3.5 4.47c-1 .91-1.78 2-2 2.17a1.14 1.14 0 0 1-.57.27c-.1 0-1.72-.63-1.72-.63s0 .12.66-.09 1.2-.6 2.57-2a37.67 37.67 0 0 0 3.91-4.86 9.58 9.58 0 0 0 .76-1.35 1.64 1.64 0 0 0-.59-.4c-.28-.07-1-.2-1-.2l-1 .07s-2.05 2.51-2.57 3a52.92 52.92 0 0 1-4.26 3.7c-.72.38-.6.81-.74 1a.56.56 0 0 1-.79.22c-.5-.21-1.57-.84-1.57-.84a3.12 3.12 0 0 0 1.05-.28 14.4 14.4 0 0 0 3.44-2.38 31.89 31.89 0 0 0 3.83-3.83c.44-.66.47-.68.46-.76a1.49 1.49 0 0 0-.53-.42 39.52 39.52 0 0 1-3.13 3c-1.16.84-4 2.69-4.7 3s-1.47.78-1.47.78l-1-.6s2.14-.94 3.14-1.53a25.4 25.4 0 0 0 5.42-4.16l.87-.82-1.06-.12A41.57 41.57 0 0 1 41.54 81c-.36.26-3.76 2.34-4.13 2.51s-.31.25-.47.59-.37.66-.49.66a1.12 1.12 0 0 1-1-.19 12.34 12.34 0 0 1-1.25-1.12 3 3 0 0 0 1.92-.21c.91-.47 4-2.32 4.86-3a28.77 28.77 0 0 0 2.78-2.33c0-.1 0-.21-.16-.38a.84.84 0 0 0-.31-.27s-.29.78-3.3 2.48a21.72 21.72 0 0 1-5.49 2.48 11.38 11.38 0 0 0-1.09.38l-.85-.88a15.06 15.06 0 0 0 3.3-1 23 23 0 0 0 5.6-3.08 7.15 7.15 0 0 1 1.1-.78 2 2 0 0 0-.49-.1 4.66 4.66 0 0 1-.69-.15s-1 .65-1.62 1a23.48 23.48 0 0 1-4.65 2.41c-1 .33-3.67 1.31-3.67 1.31a6.14 6.14 0 0 1-.88-.68c-.59-.73-.37-.54.29-.59a22.86 22.86 0 0 0 4.87-1.25 40.27 40.27 0 0 0 4.42-2.48 1.46 1.46 0 0 0 .32-.29 1.09 1.09 0 0 0-.22-.56c-.18-.16-.1 0-.1 0a21 21 0 0 1-3.44 1.8 42.67 42.67 0 0 1-5.63 1.65l-1.45.16-.73-.84h.71A27.13 27.13 0 0 0 35.13 77a27.47 27.47 0 0 0 3.79-1.69 2.33 2.33 0 0 1 .57-.29s-.62-.18-.79-.25l-.34-.16a25 25 0 0 1-2.89 1.29 33.39 33.39 0 0 1-4.52 1.35c-.84.12-1.1.12-1.25.31s-.19.5-.6.59-.38.22-.6 0-.31-.09-.37-.29-.85-.85-.73-1 .13 0 1-.15a41.41 41.41 0 0 0 4.3-.9c1.06-.32 3.47-1.19 4.07-1.5a6.71 6.71 0 0 0 .84-.49l-.12-.59a11.18 11.18 0 0 1-2.26.91 33.19 33.19 0 0 1-5.73 1.13c-1.47.06-2.67.06-2.67.06l-.51-.87a31.83 31.83 0 0 0 3.67-.12 31.88 31.88 0 0 0 5.18-1.1 8.52 8.52 0 0 0 1.62-.65 4.13 4.13 0 0 1-.62-.32 3.2 3.2 0 0 1-.43-.29 31.22 31.22 0 0 1-3.25.88 21.44 21.44 0 0 1-4.76.68 3.22 3.22 0 0 0-.53.16c-.53.18-.54.59-1.16.44s-.79-.34-.88-.45a3.41 3.41 0 0 1-.45-.87c-.07-.29-.09-.4-.09-.4s-.06.16 1.66.24a24.16 24.16 0 0 0 4.95-.41 30.34 30.34 0 0 0 3.72-1l.12-.54-.85.17a27.05 27.05 0 0 1-5.26.63c-1.94 0-4.45-.37-4.45-.37l-.42-1a19.51 19.51 0 0 0 3.82.49 39.12 39.12 0 0 0 5.23-.35 5.1 5.1 0 0 0 1.43-.27s-.59-.39-.69-.47l-.39-.31a17.59 17.59 0 0 1-4.29.39 29.92 29.92 0 0 0-3.92 0c-.53.08-.88.57-1.23.43a3 3 0 0 1-.84-.78l-.41-1.13a23 23 0 0 0 2.43.53 31.66 31.66 0 0 0 5 .1c1.25-.1 2.74-.31 2.74-.31s.18-.43.2-.53-.14 0-.57 0a28.44 28.44 0 0 1-7-.41 23.24 23.24 0 0 1-2.6-.7l-.23-1.1a17.22 17.22 0 0 0 5 1.29 37.65 37.65 0 0 0 4.42.15 2 2 0 0 0 .59-.07 2.17 2.17 0 0 0-.49-.44 2.91 2.91 0 0 1-.53-.46s-1.72.06-2.75 0a34.54 34.54 0 0 1-4.41-.72c-1.19-.31-2.7-.75-2.7-.75l-.25-1.59s0 .35.74.72A26.06 26.06 0 0 0 27 65.1c1.17.16 4.2.18 4.2.18l.4-.47a27.44 27.44 0 0 1-3.45-.4 36.55 36.55 0 0 1-4.61-1.53c-.93-.44-1.4-.63-1.4-.63l-.12-1.13a21 21 0 0 0 3.14 1.53A30.11 30.11 0 0 0 30 63.78a6.62 6.62 0 0 0 1.38.09l-.47-.54-.38-.42s-2.85-.44-4.21-.84a40.23 40.23 0 0 1-4.2-1.79 5.06 5.06 0 0 0-.85-.29v-1.5a2.5 2.5 0 0 0 .34.56 4.81 4.81 0 0 0 1.81 1 27 27 0 0 0 4.66 1.59c1.4.22 2.25.26 2.25.26l.48-.35s0-.12-.09-.13a26.92 26.92 0 0 1-2.89-.71 20.63 20.63 0 0 1-4.63-2.32c-.7-.45-1.13-.69-1.13-.69l.09-1.19a17.22 17.22 0 0 0 2.76 1.92 22.41 22.41 0 0 0 4 1.72c1 .26 1.66.37 1.66.37l-.76-1a28.83 28.83 0 0 1-3.7-1.4c-1.28-.66-4-2.38-4.21-2.56a1.06 1.06 0 0 0-.46-.22l.25-1.57a1.24 1.24 0 0 0 .35.91 20.9 20.9 0 0 0 3.45 2.19 24.36 24.36 0 0 0 3.67 1.51l.59.12.59-.32-2.09-.91a22.82 22.82 0 0 1-3.38-2.14c-1-.87-2.14-2.06-2.14-2.06L23 52a10.84 10.84 0 0 0 2 2.13 28.23 28.23 0 0 0 4.16 2.6c.68.26 1.28.46 1.28.46l-.7-1.19a33.42 33.42 0 0 1-3.67-2 36 36 0 0 1-3.23-2.82 3.21 3.21 0 0 0-.43-.43l.47-1.42s-.25.7.66 1.44a22.1 22.1 0 0 0 4 3.16c1.06.5 2.32 1.18 2.32 1.18l.65-.16.06-.09s-2.64-1.62-3.07-2a24.66 24.66 0 0 1-2.76-3 11.93 11.93 0 0 0-.71-1l.38-1.1a13.68 13.68 0 0 0 2.25 3.26 29.2 29.2 0 0 0 3.17 2.64 9.15 9.15 0 0 0 .9.44 6.4 6.4 0 0 0-.31-.71 3.73 3.73 0 0 1-.26-.66 24.85 24.85 0 0 1-3-2.35c-.56-.67-1.38-1.45-1.57-1.72a.56.56 0 0 0-.49-.27 1.94 1.94 0 0 1-.66-.7c-.06-.22-.42-1.08-.41-1.19a3.56 3.56 0 0 1 .66-1.5 1.12 1.12 0 0 0 0 .78 16.74 16.74 0 0 0 2.54 3.26c.94.79 3.22 2.6 3.22 2.6h.91s-.67-.68-1.53-1.45a24.38 24.38 0 0 1-2.92-3.64C26.6 46 26 44.79 26 44.79l.59-1a11.82 11.82 0 0 0 2.25 4.17 27.17 27.17 0 0 0 2.85 2.82l-.56-1.47a22.66 22.66 0 0 1-3-3.45 7.09 7.09 0 0 0-1-1.41 1.8 1.8 0 0 1-.59-1c-.09-.35-.32-1-.32-1l.94-1.37a1.51 1.51 0 0 0 0 1.51 26.15 26.15 0 0 0 3 4.48c1 1 1.34 1.38 1.34 1.38l1 .12s-.81-1.25-1.41-2A13.54 13.54 0 0 1 29.16 43c-.31-1.06-.53-2-.53-2l.72-.87a12.47 12.47 0 0 0 1 3.6 15.84 15.84 0 0 0 2 3.23l.65.68-.32-1.45s-1.47-2.1-1.87-2.85a24 24 0 0 1-1.57-4.14l-.08-.43 1-1.12s-.38.78-.28 1.12a21 21 0 0 0 1.38 3.74 21.43 21.43 0 0 0 1.89 2.89l1.06.22a23.74 23.74 0 0 1-1.7-3.29 12.17 12.17 0 0 1-.69-3c-.1-.82-.16-1.54-.16-1.54l.85-.72a15.76 15.76 0 0 0 .49 3.86 23.84 23.84 0 0 0 1.69 3.92l-.07-1.36a18.27 18.27 0 0 1-1.42-3.19 19.49 19.49 0 0 1-.74-3.66v-1.09l1.15-.87a2.74 2.74 0 0 0-.44.76 11.53 11.53 0 0 0 .56 3.6c.54 1.65 1.5 3.7 1.5 3.7l1 .28s-.5-1.41-.68-2a20.25 20.25 0 0 1-.55-3.57c0-1.1.09-2.57.09-2.57l.94-.48s-.19 2.22-.19 2.78a15.94 15.94 0 0 0 .38 3.42 9.65 9.65 0 0 0 .66 1.88v-1.45s-.4-1.63-.66-2.83a20.83 20.83 0 0 1-.18-3.88 9.4 9.4 0 0 1 .13-1.37l1.2-.74s-.85.59-.72 2.67a25.11 25.11 0 0 0 .57 4.12 8.29 8.29 0 0 0 .5 1.31l.94.47a20 20 0 0 1-.31-3.58 25 25 0 0 1 .65-4.41l.82-.35a22 22 0 0 0-.66 3.85 28 28 0 0 0 0 3.1c.1.41.25.88.25.88l.19-1.38s-.32-2.6-.31-3.41a31.89 31.89 0 0 1 .69-3.8c.15-.66.2-.85.2-.85l.81-.32a16.31 16.31 0 0 0-.67 2.49 24.27 24.27 0 0 0-.23 2.73 20.35 20.35 0 0 0 .35 2.56l1 .73s.12-2.13.28-3.26a13.62 13.62 0 0 1 1-3.28c.34-.72.56-1.36.56-1.36l.59-.07s-.85 2.63-1 3.19-.46 1.87-.54 2.54a10.78 10.78 0 0 0 0 1.81l.28-1.5a17.25 17.25 0 0 1 .15-2c.12-.6.9-3.57 1.15-4.19s.66-1.51.66-1.51l1-.24a5.2 5.2 0 0 0-1.17 2.36c-.44 1.67-.81 3.27-.84 3.67s0 1.56 0 1.56l.87.81s.57-2.33.92-3.3S47.5 30 47.5 30l.48-.09s-1.54 3.32-1.79 3.88a12.07 12.07 0 0 0-.68 2.09c-.15.68-.26 1.28-.26 1.28s.13.12.22-.28.25-.94.25-.94A15.73 15.73 0 0 1 48 29.9a10 10 0 0 1 1-1.41l.85-.12a17.72 17.72 0 0 0-2.25 3.76 19.84 19.84 0 0 0-.88 2.61 4 4 0 0 0-.09.84l.85.94s.93-2 1.2-2.63a17.43 17.43 0 0 1 1.85-2.79c.69-.82 1.38-1.54 1.38-1.54h.32s-2 2.66-2.23 3.23S49 35 49 35a6 6 0 0 0-.4.75c-.09.25-.26 1.2.12.22a6.68 6.68 0 0 0 .37-1 13.94 13.94 0 0 1 3.3-5.57 10.39 10.39 0 0 0 1.12-1.21h.84a19 19 0 0 0-2.42 2.69 27.34 27.34 0 0 0-1.45 2.63 13.63 13.63 0 0 0-.48 1.34l.81 1.1h1.09l.57-1.26a16.68 16.68 0 0 1 1.72-2.55c.79-.87 2.39-2.44 2.39-2.44s1.28-1.15 1.53-1.13"/><path class="cls-4" d="M30.89 47.72l.68.59-.39.98-.58-.72.29-.85zm1.21-2.29l.57-.7.53.59-.59.9-.51-.79zm2.14-2.91l.55-.59.45.63s-.65.92-.67.84-.33-.88-.33-.88m3.09-3.1l.31.75-.74.76-.25-.9.68-.61zm2.96-1.88l.15.67-.82.56-.08-.8.75-.43zm2.33-1.39l.8-.33.04.8-.94.49.1-.96zm10.3-2.27l.82.08-.26.63-1.05.05.49-.76zm3.54.14l.77.14-.3.7-1.08-.18.61-.66zm2.82 1.31l.67-.55.74.22-.43.56-.92-.23h-.06zm3.98.59l.76.35-.47.57-1-.43.71-.49zm3.13 1.52l.74.51-.72.53-1-.59.98-.45zm2.04 2.37l.84-.25.56.57-.7.43-.7-.75zm2.46 2.37l.86-.16.57.61-.78.37-.65-.82zM74 44.79l.41.78-.94.16-.47-.88c.25 0 1-.06 1-.06m1.71 3.13l.31.78h-1l-.29-.88a4 4 0 0 1 1 .08m.19 3.1l1 .3.14.8s-.88-.06-.88-.14-.22-1-.22-1m.63 3.4l.9.33.1.89-.92-.24-.08-.98zm.22 3.41l.82.53-.08.82-.86-.35.12-1zm-.4 3.44l.7.61-.27.92s-.51-.39-.65-.53.22-1 .22-1m-.99 3.37l.7.81-.35.78-.75-.71.4-.88zm-1.41 3.23l.52.86-.5.69-.63-.67.61-.88zm-1.98 2.98l.33.9-.59.69-.49-.91.75-.68zm-3.33 3.29l.78-.69.18.94-.69.61-.27-.86zm-3.02 2.03l.89-.54.13 1.15-.86.45-.16-1.06zm-3.3 1.77l1-.44-.29 1.14-.76.27.05-.97zm-3.55 1.03l.88-.21-.15 1-.93.15.2-.94zm-3.83.73l.94-.18-.41 1h-.85s.27-.62.32-.82m-3.84-.15h1.12l-.56.94-1-.09a6.71 6.71 0 0 0 .41-.88m-3.67-.61l1 .27-.62.82-.91-.24s.15-.2.56-.85m-3.64-1.21l.88.53s-.59.53-.76.65-.76-.41-.76-.41a5.88 5.88 0 0 1 .64-.76m-3.26-1.59l.88.47-.88.61-.85-.56.85-.52zm-3.02-2.23l.82.64-.82.53-.94-.62.94-.55zm-2.65-2.44l.77.67-1 .3-.65-.8.88-.17zm-2.96-2.85l.85-.21.59.85-1 .09-.44-.73zm-.71-3.38l.38.88-1.02-.06-.27-.82h.91zm-1.88-3.41l.94.06.18.94-.94-.18zm-.47-3.58l.82.21.09.93-.91-.32v-.82zm.03-3.52l.97.35-.12.88-.88-.41.03-.82zm.85-3.53l.65.47-.21.88-.76-.59.32-.76zM46 34.56l.76-.06-.09.88-.91.29c0-.23.24-1.12.24-1.12m3.46-.7l.73.09-.18.73-1 .18c.21-.44.41-1 .41-1"/><path class="cls-1" d="M54.25 41c1.06 0 11.37-.14 16.57 11.92.32.74 3.41 10.34-3.23 17.56a19.9 19.9 0 0 1-22.2 4.93c-1.6-.6-12-4.64-11.34-17.92.13-2.71 3.7-17.09 20.21-16.51"/><path class="cls-2" d="M22.74 80.49L20.43 82l-.11-.18a3.4 3.4 0 0 0 .85-1 1.94 1.94 0 0 0 .21-1 2.13 2.13 0 0 0-.33-1 1.4 1.4 0 0 0-.85-.64 1.12 1.12 0 0 0-.92.12 1 1 0 0 0-.42.57 6.45 6.45 0 0 0-.06 2.08 11.94 11.94 0 0 1 0 1.76 2.24 2.24 0 0 1-.3.93 2 2 0 0 1-.64.67 2 2 0 0 1-1.68.24 2.53 2.53 0 0 1-1.51-1.16 4 4 0 0 1-.3-.57 7 7 0 0 1-.22-.74 3.35 3.35 0 0 0-.23-.71.31.31 0 0 0-.2-.15.71.71 0 0 0-.37.09l-.07-.31 2.29-1.45.12.18a3.82 3.82 0 0 0-.85 1 2 2 0 0 0-.17 1 2.45 2.45 0 0 0 .33 1.19 1.64 1.64 0 0 0 .94.76 1.19 1.19 0 0 0 1-.13 1.23 1.23 0 0 0 .41-.45 1.77 1.77 0 0 0 .2-.72 13.91 13.91 0 0 0 0-1.45 12.1 12.1 0 0 1 0-1.7 2.43 2.43 0 0 1 .28-.95 1.85 1.85 0 0 1 .64-.67 1.94 1.94 0 0 1 1.53-.23 2.33 2.33 0 0 1 1.41 1.07 3.33 3.33 0 0 1 .46 1.29 1.41 1.41 0 0 0 .12.47.35.35 0 0 0 .21.16.72.72 0 0 0 .39-.07zM27 85.86l-1.34 1.28-.13-.14a2.28 2.28 0 0 0 .41-.59 1.17 1.17 0 0 0 .06-.71 1.69 1.69 0 0 0-.4-.7l-.73-.84-4.55 4c-.37.32-.56.56-.58.71a.88.88 0 0 0 .26.67l.18.21-.16.14-2.2-2.53.16-.14.18.21a.8.8 0 0 0 .69.34 1.75 1.75 0 0 0 .73-.46l4.55-4-.62-.72a2.74 2.74 0 0 0-.58-.54 1.08 1.08 0 0 0-.66-.11 1.73 1.73 0 0 0-.81.37l-.15-.17L22.79 81zm-.51 6.31l-2.36-1.95-1.21.62a2 2 0 0 0-.59.4.4.4 0 0 0-.07.35 1.5 1.5 0 0 0 .46.61l-.14.17-1.92-1.59.14-.17a1.32 1.32 0 0 0 .64.23 3.51 3.51 0 0 0 1.23-.46L29 87.16l.16.13-2.07 6.82a3 3 0 0 0-.19 1.18 1.23 1.23 0 0 0 .41.68l-.14.17-2.4-2 .14-.17a1.17 1.17 0 0 0 .59.29.41.41 0 0 0 .34-.15 2.43 2.43 0 0 0 .34-.77zm.15-.44l1-3.32L24.55 90zm4.11-2.59l1.9 1 1.57 7.48 2.09-4a1.56 1.56 0 0 0 .27-.88.86.86 0 0 0-.49-.53l-.24-.21.1-.19 2.44 1.26-.1.19-.29-.1a.8.8 0 0 0-.77-.06 1.77 1.77 0 0 0-.5.7l-3.06 5.91-.19-.1-1.71-8-2.18 4.29a1.62 1.62 0 0 0-.28.88.88.88 0 0 0 .49.53l.25.13-.1.19-2.44-1.26.1-.19.24.13a.81.81 0 0 0 .78.06 1.76 1.76 0 0 0 .5-.7l2.52-4.88a3.47 3.47 0 0 0-.22-.71 1.92 1.92 0 0 0-.35-.45 1.87 1.87 0 0 0-.43-.28z"/><path class="cls-2" d="M35.16 100.25l.06-.21.29.08a.79.79 0 0 0 .77-.12 1.83 1.83 0 0 0 .35-.8L38 94.28a1.63 1.63 0 0 0 .09-.94.85.85 0 0 0-.58-.43l-.29-.08.06-.21 3.1.86a7 7 0 0 1 2.49 1.11 3.21 3.21 0 0 1 1.07 1.69 4.15 4.15 0 0 1 0 2.24 4 4 0 0 1-1.7 2.39 4.41 4.41 0 0 1-3.63.27zm2.33.05a5.92 5.92 0 0 0 1.15.49 3 3 0 0 0 2.41-.32 4.18 4.18 0 0 0 1.38-5 3 3 0 0 0-2-1.52 4.86 4.86 0 0 0-1.2-.16zm11.51.04l-3-.28-.65 1.19a2 2 0 0 0-.26.67.4.4 0 0 0 .14.33 1.5 1.5 0 0 0 .72.25v.21l-2.48-.23v-.21a1.33 1.33 0 0 0 .66-.17 3.53 3.53 0 0 0 .76-1.07l3.36-6.22h.2l2.14 6.79a3 3 0 0 0 .41 1.1 1.24 1.24 0 0 0 .73.33v.21l-3.1-.28v-.22a1.15 1.15 0 0 0 .65-.1.41.41 0 0 0 .2-.31 2.41 2.41 0 0 0-.16-.83zm-.12-.44l-1-3.3-1.66 3.05zm11.06 2.94l-2.11.1L55 99.37h-.82l.11 2.29a1.62 1.62 0 0 0 .21.92.83.83 0 0 0 .68.22h.31v.2l-3.38.16V103h.3a.79.79 0 0 0 .7-.36 1.84 1.84 0 0 0 .08-.86l-.24-5.1a1.6 1.6 0 0 0-.21-.92.85.85 0 0 0-.69-.22h-.3v-.21l2.88-.14a6.91 6.91 0 0 1 1.86.1 2.13 2.13 0 0 1 1 .63 1.77 1.77 0 0 1 .51 1.13 1.84 1.84 0 0 1-.42 1.28 2.68 2.68 0 0 1-1.43.83l1.74 2.19a4 4 0 0 0 1 1 2.44 2.44 0 0 0 1.06.28zM54.14 99h.33a2.57 2.57 0 0 0 1.68-.57 1.56 1.56 0 0 0 .51-1.27 1.63 1.63 0 0 0-.52-1.16 1.66 1.66 0 0 0-1.25-.41 5.17 5.17 0 0 0-.91.15zm5.91 3.84v-.21l.29-.06a.78.78 0 0 0 .63-.46 1.84 1.84 0 0 0 0-.87l-1-5a1.63 1.63 0 0 0-.34-.88.86.86 0 0 0-.71-.12l-.29.06v-.21l3.15-.64a7 7 0 0 1 2.72-.14 3.2 3.2 0 0 1 1.72 1 4.14 4.14 0 0 1 1 2 4 4 0 0 1-.43 2.9 4.41 4.41 0 0 1-3.11 1.89zm2.09-1a6 6 0 0 0 1.25-.09 3 3 0 0 0 2-1.38 4.17 4.17 0 0 0-1-5.05 3 3 0 0 0-2.43-.47 5 5 0 0 0-1.14.4zm12.02-12.11l1.29 2.15-.19.09a3.39 3.39 0 0 0-1.33-.91 2.5 2.5 0 0 0-1.93.19 2.58 2.58 0 0 0-1.53 2.09 4.29 4.29 0 0 0 .47 2.44 4.78 4.78 0 0 0 1.3 1.66 3.06 3.06 0 0 0 1.63.72 2.75 2.75 0 0 0 1.5-.25 3.29 3.29 0 0 0 .71-.47 3.38 3.38 0 0 0 .56-.64l-1-2a2.1 2.1 0 0 0-.42-.66.61.61 0 0 0-.37-.13 1.63 1.63 0 0 0-.64.21l-.1-.2 2.74-1.35.1.2-.13.07a.65.65 0 0 0-.42.55 2 2 0 0 0 .27.81l1.07 2.17a5.43 5.43 0 0 1-2.18 1.85 4.21 4.21 0 0 1-3.77.22 3.92 3.92 0 0 1-1.92-1.88 4.45 4.45 0 0 1 .26-4.3A4 4 0 0 1 71.74 91a4.22 4.22 0 0 1 .73-.28 7.17 7.17 0 0 1 1-.16 1.64 1.64 0 0 0 .45-.08.23.23 0 0 0 .12-.17.81.81 0 0 0-.09-.4z"/><path class="cls-2" d="M76.36 88.88l1.88 2.49 1.38-1a1.4 1.4 0 0 0 .6-.71 1.31 1.31 0 0 0-.3-1l.17-.13 1.66 2.19-.17.13a3.06 3.06 0 0 0-.58-.49.73.73 0 0 0-.47 0 1.77 1.77 0 0 0-.65.35l-1.38 1 1.57 2.08a2.41 2.41 0 0 0 .42.48.36.36 0 0 0 .24 0 1 1 0 0 0 .39-.21l1.07-.81a3.65 3.65 0 0 0 .72-.66 1.47 1.47 0 0 0 .24-.64 4.58 4.58 0 0 0-.07-1.31l.19-.14.65 2-4.85 3.67-.12-.17.22-.17a1.12 1.12 0 0 0 .34-.43.48.48 0 0 0 0-.37 2.64 2.64 0 0 0-.41-.65L76 90.31q-.45-.6-.68-.65a.91.91 0 0 0-.7.24l-.22.17-.13-.17 4.85-3.67 1.11 1.32-.18.14a2.7 2.7 0 0 0-.73-.52.93.93 0 0 0-.57 0 2.65 2.65 0 0 0-.71.42zm10.11-2.73l-2.06 2.26.59 1.24a2 2 0 0 0 .37.61.4.4 0 0 0 .35.09 1.5 1.5 0 0 0 .63-.43l.16.15-1.71 1.83-.16-.14a1.34 1.34 0 0 0 .26-.63 3.56 3.56 0 0 0-.39-1.25l-2.93-6.44.14-.15 6.71 2.4a3 3 0 0 0 1.17.25 1.22 1.22 0 0 0 .71-.38l.16.15L88.36 88l-.16-.15a1.18 1.18 0 0 0 .31-.58.41.41 0 0 0-.13-.34 2.5 2.5 0 0 0-.76-.37zM86 86l-3.26-1.16L84.21 88zm8.86-7.24l-1.13 1.78-4.55.27-.25.41-.09.14-.1.15 1.94 1.23a1.6 1.6 0 0 0 .87.36.83.83 0 0 0 .57-.42l.17-.26.18.12-1.82 2.85-.18-.12.16-.25a.8.8 0 0 0 .11-.78 1.86 1.86 0 0 0-.66-.56l-4.31-2.74a1.61 1.61 0 0 0-.87-.36.86.86 0 0 0-.58.43l-.16.25-.16-.12 1.55-2.43a6.93 6.93 0 0 1 1.15-1.47 2.14 2.14 0 0 1 1.11-.49A1.76 1.76 0 0 1 89 77a1.85 1.85 0 0 1 .81 1.08 2.68 2.68 0 0 1-.15 1.65l2.79-.16a4.06 4.06 0 0 0 1.39-.25 2.4 2.4 0 0 0 .84-.71zm-6.44 2.55l.1-.16.08-.15a2.58 2.58 0 0 0 .5-1.7 1.57 1.57 0 0 0-.74-1.15 1.63 1.63 0 0 0-1.26-.26 1.65 1.65 0 0 0-1 .79 5 5 0 0 0-.4.83zM46 52.07a2.89 2.89 0 0 0-.33.36v1.45c0 .2-.2.18-.18.54s.11 2.29 0 2.51a1.11 1.11 0 0 1-.37.56 2.52 2.52 0 0 1-1.33.24c-1.16 0-5.14.07-5.14.07s-.42.37-.46.44a.76.76 0 0 0-.05.36c0 .13.06 5 .23 7.08 0 .2 0 .15.1.25s.33.51.54.51c1 0 5.28-.13 5.44-.14a1.57 1.57 0 0 1 1 .3c.17.16.35.26.37 1.16s0 1.79 0 2.06.18.32.17.3 0 1.25 0 1.33 0 .1.12.17.17.11.2.17 0 .06.14.11a7.4 7.4 0 0 0 1.83.51h.52a12.7 12.7 0 0 0 2.22 1.06 8.65 8.65 0 0 0 2.68.57 8.27 8.27 0 0 0 1.87 1 9.1 9.1 0 0 0 2.56.66c1.08.06 1-.06 1.22-.11a.33.33 0 0 0 .36-.27c.1-.31.52-2.33.67-3.45a2 2 0 0 1 .13-.62 3.14 3.14 0 0 0 .24-.72c.05-.26.36-1.81.39-2.23s.14-.6.51-.57 6.13-.1 6.13-.1a.53.53 0 0 1 .15 0h1.33a4.39 4.39 0 0 1 1.44-.41c.85 0 2.82-.15 2.82-.15l5.62-.07a.44.44 0 0 0 .28-.14 2.32 2.32 0 0 0 .18-.28 7.73 7.73 0 0 0 .8.05c.32 0 8.64-.18 9-.22s.89-.36 1.37-1.6c.16-.39.25-.43.25-.43s6.26-.09 6.58-.11 1.45-.52 1.62-2.91c.11-1.6-.35-2.72-1.68-3.07-.23-.06-5 0-5.14 0l-1.4.09a.64.64 0 0 1 0-.17.8.8 0 0 0-.1-.24c-.05-.11-.22-.25-.2-.35a.4.4 0 0 0-.06-.29c-.13-.13-.14-.06-.19-.23s-.53-.5-.65-.58a3.77 3.77 0 0 0-1.34-.12h-8a9.59 9.59 0 0 0-1 .06.72.72 0 0 0-.63-.37c-.46 0-4.72.09-5.13.07s-1.64 0-1.79-.07a1 1 0 0 0-.4 0 14.56 14.56 0 0 1-1.55 0c-.42-.07-.39-.3-.88-.31s-6.47 0-6.86 0h-1.16s-.06-.78-.14-1.06-.42-1.49-.42-1.49-.64-3.19-1.18-5c0-.14-.12-.75-.52-.7s-.53.09-.62.2-.71.7-.71.7a1.85 1.85 0 0 0-1.21-.19 12.75 12.75 0 0 0-2.44.86 7 7 0 0 0-1.31 1 5.43 5.43 0 0 0-2 .23 7.59 7.59 0 0 0-2.38 1.14l-.53.38a1.47 1.47 0 0 0-.71 0 2.33 2.33 0 0 0-.88.25"/><path class="cls-5" d="M50.58 50.27a10 10 0 0 0-2.4 1.48 16.19 16.19 0 0 0-1.92 2.08v3.94l2.14-2.89a46 46 0 0 1 4.44-5.14A5.35 5.35 0 0 1 55 48.6a15.32 15.32 0 0 0-2.41 1.81c-.49.5-2.28 2.84-2.6 3.33s-1.64 2.45-1.64 2.45l-1.79 2.7c-.13.2-.34.38-.33.56s.05 1.31.07 2.44v2.45c0 .11 2.4-2.93 2.7-3.34s3.54-5.51 4.37-6.89a55.93 55.93 0 0 1 4-5.59c.58-.55.84-.89 1.07-.94s.6-.07.6-.07l.25.37a3 3 0 0 0-.91.09 4 4 0 0 0-.81.89S55 52.46 52 57.59c-.32.56-3.88 6.52-4.86 7.47a3.92 3.92 0 0 0-.85 1.63 5 5 0 0 0-.09 1.58c.06.87.09 1.6.44 1.4a11.28 11.28 0 0 0 3.69-3.24c.54-.69 1.65-1.69 5.35-7.87.63-1.06 3.36-6.23 3.61-6.58s.58-.86.71-1 .2 1 .23 1a5.33 5.33 0 0 1-.64.73s-1.71 3.33-2.07 4a64.63 64.63 0 0 1-5.37 8.77A35.24 35.24 0 0 1 49 69a8.37 8.37 0 0 1-1.6 1.19c-.49.2-.84.32-1 .26a.5.5 0 0 1-.24-.21 3.29 3.29 0 0 0 .13 1c.1.25.19.43.7.6a5.62 5.62 0 0 0 2.92 0 12.75 12.75 0 0 0 4.3-2.84 30.64 30.64 0 0 0 4.38-5.78l1.32-2.29s.84-1.65.87-1.43 0 1.8 0 1.8-.66.76-.72.85-1.3 2.29-1.61 2.72a21.66 21.66 0 0 1-2.77 3.78 11.87 11.87 0 0 1-4.21 3.25 7.14 7.14 0 0 1-2.33.52 5.35 5.35 0 0 1-2-.28 2.88 2.88 0 0 1-.55-.22.74.74 0 0 1-.32-.25c-.08-.12-.12-.08-.13-.22v-1.3c0-.04-.2-.08-.18-.58s0-1.69 0-2.08c0-.16 0-.62-.29-.85s.18.27.33-.81a20.67 20.67 0 0 0 .18-4.11C46 60.12 46 60 46 59.07a14.34 14.34 0 0 0-.14-1.49c-.19-1.46-.32-.4-.28-.66a24.48 24.48 0 0 0-.07-2.54c0-.23.21-.48.21-.43v1.07c0 .27 0 .62.09-.37s0-.88.12-1.16a7.68 7.68 0 0 1 1.79-1.79 10.42 10.42 0 0 1 1.16-.7 9.63 9.63 0 0 1 1.7-.69m.87 23.24a6.42 6.42 0 0 0 4.37-.38A12.22 12.22 0 0 0 58.95 71 7.16 7.16 0 0 0 60 69.89c.19-.27.81-1 .81-1l-.22 1.64a13.4 13.4 0 0 0-1.2 1c-.6.55-1.12 1.57-4.35 2.45a6.21 6.21 0 0 1-3.61-.39"/><path class="cls-6" d="M38.7 57.81s-.06 1.85 0 3.76a33 33 0 0 0 .31 4.8c.07.13-.54-.3-.58-.75-.08-1-.13-2.25-.19-4.08v-3.09c0-.32.29-.49.5-.64"/><path class="cls-5" d="M80.58 59.15c0 .06.29.14.5.14h9.61c.33 0 .41-.08.44.2 0 .12.19.34.07.38s-.17-.23-.34-.23h-9.67c-.1 0-.19.06-.55.41v-.51c0-.18-.06-.49 0-.4m.02 1.02a.89.89 0 0 0 .49.13h9.61c.33 0 .41-.11.44.2 0 .12.14.34.07.38s-.17-.23-.34-.23h-9.67c-.1 0-.36.27-.48.34s-.1.17-.09-.26v-.35a1 1 0 0 1 0-.22m.01 1.02c0-.07.17.25.37.22s9.63-.17 9.74-.16c.43 0 .5-.27.47.22a1.56 1.56 0 0 1 0 .36 2.56 2.56 0 0 0-.49-.16c-1.61 0-9.25.07-9.63.08a.56.56 0 0 0-.28.11c-.13.07-.22.17-.21.09s0-.46 0-.46v-.3"/><path class="cls-6" d="M80.65 62.26c0-.13.12.22.43.23s9.56-.15 9.67-.15c.36 0 .54-.33.49.1v.37a1.73 1.73 0 0 0-.55-.1c-1.61 0-9.27.14-9.66.15-.1 0-.14.05-.27.13s-.18.1-.15-.09 0-.3 0-.3v-.34"/><path class="cls-7" d="M80.58 63.3c0-.12.12.26.54.25l9.37-.21c.73-.07.81-.41.68.14 0 .1 0 .41-.13.34s-.1-.11-.49-.14c-1-.07-7.71.1-9.46.12a1 1 0 0 0-.47.22c-.18.1-.14 0-.11-.12a2.74 2.74 0 0 0 0-.36v-.23m-.04.93c0-.1.08.3.4.28l9.65-.2c.53 0 .6-.34.48 0 0 .1-.07.32-.16.31s-.06-.11-.37-.12c-1.61-.05-9.08.16-9.47.16a1 1 0 0 0-.48.16c-.18.1-.2 0-.17-.07s.06-.27.06-.27l.05-.3m-.13.93c0-.14.08.24.4.22s8.86-.2 9.25-.18c.62 0 .89-.35.63.12-.1.17-.08.1-.38.11h-.78c-1.82 0-8.32.14-8.55.14a2 2 0 0 0-.55.06c-.19.06-.2.12-.11-.14 0-.11.08-.29.09-.32m-.22.79c.05-.14 0 .1.17.12.62 0 9.19-.22 9.31-.22.61 0 .94-.24.71 0-.07.08-.15.15-.21.15h-1c-1.94 0-8 .23-8.57.23h-.49c-.08 0-.08 0 0-.13s.08-.17.09-.2m-.25.56c0-.06 0 0 .1 0 1.41 0 8.73-.16 8.81-.16a3.67 3.67 0 0 0 1.13-.13c.2 0 0 .09-.15.15s-.06.06-.44.1c-.08 0-8.16.33-9.62.17 0 0 .1-.06.17-.16"/><path class="cls-5" d="M80.52 58.36a1 1 0 0 0 .42 0h9.3c.33 0 .69.06.72.22s.14.32.1.36-.24-.23-.41-.23h-9.6c-.1 0-.33.2-.46.28s0-.16-.09-.36a2.49 2.49 0 0 0-.07-.25s0-.09.09-.07"/><path class="cls-7" d="M80.23 57.57h10.02c.33 0 .52 0 .58.19s.21.26.09.31a.69.69 0 0 0-.42-.16h-9.67c-.22 0-.28.1-.4.26s0-.15-.1-.34-.13-.29-.1-.31m-.09-.6a4.7 4.7 0 0 0 .56 0h9.31c.34 0 .53 0 .59.19s.16.24.09.25a.67.67 0 0 0-.43-.18H80.6a.42.42 0 0 0-.42.27s0-.1-.11-.26A1.83 1.83 0 0 0 80 57c0-.06.14-.08.17-.07"/><path class="cls-7" d="M79.87 56.59a5.26 5.26 0 0 1 .56 0c.41 0 8.62.06 9.06.08s.64 0 .74.11.17.14.1.15a.68.68 0 0 0-.4-.15c-2.25-.06-9.33-.1-9.71-.1a.28.28 0 0 0-.3.21l-.1-.12-.07-.09s.07-.07.12-.07"/><path class="cls-7" d="M79.66 56.36h.43c.42 0 8.27 0 8.72.06s1 0 1.07.15.18.13.12.14a.79.79 0 0 0-.44-.18c-2.25-.06-9.18-.07-9.56-.06s-.29 0-.33.1 0 .1-.1 0l-.08-.08a.38.38 0 0 1 .18-.07"/><path class="cls-8" d="M93 21.1L90.22.85h-21l-.61 4.87c-.54-.16-1.09-.32-1.64-.47C65 2.26 61.14 0 54 0c-4.55 0-7.72 1.07-9.93 2.65V.85h-31.6v22A53.25 53.25 0 1 0 93 21.1zm-26.12-1.58l-.39 3.11a18.2 18.2 0 0 0-3.17-3.11zM53.5 106.41a49.62 49.62 0 0 1-41-77.58v4.68c0 9.9 5.61 15.35 15.8 15.35 6 0 10.34-1.88 13-5.4 1.92 3.08 5.64 5.4 12.77 5.4a20.14 20.14 0 0 0 9.43-1.93L63.29 48H96.7L94 28a49.61 49.61 0 0 1-40.5 78.41z"/><path class="cls-9" d="M15.91 4.29h10.38V35c0 2.37.56 3.27 2 3.27s2-.9 2-3.27V4.29h10.33v29.22c0 6.77-2.77 11.9-12.36 11.9S15.9 40.28 15.9 33.51zm26.8 25.61h9.7v6.49c0 1.3.28 2.6 1.75 2.6 1.86 0 1.92-2.09 1.92-3.67v-1.7c0-7.39-13.43-6.43-13.43-17.94v-2.25c0-7.34 4.46-10 11.34-10 9.7 0 11.45 4.51 11.45 8.86v3.78h-9.3v-3.32c0-2.54-1.13-2.88-2-2.88s-1.75.62-1.75 2.65v1.75c0 5.87 13.77 5.81 13.77 17.66v3.16c0 8.18-4.91 10.33-12.13 10.33-9.87 0-11.28-4.74-11.28-10.49zM72.27 4.29h14.95l5.53 40.28H82.37l-.51-7.11h-3.78l-.51 7.11H67.19zm9.42 26.06l-1.81-19h-.11l-1.69 19z"/><path class="cls-2" d="M96.33 75.89a1.64 1.64 0 1 1-1.62-1.6 1.61 1.61 0 0 1 1.62 1.6m-2.87 0a1.24 1.24 0 0 0 1.25 1.27 1.22 1.22 0 0 0 1.22-1.26 1.23 1.23 0 1 0-2.46 0m1 .83h-.37v-1.6a4.37 4.37 0 0 1 .61 0 .85.85 0 0 1 .54.13.41.41 0 0 1 .17.34.41.41 0 0 1-.33.38c.15 0 .23.17.28.39a1.43 1.43 0 0 0 .12.39h-.39a1.3 1.3 0 0 1-.13-.39c0-.17-.13-.24-.33-.24h-.17zm0-.9h.17c.21 0 .37-.07.37-.23s-.11-.24-.34-.24h-.2z"/></svg>