<svg id="Layer_1" data-name="Layer 1" xmlns="http://www.w3.org/2000/svg" viewBox="0 0 230 238"><defs><style>.cls-1{fill:#fff}</style></defs><title>usa_standard_logo_white</title><g id="Symbols"><g id="USA-Logo"><g id="Logo"><path id="Fill-1" class="cls-1" d="M84.06 163.72a5 5 0 0 1 1.23-.63s-1.33-.38-1.71-.54-.73-.35-.73-.35a53.91 53.91 0 0 1-6.24 2.8 72 72 0 0 1-9.75 2.92c-1.8.25-2.37.25-2.69.67s-.41 1.08-1.3 1.27a3.77 3.77 0 0 0-.51.15 2.61 2.61 0 0 0 .32.32c.26 0 .81 0 1.36-.09a57.53 57.53 0 0 0 20-6.51"/><path id="Fill-3" class="cls-1" d="M126 172.81a11.08 11.08 0 0 0 .16-1.27 9.77 9.77 0 0 0-2-.16 12.35 12.35 0 0 0-2.57.38l-1.17.7a48.08 48.08 0 0 1-4.65 10.13c-.82 1.27-5.22 8.1-5.89 9-.47.63-1.23 1.6-1.64 2.12h.89c.13 0 2.37-.1 2.75-.16s2.83.56 3.77.6a7.92 7.92 0 0 0 2.78-2.44 81.46 81.46 0 0 0 5.38-11.44 51.7 51.7 0 0 0 2.22-7.47"/><path id="Fill-5" class="cls-1" d="M63.79 161.19A67.54 67.54 0 0 0 75 158.81a18.35 18.35 0 0 0 3.48-1.4 9 9 0 0 1-1.33-.7 6.07 6.07 0 0 1-.92-.64 67.85 67.85 0 0 1-7 1.91c-2.88.54-5.13 1.37-10.26 1.46a6.37 6.37 0 0 0-1.14.35c-1.14.38-1.17 1.27-2.5 1h-.07a6.59 6.59 0 0 1 .51.43c.1.11.15.19.24.29a66.6 66.6 0 0 0 7.8-.26"/><path id="Fill-7" class="cls-1" d="M160.42 152.06a13.17 13.17 0 0 0-2.34-3.11l-2 1.65a59.94 59.94 0 0 1 4.05 12.9c1.07 5.87 1.46 10.11 1.55 11.28a24.49 24.49 0 0 1 2.34-1.43 5 5 0 0 0 1.74-1.59l.06-.08a8.3 8.3 0 0 0 0-5c-.89-2.67-3.8-12-5.45-14.61"/><path id="Fill-9" class="cls-1" d="M78.49 161.48l-.18-.12 2-1.18-.21-1a24 24 0 0 1-4.87 2c-2.88.83-9.18 2.32-12.35 2.45-2.72.11-5 .12-5.6.13a2.22 2.22 0 0 1 .18 1 2.78 2.78 0 0 0 .45 1.55 4.25 4.25 0 0 0 .57.69c.21-.15.38 0 2-.27a88 88 0 0 0 9.28-1.94c2.25-.69 7.36-2.53 8.72-3.22"/><path id="Fill-11" class="cls-1" d="M116.9 175.24a10.77 10.77 0 0 0 .67-2.22 2.74 2.74 0 0 0-1.36-.6 13.65 13.65 0 0 0-2.6.1 10.28 10.28 0 0 0-1.71.38s-1.74 3-2.85 4.54-5.48 7.69-7.53 9.66-3.83 4.38-4.21 4.7l-.31.2a.83.83 0 0 1 .57 0c.89.19 1.9.54 2.75.67a21.5 21.5 0 0 1 2.82.79 7.22 7.22 0 0 0 1 .21 4.94 4.94 0 0 0 2.11-1.36 44.14 44.14 0 0 0 6.08-8.26 90.32 90.32 0 0 0 4.59-8.8"/><path id="Fill-13" class="cls-1" d="M97.07 171.36l1.87-1.78-2.28-.25a90.18 90.18 0 0 1-7.22 6.1c-.77.55-8.1 5.05-8.9 5.43s-.67.54-1 1.27a4.54 4.54 0 0 1-.86 1.33l.16.1c.94-.42 4.68-2.1 6.55-3.2a54.82 54.82 0 0 0 11.68-9"/><path id="Fill-15" class="cls-1" d="M153.23 155.06a7 7 0 0 0-1.58.63 2 2 0 0 0-.63.76s2.21 8.77 2.28 12 .06 8.77.06 10.17-.11 2.48-.12 2.61h.09c.51-.25.73-.45 1.58-.83a15 15 0 0 0 2.76-1.57 6.75 6.75 0 0 0 .5-3.35c-.13-3.05-1.07-11.19-2.72-15.38a33.13 33.13 0 0 0-2.22-5"/><path id="Fill-17" class="cls-1" d="M100.73 172.92l.09-.13h-.1s.28-.4 1-1.5a3.28 3.28 0 0 0-1.13-.91c-.16 0-4.25 4.7-6.75 6.51s-8.55 5.82-10.13 6.58c-1.27.61-2.54 1.33-3 1.58a4 4 0 0 1 .68.49c.5.42 1.33 1.11 1.49 1.27l.14.08a7.71 7.71 0 0 0 2-.49 31.12 31.12 0 0 0 7.41-5.15 68.71 68.71 0 0 0 8.27-8.29"/><path id="Fill-19" class="cls-1" d="M141.65 167.95a9.37 9.37 0 0 0-.6-2.7l-1.61.29c-.41.06-.82.16-.79.32a10.63 10.63 0 0 1-2 .92s-.26.52-.38.8l-.1.4c-.19 1.39-.77 7.15-1 8.46-.22 1.46-2.06 9.66-2.85 11.41-.56 1.24-1.31 2.92-1.7 3.79h.38s2.22-.89 2.44-.92.57-.25 1-.35.67 0 1.61-.12a5.43 5.43 0 0 0 1.52-.4h-.48a3.78 3.78 0 0 0 2.25-2.38 48.76 48.76 0 0 0 2-10.45 87.14 87.14 0 0 0 .35-9.09"/><path id="Fill-21" class="cls-1" d="M148.6 163.2a15.32 15.32 0 0 0-.89-2 11.61 11.61 0 0 0-2.12.86c-.47.35-2 1.27-2.09 1.75a3.56 3.56 0 0 0-.06 1.08s0 .37.09 1l.09.77a55.17 55.17 0 0 1 0 9.31c-.43 3.63-1.27 9.12-1.72 11.55a8.31 8.31 0 0 1 1.81-.23s1.65-.41 3-.86a18.21 18.21 0 0 0 1.84-.66c.29-.56 1.72-3.61 1.52-9.32a87.12 87.12 0 0 0-1.39-13.22"/><path id="Fill-23" class="cls-1" d="M92.53 169.8l-.11-.09s.75-1 1.18-1.45c-.07-.12-.15-.23-.25-.39a1.8 1.8 0 0 0-.67-.57s-.68 1.7-7.12 5.36A46.66 46.66 0 0 1 73.71 178a22.11 22.11 0 0 0-2.18.76 1.7 1.7 0 0 1 .34.32c.41.48.86 1.4 1.33 1.68h.05l-.18-.18a6.43 6.43 0 0 0 4.15-.44c2-1 8.6-5 10.48-6.45s3.65-2.91 4.82-3.94"/><path id="Fill-25" class="cls-1" d="M77.07 175.17a49.62 49.62 0 0 0 12.06-6.67 15 15 0 0 1 2.37-1.68 4.13 4.13 0 0 0-1-.22 9.64 9.64 0 0 1-1.49-.32s-2.09 1.4-3.48 2.26a50.4 50.4 0 0 1-10 5.21c-1.59.53-5.25 1.86-7 2.49.52.36 1 .73 1.5 1.07a32.49 32.49 0 0 0 7.13-2.1"/><path id="Fill-27" class="cls-1" d="M85.13 165.68l-.25-.16 1.65-1a2.16 2.16 0 0 0-.46-1.14c-.38-.35-.22.06-.22.06a45.09 45.09 0 0 1-7.41 3.91 91.59 91.59 0 0 1-12.13 3.56l-2.92.33a2.76 2.76 0 0 1 .23.34 3.55 3.55 0 0 1 .38 1.21 1.08 1.08 0 0 0 .46.63c.08-.16.56-.07 1.34-.12 1.43-.1 8.2-1.56 10.51-2.7a99.21 99.21 0 0 0 8.82-4.89"/><path id="Fill-29" class="cls-1" d="M100 186.11a81 81 0 0 0 8.42-10.52c.38-.61.67-1.1.89-1.49s.43-.8.73-1.5a3.17 3.17 0 0 0-1.19-.78c-.6-.16-2.25-.45-2.25-.45l-2.15.16S99.94 177 98.83 178s-7.63 7.18-9.18 8-1.3 1.75-1.59 2.1l-.22.26.95.14a6.22 6.22 0 0 1 1.68.7s.1 0 .92.48a14 14 0 0 0 1.9 1h.08a6.29 6.29 0 0 0 1.05-.25c1.49-.45 2.6-1.3 5.54-4.36"/><path id="Fill-31" class="cls-1" d="M63.66 115.7a20.33 20.33 0 0 0 1.93 1 13.85 13.85 0 0 0-.67-1.52 8.19 8.19 0 0 1-.57-1.43s-5.29-3.62-6.49-5.08c-1-1.22-2.36-2.55-3-3.31-.55-.06-1.11-.11-1.64-.18a21.64 21.64 0 0 0 3.6 4.82c2.38 2.1 5.42 5 6.84 5.72"/><path id="Fill-33" class="cls-1" d="M63.38 111.21v-.06l1.39 1v.15l2-.1s-1.45-1.46-3.29-3.15a31.25 31.25 0 0 1-2.61-2.89h-.73c-1 0-1.92-.05-2.87-.1.21.21.42.42.61.58 1.33 1.13 3.89 3.19 5.5 4.48"/><path id="Fill-35" class="cls-1" d="M166.31 113.47a12.62 12.62 0 0 0-2-.19 11.8 11.8 0 0 0-1 2.1s-.6.44 1 1a64.39 64.39 0 0 1 9.25 5.92h8.77c-1.84-1.46-7.1-5.3-10.83-6.76-1.42-.55-4.56-2-5.19-2.16"/><path id="Fill-37" class="cls-1" d="M57.76 140.82c1.67.23 5.06.32 7.19.36l-.07-.23h2l.06.15.77-.91a58.66 58.66 0 0 1-7.44-.86 78.28 78.28 0 0 1-9.94-3.3c-1.88-.9-2.85-1.3-3-1.35s-1 1.2-1.22 1.57a1 1 0 0 0 0 .52 2.82 2.82 0 0 0 1.52 1.29 55.81 55.81 0 0 0 10.16 2.76"/><path id="Fill-39" class="cls-1" d="M47.48 132a44.58 44.58 0 0 0 6.71 3.27 65.19 65.19 0 0 0 10.32 2.44 14.21 14.21 0 0 0 3 .19l-1-1.18c-.63-.73-.82-.92-.82-.92s-6.14-1-9.09-1.81a86.62 86.62 0 0 1-9.06-3.88 13.31 13.31 0 0 0-1.46-.53 13.47 13.47 0 0 0 1.36 1.87s0 .24.06.55"/><path id="Fill-41" class="cls-1" d="M47.38 123a36.6 36.6 0 0 0 5.84 4 48.29 48.29 0 0 0 8.71 3.72c2.25.57 3.58.79 3.58.79l-1.64-2.19a62 62 0 0 1-8-3c-2.75-1.43-8.64-5.15-9.09-5.53a2.19 2.19 0 0 0-.73-.41 20.32 20.32 0 0 0 1.36 2.47v.1"/><path id="Fill-43" class="cls-1" d="M180.3 119.64c.37-1.44 1.17-4.51 1.26-4.63s0-.17 0-.3c-.39-.55-3-3.89-9.93-5.92-4.47-1.32-8.71-2.64-8.71-2.64h-1.9l-.82 2.89s5.25.19 19.95 10.45l.16.12"/><path id="Fill-45" class="cls-1" d="M50.61 109.51c1.27 1 5.35 5.24 8.71 6.83 1.55.73 3.29 1.64 4.25 2.14l.74.27v.12l1.39-.35.13-.19s-5.7-3.49-6.62-4.32a53 53 0 0 1-6-6.58c-1.17-1.84-1.52-2.26-1.52-2.26v-.06a1.09 1.09 0 0 1-.15.19 9.72 9.72 0 0 1-1.54.7c-.5.19-.73.25-.82.54l-.09.27a3.28 3.28 0 0 0 1.49 2.72"/><path id="Fill-47" class="cls-1" d="M50.58 130.28c2.6 1 7 3 10 3.43 1.11.17 2 .3 2.8.38v-.13c.19 0 2 .13 2 .13v.19l1-.76s0-.25-.19-.29a57.65 57.65 0 0 1-6.24-1.53 44.41 44.41 0 0 1-10-5c-1.51-1-2.44-1.49-2.44-1.49l.05-.71c-.07 1-.29.78-.65 1.12s-.89.67-1 1.11a3 3 0 0 0 0 .37 4.49 4.49 0 0 0 .63 1c.38.41 1.3 1.18 3.89 2.19"/><path id="Fill-49" class="cls-1" d="M66.79 156.39a53.11 53.11 0 0 0 6.21-1.62l-.11-.13 1.36-.27.52-.17.25-1.17s-.54.1-1.84.38a58.24 58.24 0 0 1-11.34 1.37c-3.87-.09-8.74-.69-9.45-.78a.5.5 0 0 1 0 .11 5.49 5.49 0 0 1-.22 1c-.14.48 0 .93.41 1.74a10.93 10.93 0 0 0 3.49.42 51.86 51.86 0 0 0 10.67-.89"/><path id="Fill-51" class="cls-1" d="M59.61 153a84.2 84.2 0 0 0 11.27-.76 11.17 11.17 0 0 0 3.08-.59s-1.27-.85-1.48-1l-.84-.68a37.82 37.82 0 0 1-9.25.85 64.69 64.69 0 0 0-8.44 0c-1.14.17-1.9 1.23-2.66.93 0 0-.09-.06-.14-.09l.32.6-.1-.26a42.24 42.24 0 0 0 8.24 1"/><path id="Fill-53" class="cls-1" d="M179.14 110.31c.12-1.09.51-5.21 0-6.2h-14.87a157 157 0 0 1 11.74 4 14 14 0 0 1 3.13 2.24"/><path id="Fill-55" class="cls-1" d="M54.24 123.42a58.5 58.5 0 0 0 7.24 3.08v-.25l1.77.45v.22h.15l1.27-.7-4.5-2s-5.22-2.76-7.28-4.64-4.62-4.45-4.62-4.45l.51-2.29a23.37 23.37 0 0 0 4.27 4.61 60.49 60.49 0 0 0 9 5.62c1.46.58 2.76 1 2.76 1l-1.49-2.57a72 72 0 0 1-7.91-4.42 78.06 78.06 0 0 1-7-6.1c-.45-.49-.67-.71-.79-.81a9.21 9.21 0 0 0 1.11 2.4 19.42 19.42 0 0 1-.44 2.45c-.35.88-1.55 1.08-1.93 1.34a1.46 1.46 0 0 0-.3.7 2.86 2.86 0 0 0 .74 1.58c.89 1 5.19 3.53 7.44 4.74"/><path id="Fill-57" class="cls-1" d="M65.08 149.15c1.37-.11 2.87-.28 4-.42l-.1-.17 1.84-.45.19.28c.08-.2.35-.88.39-1.06s-.3 0-1.23 0a61.2 61.2 0 0 1-15.07-.89 49.65 49.65 0 0 1-5.42-1.57 2.68 2.68 0 0 1-.45 1.27c-.31.6 0 1.14 0 1.49a1.38 1.38 0 0 0 .06.21 49.67 49.67 0 0 0 5.06 1.1 68.49 68.49 0 0 0 10.68.21"/><path id="Fill-59" class="cls-1" d="M178 148.51a1.55 1.55 0 0 0-.13.63c.16-.28.4-.65.61-1a39.75 39.75 0 0 0 2.5-4.07v-.24c-1.95 0-3.85.08-5.48.09a25.36 25.36 0 0 1 2.5 4.57"/><path id="Fill-61" class="cls-1" d="M67.82 110.53l-1.21-3.18s-.49-.45-1.23-1.21c-.66.06-1.32.11-2 .14a54.66 54.66 0 0 0 4.43 4.24"/><path id="Fill-63" class="cls-1" d="M59.4 144.7a81.11 81.11 0 0 0 9.53.32 4.24 4.24 0 0 0 1.27-.16 4.67 4.67 0 0 0-1-1 6.32 6.32 0 0 1-1.14-1s-3.71.13-5.92-.06a74 74 0 0 1-9.5-1.56c-2.11-.54-4.67-1.28-5.51-1.53a6.57 6.57 0 0 0 1.46 1.63c.22.21.21.2.26.56a36.74 36.74 0 0 0 10.6 2.74"/><path id="Fill-65" class="cls-1" d="M134 171.22l.07-1.17a2.9 2.9 0 0 0-.09-.73 15.22 15.22 0 0 0-2.06.12 8.69 8.69 0 0 0-2.31.67c-.41.32-1.17 1-1.17 1s-.13.69-.37 1.76v.18a58.36 58.36 0 0 1-2.51 8.29c-.75 1.9-3.35 7.82-4.15 9.24l-1.93 3.51h.13a16.41 16.41 0 0 0 3.1-.89s3.07 0 4.28-.11h-.07a4.86 4.86 0 0 0 1.9-1.75 73.45 73.45 0 0 0 4-12c.67-3.41 1.17-6.64 1.3-8.08"/><path id="Fill-67" class="cls-1" d="M196.27 134.39a5.21 5.21 0 0 0-1.06-.34l-12.39.1h-.3l-6.47.06h-1.6a1.24 1.24 0 0 0-.59.23l-.35.22c-.06 0-.1.05-.09 0v-.07c0-.45.07-.92.07-.92V133c0-.15.36.53.81.48h1.1l6.8-.13h.7c5.74-.1 12.28-.19 12.4-.18.93.08 1.07-.59 1 .48a3.73 3.73 0 0 1 0 .78m-.06 1.4c0 .25 0 .82-.06.8a3.69 3.69 0 0 0-1.18-.22c-1.93 0-7.9.07-13 .16l-3.94.08-2.7.06h-1.22c-.21 0-.3.12-.58.27s-.39.23-.33-.19.08-.65.08-.65v-.74c0-.3.25.48.93.51h3.14l5-.08 12.76-.2c.78 0 1.17-.72 1.06.22m-.12 2.23c-.05.23-.07.88-.28.74s-.22-.24-1.05-.31c-1.37-.11-8.08 0-13.61.12h-1.54l-2.48.05-2.78.05a2.06 2.06 0 0 0-1 .48c-.39.22-.3 0-.25-.27a6 6 0 0 0 .1-.79l.06-.5c0-.27.25.55 1.17.54h2.26l2.54-.06h2.13c5.8-.13 13.14-.29 13.28-.31 1.57-.15 1.73-.88 1.47.31m-23-11.08a2.27 2.27 0 0 0 .89.07h20.06c.72.07 1.48.13 1.55.47s.3.69.21.78-.52-.5-.88-.5h-20.7c-.2 0-.72.44-1 .61-.1.07-.08-.34-.19-.78s-.15-.54-.15-.54 0-.19.2-.14m22.91 2.29c0 .25.41.73.15.82 0 0-.36-.5-.73-.49h-20.9c-.2 0-.41.13-1.19.9 0 0 0-.72-.06-1.1s-.14-1.06-.05-.87a1.71 1.71 0 0 0 1.07.29h20.72c.72.07.88-.17.94.43m-13.15 2.54h-8.11a1.37 1.37 0 0 0-.49.31 5 5 0 0 1-.55.43c-.23.13-.21.37-.2-.57v-.75a2.16 2.16 0 0 1 0-.47 1.94 1.94 0 0 0 1.06.28h20.71c.72.07.89-.23.94.44 0 .25.31.74.15.82s-.36-.49-.73-.49h-12.73m27.05-5.09c-.5-.13-10.87.06-11.08.08l-3 .14a1.44 1.44 0 0 1-.08-.36 1 1 0 0 0-.14-.35s0 .06-.06.08a1.5 1.5 0 0 0-.91-.35h-20.87c-.47 0-.61.22-.86.56 0 .07-.09-.33-.21-.73s-.28-.63-.21-.68.24 0 .67.06h20.98a2.53 2.53 0 0 1 1 .24.31.31 0 0 1 0-.17.89.89 0 0 0-.09-.53 1.27 1.27 0 0 0-.88-.36h-20.84a.88.88 0 0 0-.79.44c0 .06-.09.09-.12.15a3 3 0 0 1-.13-.33l-.1-.24a3.41 3.41 0 0 0-.22-.43c-.06-.14.3-.17.37-.16a10.75 10.75 0 0 0 1.2 0h9.43l10.65.06a8 8 0 0 1 .83.11 1.36 1.36 0 0 0-.14-.23 1.44 1.44 0 0 0-.87-.32c-2.17-.06-6.41-.11-10.51-.15h-.4l-8.61-.06h-1.42a.6.6 0 0 0-.64.46c0 .05 0 0-.21-.26l-.15-.19c0-.06.16-.15.26-.16a11.83 11.83 0 0 1 1.21-.07h.68l8.73.07h.54c4.58 0 9.11.07 9.58.1s.69 0 1 0a1.3 1.3 0 0 0-.83-.31c-2.05-.06-5.91-.09-9.74-.12h-11.28c-.26 0-.27.09-.33.2s.05.22-.21-.1l-.07-.11a1.54 1.54 0 0 0-1.27-.66h-1.06a9.1 9.1 0 0 0-1.37-.81 18 18 0 0 0-2.25-.57l-.9 1.46c-2.53 0-5 .09-5.48.08-.87 0-3.53-.09-3.86-.16a2 2 0 0 0-.86-.11 31.13 31.13 0 0 1-3.31.07c-.9-.15-.85-.65-1.9-.66s-14 0-14.78.07-2.5.08-2.5.08l-.45-2.47c-.11-.6-.92-3.22-.92-3.22s-.21-1.06-.54-2.57a12.41 12.41 0 0 1-1.37 1.55s-3.69 7.22-4.46 8.62a140.18 140.18 0 0 1-11.58 19 76.05 76.05 0 0 1-6.81 7.62 18 18 0 0 1-3.45 2.58c-1.06.44-1.8.7-2.14.56a1.07 1.07 0 0 1-.52-.45 7.17 7.17 0 0 0 .29 2.14c.22.53.41.94 1.5 1.29a12 12 0 0 0 6.3 0 27.43 27.43 0 0 0 9.21-6.28 66.22 66.22 0 0 0 9.45-12.51c1.39-2.41 2.84-4.95 2.84-4.95s1.8-3.56 1.87-3.09 0 3.91 0 3.91-1.41 1.65-1.55 1.83-2.8 4.95-3.48 5.89a47.29 47.29 0 0 1-6 8.18 25.58 25.58 0 0 1-9.08 7 15.24 15.24 0 0 1-5 1.13H104l1.12.1a27.29 27.29 0 0 0 4.79 2.29 24 24 0 0 0 3.86 1A23.59 23.59 0 0 1 111 160c-.5-.11-.75-.2-.62-.17a5.58 5.58 0 0 1 .62.17 14.33 14.33 0 0 0 8.81-1s2.59-1 6.75-4.7a15.14 15.14 0 0 0 2.31-2.38c.41-.58 1.74-2.2 1.74-2.2l-.48 3.54a28.8 28.8 0 0 0-2.59 2.12c-1.29 1.2-2.42 3.39-9.37 5.29a9.19 9.19 0 0 1-2.63.32 17.52 17.52 0 0 0 4 2.13 19.62 19.62 0 0 0 5.52 1.42c2.34.13 2.23-.12 2.63-.24a.72.72 0 0 0 .78-.58c.2-.68 1.12-5 1.44-7.47a4.26 4.26 0 0 1 .29-1.34 7 7 0 0 0 .51-1.55c.12-.55.77-3.93.84-4.84s.31-1.3 1.1-1.24 13.25-.28 13.25-.28a1.15 1.15 0 0 1 .33 0h2.86a2.39 2.39 0 0 0 .75-.3 5.37 5.37 0 0 1 2.36-.6c1.83 0 6.09-.33 6.09-.33h1.54c1.07 1.87 3.2 5.69 4.17 8a97.62 97.62 0 0 1 3.64 10.93 17.24 17.24 0 0 1 .64 3l.28-.21c.28-.22 2.87-2.82 3.59-3.58a7.71 7.71 0 0 0 0-2 15.52 15.52 0 0 0-1.23-3.81c-1-2.13-3.55-8.2-6.52-11.85l-.49-.61 3.62-.05a48.15 48.15 0 0 1 4.47 8.71c.34.91 1.63 3.69 1.81 4.48l.41-.32a26.22 26.22 0 0 0 2.63-3 2.68 2.68 0 0 0 .7-1.28l-.07.11c-.25.48-.25.76-.22-.1a8.84 8.84 0 0 0-1.43-3.91s-1.73-2.9-3.48-5.48h-1.07s.21-.13.36-.33.08.08.21.09h3.21l5.7-.1h.13c4.89-.11 9.85-.24 9.94-.24a8.05 8.05 0 0 0 2.43-.29.2.2 0 0 1 .1 0 3.71 3.71 0 0 0 .43-.43h-2.19c-2.13 0-6.59.17-10.61.29h-.34l-5.95.17h-1.58c-.44 0-.67 0-1.07.06-.17 0-.17 0-.09-.28s.17-.37.19-.43c.12-.31-.08.22.37.25h1.94c1.51 0 3.71-.07 6.09-.13h.49c5.41-.14 11.4-.32 11.54-.32a7.74 7.74 0 0 0 1.57-.18 7.67 7.67 0 0 0 .47-.8c-.1.09-.21 0-.68 0h-1.67c-2 0-6.83.06-11 .15h-1.23l-6.18.14h-.13a4 4 0 0 0-1 .12c-.41.14-.43.27-.24-.3.08-.23.18-.62.2-.7.07-.28.17.44.79.46h.07l6.26-.15h1.44c5.41-.11 11.75-.24 12.24-.22a8.24 8.24 0 0 0 1.54-.24c.08-.17.15-.33.23-.52s.09-.21.14-.3-.14-.24-.8-.26c-2.09-.07-8.73.07-13.89.19h-1.93l-4.6.11a2.07 2.07 0 0 0-1 .35c-.17.1-.24.1-.3.09a.08.08 0 0 1-.06-.07.31.31 0 0 1 0-.17 5.13 5.13 0 0 1 .14-.58s0-.11.11-.64c0-.22.18.66.87.61l4.55-.1h2.18l14.08-.28c1.15 0 1.28-.75 1 .09 0 .06 0 .13-.06.2a.64.64 0 0 1 .17-.19s13.51-.18 14.19-.25 3.13-1.12 3.49-6.3c.23-3.45-.75-5.88-3.63-6.64"/><path id="Fill-69" class="cls-1" d="M101.12 141.28a8.62 8.62 0 0 0-1.84 3.52 11.09 11.09 0 0 0-.19 3.42c.12 1.89.19 3.46.94 3a24.34 24.34 0 0 0 8-7c1.15-1.5 3.56-3.66 11.54-17 1.36-2.28 7.24-13.48 7.79-14.24.31-.43 1.21-1.82 1.51-2.13-.44-1.92-1-4.07-1.44-5.73-1.13.24-2.31.44-3.53.6-.13.17-.26.34-.37.5 0 0-5.58 7.79-11.89 18.9-.69 1.21-8.36 14.11-10.48 16.16"/><path id="Fill-71" class="cls-1" d="M83.45 144.21c.06.11-.13 0-.36-.2a.88.88 0 0 0 .56.33c2.13 0 11.39-.29 11.74-.31a3.42 3.42 0 0 1 2.09.62c.18 0 .63-.19.83-1.62a45 45 0 0 0 .4-8.89c-.12-3.47-.11-3.81-.19-5.73a32.19 32.19 0 0 0-.3-3.23c-.29-2.3-.52-1.71-.59-1.43a2.39 2.39 0 0 1-.79 1.16c-.65.33-.92.45-2.88.53-2.49.1-11.07.16-11.07.16 0 .12-.13 4 0 8.12.09 4.32.37 9.8.68 10.38"/><path id="Fill-73" class="cls-1" d="M99 116.33l.07 8.52s4-5.37 4.61-6.25c0 0 5.61-7.41 8.75-10.4a11.71 11.71 0 0 0-4.26.5l-.37.13a23.84 23.84 0 0 0-4.65 3 35.06 35.06 0 0 0-4.15 4.5"/><path id="Fill-75" class="cls-1" d="M103.62 121.37s-3.59 5.41-3.86 5.85-.75.82-.71 1.22c0 .2.12 2.84.15 5.29 0 3.07-.08 5.07-.06 5.31s5.2-6.38 5.76-7.3 7.64-11.92 9.42-14.89a133.21 133.21 0 0 1 8.32-11.72c-1.75.19-3.59.3-5.51.34a28.88 28.88 0 0 0-4.38 3.4c-1.06 1.09-4.91 6.14-5.6 7.2s-3.54 5.3-3.54 5.3"/><path id="Fill-77" class="cls-1" d="M98.08 116.94c0 .67 0 1.72.09 2.31s.1 1.35.2-.8 0-1.9.25-2.5c.39-1 2.49-2.8 3.53-3.62a3.26 3.26 0 0 0-1.51 0 5 5 0 0 0-1.9.53 6.32 6.32 0 0 0-.7.79v3.13a.37.37 0 0 1 0 .17"/><g id="Group-81"><path id="Fill-79" class="cls-1" d="M34 9.28h22.34V75.8c0 5.13 1.22 7.08 4.26 7.08s4.26-2 4.26-7.08V9.28h22.38v63.23a40.41 40.41 0 0 1-.78 8.2c0 .21-.1.42-.15.63-.17.71-.35 1.41-.57 2.09s-.37 1.14-.59 1.69c-.06.15-.14.29-.2.44-.13.31-.27.61-.41.91a18.76 18.76 0 0 1-10.09 9.41l-.44.19c-.59.23-1.21.43-1.84.63s-1.11.35-1.7.49h-.18l-.68.14-1.18.24c-.52.09-1.05.17-1.6.25s-1.29.16-2 .22c-.94.08-1.94.12-3 .14h-3.51c-.69 0-1.39-.06-2-.11-1.24-.1-2.41-.26-3.52-.45h-.05C38.39 95.06 34 85.1 34 72.51V9.28zm82.1-1.83a51.42 51.42 0 0 1 7.43.5c6.14.89 10.2 2.92 12.81 5.61a14.38 14.38 0 0 1 3 4.64 22.24 22.24 0 0 1 1.44 8.41v8.18h-20.1v-7.2c0-5.49-2.43-6.23-4.38-6.23-2.19 0-3.77 1.35-3.77 5.74v3.79c0 11.41 24 12.48 28.82 31.2a27.25 27.25 0 0 1 .81 5.64v8.93a35.22 35.22 0 0 1-.36 4.47v.32c-.06.36-.12.71-.19 1.06a18.77 18.77 0 0 1-3.89 8.61 15.91 15.91 0 0 1-2.8 2.63c-4.59 3.33-11.1 4.48-18.85 4.48-10.11 0-16.07-2.33-19.58-6.09a16 16 0 0 1-3.66-6.78A29 29 0 0 1 91.9 80c-.05-.62-.09-1.25-.11-1.88q0-1.18-.05-2.39V64.69h20.92v14c0 2.81.61 5.62 3.77 5.62 4 0 4.14-4.52 4.14-7.93v-3.63a11.17 11.17 0 0 0-.93-4.53 11 11 0 0 0-.66-1.28 16.34 16.34 0 0 0-3.77-4.2c-.3-.25-.62-.5-.94-.74l-.08-.07c-6.07-4.55-14.92-8-19.53-15.92a23.31 23.31 0 0 1-3-12.08v-4.88a24.74 24.74 0 0 1 2.47-11.61c.18-.34.37-.67.57-1a15.89 15.89 0 0 1 3-3.61C101 9.9 105.53 8.28 111 7.7a48.23 48.23 0 0 1 5-.25zM143 49a39.4 39.4 0 0 0-6.84-6.73h7.68zm12.47-39.72h32.23L191.5 37l.82 6 .89 6.54 6.41 46.88h-22.37l-1.1-15.38H168l-.33 4.63v.64l-.37 5.25-.1 1.45-.24 3.41h-22.44l.29-2.31 1-8.2.52-4.15.23-1.85.65-5.15.2-1.62.3-2.38 1.14-9.11 4.89-39 .5-4 .5-4zM115 230.23C56 230.23 7.94 182 7.94 122.8a107.05 107.05 0 0 1 18.6-60.42v10.13c0 18.31 8.88 29.56 25.19 32.44h.1c.58.1 1.17.2 1.77.28s1.09.13 1.64.18c.81.08 1.64.14 2.49.19s1.89.1 2.87.1h.73c.78 0 1.54 0 2.3-.08s1.34-.08 2-.15h.29l1.53-.17c.57-.07 1.14-.16 1.7-.25l.44-.08c8.34-1.49 14.72-5.19 19-10.91a22.14 22.14 0 0 0 1.32 1.89c4.44 5.7 12.33 9.8 26.21 9.8h1.37c1.92 0 3.76-.15 5.51-.34.38 0 .77-.07 1.14-.12q1.83-.24 3.53-.6a33.46 33.46 0 0 0 8.79-3.08l-.3 2.35h72l-5.92-43.25a107.06 107.06 0 0 1 19.83 62.18c0 59.24-48 107.43-107.05 107.43zm85.17-184.58l-6-43.82h-45.24l-1.33 10.53c-1.17-.35-2.34-.7-3.53-1C139.78 4.89 131.47 0 116.06 0c-9.82 0-16.64 2.31-21.4 5.74V1.83H26.54v47.63A114.89 114.89 0 0 0 .2 122.8C.2 186.32 51.7 238 115 238s114.8-51.68 114.8-115.2a115 115 0 0 0-29.63-77.15z"/></g><path id="Fill-82" class="cls-1" d="M172.97 32.3l-.47-4.95-.26-2.73h-.25l-.2 2.32-.39 4.35-3.06 34.35h7.79l-3.16-33.34z"/><path id="Fill-84" class="cls-1" d="M40.11 180.71a4.87 4.87 0 0 0 .64-2 26.39 26.39 0 0 0-.09-3.82 14 14 0 0 1 .13-4.49 2.16 2.16 0 0 1 .91-1.22 2.42 2.42 0 0 1 2-.25 3.05 3.05 0 0 1 1.83 1.4 4.63 4.63 0 0 1 .7 2.21 4.26 4.26 0 0 1-.45 2.27 7.35 7.35 0 0 1-1.84 2.14l.25.4 5-3.17-.25-.4a1.56 1.56 0 0 1-.84.14.74.74 0 0 1-.45-.35 2.9 2.9 0 0 1-.27-1 7.2 7.2 0 0 0-1-2.79 5 5 0 0 0-3-2.31 4.18 4.18 0 0 0-3.42.51 4 4 0 0 0-1.38 1.45 5.33 5.33 0 0 0-.6 2.05 26 26 0 0 0 0 3.68 31.08 31.08 0 0 1 .09 3.13 3.83 3.83 0 0 1-.43 1.55 2.65 2.65 0 0 1-.89 1 2.56 2.56 0 0 1-2.14.29 3.54 3.54 0 0 1-2-1.65 5.25 5.25 0 0 1-.91-2.48 4.26 4.26 0 0 1 .37-2.25 8.28 8.28 0 0 1 1.84-2.22l-.25-.39-4.93 3.15.25.39a1.51 1.51 0 0 1 .8-.19.66.66 0 0 1 .43.32 7.52 7.52 0 0 1 .5 1.53 14.78 14.78 0 0 0 .48 1.61 8.17 8.17 0 0 0 .66 1.24 5.42 5.42 0 0 0 3.25 2.52 4.41 4.41 0 0 0 3.62-.53 4.25 4.25 0 0 0 1.39-1.45"/><path id="Fill-86" class="cls-1" d="M43.3 190.84l9.82-8.56 1.57 1.82a3.62 3.62 0 0 1 .85 1.52 2.53 2.53 0 0 1-.13 1.49 4.89 4.89 0 0 1-.89 1.28l.31.36 2.9-2.75-9.12-10.53-3.15 2.48.31.36a3.71 3.71 0 0 1 1.75-.79 2.32 2.32 0 0 1 1.43.24 5.71 5.71 0 0 1 1.24 1.17l1.35 1.55-9.82 8.52a3.82 3.82 0 0 1-1.57 1 1.73 1.73 0 0 1-1.5-.73l-.39-.46-.35.31 4.74 5.47.35-.31-.39-.45a1.89 1.89 0 0 1-.57-1.46c0-.34.47-.86 1.26-1.55"/><path id="Fill-88" class="cls-1" d="M52.38 194.85l6.62-3.44-2.15 7.17zm5.4 8.87L62.23 189l-.34-.28-13.54 7a7.62 7.62 0 0 1-2.66 1 2.91 2.91 0 0 1-1.38-.5l-.29.36 4.13 3.42.29-.36a3.25 3.25 0 0 1-1-1.32.87.87 0 0 1 .15-.77 4.23 4.23 0 0 1 1.27-.87l2.6-1.34 5.08 4.21-.77 2.56a5.21 5.21 0 0 1-.72 1.67.87.87 0 0 1-.72.32 2.55 2.55 0 0 1-1.28-.62l-.29.36 5.24 4.27.3-.36a2.64 2.64 0 0 1-.89-1.48 6.57 6.57 0 0 1 .41-2.54z"/><path id="Fill-90" class="cls-1" d="M91.83 212.42a7.8 7.8 0 0 1-3.34 4.85 6.33 6.33 0 0 1-5.21.68 12.78 12.78 0 0 1-2.48-1.06l3.87-14a10.46 10.46 0 0 1 2.58.34 6.5 6.5 0 0 1 4.21 3.29 7.83 7.83 0 0 1 .36 5.9m2.88-4.2a6.93 6.93 0 0 0-2.32-3.65 15 15 0 0 0-5.37-2.4l-5.61-1.56-3.91-2-.21.41.52.27a1.86 1.86 0 0 1 1.06 1.15 3.37 3.37 0 0 1-.59 1.91l-4.5 8.76-3.39-16.18-4.1-2.13-.21.42a4 4 0 0 1 .93.61 4.29 4.29 0 0 1 .76 1 7.78 7.78 0 0 1 .47 1.54l-5.43 10.56a3.79 3.79 0 0 1-1.09 1.5 1.73 1.73 0 0 1-1.67-.13l-.52-.27-.21.41 5.27 2.73.21-.41-.53-.28a1.88 1.88 0 0 1-1.06-1.15 3.47 3.47 0 0 1 .6-1.9l4.8-9.43 3.68 17.4.4.21 6.59-12.8a3.81 3.81 0 0 1 1.09-1.5 1.57 1.57 0 0 1 1.29 0 1.51 1.51 0 0 1 .45.53 3.55 3.55 0 0 1-.19 2L79 214.52a3.93 3.93 0 0 1-.76 1.73 1.69 1.69 0 0 1-1.66.26l-.62-.17-.13.45 7.34 2q4.78 1.33 7.83-.59a8.56 8.56 0 0 0 3.67-5.17 9 9 0 0 0 .08-4.84"/><path id="Fill-92" class="cls-1" d="M98.88 215.46l3.57-6.61 2.25 7.15zm9.45 4.27L103.71 205h-.44L96 218.46a7.71 7.71 0 0 1-1.63 2.32 2.87 2.87 0 0 1-1.42.36v.46l5.34.49v-.46a3.24 3.24 0 0 1-1.56-.53.86.86 0 0 1-.31-.72 4.2 4.2 0 0 1 .56-1.44l1.39-2.58 6.57.6.8 2.54a5.25 5.25 0 0 1 .34 1.79.87.87 0 0 1-.42.67 2.49 2.49 0 0 1-1.4.22v.46l6.69.61v-.46a2.66 2.66 0 0 1-1.57-.72 6.5 6.5 0 0 1-1.1-2.33z"/><path id="Fill-94" class="cls-1" d="M117.22 214.39h-.7l-.34-7.1a11.17 11.17 0 0 1 2-.33 3.58 3.58 0 0 1 2.69.88 3.53 3.53 0 0 1 1.13 2.56 3.39 3.39 0 0 1-1.11 2.76 5.51 5.51 0 0 1-3.62 1.23m9.48 7.16a8.73 8.73 0 0 1-2.18-2.14l-3.74-4.73a5.77 5.77 0 0 0 3.09-1.79 4 4 0 0 0 .89-2.78 3.82 3.82 0 0 0-1-2.49 4.6 4.6 0 0 0-2.25-1.36 14.77 14.77 0 0 0-4-.21l-6.2.29v.47h.64a1.85 1.85 0 0 1 1.48.49 3.49 3.49 0 0 1 .45 2l.52 11a4 4 0 0 1-.17 1.86 1.7 1.7 0 0 1-1.51.78h-.64v.47l7.29-.35v-.47h-.66a1.8 1.8 0 0 1-1.46-.49 3.51 3.51 0 0 1-.45-2l-.23-5h.74l1-.08 6.14 7.71 4.54-.21v-.46a5.21 5.21 0 0 1-2.29-.6"/><path id="Fill-96" class="cls-1" d="M140.49 217.23a6.36 6.36 0 0 1-4.33 3 13 13 0 0 1-2.69.19l-2.89-14.24a10.6 10.6 0 0 1 2.45-.88 6.46 6.46 0 0 1 5.24 1 9.05 9.05 0 0 1 2.22 10.93m1.43-10.9a6.9 6.9 0 0 0-3.72-2.2 15 15 0 0 0-5.87.31l-6.8 1.39.09.45.63-.13a1.84 1.84 0 0 1 1.54.25 3.53 3.53 0 0 1 .74 1.9l2.2 10.82a4 4 0 0 1 .1 1.88 1.7 1.7 0 0 1-1.37 1l-.63.13.09.46 7.46-1.53q4.86-1 6.71-4.1a8.58 8.58 0 0 0 .93-6.28 9 9 0 0 0-2.12-4.35"/><path id="Fill-98" class="cls-1" d="M164 202.79a1.4 1.4 0 0 1 .92-1.18l.28-.14-.2-.47-5.93 3 .21.43a3.46 3.46 0 0 1 1.38-.45 1.32 1.32 0 0 1 .81.27 4.54 4.54 0 0 1 .92 1.43l2.18 4.43a7.23 7.23 0 0 1-1.21 1.39 7 7 0 0 1-1.53 1 5.89 5.89 0 0 1-3.22.55 6.59 6.59 0 0 1-3.52-1.55 10.39 10.39 0 0 1-2.81-3.58 9.31 9.31 0 0 1-1-5.29 5.57 5.57 0 0 1 3.3-4.51 5.36 5.36 0 0 1 4.16-.41 7.32 7.32 0 0 1 2.88 2l.39-.2-2.77-4.64-.42.21a1.68 1.68 0 0 1 .2.87.51.51 0 0 1-.27.38 3.39 3.39 0 0 1-1 .18 15.64 15.64 0 0 0-2.23.36 8.81 8.81 0 0 0-1.58.61 8.62 8.62 0 0 0-3.48 2.95 9.66 9.66 0 0 0-.55 9.31 8.47 8.47 0 0 0 4.15 4.08q3.7 1.71 8.12-.48a12.76 12.76 0 0 0 2.64-1.72 13 13 0 0 0 2-2.3l-2.31-4.69a4.44 4.44 0 0 1-.59-1.76"/><path id="Fill-100" class="cls-1" d="M179.13 196.27a9.71 9.71 0 0 1 .15 2.85 3.19 3.19 0 0 1-.52 1.39 7.85 7.85 0 0 1-1.55 1.43l-2.3 1.75a2.11 2.11 0 0 1-.84.46.8.8 0 0 1-.52-.1 5.29 5.29 0 0 1-.91-1l-3.39-4.49 3-2.27a3.73 3.73 0 0 1 1.41-.76 1.56 1.56 0 0 1 1 .1 6.49 6.49 0 0 1 1.24 1.06l.37-.28-3.57-4.74-.37.28A2.85 2.85 0 0 1 173 194a3 3 0 0 1-1.29 1.53l-3 2.27-4.06-5.38 3.73-2.83a5.71 5.71 0 0 1 1.52-.92 2 2 0 0 1 1.22 0 5.78 5.78 0 0 1 1.58 1.12l.39-.3-2.4-2.87-10.46 7.95.28.37.48-.36a1.94 1.94 0 0 1 1.51-.51c.33.07.81.53 1.46 1.4l6.68 8.85a5.92 5.92 0 0 1 .88 1.4 1.07 1.07 0 0 1-.07.81 2.4 2.4 0 0 1-.74.92l-.48.36.28.37 10.46-8-1.4-4.3z"/><path id="Fill-102" class="cls-1" d="M181.13 190.7l-3.13-6.85 7 2.52zm11.61-4.44a6.42 6.42 0 0 1-2.51-.53l-14.46-5.19-.3.32 6.31 13.93a7.77 7.77 0 0 1 .85 2.71 2.91 2.91 0 0 1-.57 1.36l.34.31 3.62-4-.34-.32a3.25 3.25 0 0 1-1.36.93.87.87 0 0 1-.76-.19 4.31 4.31 0 0 1-.81-1.32l-1.21-2.68 4.44-4.88 2.51.89a5.19 5.19 0 0 1 1.63.81.88.88 0 0 1 .28.74 2.54 2.54 0 0 1-.68 1.25l.35.31 4.53-5-.34-.31a2.63 2.63 0 0 1-1.52.82z"/><path id="Fill-104" class="cls-1" d="M190.55 175.56l-.16.24-.23.35-6-3.82a11.07 11.07 0 0 1 .86-1.8 3.57 3.57 0 0 1 2.26-1.7 3.51 3.51 0 0 1 2.73.55 3.4 3.4 0 0 1 1.6 2.5 5.57 5.57 0 0 1-1.08 3.68m11.3-3.64a8.76 8.76 0 0 1-3 .55l-6 .34a5.82 5.82 0 0 0 .33-3.57 4 4 0 0 0-1.75-2.34 3.77 3.77 0 0 0-2.62-.6 4.57 4.57 0 0 0-2.4 1.06 14.85 14.85 0 0 0-2.48 3.17l-3.33 5.25.39.25.35-.54a1.86 1.86 0 0 1 1.25-.94 3.45 3.45 0 0 1 1.87.78l9.28 5.93a3.94 3.94 0 0 1 1.42 1.22 1.72 1.72 0 0 1-.24 1.69l-.35.54.39.25 3.92-6.18-.39-.25-.36.56a1.79 1.79 0 0 1-1.24.91 3.52 3.52 0 0 1-1.87-.78l-4.17-2.67.23-.32.19-.29c.14-.23.33-.52.54-.9l9.82-.59 2.44-3.85-.39-.25a5.26 5.26 0 0 1-1.81 1.53"/><path id="Fill-106" class="cls-1" d="M203.17 163.81h-.38v-1a2 2 0 0 1 .44 0c.51 0 .73.21.73.53s-.36.51-.8.51m.95.25a.89.89 0 0 0 .71-.82.87.87 0 0 0-.36-.74 1.84 1.84 0 0 0-1.17-.27 9 9 0 0 0-1.32.11v3.45h.8v-1.37h.38c.44 0 .65.17.71.53a2.78 2.78 0 0 0 .28.84h.86a2.93 2.93 0 0 1-.25-.84c-.1-.46-.27-.74-.61-.84"/><path id="Fill-108" class="cls-1" d="M203.5 167.38a2.76 2.76 0 1 1 2.62-2.74 2.64 2.64 0 0 1-2.62 2.74m0-6.21a3.46 3.46 0 1 0 3.5 3.45 3.48 3.48 0 0 0-3.5-3.45"/></g></g></g></svg>