<svg id="Layer_1" data-name="Layer 1" xmlns="http://www.w3.org/2000/svg" viewBox="0 0 107 110"><defs><style>.cls-1{fill:#231f20}.cls-2,.cls-4{fill:#5e0d8b}.cls-3,.cls-7{fill:#fff}.cls-4,.cls-7{fill-rule:evenodd}.cls-5{fill:#e7e6e6}.cls-6{fill:#333133}.cls-8{fill:#d0d1d2}.cls-9{fill:#a5a8ab}.cls-10{fill:#d1d2d3}.cls-11{fill:#636567}.cls-12{fill:#c5c6c9}.cls-13{fill:none}</style></defs><title>yukon_logo_color</title><path class="cls-1" d="M53.56 0c8.21 6.44 19.62 7.51 32.88.23L103.5 22c-3.13 2-7.74 6.53-9.43 10.16-2.47 5.29.12 11.51.32 12.77.25 1.86 4.18 8.67 4.85 12.25 2.61 14.09-2.39 28.82-10.71 35.75a53 53 0 0 1-5.47 4.19c-3.94 2.9-18.54 7.72-21.8 9.07a61.76 61.76 0 0 0-7.8 3.81 60.7 60.7 0 0 0-7.73-3.81c-3.26-1.35-17.86-6.17-21.8-9.07a53 53 0 0 1-5.47-4.19C10.15 86 5.15 71.27 7.77 57.18c.67-3.58 4.6-10.39 4.85-12.25.2-1.25 2.79-7.48.32-12.77C11.24 28.54 6.63 24 3.5 22L20.56.23c13.26 7.28 24.8 6.21 33-.23z"/><path class="cls-2" d="M92.1 40.48c.36 2.33 1 4.18 1.06 4.75.24 1.8 4.05 8.41 4.7 11.88 2.55 13.67-2.3 28-10.37 34.67a51.49 51.49 0 0 1-5.3 4.06c-3.82 2.81-18 7.48-21.14 8.8a60 60 0 0 0-7.58 3.7 58.86 58.86 0 0 0-7.49-3.7c-3.16-1.31-17.32-6-21.14-8.8a51.39 51.39 0 0 1-5.3-4.06c-8.07-6.71-12.92-21-10.37-34.67.65-3.47 4.46-10.08 4.7-11.88.09-.57.69-2.42 1.06-4.75z"/><path class="cls-3" d="M53.56 1.65c8 6.25 19.78 7.28 32.64.23L102 21.64a30.36 30.36 0 0 0-9.15 10.24c-1.27 2.72-1.16 6-.75 8.59H14.9c.41-2.64.53-5.89-.75-8.61A30.36 30.36 0 0 0 5 21.64L20.8 1.88c12.86 7.06 24.8 6 32.76-.23z"/><path class="cls-2" d="M20.7 29.64L20.34 31a2.3 2.3 0 0 1 .89-.13h.71l-.31 1.21c-.17.62-.26.71-.69.71H20c-.34 0-.51-.12-.51-.37a.71.71 0 0 1 .06-.28l1-3.73c.12-.48.29-.59.9-.59h2.84a3.29 3.29 0 0 1 1.27.19l.12-1.41h-4.87c-1.54 0-1.56 0-2.13.27a1.79 1.79 0 0 0-1 1.34l-.94 3.68a2.88 2.88 0 0 0-.13.75 1.41 1.41 0 0 0 .53 1.06c.28.22.61.29 1.39.29h2.33a.88.88 0 0 0 1-.69v.7h2.34a1 1 0 0 1-.07-.39 3.28 3.28 0 0 1 .07-.59l.55-2.12a3.28 3.28 0 0 1 .53-1.26z"/><path class="cls-4" d="M32.12 32.83a2.8 2.8 0 0 1-1 .11h-2.58a1.63 1.63 0 0 1-.49 0 .32.32 0 0 1-.22-.3 2 2 0 0 1 0-.3l.13-.5h4.47l.34-1.35a1.94 1.94 0 0 0 .08-.54 1.28 1.28 0 0 0-.42-1c-.3-.29-.65-.38-1.46-.38H27.6a1.57 1.57 0 0 0-1.73 1.23l-.62 2.4a2.19 2.19 0 0 0-.06.44 1.35 1.35 0 0 0 .45 1 1.71 1.71 0 0 0 1.25.39h4.73l.48-1.16zm-3.84-2.07l.16-.62c.11-.44.21-.52.62-.52h.83c.26 0 .4.09.4.27a2 2 0 0 1 0 .26l-.17.62zm5.99-2.2l-.59 1.26a2.38 2.38 0 0 1 1.15-.21h2.64c.43 0 .58.07.58.29a.59.59 0 0 1-.14.39c-.09.07-.1.07-.38.07H35a1.85 1.85 0 0 0-1.11.21 1.58 1.58 0 0 0-.67 1.08l-.13.52a1.79 1.79 0 0 0-.08.51 1.23 1.23 0 0 0 .47 1 1.69 1.69 0 0 0 1.18.35h1.57a1 1 0 0 0 1.05-.53v.16a1 1 0 0 0 .07.38H40a.89.89 0 0 1-.08-.39A2.57 2.57 0 0 1 40 33l.61-2.35a3.44 3.44 0 0 0 .11-.74 1.53 1.53 0 0 0-.47-1 1.27 1.27 0 0 0-1-.32zm3.43 2.84l-.3 1.15c-.1.35-.14.39-.61.39h-.65c-.4 0-.52-.08-.52-.32a.63.63 0 0 1 0-.22l.14-.55c.1-.39.17-.44.61-.44zm6.78-2.84H42a.89.89 0 0 1 .08.39 2.59 2.59 0 0 1-.08.59l-.82 3.19a3.28 3.28 0 0 1-.56 1.27h3.13a1 1 0 0 1-.07-.39 3.19 3.19 0 0 1 .07-.59l.64-2.5c.1-.35.27-.47.74-.47h.93a1.35 1.35 0 0 1 .91.28l.47-1.77h-1.51a1.42 1.42 0 0 0-1.52.92v-.93zm12.72.68l-.07.27c-.07.23-.1.29-.44.59l-.83.7-1.4-2.37a.6.6 0 0 1-.1-.3c0-.19.14-.3.41-.3h1.85a1.77 1.77 0 0 1 1.12.24l.09-1.46h-5.07a2.11 2.11 0 0 0-.94.21 1.2 1.2 0 0 0-.61 1 1.41 1.41 0 0 0 .21.7l.6 1h-.3a2 2 0 0 0-1.05.23 1.58 1.58 0 0 0-.62.9L49.67 32a2.31 2.31 0 0 0-.06.48 1.51 1.51 0 0 0 .58 1.16 2.14 2.14 0 0 0 1.36.34H53a2.15 2.15 0 0 0 .71-.12c.12 0 .14-.07.6-.4.23.42.42.52 1 .52h2.83l.61-1.42a1.77 1.77 0 0 1-.92.22c-.65 0-.83-.08-1-.45l-.31-.55 1.21-1c.28-.22.31-.26.37-.34a1.37 1.37 0 0 0 .17-.45l.2-.75zm-4.39 1.67l1 1.59-.12.09a.62.62 0 0 1-.5.2h-.38c-.24 0-.38-.09-.38-.24a.65.65 0 0 1 0-.14l.38-1.49zm16.8-4.31h-3.93a1.11 1.11 0 0 1 .61.42L62.3 33a5 5 0 0 1-.93 1h2a.65.65 0 0 1 0-.19 1.06 1.06 0 0 1 .24-.58l.8-1.23h3.47l.16.77a3.81 3.81 0 0 1 .09.67 1.12 1.12 0 0 1-.18.57h3.48c-.27-.27-.35-.45-.53-1.21l-1.29-6.2zm-2 4.26h-2.44l1.9-2.86.58 2.84z"/><path class="cls-2" d="M76.26 30.12l-.39-.67a1.73 1.73 0 0 1-.28-.89H72.2c.21.17.24.21.52.68l1.43 2.44L71 34h1.91c.07-.16.14-.23.42-.45l1.34-1 .4.72c.26.47.27.5.27.77h3.37A5.45 5.45 0 0 1 78 33l-1.17-2 3.29-2.46h-1.95c0 .12-.18.28-.54.58l-1.38 1zm7.31-3.52h-2.91a1.05 1.05 0 0 1 .07.39 3.16 3.16 0 0 1-.07.59l-1.33 5.16a3.2 3.2 0 0 1-.55 1.26h3.13a1 1 0 0 1-.07-.39 3.19 3.19 0 0 1 .07-.59l1.66-6.42z"/><path class="cls-4" d="M89.9 32.83a2.8 2.8 0 0 1-1 .11h-2.58a1.63 1.63 0 0 1-.49 0 .32.32 0 0 1-.22-.3 2 2 0 0 1 0-.3l.13-.5h4.47l.34-1.35a1.94 1.94 0 0 0 .08-.54 1.28 1.28 0 0 0-.42-1c-.3-.29-.65-.38-1.46-.38h-3.4a1.57 1.57 0 0 0-1.73 1.23L83 32.19a2.21 2.21 0 0 0-.06.44 1.35 1.35 0 0 0 .45 1 1.72 1.72 0 0 0 1.25.39h4.73l.48-1.16zm-3.84-2.07l.15-.62c.11-.44.21-.52.62-.52h.83c.26 0 .4.09.4.27a2 2 0 0 1 0 .26l-.17.62z"/><path class="cls-2" d="M25.16 15.82l-1.34-4a4.66 4.66 0 0 1-.29-1.49 1.69 1.69 0 0 1 .24-.94h-7A7.32 7.32 0 0 1 18 11.6l2.24 6.94-.77 3A6.36 6.36 0 0 1 18.43 24H25a2.1 2.1 0 0 1-.13-.77 6.3 6.3 0 0 1 .13-1.14l.9-3.47 5.63-6.77a13.58 13.58 0 0 1 2.33-2.48H30a3.68 3.68 0 0 1-1 1.82l-3.89 4.64zm20.98-2.57h-5.78a2.16 2.16 0 0 1 .13.77 6.26 6.26 0 0 1-.13 1.16L38.84 21c-.18.7-.44.9-1.16.9h-1.45c-.59 0-.86-.2-.86-.62a1.16 1.16 0 0 1 .07-.4l2-7.67h-5.8a1.77 1.77 0 0 1 .15.77 6.27 6.27 0 0 1-.13 1.16l-1.36 5.25a7.62 7.62 0 0 0-.15 1.05 2.71 2.71 0 0 0 1.1 2 3.39 3.39 0 0 0 2.13.53h4a1.46 1.46 0 0 0 1.56-.86L39 24h4.86a1.72 1.72 0 0 1-.15-.77 5.31 5.31 0 0 1 .15-1.16l2.29-8.83zm8.56-3.89h-5.77a2.09 2.09 0 0 1 .13.77 6.06 6.06 0 0 1-.13 1.16l-2.64 10.22A6.5 6.5 0 0 1 45.21 24h6.2a2 2 0 0 1-.13-.77 6.53 6.53 0 0 1 .13-1.16l.53-2 .79-.51L54.31 24H60a5.36 5.36 0 0 1-1.1-2L57 16.48l2.61-1.91a14.15 14.15 0 0 1 2-1.32h-4.33c-.2.51-.44.77-1.23 1.38L52.73 17l2-7.67z"/><path class="cls-4" d="M66 13.25a6.72 6.72 0 0 0-2.83.37 3 3 0 0 0-1.63 2.07l-1.23 4.72a3.87 3.87 0 0 0-.13.92 2.67 2.67 0 0 0 1 2.11c.59.51.92.57 2.61.57h6.5c1.69 0 2.42-.15 3.05-.64a3.3 3.3 0 0 0 1.25-2.15l1-4a4.13 4.13 0 0 0 .2-1.21 3 3 0 0 0-.57-1.78 2.9 2.9 0 0 0-2.68-1zm.66 3c.2-.77.46-.94 1.47-.94h1.32c.79 0 1.12.22 1.12.73a2.58 2.58 0 0 1-.15.77L69.34 21c-.2.79-.4.92-1.36.92h-1.57c-.7 0-1-.18-1-.59a2.82 2.82 0 0 1 .11-.64l1.14-4.42z"/><path class="cls-2" d="M83.62 13.25h-5.56a1.77 1.77 0 0 1 .15.77 5.12 5.12 0 0 1-.15 1.16l-1.63 6.33A6.36 6.36 0 0 1 75.36 24h6.2a2 2 0 0 1-.13-.77 6.27 6.27 0 0 1 .13-1.16l1.44-5.7c.22-.86.46-1 1.32-1h1.28a2.31 2.31 0 0 1 .53 0 .58.58 0 0 1 .51.53 3.49 3.49 0 0 1-.18.86l-1.23 4.77A6.35 6.35 0 0 1 84.15 24h6.2a2 2 0 0 1-.13-.77 6.3 6.3 0 0 1 .13-1.16l1.12-4.35a7.6 7.6 0 0 0 .26-1.72 3.12 3.12 0 0 0-.73-1.83 2.85 2.85 0 0 0-2.33-.92h-3.51c-1.1 0-1.34.13-1.8 1l.26-1z"/><path class="cls-3" d="M47.17 105.21c-2.38-1-6.94-2.67-6.94-2.67s-4.45-1.64-6-2.22c-2.4-.91-4-1.62-6.24-2.68a27.07 27.07 0 0 1-3.58-2c-.91-.56-3.42-2.52-3.42-2.52L18.56 91c1.74-.54 1.75-2.54 2.16-3.62s-2.55-.13-2.55-.13 2.68-1.48 3.35-2a16 16 0 0 0 3.62-4c1.07-1.88 1.74-1.61 2-2.68s-.94-1.21 0-2.68 2.28-2.68 2.55-3.62 1.34-1.88.13-2.28-1.61.27-1.61.27.4-.67 0-1.07-.94-.27-1.34-.27.67-1.07.8-1.48-1.21-.94-1.21-.94l.8-1.21a17 17 0 0 1-1.92-.84c-.77-.42 0-2.19-.41-3.38s-2.63-3.37-2.15-5.19a2.44 2.44 0 0 1 2.28-2 6.29 6.29 0 0 1 4.18-.07c2.16.77 4.32 1.74 6.2 1.53s4.25-3.69 4.67-5 2.44-3.14 5.51-4.46 8.23-3.49 13.45-3.14 6.58 1.77 8.33 2.54a28.79 28.79 0 0 0 6.17 2.18 7 7 0 0 1 4.65 3.67 3.79 3.79 0 0 0 1.52 1.7s5.19-.27 5.54 1.34c.55 2.48-1.38 2.45-1.52 3.85a7.71 7.71 0 0 1-1.16 3.58c-.89 1.16-3.14.35-3.4 1.16s.41 2.57.16 2.86a12.47 12.47 0 0 0-2.09 3.28c-.14.77-.7 1.67-.42 2.58A9.52 9.52 0 0 0 78 73.51a2.36 2.36 0 0 1-1.6-.35c-.56-.49-1.32.84-1.25 1.32s-1.19 2.58-1 3.63-.7 1.32 1.25 2.65a10 10 0 0 1 3.42 4.53c.07.56 1.81 2.3 3 3.07s2.72 1.39 3.14 1.81-.48.54 2.07 2a31.13 31.13 0 0 1-5.41 4 62.13 62.13 0 0 1-7.06 3.35c-3.54 1.52-12 4.49-13.76 5.19a81.42 81.42 0 0 0-7.35 3.58 49.4 49.4 0 0 0-6.28-3.08z"/><path class="cls-5" d="M47.81 87.48a3.41 3.41 0 0 1-2 2.55c-1.74.67-2.15.8-2.15.8a15.64 15.64 0 0 0 5-.13 10.48 10.48 0 0 0 2.68-1.07s-.8 2.41-1.88 2.55.67.27.67.27a15.88 15.88 0 0 0-1.13 1.6c-.27.54 1.07-1.21 1.88-1.34s.94.8.27 1.61a6.38 6.38 0 0 0-1.34 2.55 2.34 2.34 0 0 0 .4 2.41s.27-2.55.94-3.35a4.3 4.3 0 0 1 3-1.61c1.34-.13 1.21.27 1.48 1.48s.27-1.21 2.28-.8 3 .94 3 1.48-.54.27 1.88.67 3.76-.4 4.43-1.34S69 92.71 69 91.37s-10.73-6-11.4-9 .27-3.62-2.41-1.07-1.74 3.35-5.77 3.89-3.89 1.07-4.69 1.88 2.27-.4 3.08.41z"/><path class="cls-6" d="M68.24 63c1.34.36 6.26 2.24 6.8 2.86s1.43 1.79 1.34 2.41a3.55 3.55 0 0 1-1.25 2.59 13.61 13.61 0 0 0-4.56 6 36.31 36.31 0 0 0-2.24 6.89c-.09.89-.45 1.25-.18 1.61s.72.89.63 1.16.09 2.77-.09 3.58-1 2.15-1.16 3-1 3-2.24 3-2.33.36-3.4-1a20.85 20.85 0 0 0-3.76-3.76c-.63-.27-2-2.9-1.47-4.87a14.58 14.58 0 0 0 0-5.9c-.27-2 .72-8.32 2.15-10.73.66-1.11 1.48-.67 4.15-4.88a4.18 4.18 0 0 1 3.67-2.15z"/><path class="cls-7" d="M34.21 55.15a1.32 1.32 0 0 1-1.33.77 12.33 12.33 0 0 1-3-.79 27.44 27.44 0 0 0-2.91-.69c-1.2-.19-2.52-.48-3 .24s-1.24 1.18-.9 2l.87 2.12c.39 1 .64 1.76.24 2.23s-.94.46-.82 1.31-.13 2.66.73 3.66 1.17 1.4 1.78 1.6a4.79 4.79 0 0 0 1.29.23c.56.07-.17-.61.56.07s.77.59.94 1.2-.19.45.36 1.43 1.29.6 1.09-.45-.66-1.61-.19-2.32.91-1.27 1.68-1.21-.59-.89-.59-.89a4.56 4.56 0 0 1 1.71-1.15c.76-.16 2.06-.46 2.06-.46s-.69-1.14-1.35-1.1-.74-.9-.11-2.28 1.46-1.2 1.23-2.15-.73-1.05-.63-1.92a8.18 8.18 0 0 1 .29-1.45z"/><path class="cls-1" d="M31.37 55.71a18.35 18.35 0 0 0-3.46-1.05c-1.06-.08-3.17-.61-3.92.43s-.93 1.53-.71 2.19a25.25 25.25 0 0 1 1.07 3c.07.7-1 1.44-.65 2.17s0 3.1 1 3.78 1.33 1.85 2.36 1.51 1.5 1.23 1.66 1.81c0 .19-.87-1.77-1.69-1.44s-2.43-.35-3.22-1.93a6.51 6.51 0 0 1-.81-3.75c.13-.93 1.6-1.31 1.19-2.32S22.39 57 22.77 56a2.7 2.7 0 0 1 2.8-1.94 8.18 8.18 0 0 1 3.23.61c.69.23 2.57 1.04 2.57 1.04z"/><path class="cls-8" d="M32.45 62.59a2 2 0 0 0 .08-1.78c-.45-.91-1.59-2.64-2.27-2.87s-2.33-1.6-3.46-1.14-1.26.66-1.58 1.3-.84 1-.34 1.67.68 1 .56 1.38a12.16 12.16 0 0 0-.24 1.2l-.2.59s1.32-.54 1.43-.07-.52 1.6-.52 1.6v.67s.9-1 1.31-.54a4.54 4.54 0 0 1 1.09 1.6 6.58 6.58 0 0 1 .45 2 3.13 3.13 0 0 0 .18 1.17l.85-2a11.34 11.34 0 0 1 1.14-2.21c.36-.37 1.27-.81 1.42-1.53a3.42 3.42 0 0 0 .1-1.04z"/><path class="cls-9" d="M32.42 62.64a3.93 3.93 0 0 1-.54-1.78 2.92 2.92 0 0 0-1.13-2 .81.81 0 0 0-1.16.15c-.24.35-.86-.87-1.38-1.17s-1.19-.73-1.78 0-.85 1-.61 1.66.75.59.58 1.43a5.24 5.24 0 0 1-.51 1.43s.88-.68 1.16-.15a1.08 1.08 0 0 1-.13 1.4c-.41.42-.32.64-.32.64s1-.91 1.43-.26.8 1 .76 1.55.56.28.48 1a2 2 0 0 0 .15 1.16 21.08 21.08 0 0 1 2-3.36 5.5 5.5 0 0 0 1-1.7z"/><path class="cls-1" d="M31.65 62.41s-.75-3.34-1.34-3-.41 1.38-1 1-.72-1.77-1.37-1.87-1.88.16-1.39 1.05 1.23 1.81 1.63 2.5a9.11 9.11 0 0 1 .93 2.29c.24.88.93 1.08.54 2.21a3.71 3.71 0 0 0-.28 1.7 14.15 14.15 0 0 1 1.26-3.19c.62-.86 1.12-.82 1.12-1.43s-.1-1.26-.1-1.26zm53.59-7.19a1.81 1.81 0 0 0-1.34-1.85 5.5 5.5 0 0 0-2.17-.37c-.48 0-1.85.09-1.85.09a12.26 12.26 0 0 1 2.42.11c.69.18 2.14.32 2.38 1.14s.25 1.17 0 1.54a16.73 16.73 0 0 0-1.35 1.65c-.2.43.32 1.14-.07 1.51s-.7 2-1.49 2.16-1.26.87-1.83.43a.53.53 0 0 0-.44-.11l-.09.3a.46.46 0 0 1 .47.05 2.05 2.05 0 0 0 2.46-.5 4.36 4.36 0 0 0 1.38-2.17c.12-.62-.72-1.19-.24-1.73s1.77-1.47 1.76-2.25z"/><path class="cls-7" d="M84.79 54.12c-.13-.55-1-.67-1.83-.82a18.25 18.25 0 0 0-2-.21 12.13 12.13 0 0 1-1.24 0 16.56 16.56 0 0 1 .49 3c0 1.25.09 3.4-.36 4.38a9 9 0 0 0-.44 1.19c.61-.27 0 0 .37.08a3.23 3.23 0 0 0 .87.15c.43 0 .71-.17 1.48-.61s1-1.64 1.29-2.15-.07-.62-.23-1 .18-.83.65-1.36l1-1.15c.47-.48.08-.95-.05-1.5z"/><path class="cls-8" d="M83.23 56c-.06-.48-.1-.64-.71-1.18s-2 0-2.44-.05a8.6 8.6 0 0 1 .14 1.32 20 20 0 0 1-.22 3.84l.49-.28c.37-.21.71.63.71.63l.14-.42s-.15-.86 0-1.12.89.36.89.36v-.42s.1-.52.11-.81.2-.43.66-.74.29-.66.23-1.13z"/><path class="cls-9" d="M82.52 55.57c-.2-.61-.73-.49-1.12-.42s-1.06.71-1.13.43a.48.48 0 0 0-.1-.19 6 6 0 0 1 0 .69c0 .81 0 2-.06 3 .42-.26.82.5.82.5s.11-.12-.06-.48a.73.73 0 0 1 .23-.91c.3-.27.7.35.7.35a3.52 3.52 0 0 1 0-1c.08-.57.4-.44.68-.77s.25-.6.04-1.2z"/><path class="cls-1" d="M81.42 55.7c-.41-.08-.76.69-1.2.85v1.58l.27-.24c.41-.34 1.08-.76 1.59-1.22s-.23-.88-.66-.97z"/><path d="M76.59 52.74a10.78 10.78 0 0 0-.63-1 .71.71 0 0 0-.95-.32c-.36.14-.49.33-.78.36a3 3 0 0 1-.48.06c-.22 0 .11.08.43.15s.13.4.72.66a1.57 1.57 0 0 0 1.14.19c.33-.11.38-.14.55-.1z"/><path class="cls-5" d="M51.57 60.79a1 1 0 0 0 .3-.21c-.3.15-.48.26-.3.21zm16-8.87c1.56-.33 1.28-1.28 1.28-1.28l-3.78-2c.29-.39.77-.34 1.33-.48a9.9 9.9 0 0 1-2.78-.34 8.22 8.22 0 0 0-2.28-1.21c-2.28-.94-3.22-2.15-4.56-2.15S54 45.63 53 46.7a7.82 7.82 0 0 0-1.34 2.15 11 11 0 0 1-2 3c-1.07.94-2.15 1.74-2.15 1.74a22.9 22.9 0 0 1 2.82-.94c.4 0 .54 1.74 0 2s-.67 1.21-.67 1.21a4.73 4.73 0 0 1 1.88-1.61c.94-.27.8 1.21.4 1.88s-.13 1.34-.13 2.15.13-1.21.54-1.74 1.07.27 1.07 1.34a5 5 0 0 1-1.58 2.74 4 4 0 0 1 1.31-.46c.54 0 .8 1.74.54 2.15a13.09 13.09 0 0 0-.94 2.28c-.27.8.54 0 1.61-.4s.8 1.34.54 2.15a3.82 3.82 0 0 1-1.21 1.88c-.54.4.94.13.94.13s.94.67 1.21.13-.27.94-.67 1.48A5.38 5.38 0 0 1 53 71.65c-.67.13.94-.13 1.74 0s.13 1.34-.27 2a6.68 6.68 0 0 1-2.28 2c-.8.4 2.41-1.07 3.49-.4.22.14.41 0 .58-.23a1.4 1.4 0 0 0 .66-.36c.72-.63 1.34-3.93 1.43-4.74s2.15-7.24 6.8-7.87 1-1.61.54-2.77a9.2 9.2 0 0 1-.63-4.38c.31-1.23 1.25-2.72 2.52-2.99z"/><path class="cls-8" d="M63 45.65s4.47 1.88 5.54 3.13a10.7 10.7 0 0 0 2.24 2 1.68 1.68 0 0 1 0-2c.72-1.07 1.76-.3 3.55-.3s3.67 3 3.67 3-2-3.67-4.38-3.58-3-.78-4-.69A18.34 18.34 0 0 1 63 45.65z"/><path class="cls-10" d="M72.92 73.33a22 22 0 0 0-3.26 7.26c-.8 3.85-1.07 4.92-.72 5.54a5.85 5.85 0 0 1 .36 3.13 8.52 8.52 0 0 1-.89 2.5c-.54 1.16-.18 2.5-.63 3.22s.63-1.43 1.34-2.15.63-2 2.32-3.31 1.61-1.34 2.68-1.43-.63.18-1.79-2.33-2.5-5.1-1.34-7.33 1.25-3 2.33-3.85 1.25-1.43 1.88-2 1.07-.36 1.34-.09-.54-.67-.54-1.29-.72 0-1.34.45a16.7 16.7 0 0 0-1.74 1.68z"/><path class="cls-11" d="M58.85 71.76a27 27 0 0 0-1 5.87c0 2.56.45 4.23.3 5.75s-1.07 3.93-.83 5.22a3.61 3.61 0 0 0 1.25 2.56 2.34 2.34 0 0 1 .89 1 3.46 3.46 0 0 0-.89-1.49 3.27 3.27 0 0 1-1.1-2.89c.12-1.43.92-3.31 1-4.23s-.36-3.28-.36-5.34a28.44 28.44 0 0 1 .51-4.89c.14-.84.23-1.56.23-1.56zm14.75-.43a15.83 15.83 0 0 0-3.58 5c-.89 2.5-1.3 4-1.65 5a15.53 15.53 0 0 0-.8 3.71 4.45 4.45 0 0 0 .45 1.3 2.75 2.75 0 0 1 .18.85 1.56 1.56 0 0 0 .13-.94 2.61 2.61 0 0 1-.49-1.74 28.23 28.23 0 0 1 1-4 20.49 20.49 0 0 1 1.92-5.19 45.85 45.85 0 0 1 2.84-3.99z"/><path class="cls-11" d="M58.73 89.89a9 9 0 0 1 1.37 2 10.56 10.56 0 0 0 2.09 2.68c.78.83 1.25.48 2.27.6a2 2 0 0 0 2.09-1.55 21.74 21.74 0 0 1 1.13-2.44s-1 1.64-2.09 1.91-1.91 1-2.8-.06a17.13 17.13 0 0 0-4.06-3.14z"/><path class="cls-1" d="M67.73 82.73s-1 3.56-.52 4.33a7 7 0 0 0 .86 1.14l-.76 1.57-1.5.59-1.69-.55-1.81-.76-1.86-.86.84-.76s-1.32 1-1.22-1.13-1.7-3-1.34-5.48c0-.08 1.25 4.26 4.65 4.71 2.62.35 4.35-2.8 4.35-2.8z"/><path class="cls-1" d="M59.58 89.48c.26.45 1.27.69 2.19 1.79s1.05 1.21 2.3 1.25 1.81-1.21 2.41-1.32a2.31 2.31 0 0 0 1.68-1.1 2.23 2.23 0 0 0-.13-.54l-4.45-.38-3.51-1s-.63-.1-.63-.37a2.68 2.68 0 0 0 .14 1.67z"/><path class="cls-3" d="M61.77 89.22l.15-.29-.15.27z"/><path class="cls-3" d="M61.93 88.62c0-.06.11-.07.22-.07a1.79 1.79 0 0 0-.15-.85 3.2 3.2 0 0 1-.13-1.12 8 8 0 0 0-.4-1.43c0-.22-.31-.36-.67-.31s-.29.49-.36 1c-.18 1.53-.9 1.93-.9 1.93a8 8 0 0 1 .72 1.11c.18.4.49.89.85.94a.64.64 0 0 0 .63-.38 3.29 3.29 0 0 1 0-.36 4 4 0 0 0 .19-.46z"/><path class="cls-12" d="M61.93 88.62a4 4 0 0 1-.26.48 3.29 3.29 0 0 0 0 .36v-.06l.1-.18.15-.27a1.82 1.82 0 0 0 .14-.37c-.06-.03-.06-.02-.13.04z"/><path class="cls-3" d="M70.43 86.4c0-.13-.45 0-.76.22A10 10 0 0 1 68 87.78a3.8 3.8 0 0 1-1.79.13 1.53 1.53 0 0 0 0 1.12 1 1 0 0 1 .15.67.14.14 0 0 1 .09.19l-.16.35-.07.08a1.12 1.12 0 0 0 0 .64c0 .13.89 0 1.16-.19a13 13 0 0 0 1.43-1.3 16.42 16.42 0 0 0 1.52-2.28 1.06 1.06 0 0 0 .1-.79z"/><path class="cls-12" d="M66.46 89.9a.14.14 0 0 0-.09-.19 4.67 4.67 0 0 1-.14.62l.07-.08z"/><path class="cls-3" d="M65.59 89.74a1.7 1.7 0 0 1 .56 0c.22 0 .26.13.22.21l-.16.35s-.19.26-.34.29-.24.21-.35 0l-.11-.19s.13-.45.13-.5a.35.35 0 0 1 .05-.16zm-2.32-.56h.07a.21.21 0 0 0 0-.09.69.69 0 0 0-.58-.4c-.27 0-.63-.1-.67 0a4 4 0 0 1-.26.48s0 .83.3.92a.83.83 0 0 0 .85-.22l.05-.08a.66.66 0 0 1 0-.1 2.46 2.46 0 0 1 .24-.51z"/><path class="cls-12" d="M63.34 89.15h-.07a2.46 2.46 0 0 0-.27.51.66.66 0 0 0 0 .1c.15-.17.36-.42.34-.61z"/><path class="cls-3" d="M65.35 89.77a3.45 3.45 0 0 1-.37 0v.1a3 3 0 0 1-.26.51c0 .07 0 .17.05.24s.19 0 .38 0 .18-.14.26-.24a.93.93 0 0 0 .18-.38.19.19 0 0 0-.24-.23z"/><path class="cls-12" d="M64.92 89.83v-.1h-.07l-.24.56a3 3 0 0 0 .31-.46z"/><path class="cls-5" d="M64.12 90c.1-.08.1-.19.16-.29a.84.84 0 0 0 .1-.24 2.25 2.25 0 0 0-.3.58.45.45 0 0 0 0 .13s-.02-.09.04-.18z"/><path class="cls-3" d="M64.66 89.51c-.28-.06-.33-.12-.41-.06a.86.86 0 0 1-.1.24c-.07.1-.07.21-.16.29s0 .11-.09.15a.31.31 0 0 0 .16.28.38.38 0 0 0 .49-.11 3.09 3.09 0 0 0 .26-.52c.07-.07.19-.2-.15-.27z"/><path class="cls-12" d="M64 90c.1-.08.1-.2.16-.29a.86.86 0 0 0 .1-.24 2.29 2.29 0 0 0-.31.59.46.46 0 0 0 0 .13S64 90.1 64 90z"/><path class="cls-3" d="M63.37 89.18a.67.67 0 0 1 .58 0 1.49 1.49 0 0 1 .28.23.87.87 0 0 1-.1.25c-.07.1-.07.21-.16.3s0 .16-.25.21-.41.26-.49 0a1.84 1.84 0 0 1-.13-.53 2.54 2.54 0 0 1 .27-.46z"/><path class="cls-13" d="M65.47 90.15a.9.9 0 0 1-.12.21v.07h.17l-.06-.1zm-5.65-1.94l-.16-.21z"/><path class="cls-3" d="M65.52 90l-.05.21a.74.74 0 0 0 .05-.21z"/><path class="cls-5" d="M59.53 87.79l.13.18z"/><path class="cls-8" d="M61.73 89a.64.64 0 0 1-.16.12c-.15.09-.42 0-.85-.08-.26 0-.65-.49-.91-.84a4.94 4.94 0 0 1 .42.69c.18.4.49.89.85.94a.64.64 0 0 0 .63-.38 3.29 3.29 0 0 1 0-.36zm6.86.7A5.8 5.8 0 0 0 70 87.37s-.51.68-1 1.21a9.26 9.26 0 0 1-1.91 1.77.44.44 0 0 1-.43-.17 1.92 1.92 0 0 1-.42.23h-.09a1 1 0 0 0 0 .56c0 .13.83 0 1.13-.17a10.56 10.56 0 0 0 1.31-1.1zm-2.82.81c-.16.09-.21 0-.21 0h-.09l.05.09c.11.19.21 0 .35 0a.57.57 0 0 0 .24-.17h-.05a3.23 3.23 0 0 1-.29.08zm-3.66-.42a.83.83 0 0 0 .85-.22 2.07 2.07 0 0 1-.35.1.88.88 0 0 1-.54-.08c-.1 0-.18-.23-.23-.38.04.23.16.49.27.58zm2.98.51a.28.28 0 0 0 .21-.17h-.09a1 1 0 0 1-.41.11c-.1 0-.12-.17-.12-.17v.2c0 .06.22.08.41.03zm-1.15-.4a.31.31 0 0 0 .16.28.41.41 0 0 0 .45-.06h-.19c-.16 0-.26 0-.28-.14s-.06-.08-.12-.12zm-.22-.02a.35.35 0 0 0 .14-.05h-.16c-.08 0-.13.14-.33.13a.32.32 0 0 1-.21-.15l.06.17c.09.17.25-.05.5-.1z"/><path class="cls-1" d="M59.55 71.31s4.06-6.79 5.19-7.52 1-1 3.19-.68 6.8 2 7.39 3.26.21 1.66 0 2.1-2.08 2.35-3.22 3.7a19.91 19.91 0 0 0-2.87 4.41 7.62 7.62 0 0 0-.35 1.19 16.07 16.07 0 0 1 .76-4.95c.84-2.57 1.73-3.24.92-4.08s-2.43-.59-3-1.27-1-1.32-2.78-.68-5 4.41-5 4.41z"/><path class="cls-3" d="M66.35 65.37a6.51 6.51 0 0 0 0-1.28c0-.16-.16-.26-.75 0a4.45 4.45 0 0 0-.73.46 11 11 0 0 0 .13 2.62c.22.36.58.49.8.22a9.74 9.74 0 0 0 .78-2.39l.14-.57c-.18.57-.39 1.1-.37.94z"/><path class="cls-8" d="M66.13 63.06a3.44 3.44 0 0 0-1.3.89v.64a4.45 4.45 0 0 1 .73-.46c.59-.3.71-.2.75 0a6.51 6.51 0 0 1 0 1.28c0 .17.18-.39.37-.91.18-.74.35-1.4.35-1.4a1.23 1.23 0 0 0-.9-.04z"/><path class="cls-13" d="M68.47 64v-.06.09a.29.29 0 0 0 0 .06v-.19zm1.14.14l.09-.18z"/><path class="cls-3" d="M68.47 63.9a1.15 1.15 0 0 1 0-.15c0-.12 0-.23-.54-.22a1.22 1.22 0 0 0-.79.28l-.14.31c-.05.14 0 .36.37.36a2.8 2.8 0 0 0 .94-.08.61.61 0 0 0 .08-.22.94.94 0 0 1 0-.13.29.29 0 0 1 0-.06zm5.67 2.55zm-.14-.34c0-.13.23-.25-.18-.52a5.61 5.61 0 0 0-1.34-.72c-.25 0-.27.17-.3.08a.85.85 0 0 0-.39-.45 1.53 1.53 0 0 0-.77-.1c-.27 0-.41.49-.41.49s0-.05.05-.41-.57-.54-.75-.61a.2.2 0 0 0-.22.09l-.09.18.06-.15a.61.61 0 0 0 0 .09.41.41 0 0 0 0-.25c0-.15-.7-.23-.88-.25s-.2.16-.24.27v.19a.34.34 0 0 0 .3.3 5.65 5.65 0 0 1 .62.06h.13a.51.51 0 0 0 0 .19c0 .17 0 .32.37.41s.56.2.69.1v.11a2.5 2.5 0 0 0 .47.4 1.11 1.11 0 0 0 1 0L72 65.5a.49.49 0 0 0 0 .13.36.36 0 0 0 0 .15 1.16 1.16 0 0 0 1 .69c.39 0 .9.14 1.07 0l-.07-.06a.6.6 0 0 1 0-.3z"/><path class="cls-8" d="M74.11 66.5zm-5.61-2.69v.15-.19zm0-.06a1.15 1.15 0 0 0 0 .15v-.09.1c0-.11.12-.28.24-.27s.84.09.88.25a.41.41 0 0 1 0 .25.61.61 0 0 1 0-.09l.12-.24-.07-.05-.13-.1a8.62 8.62 0 0 0-.88-.18h-.07c-.27 0-.52-.06-.72-.08s-.37.09-.54.11l-.07.09-.13.29a1.22 1.22 0 0 1 .79-.28c.56-.09.6.02.58.14zm5.65 2.67a5.12 5.12 0 0 1 .34-.67L73 65a15.18 15.18 0 0 0-2.55-1.1l-.59-.19-.15.29a.2.2 0 0 1 .22-.09c.18.06.8.25.75.61s-.05.41-.05.41.14-.46.41-.49a1.53 1.53 0 0 1 .77.1.85.85 0 0 1 .39.45c0 .09.05-.1.3-.08a5.61 5.61 0 0 1 1.34.72c.41.27.22.39.18.52a.6.6 0 0 0 0 .3l.08.08z"/><path class="cls-3" d="M75.66 68.41a.83.83 0 0 0-.4-.54c-.31-.13-.4.72-.4.72a3.69 3.69 0 0 1-.09-.8.9.9 0 0 0-.27-.67v1.43c0 .45-.07 1.53.32 1.78.17.11.53-.4.62-.8s.23-.81.29-1.22z"/><path class="cls-8" d="M74.76 67.79a3.69 3.69 0 0 0 .09.8s.09-.85.4-.72a.83.83 0 0 1 .4.54l.06-.11a2.07 2.07 0 0 0 0-.3 3.14 3.14 0 0 0-.54-1.61 2.91 2.91 0 0 0-.67-.63v1.34a.9.9 0 0 1 .26.69z"/><path class="cls-6" d="M71 63.22s.67-2.15.25-2.59a2.85 2.85 0 0 0-1.87-.81 5 5 0 0 1-3.13-2.59c-.36-1.17-.17-3.32.36-3.63a10 10 0 0 0 1.62-1c.53-.45.89-1.76 2.57-1.59a10.85 10.85 0 0 1 4.58 1.65 9.15 9.15 0 0 1 2.87 2.93 6.31 6.31 0 0 1 .22 3.68c-.45 1-.78 1.81-1.81 2a7 7 0 0 1-3.21-.08c-1.09-.31-1.53-.47-1.67-.33a12.62 12.62 0 0 0-.61 2.23c0 .19-.17.13-.17.13z"/><path class="cls-8" d="M32.47 76.8s-.43 3-1.23 3.8A11.13 11.13 0 0 1 29 82.06a9 9 0 0 1 2.51-.23c.66.17 1.43 1.24 1.62 1.55a3.43 3.43 0 0 1 .11 2.31 2.3 2.3 0 0 0-.24 1.14s1.69-1.14 2.25-.91a1.63 1.63 0 0 1 .75 1.77c-.23.55 2.2 0 3.29 1.54a11.33 11.33 0 0 0 3.65 2.86S39 88 38.22 87.21s-2.89-2.75-3.7-4.36-.36-2-.95-3.49-1.1-2.56-1.1-2.56z"/><path class="cls-10" d="M53.42 48.11s2.05-2.47 4.65-1.79 2.6 1.79 4.65 2.47a24.56 24.56 0 0 1 5.15 3s-2.9.39-2.81 4.62a36.88 36.88 0 0 0 .26 3.88s-.53-5.25-2.88-7c-2.93-2.18-3.83-1.1-4.79-.14s-1 .14-1.64-.82-2.46-.41-2.74 0 1.1-1.51.82-2.2-1.51-.41-1.51-.41z"/><path d="M54.16 48.52s.84-.52 1.54-.77a1.47 1.47 0 0 1 1.56.08c.43.3.5.55.9.7a5.4 5.4 0 0 0 .65.27c.32.08-.2 0-.71 0s-.43.35-1.45.35a3.28 3.28 0 0 1-1.76-.3 1.79 1.79 0 0 0-.73-.33z"/><path class="cls-1" d="M74.62 54.65a2.07 2.07 0 0 0-.54 1.84c.13.58-.09 1.12 1 1.61a2 2 0 0 0 1.93 0c1-.37 1 0 1-1.21s-.13-1.08-.94-1.75-.85-1.08-1.43-.94a2.78 2.78 0 0 0-1.02.45zm-3.01-1.38c.94.81.81.76.76 1.34a2.24 2.24 0 0 1-.58 1.57c-.4.31-.22.76-1.08.45a3.75 3.75 0 0 0-1.66-.31c-.81 0-1.88-.22-1.84-1s.22-1.61 1.3-1.7 1-.22 1.84-.31a4.52 4.52 0 0 1 1.26-.04z"/><path d="M67.5 54.73s.12-.8.63-.84a8.91 8.91 0 0 0 1.72-.25 2.92 2.92 0 0 1 1.37-.16 1.37 1.37 0 0 1 .9.7 3.91 3.91 0 0 1-.12 1.41 1.41 1.41 0 0 1-.43.57c-.18.2-.06.25-.37.27s-.49-.25-.94-.33.06 0 .64-.37.86-.66.47-1.17-.76 0-1.41 0a11.25 11.25 0 0 0-1.8-.14.83.83 0 0 0-.55.61c-.07.31-.11-.3-.11-.3zm6.84.82s.5-.87 1.1-.93.58.33 1.06.58a3.71 3.71 0 0 1 1.16.74 5.1 5.1 0 0 1 .12 1.41c0 .29 0 .35-.41.41s-.5.29-1 .31-.81 0-1-.14-.48-.19-.62-.46.31.19.85.14 1.35-.06 1.41-.54-.31-.6-1-1-.91-.66-1.26-.43a1.89 1.89 0 0 0-.5.43 1.72 1.72 0 0 1 .09-.52z"/><path class="cls-3" d="M88.42 89.43a1.05 1.05 0 1 1-1-1 1 1 0 0 1 1 1zm-1.84 0a.8.8 0 0 0 .8.82.78.78 0 0 0 .78-.81.79.79 0 1 0-1.58 0zm.63.53H87v-1a2.78 2.78 0 0 1 .39 0 .54.54 0 0 1 .35.08.26.26 0 0 1 .11.22.26.26 0 0 1-.21.24c.1 0 .15.11.18.25a.91.91 0 0 0 .08.25h-.25a.81.81 0 0 1-.08-.25c0-.11-.08-.16-.21-.16h-.11zm0-.57h.11c.13 0 .24 0 .24-.15s-.07-.16-.22-.16h-.13z"/></svg>