<svg id="Layer_1" data-name="Layer 1" xmlns="http://www.w3.org/2000/svg" viewBox="0 0 100 100"><defs><style>.cls-1{fill:#fff;}</style></defs><title>calculators_circle</title><path class="cls-1" d="M66.55,59.45H52.35a1,1,0,0,0-1,1v14.2a1,1,0,0,0,1,1h14.2a1,1,0,0,0,1-1V60.45A1,1,0,0,0,66.55,59.45Zm-3,12.15H55.4V68.9h8.1Zm0-5.4H55.4V63.5h8.1Z"/><path class="cls-1" d="M66.55,40.55H52.35a1,1,0,0,0-1,.84,1,1,0,0,0,0,.16v14.2a1,1,0,0,0,1,1h14.2a1,1,0,0,0,1-1V41.55a1,1,0,0,0,0-.16A1,1,0,0,0,66.55,40.55ZM63.5,50H55.4V47.3h8.1Z"/><path class="cls-1" d="M47.65,40.55H33.45a1,1,0,0,0-1,.84.94.94,0,0,0,0,.16v14.2a1,1,0,0,0,1,1h14.2a1,1,0,0,0,1-1V41.55a1,1,0,0,0,0-.16A1,1,0,0,0,47.65,40.55ZM44.6,50H41.9v2.7H39.2V50H36.5V47.3h2.7V44.6h2.7v2.7h2.7Z"/><path class="cls-1" d="M47.65,59.45H33.45a1,1,0,0,0-1,1v14.2a1,1,0,0,0,1,1h14.2a1,1,0,0,0,1-1V60.45A1,1,0,0,0,47.65,59.45Zm-3.28,10-1.91,1.91-1.91-1.91-1.91,1.91-1.91-1.91,1.91-1.91-1.91-1.91,1.91-1.91,1.91,1.91,1.91-1.91,1.91,1.91-1.91,1.91Z"/><path class="cls-1" d="M50,0a50,50,0,1,0,50,50A50,50,0,0,0,50,0ZM71.6,30V76.69a3,3,0,0,1-3,3H31.4a3,3,0,0,1-3-3V38.39h0V23.31a3,3,0,0,1,3-3H68.6a3,3,0,0,1,3,3Z"/><path class="cls-1" d="M67.55,25.34a1,1,0,0,0-1-1H33.44a1,1,0,0,0-1,1v11a1,1,0,0,0,1,1H66.56a1,1,0,0,0,1-1v-2.9h0Z"/></svg>