<svg id="Layer_1" data-name="Layer 1" xmlns="http://www.w3.org/2000/svg" viewBox="0 0 100 100"><defs><style>.cls-1{fill:#fff;}</style></defs><title>customer_service_circle</title><path class="cls-1" d="M50,0a50,50,0,1,0,50,50A50,50,0,0,0,50,0ZM42.46,65.22A29.41,29.41,0,0,0,41,70.41a13.64,13.64,0,0,1-3,6,13.44,13.44,0,0,1-5.36,3c-1.72.42-3.53.36-4-.14l-1-1A22.78,22.78,0,0,1,30.46,75a23.69,23.69,0,0,0,3.06-3.41,5.51,5.51,0,0,0-.8-1.75,7.79,7.79,0,0,0-2.2-2.2,5.56,5.56,0,0,0-1.75-.8,23.86,23.86,0,0,0-3.41,3.06,23.37,23.37,0,0,1-3.17,2.88l-1-1c-.5-.5-.56-2.31-.14-4a13.46,13.46,0,0,1,3-5.36,13.64,13.64,0,0,1,6-3,29.31,29.31,0,0,0,5.19-1.46,73.06,73.06,0,0,0,6.93-6.25q1.76,1.71,3.85,3.79c1,1,1.92,1.94,2.8,2.84A72.85,72.85,0,0,0,42.46,65.22Zm36.39,6.52-1,1h0a26,26,0,0,1-3.16-2.89,23.77,23.77,0,0,0-3.41-3.06h0a5.82,5.82,0,0,0-1.74.8,7.79,7.79,0,0,0-2.2,2.2,5.55,5.55,0,0,0-.8,1.76A23.89,23.89,0,0,0,69.53,75a23.41,23.41,0,0,1,2.88,3.17l-1,1a2.84,2.84,0,0,1-1.8.42,9.72,9.72,0,0,1-2.23-.28,13.48,13.48,0,0,1-5.36-3,13.61,13.61,0,0,1-3-5.95,29.33,29.33,0,0,0-1.46-5.19c-.39-.81-5-5.8-10.33-11.08S36.94,44.21,36.14,43.82a19.65,19.65,0,0,0-5.59-.87,11.45,11.45,0,0,1-6.67-2.7,15.4,15.4,0,0,1-3.42-6.12c-.48-2-.6-3.84-.27-4.17l.8-.8h0a24,24,0,0,1,3.64,3.25,21.8,21.8,0,0,0,3.95,3.43h0A9.39,9.39,0,0,0,31,34.54a14.22,14.22,0,0,0,3.18-3.18A9.47,9.47,0,0,0,35.47,29,21.49,21.49,0,0,0,32,25a20.84,20.84,0,0,1-3.25-3.66l.8-.8a1.6,1.6,0,0,1,1-.18,14.57,14.57,0,0,1,3.21.46,15.38,15.38,0,0,1,6.12,3.42,11.45,11.45,0,0,1,2.7,6.67,19.49,19.49,0,0,0,.87,5.59c.39.81,5,5.8,10.33,11.08S64,57.51,64.86,57.9A29.64,29.64,0,0,0,70,59.37a13.6,13.6,0,0,1,6,3,13.43,13.43,0,0,1,3,5.36C79.41,69.43,79.35,71.24,78.85,71.74Zm.69-37.62a15.37,15.37,0,0,1-3.42,6.12,11.43,11.43,0,0,1-6.67,2.7,19.65,19.65,0,0,0-5.59.87,60.75,60.75,0,0,0-5.94,5.29c-.91-.88-1.85-1.81-2.86-2.82-1.39-1.39-2.66-2.69-3.8-3.86a60.58,60.58,0,0,0,5.28-5.92,19.42,19.42,0,0,0,.87-5.59,11.43,11.43,0,0,1,2.7-6.67,15.43,15.43,0,0,1,6.12-3.42c2-.48,3.84-.6,4.17-.27l.8.8A21,21,0,0,1,68,25,21.62,21.62,0,0,0,64.53,29a9.38,9.38,0,0,0,1.3,2.4A14.14,14.14,0,0,0,69,34.53a9.44,9.44,0,0,0,2.39,1.3,21.5,21.5,0,0,0,3.95-3.43A21.08,21.08,0,0,1,79,29.15l.81.8C80.14,30.28,80,32.16,79.54,34.12Z"/></svg>