<?xml version="1.0" encoding="utf-8"?>
<!-- Generator: Adobe Illustrator 21.0.0, SVG Export Plug-In . SVG Version: 6.00 Build 0)  -->
<svg version="1.1" id="Layer_1" xmlns="http://www.w3.org/2000/svg" xmlns:xlink="http://www.w3.org/1999/xlink" x="0px" y="0px"
	 viewBox="0 0 130 79" style="enable-background:new 0 0 130 79;" xml:space="preserve">
<style type="text/css">
	.st0{fill:#FFFFFF;}
	.st1{fill:#0E3B61;}
	.st2{fill:#072743;}
	.st3{fill:#072843;}
</style>
<title>Group 3</title>
<desc>Created with Sketch.</desc>
<g id="Clip-2">
</g>
<g>
	<path class="st0" d="M59.7,0.7c0.3,0.4,0.2,1,0.1,1.5c-0.2,3.6-0.4,7.8-0.6,11.4c-1.1,0.2-2.1,0.5-3.3,0.6
		c-0.2,1.2-0.1,2.6-0.2,3.9c11.5-1.2,22.7-3.1,34.5-3.6c-1.4,4.1,1.9,8,2.7,11.4c0.1-2.5,0.7-5.2,0.6-7.6c-0.1-1.6-1.1-2.6-1.9-3.6
		c-0.2-0.2-0.6-0.4-0.4-0.8c2.6-0.3,5.5-0.5,8.5-0.6c3.6-0.2,7.8-0.9,10.3,0.7c0.1-0.2-0.3-0.6-0.2-0.9c5.6,0,12.3-1.5,15.9,1.3
		c0.2,0.2,0.4,0.5,0.6,0.7c1.7,1.6,3.2,3.8,3.2,7c0,2.3-0.4,4.8-1.2,6.6c-1.1,2.2-3.1,3.8-4.8,5.4c0.5,0.1,0.8-0.1,1.2-0.1
		c0.1,0.3-0.4,0.5-0.6,0.6c-3.8,3.3-7.8,6.9-11.4,10.3c-6.4-0.4-13.3,0.6-19.1,1.4c-16.3,2.3-31.1,6.5-42.9,12.9
		c0.1-2.1,0.3-4.3,0.6-6.1c-2.5,1.1-5.1,2.6-7.7,3.8c0.6-3.9,0.8-8.8,0.2-12.9c-0.8,3.9-1.6,8.4-1.8,12.6c0,0.3,0.2,0.8,0.1,1.2
		c-0.2,0.6-2.2,1.5-2.8,1.9c-2.9,1.9-5.6,3.8-8.6,5.6c-0.5-1.9-1-3.7-1.4-5.6c-0.7,2.5-1.2,5.1-1.8,7.7c-0.2,0.8-0.3,1.9-0.6,2.5
		c-0.4,0.7-1.6,1.5-2.4,2.1c-2.4,2.1-4.9,4.1-7.3,6c-2-11.9-3.7-24.3-6.7-35.5c-0.6-2.4-1.3-5.1-2.2-7.6c-0.3-0.9-0.5-1.8-0.9-2.4
		c-0.2-0.3-0.5-0.5-0.9-0.8c-0.3-0.3-0.5-0.6-0.8-0.9c-1.3-1-3.2-1.5-4.5-2.3c4-1,8.4-1.7,12.5-2.6c1-2.5,0.4-7.3,0.3-10.7
		c-0.2-3.8,0-7.3-0.8-10.1c5.1-0.7,11.1-3,15.9-0.9c0.5,0.2,1.1,0.8,1.6,0.9c0.8,0.1,2.4-0.4,3.6-0.6C38,4,41.7,3.5,45.1,2.9
		c5-0.8,9.5-1.2,14.1-2.2C59.4,0.7,59.4,0.6,59.7,0.7"/>
	<path class="st1" d="M16.9,78.9L16.7,78c-0.4-2.3-0.8-4.6-1.1-6.9C14,61.5,12.4,51.6,10,42.5c-0.6-2.3-1.3-5.1-2.2-7.5
		c-0.1-0.3-0.2-0.6-0.3-0.9c-0.2-0.5-0.3-1-0.5-1.3c-0.1-0.1-0.2-0.3-0.4-0.4c-0.1-0.1-0.2-0.2-0.3-0.3c-0.2-0.1-0.3-0.3-0.4-0.5
		c-0.1-0.1-0.2-0.3-0.3-0.4c-0.7-0.6-1.7-1-2.6-1.4c-0.6-0.3-1.2-0.5-1.8-0.8L0,28.4l1.2-0.3c2.3-0.6,4.8-1,7.2-1.5
		c1.7-0.3,3.4-0.6,5-1c0.7-2,0.5-5.3,0.3-8.2c0-0.7-0.1-1.4-0.1-2c0-1-0.1-2-0.1-2.9c-0.1-2.6-0.1-5.1-0.7-7.1l-0.2-0.6l0.6-0.1
		c1.2-0.2,2.5-0.4,3.9-0.7c4.2-0.9,8.5-1.8,12.3-0.1c0.2,0.1,0.5,0.3,0.7,0.4c0.3,0.2,0.6,0.4,0.8,0.4c0.5,0.1,1.4-0.1,2.2-0.3
		c0.4-0.1,0.9-0.2,1.3-0.3c1.8-0.3,3.7-0.6,5.6-0.9c1.7-0.3,3.4-0.5,5-0.8c1.7-0.3,3.4-0.5,5.1-0.7c3.1-0.4,6-0.8,9-1.5
		c0.2-0.1,0.4-0.1,0.7-0.1l0.2,0l0.1,0.2c0.4,0.5,0.3,1.1,0.3,1.5c0,0.1,0,0.2,0,0.3C60.2,5.8,60,10,59.8,13.6l0,0.4l-0.4,0.1
		c-0.4,0.1-0.7,0.1-1.1,0.2c-0.6,0.1-1.2,0.2-1.8,0.3c0,0.5-0.1,1.1-0.1,1.6c0,0.4,0,0.8,0,1.2c3.9-0.4,7.9-0.9,11.7-1.4
		c7.2-0.9,14.6-1.8,22.2-2.2l0.4,0c0-0.1,0-0.1,0.1-0.2l0.1-0.3l0.3,0c2.4-0.3,5.2-0.5,8.6-0.6c0.7,0,1.3-0.1,2-0.1
		c2.7-0.2,5.4-0.4,7.5,0.4c0,0,0,0,0-0.1l0.1-0.4l0.4,0c1.4,0,2.9-0.1,4.3-0.2c4.5-0.3,9.1-0.6,11.9,1.6c0.2,0.1,0.3,0.3,0.4,0.4
		c0.1,0.1,0.2,0.2,0.3,0.3c1.5,1.4,3.4,3.7,3.3,7.4c0,1.6-0.2,4.7-1.3,6.8c-0.9,1.9-2.4,3.3-3.9,4.6l0.2,0l0.1,0.4
		c0.1,0.6-0.4,0.9-0.6,1c-0.1,0-0.1,0.1-0.1,0.1c-4.3,3.7-8.1,7.2-11.4,10.3l-0.2,0.2l-0.2,0c-6.3-0.4-13.3,0.6-19,1.3
		c-17,2.4-31.4,6.7-42.7,12.9L50.2,60l0-0.9c0.1-1.8,0.2-3.6,0.5-5.3c-0.9,0.4-1.8,0.9-2.8,1.4c-1.3,0.7-2.7,1.4-4,2l-0.8,0.4
		l0.1-0.9c0.5-3.2,0.6-6.4,0.5-9.2c-0.5,2.9-1,6.1-1.1,9c0,0.1,0,0.2,0,0.3c0.1,0.3,0.1,0.7,0,1c-0.2,0.6-1.1,1.1-2.3,1.8
		c-0.3,0.2-0.5,0.3-0.7,0.4L38,61.1c-2.4,1.6-4.6,3.1-7,4.5l-0.6,0.3l-0.2-0.7c-0.2-0.8-0.4-1.6-0.6-2.4c-0.1-0.4-0.2-0.8-0.3-1.3
		c-0.3,1.3-0.6,2.6-0.9,3.9L28,67.4c0,0.2-0.1,0.4-0.1,0.6c-0.1,0.7-0.3,1.4-0.6,2c-0.3,0.6-1.1,1.2-1.8,1.8
		c-0.2,0.2-0.5,0.4-0.7,0.5c-2.5,2.1-5.1,4.2-7.3,6L16.9,78.9z M2.8,28.7c0.1,0.1,0.3,0.1,0.4,0.2c1,0.4,2,0.9,2.9,1.5
		c0.2,0.1,0.3,0.3,0.5,0.5c0.1,0.1,0.2,0.3,0.3,0.4c0.1,0.1,0.2,0.2,0.3,0.2c0.2,0.2,0.5,0.4,0.6,0.6c0.3,0.4,0.5,1,0.6,1.6
		c0.1,0.3,0.2,0.6,0.3,0.9c0.9,2.5,1.6,5.3,2.2,7.6c2.4,9.1,4,19,5.5,28.6c0.3,2,0.7,4.1,1,6.1c2.1-1.6,4.4-3.5,6.6-5.4
		c0.2-0.2,0.5-0.4,0.7-0.6c0.6-0.5,1.3-1,1.5-1.4c0.2-0.4,0.3-1.1,0.5-1.7c0-0.2,0.1-0.5,0.1-0.7l0.4-1.8c0.4-2,0.9-4,1.4-5.9l1,0
		c0.3,1.1,0.5,2.1,0.8,3.2c0.2,0.6,0.3,1.2,0.5,1.7c2.2-1.3,4.2-2.7,6.4-4.1l1.6-1.1c0.2-0.1,0.4-0.3,0.7-0.4
		c0.5-0.3,1.7-0.9,1.9-1.2c0-0.1,0-0.3,0-0.5c0-0.2-0.1-0.4-0.1-0.6c0.2-4.2,1.1-8.9,1.8-12.6l1,0c0.5,3.3,0.5,7.7-0.1,12.2
		c1.1-0.5,2.1-1,3.1-1.6c1.3-0.7,2.5-1.3,3.7-1.8l0.9-0.4l-0.2,1c-0.3,1.6-0.5,3.3-0.6,5.2c11.3-6,25.5-10.2,42.2-12.5
		c5.7-0.8,12.6-1.7,19-1.4c3.2-3,6.8-6.4,10.9-9.9c0,0,0,0,0,0l-1.1-0.1l1.5-1.3c1.5-1.4,3.1-2.7,4-4.6c0.7-1.4,1.1-3.7,1.2-6.3
		c0.1-3.3-1.6-5.3-3-6.6c-0.1-0.1-0.2-0.3-0.4-0.4c-0.1-0.1-0.2-0.2-0.3-0.3c-2.6-2-7-1.7-11.2-1.4c-1.2,0.1-2.5,0.2-3.7,0.2
		c0.1,0.1,0.1,0.3,0,0.5l-0.2,0.7l-0.6-0.4c-1.9-1.2-4.9-1-7.9-0.8c-0.7,0-1.4,0.1-2.1,0.1c-3.1,0.1-5.6,0.3-7.8,0.6c0,0,0,0,0,0
		l0.3,0.4c0.8,0.9,1.7,1.9,1.7,3.5c0.1,1.4-0.1,2.9-0.3,4.4c-0.1,1.1-0.3,2.2-0.3,3.2l-1,0.1c-0.2-1.1-0.7-2.2-1.3-3.4
		c-1-2.3-2.2-4.9-1.6-7.6c-7.3,0.4-14.5,1.3-21.5,2.2c-4,0.5-8.2,1-12.3,1.4l-0.6,0.1l0.1-0.6c0.1-0.5,0.1-1.2,0.1-1.8
		c0-0.7,0-1.4,0.1-2.1l0.1-0.4l0.4,0c0.7-0.1,1.4-0.2,2.1-0.3c0.2,0,0.5-0.1,0.7-0.1c0.2-3.5,0.4-7.5,0.6-11c0-0.1,0-0.2,0-0.3
		c0-0.2,0-0.4,0-0.6c0,0-0.1,0-0.1,0c-3,0.6-6,1-9.1,1.5c-1.6,0.2-3.3,0.5-5.1,0.7c-1.6,0.3-3.3,0.5-5,0.8c-1.9,0.3-3.8,0.6-5.6,0.9
		c-0.4,0.1-0.8,0.2-1.2,0.2c-1,0.2-1.9,0.4-2.5,0.3c-0.4-0.1-0.8-0.3-1.2-0.6c-0.2-0.1-0.4-0.3-0.5-0.3c-3.5-1.5-7.7-0.7-11.7,0.2
		c-1.2,0.2-2.3,0.5-3.4,0.6c0.5,2,0.5,4.4,0.6,6.8c0,0.9,0,1.9,0.1,2.9c0,0.6,0.1,1.3,0.1,2c0.2,3.2,0.4,6.8-0.4,8.9l-0.1,0.2
		l-0.3,0.1c-1.7,0.4-3.6,0.7-5.3,1.1C6.7,27.9,4.7,28.3,2.8,28.7z M90.8,14.5L90.8,14.5c-0.9,2.6,0.3,5.1,1.3,7.6
		c0.2,0.4,0.4,0.8,0.5,1.2c0-0.3,0.1-0.6,0.1-0.9c0.2-1.5,0.3-2.9,0.3-4.2c-0.1-1.2-0.8-2-1.5-2.9L91.2,15c0,0-0.1-0.1-0.1-0.1
		C91,14.8,90.9,14.7,90.8,14.5z M109.5,13.9L109.5,13.9L109.5,13.9z"/>
	<path class="st2" d="M42.2,38.7c1.1-4.7,2.3-10.1,3.5-14.8c0.1-0.3,0.6-2.1-0.1-2c-2.2,0.4-4.8,1-7,1.4c0.7,1.6-0.1,3.4-0.5,4.9
		c-0.9,3-1.4,6.2-2.4,8.8c-1.6-4-3.2-8.1-4.7-12.1c-1.7,0.3-3.4,0.7-5.2,1c-1.8,4.8-3,10.2-4.6,15.2c-1.5-4-2.8-8.1-4-12.3
		c0.2-0.4,0.3-0.8,0.4-1.2c-3.2,0.6-6.3,1.3-9.5,1.9c0.2,0.5,1,0.9,1.4,1.4c4.8,12.4,7.3,27.1,9.5,42c1-0.6,1.8-1.5,2.8-2.3
		c0.7-0.6,2.4-1.6,2.9-2.3c0.3-0.4,0.5-1.5,0.6-2.2c0.9-4.1,1.8-7.9,2.8-11.8c0.4-1.6,0.7-3.2,1.4-4.5c1,3.8,1.9,7.6,3,11.2
		c2.3-1.4,4.5-2.8,6.7-4.3C39.8,50.5,40.7,44.6,42.2,38.7 M47.4,21.7c0.6,9.2-0.8,18.7-0.7,27.9c0,1.1,0.1,2.1-0.1,3.1
		c2.5-1,4.9-2.2,7.3-3.3c-0.3-0.5-0.5-0.9-0.5-1.4c-0.2-2,0.1-4.3,0.3-6.6c0.3-4.4,0.3-8.9,0.6-13.2c0.2-2.3,0-4.6,0.3-6.6
		c0.1-0.5,0.6-1.1,0.4-1.5C52.4,20.7,49.8,21.1,47.4,21.7 M72.6,25.4c1.1-2.1,2.1-4.4,3.4-6.2c0.1-0.2,0.4-0.5,0.6-0.8
		c0.2-0.2,0.9-0.5,0.4-0.7c-0.2-0.1-0.3,0.1-0.4,0.1c-5.8,0.7-11.9,1.4-17.8,2.2c0,1.9-0.3,4.6-0.1,6.6c0.7-0.2,1-1,1.9-1.2
		c1.7-0.5,4.1-0.3,6-0.8c-2.8,4.6-5.3,9.4-7.7,14.4c-2.3,5-4.5,10.3-5.8,16.3c2-0.9,3.9-2,6-2.8c6.4-2.5,13.2-4.3,20.6-6
		c4.8-1.1,10-1.9,15.2-2.5c3.8-0.4,7.9-1,12.1-1.2c1.4-0.1,3.3,0.2,4.4-0.1c0.5-0.1,1.3-1.2,1.8-1.7c1.6-1.6,3.1-2.9,4.7-4.2
		c0.3-0.2,0.9-0.4,0.8-0.7c-10.3,0.5-20.3,1.1-29.6,2.5c-4.6,0.7-9,1.7-13.2,2.8c-2.2,0.6-4.3,1-6.4,1.6c-2.1,0.6-4.1,1.3-6.1,1.8
		C65.4,38,69.4,31.4,72.6,25.4 M80.2,17c0.8,1.3,0.1,2.3-0.5,3.6c-1,2.4-1.9,4.8-2.8,7.1c-1.6,3.9-3.1,7.9-4.9,11.4
		c2.5-0.5,4.9-1,7.4-1.4c-0.8-1.2,0.3-2.6,0.6-3.7c2.1-0.3,4.2-0.6,6.3-0.9c0.2,1.1,1.1,2.3,0.5,3.6c2.2-0.3,4.4-0.6,6.6-0.9
		c-0.9-1.4-1.3-3.3-2-5.3c-1-2.8-1.9-5.6-2.9-8.6c-0.6-1.7-1.8-3.9-1.1-5.6h-0.1C85,16.6,82.4,16.6,80.2,17 M109.3,20.8
		c0.2-2.9-1.1-5.1-3.7-5.6c-3-0.6-6.8,0.5-10.3,0.4c0.1,0.4,0.6,0.7,0.7,1.1c0.6,1.5,0.1,3.9,0,5.9c-0.1,2.4-0.4,5.3-0.5,7.8
		c-0.1,1.7,0,3.3-0.4,4.5c-0.1,0.3-0.4,0.5-0.3,0.8c1.9-0.3,4.1-0.5,6.1-0.8c-0.6-1.5-0.1-4.5,0.1-6.4c0.4,0.8,0.8,1.6,1.4,2.4
		c0.7,1.2,1.8,2.4,1.1,3.8c2.4-0.2,4.9-0.4,7.5-0.6c-1.4-2.5-3.4-5-5-7.6C107.7,25.1,109.1,23.6,109.3,20.8 M123,31.6
		c4.5-3.2,6-12.2,1.3-15.6c-2.8-2-7.7-1.2-11.9-1.1c0.2,0.6,0.7,1,0.7,1.9c0.1,1.2-0.2,2.7-0.3,4.1c-0.2,2.7-0.5,5.5-0.6,7.9
		c-0.2,2.2-0.1,4.1-0.8,5.3C116.2,33.4,119.9,33.8,123,31.6 M33.7,6.7c0.5,0.9,0.4,2.5,0.4,4.1c0,3.4,0.2,8.2-0.2,10.8
		c1.4-0.3,2.9-0.6,4.3-0.9C37.8,20,38,19.1,38,18.1c0-1.7,0-3.8,0.1-5.9c0.1-2.3-0.3-4.8,0.4-6.1C36.7,6.1,35.3,6.4,33.7,6.7
		 M26,22.5c2.6-1.3,4.6-3.3,5.5-6.1c1-3.1,0.3-6.9-1.4-8.8C28.6,6,26.3,5,23,5.3c-2.4,0.2-4.6,0.9-7,1.1c0.4,6.1,0.6,12.1,0.8,18.3
		C20,23.9,23.3,23.8,26,22.5 M40.8,5.6c-0.1,4.9-0.2,10.2-0.3,14.8c1.2-0.4,2.7-0.5,3.7-0.8c0-2,0-3.9,0.2-5.7
		c1.2-0.2,2.4-0.4,3.5-0.6c0.1-1.2,0.1-2.4,0.1-3.6c-1,0.4-2.4,0.5-3.6,0.7c0-0.6,0-1.3,0.1-1.7c1.3-0.2,2.5-0.5,3.9-0.6
		c-0.1-1.5,0.4-2.7,0-3.9C45.9,4.7,43.3,5.1,40.8,5.6 M50.6,4c-0.2,4.9-0.4,9.9-0.6,14.6c1.2-0.2,2.4-0.5,3.7-0.7
		c0-1.9,0.1-3.7,0.3-5.5c1.2-0.2,2.3-0.4,3.5-0.6c0-1.3,0.2-2.4,0.2-3.6c-1,0.3-2.5,0.6-3.6,0.6c0.2-0.4,0-1.2,0.1-1.6
		c1.2-0.2,2.3-0.4,3.5-0.6c0.1-1,0.1-1.9,0.1-2.6c0-0.4,0.3-0.9-0.1-1.1C55.4,3.2,52.9,3.6,50.6,4 M59.7,0.7c0.3,0.4,0.2,1,0.1,1.5
		c-0.2,3.6-0.4,7.8-0.6,11.4c-1.1,0.2-2.1,0.5-3.3,0.6c-0.2,1.2-0.1,2.6-0.2,3.9c11.5-1.2,22.7-3.1,34.5-3.6
		c-1.4,4.1,1.9,8,2.7,11.4c0.1-2.5,0.7-5.2,0.6-7.6c-0.1-1.6-1.1-2.6-1.9-3.6c-0.2-0.2-0.6-0.4-0.4-0.8c2.6-0.3,5.5-0.5,8.5-0.6
		c3.6-0.2,7.8-0.9,10.3,0.7c0.1-0.2-0.3-0.6-0.2-0.9c5.6,0,12.3-1.5,15.9,1.3c0.2,0.2,0.4,0.5,0.6,0.7c1.7,1.6,3.2,3.8,3.2,7
		c0,2.3-0.4,4.8-1.2,6.6c-1.1,2.2-3.1,3.8-4.8,5.4c0.5,0.1,0.8-0.1,1.2-0.1c0.1,0.3-0.4,0.5-0.6,0.6c-3.8,3.3-7.8,6.9-11.4,10.3
		c-6.4-0.4-13.3,0.6-19.1,1.4c-16.3,2.3-31.1,6.5-42.9,12.9c0.1-2.1,0.3-4.3,0.6-6.1c-2.5,1.1-5.1,2.6-7.7,3.8
		c0.6-3.9,0.8-8.8,0.2-12.9c-0.8,3.9-1.6,8.4-1.8,12.6c0,0.3,0.2,0.8,0.1,1.2c-0.2,0.6-2.2,1.5-2.8,1.9c-2.9,1.9-5.6,3.8-8.6,5.6
		c-0.5-1.9-1-3.7-1.4-5.6c-0.7,2.5-1.2,5.1-1.8,7.7c-0.2,0.8-0.3,1.9-0.6,2.5c-0.4,0.7-1.6,1.5-2.4,2.1c-2.4,2.1-4.9,4.1-7.3,6
		c-2-11.9-3.7-24.3-6.7-35.5c-0.6-2.4-1.3-5.1-2.2-7.6c-0.3-0.9-0.5-1.8-0.9-2.4c-0.2-0.3-0.5-0.5-0.9-0.8c-0.3-0.3-0.5-0.6-0.8-0.9
		c-1.3-1-3.2-1.5-4.5-2.3c4-1,8.4-1.7,12.5-2.6c1-2.5,0.4-7.3,0.3-10.7c-0.2-3.8,0-7.3-0.8-10.1c5.1-0.7,11.1-3,15.9-0.9
		c0.5,0.2,1.1,0.8,1.6,0.9c0.8,0.1,2.4-0.4,3.6-0.6C38,4,41.7,3.5,45.1,2.9c5-0.8,9.5-1.2,14.1-2.2C59.4,0.7,59.4,0.6,59.7,0.7"/>
	<path class="st3" d="M21.7,19.3c-0.1-2.9-0.3-6.2-0.2-9.1c1.4-0.4,3.6-0.3,4.5,0.7c1.3,1.5,1,5.1-0.4,6.6
		C24.6,18.8,23.2,19.1,21.7,19.3"/>
	<path class="st3" d="M117.1,28.8c0.3-3.1,0.4-6.4,0.7-9.5c0.1-0.1,0.1-0.1,0.2-0.1c1.6,0,3.1,0.3,3.8,1.3c1.3,1.8,0.6,5.7-1,7.1
		C119.9,28.4,118.5,28.8,117.1,28.8"/>
	<path class="st3" d="M101.2,23.6c0-1.4,0.1-2.8,0.2-4.1C105.6,18.3,104.6,24.3,101.2,23.6"/>
	<path class="st3" d="M83.5,24.3c0.7,1.4,1,3,1.5,4.6c-1,0.2-2.1,0.3-3.2,0.4C82.3,27.5,83.1,26,83.5,24.3"/>
</g>
</svg>
