<svg id="Layer_1" data-name="Layer 1" xmlns="http://www.w3.org/2000/svg" viewBox="0 0 100 100"><defs><style>.cls-1{fill:#fff;}</style></defs><title>faq_circle</title><path class="cls-1" d="M50,0a50,50,0,1,0,50,50A50,50,0,0,0,50,0ZM29.5,72.5A5.5,5.5,0,1,1,35,67,5.5,5.5,0,0,1,29.5,72.5Zm0-17A5.5,5.5,0,1,1,35,50,5.5,5.5,0,0,1,29.5,55.5Zm0-17A5.5,5.5,0,1,1,35,33,5.5,5.5,0,0,1,29.5,38.5ZM76,68.5a1,1,0,0,1-1,1H40a1,1,0,0,1-1-1v-3a1,1,0,0,1,1-1H75a1,1,0,0,1,1,1Zm0-17a1,1,0,0,1-1,1H40a1,1,0,0,1-1-1v-3a1,1,0,0,1,1-1H75a1,1,0,0,1,1,1Zm0-17a1,1,0,0,1-1,1H40a1,1,0,0,1-1-1v-3a1,1,0,0,1,1-1H75a1,1,0,0,1,1,1Z"/></svg>