<svg id="Layer_1" data-name="Layer 1" xmlns="http://www.w3.org/2000/svg" viewBox="0 0 142 142"><defs><style>.cls-1{fill:#222;}</style></defs><title>gear_ratio</title><path class="cls-1" d="M11.88,104.29a34.07,34.07,0,0,0,5,7.31l-2.63,7.13a1.66,1.66,0,0,0,.48,2.3l9.24,6a1.66,1.66,0,0,0,2.29-.48l5.48-5.28a34,34,0,0,0,8.7,1.63l3.19,6.92a1.65,1.65,0,0,0,2,1.28l10.81-2.26a1.66,1.66,0,0,0,1.28-2l.14-7.61a33.94,33.94,0,0,0,7.32-5L72.26,117a1.65,1.65,0,0,0,2.29-.48l6-9.24a1.67,1.67,0,0,0-.48-2.3l-5.28-5.48a33.86,33.86,0,0,0,1.63-8.7l6.93-3.19a1.66,1.66,0,0,0,1.28-2L82.39,74.79a1.66,1.66,0,0,0-2-1.28l-7.62-.14a33.77,33.77,0,0,0-5-7.31l2.63-7.14A1.65,1.65,0,0,0,70,56.63l-9.24-6a1.67,1.67,0,0,0-2.29.48L53,56.35a33.8,33.8,0,0,0-8.71-1.63l-3.18-6.91a1.65,1.65,0,0,0-2-1.28L28.31,48.79a1.66,1.66,0,0,0-1.28,2l-.14,7.61a34.07,34.07,0,0,0-7.31,5l-7.13-2.64a1.67,1.67,0,0,0-2.3.48l-6,9.25a1.65,1.65,0,0,0,.48,2.29l5.27,5.48a34.23,34.23,0,0,0-1.63,8.7L1.32,90.1a1.66,1.66,0,0,0-1.28,2l2.27,10.8a1.65,1.65,0,0,0,2,1.28Zm31.39,9.33a.41.41,0,0,1-.08.34.63.63,0,0,1-.32.16A25.46,25.46,0,0,1,19,98.51a.42.42,0,0,1,.3-.57L22,97.37a.42.42,0,0,1,.47.24,21.74,21.74,0,0,0,19.81,12.94.42.42,0,0,1,.41.33ZM52,112.21a.64.64,0,0,1-.35,0,.42.42,0,0,1-.21-.28l-.57-2.74a.42.42,0,0,1,.24-.47A21.73,21.73,0,0,0,64.07,88.89a.42.42,0,0,1,.33-.41l2.74-.57a.42.42,0,0,1,.35.08.42.42,0,0,1,.16.32A25.46,25.46,0,0,1,52,112.21ZM41.42,64a.42.42,0,0,1,.08-.34.42.42,0,0,1,.32-.16A25.46,25.46,0,0,1,65.73,79.16a.42.42,0,0,1-.3.57l-2.74.57a.42.42,0,0,1-.47-.24A21.74,21.74,0,0,0,42.4,67.12a.42.42,0,0,1-.41-.33ZM57.24,85.71a15.22,15.22,0,1,1-18-11.77A15.21,15.21,0,0,1,57.24,85.71ZM32.67,65.46a.41.41,0,0,1,.35,0,.42.42,0,0,1,.21.28l.57,2.74a.42.42,0,0,1-.24.47A21.74,21.74,0,0,0,20.63,88.78a.41.41,0,0,1-.33.41l-2.74.57a.42.42,0,0,1-.5-.4A25.46,25.46,0,0,1,32.67,65.46Z"/><path class="cls-1" d="M138.46,31.26l-5.17-7.9a1.42,1.42,0,0,0-2-.41l-6.1,2.26A29,29,0,0,0,119,21l-.13-6.5a1.41,1.41,0,0,0-1.1-1.67l-9.24-1.93a1.42,1.42,0,0,0-1.67,1.1l-2.72,5.91a28.87,28.87,0,0,0-7.44,1.42L92,14.77a1.41,1.41,0,0,0-2-.41l-7.9,5.17a1.42,1.42,0,0,0-.41,2L84,27.6a29.14,29.14,0,0,0-4.26,6.25l-6.5.13a1.43,1.43,0,0,0-1.68,1.1l-1.92,9.25A1.41,1.41,0,0,0,70.71,46l5.91,2.72A29.21,29.21,0,0,0,78,56.15l-4.51,4.7a1.42,1.42,0,0,0-.41,2l5.18,7.89a1.42,1.42,0,0,0,2,.41l6.1-2.26a29.12,29.12,0,0,0,6.25,4.27l.13,6.5a1.42,1.42,0,0,0,1.1,1.68l9.24,1.92a1.42,1.42,0,0,0,1.67-1.1l2.72-5.91a29,29,0,0,0,7.43-1.42l4.7,4.51a1.41,1.41,0,0,0,2,.41l7.9-5.17a1.42,1.42,0,0,0,.41-2l-2.26-6.1a29.22,29.22,0,0,0,4.27-6.25l6.5-.13A1.42,1.42,0,0,0,140,59L142,49.75a1.42,1.42,0,0,0-1.1-1.68L135,45.35a28.87,28.87,0,0,0-1.42-7.43l4.52-4.7A1.42,1.42,0,0,0,138.46,31.26ZM97.29,27.45a.42.42,0,0,1,.24-.26A21.41,21.41,0,0,1,101.36,26a21.67,21.67,0,0,1,19.93,6.13.42.42,0,0,1-.07.64l-2,1.3c-.13,0-.42,0-.52-.05a18.36,18.36,0,0,0-19.56-4.07.42.42,0,0,1-.5-.16l-1.3-2A.42.42,0,0,1,97.29,27.45Zm-10.73,28a1.18,1.18,0,0,1-.35,0,.42.42,0,0,1-.26-.24,21.63,21.63,0,0,1,4.95-23.75.41.41,0,0,1,.34-.11.42.42,0,0,1,.3.18l1.3,2a.42.42,0,0,1-.05.52A18.35,18.35,0,0,0,88.7,53.68a.42.42,0,0,1-.16.5Zm27.72,11.13a.42.42,0,0,1-.24.26,21.4,21.4,0,0,1-3.83,1.18A21.67,21.67,0,0,1,90.3,61.93a.42.42,0,0,1,.07-.64l2-1.3a.42.42,0,0,1,.52.05,18.34,18.34,0,0,0,19.55,4.07.42.42,0,0,1,.5.16l1.3,2A.41.41,0,0,1,114.28,66.61Zm-1.43-8.8A12.89,12.89,0,1,1,116.57,40,12.89,12.89,0,0,1,112.85,57.81Zm7.83,4.71a.41.41,0,0,1-.2.11.73.73,0,0,1-.44-.18l-1.3-2a.42.42,0,0,1,.05-.52,18.34,18.34,0,0,0,4.07-19.55.42.42,0,0,1,.16-.5l2-1.3a.42.42,0,0,1,.62.19A21.63,21.63,0,0,1,120.69,62.52Z"/></svg>