<svg id="Layer_1" data-name="Layer 1" xmlns="http://www.w3.org/2000/svg" viewBox="0 0 100 100"><defs><style>.cls-1{fill:#fff;}</style></defs><title>gear_ratio_circle</title><path class="cls-1" d="M48.13,58.21l-1.33.28a.2.2,0,0,0-.16.2,10.55,10.55,0,0,1-6.28,9.61.2.2,0,0,0-.12.23l.28,1.33a.21.21,0,0,0,.1.14.31.31,0,0,0,.17,0,12.36,12.36,0,0,0,7.58-11.6.2.2,0,0,0-.24-.19Z"/><circle class="cls-1" cx="36.09" cy="58.66" r="7.39" transform="translate(-11.27 8.65) rotate(-11.84)"/><path class="cls-1" d="M25.55,58.63A10.55,10.55,0,0,1,31.83,49a.2.2,0,0,0,.12-.23l-.28-1.33a.2.2,0,0,0-.1-.14.2.2,0,0,0-.17,0,12.36,12.36,0,0,0-7.58,11.6.2.2,0,0,0,.24.19l1.33-.28A.2.2,0,0,0,25.55,58.63Z"/><path class="cls-1" d="M36.06,69.2a10.55,10.55,0,0,1-9.62-6.28.2.2,0,0,0-.23-.12l-1.33.28a.2.2,0,0,0-.14.28,12.36,12.36,0,0,0,11.6,7.58.3.3,0,0,0,.15-.08.2.2,0,0,0,0-.17l-.28-1.33A.2.2,0,0,0,36.06,69.2Z"/><path class="cls-1" d="M36.12,48.11a10.55,10.55,0,0,1,9.62,6.28.2.2,0,0,0,.23.12l1.33-.28a.2.2,0,0,0,.15-.28,12.36,12.36,0,0,0-11.6-7.58.21.21,0,0,0-.15.08.2.2,0,0,0,0,.17L35.92,48A.2.2,0,0,0,36.12,48.11Z"/><path class="cls-1" d="M63.42,30a.2.2,0,0,0,.24.08,8.91,8.91,0,0,1,9.49,2c.05,0,.19,0,.25,0l1-.63a.2.2,0,0,0,0-.31,10.52,10.52,0,0,0-9.67-3,10.39,10.39,0,0,0-1.86.58.21.21,0,0,0-.12.13.2.2,0,0,0,0,.17Z"/><path class="cls-1" d="M70.35,46.74a.2.2,0,0,0-.24-.08,8.9,8.9,0,0,1-9.49-2,.2.2,0,0,0-.25,0l-1,.63a.2.2,0,0,0,0,.31,10.52,10.52,0,0,0,9.67,3A10.39,10.39,0,0,0,70.89,48a.2.2,0,0,0,.09-.3Z"/><path class="cls-1" d="M50,0a50,50,0,1,0,50,50A50,50,0,0,0,50,0Zm6,58-3.36,1.55a16.44,16.44,0,0,1-.79,4.22l2.57,2.66a.81.81,0,0,1,.23,1.12l-2.93,4.49a.8.8,0,0,1-1.11.23L47.15,71a16.48,16.48,0,0,1-3.55,2.42l-.07,3.7a.8.8,0,0,1-.62,1l-5.25,1.1a.8.8,0,0,1-1-.62l-1.55-3.36a16.51,16.51,0,0,1-4.22-.79L28.28,77a.8.8,0,0,1-1.11.23l-4.49-2.93a.81.81,0,0,1-.23-1.12l1.28-3.46a16.53,16.53,0,0,1-2.42-3.55l-3.7-.07a.8.8,0,0,1-1-.62l-1.1-5.24a.81.81,0,0,1,.62-1l3.36-1.55a16.62,16.62,0,0,1,.79-4.22l-2.56-2.66a.8.8,0,0,1-.23-1.11l2.93-4.49A.81.81,0,0,1,21.58,45L25,46.29a16.54,16.54,0,0,1,3.55-2.42l.07-3.69a.81.81,0,0,1,.62-1l5.25-1.1a.8.8,0,0,1,1,.62L37,42.1a16.41,16.41,0,0,1,4.23.79l2.66-2.56A.81.81,0,0,1,45,40.09L49.51,43a.8.8,0,0,1,.23,1.11L48.46,47.6a16.39,16.39,0,0,1,2.42,3.55l3.7.07a.81.81,0,0,1,1,.62l1.1,5.25A.8.8,0,0,1,56,58ZM84.45,39.68l-.93,4.49a.69.69,0,0,1-.81.53l-3.16.06a14.18,14.18,0,0,1-2.07,3l1.1,3a.69.69,0,0,1-.2,1l-3.83,2.51a.69.69,0,0,1-1-.2l-2.28-2.19a14.1,14.1,0,0,1-3.61.69l-1.32,2.87a.69.69,0,0,1-.81.53L61.09,55a.69.69,0,0,1-.53-.82L60.49,51a14.13,14.13,0,0,1-3-2.07l-3,1.1a.69.69,0,0,1-1-.2L51,46a.69.69,0,0,1,.2-1l2.19-2.28a14.18,14.18,0,0,1-.69-3.61l-2.87-1.32a.69.69,0,0,1-.53-.81l.93-4.49a.69.69,0,0,1,.82-.53L54.23,32a14.15,14.15,0,0,1,2.07-3l-1.1-3a.69.69,0,0,1,.2-1l3.83-2.51a.68.68,0,0,1,.95.2l2.28,2.19a14,14,0,0,1,3.61-.69l1.32-2.87a.69.69,0,0,1,.81-.53l4.49.94a.69.69,0,0,1,.53.81l.06,3.16a14.07,14.07,0,0,1,3,2.07l3-1.1a.69.69,0,0,1,1,.2l2.51,3.83a.69.69,0,0,1-.2,1l-2.19,2.28A14,14,0,0,1,81,37.55l2.87,1.32A.69.69,0,0,1,84.45,39.68Z"/><circle class="cls-1" cx="66.89" cy="38.37" r="6.26" transform="translate(-10.09 42.95) rotate(-33.24)"/><path class="cls-1" d="M76.39,34.24a.2.2,0,0,0-.17,0l-1,.63a.2.2,0,0,0-.08.24,8.9,8.9,0,0,1-2,9.49.2.2,0,0,0,0,.25l.63,1a.35.35,0,0,0,.21.09.2.2,0,0,0,.1-.05,10.5,10.5,0,0,0,2.4-11.53A.2.2,0,0,0,76.39,34.24Z"/><path class="cls-1" d="M60.57,32.1a.2.2,0,0,0,0-.25l-.63-1a.2.2,0,0,0-.15-.09.2.2,0,0,0-.16.06,10.5,10.5,0,0,0-2.4,11.53.2.2,0,0,0,.13.12.57.57,0,0,0,.17,0l1-.63a.2.2,0,0,0,.08-.24A8.91,8.91,0,0,1,60.57,32.1Z"/></svg>