<svg id="Layer_1" data-name="Layer 1" xmlns="http://www.w3.org/2000/svg" viewBox="0 0 100 100"><defs><style>.cls-1{fill:#fff;}</style></defs><title>glossary_circle</title><path class="cls-1" d="M38.7,45.41a.94.94,0,0,0-.27.69V48a.93.93,0,0,0,1,1H60.61a.93.93,0,0,0,1-1V46.11a.93.93,0,0,0-1-1H39.39A.94.94,0,0,0,38.7,45.41Z"/><path class="cls-1" d="M60.61,60.57H39.39a.93.93,0,0,0-1,1v1.93a.93.93,0,0,0,1,1H60.61a.93.93,0,0,0,1-1V61.54a.93.93,0,0,0-1-1Z"/><path class="cls-1" d="M60.61,52.86H39.39a.93.93,0,0,0-1,1v1.93a.93.93,0,0,0,1,1H60.61a.93.93,0,0,0,1-1V53.82a.93.93,0,0,0-1-1Z"/><path class="cls-1" d="M50,0a50,50,0,1,0,50,50A50,50,0,0,0,50,0Zm7.71,23.21A6.38,6.38,0,0,1,58.8,24L71.09,36.34a6.37,6.37,0,0,1,.84,1.08H57.71Zm15.43,49.9A2.88,2.88,0,0,1,70.25,76H29.75a2.88,2.88,0,0,1-2.89-2.89V24.89A2.88,2.88,0,0,1,29.75,22H53.86V38.39a2.88,2.88,0,0,0,2.89,2.89H73.14Z"/></svg>