<svg id="Layer_1" data-name="Layer 1" xmlns="http://www.w3.org/2000/svg" viewBox="0 0 142 142"><defs><style>.cls-1{fill:#222;}</style></defs><title>horsepower</title><path class="cls-1" d="M30.41,12.09A5.46,5.46,0,0,0,25.08,17L15.63,125a4.43,4.43,0,0,0,4.48,4.91A5.47,5.47,0,0,0,25.45,125L34.9,17A4.43,4.43,0,0,0,30.41,12.09Zm24.8,68.44A125.34,125.34,0,0,1,68.3,82.26l1.15-12.88c-4.37-.8-8.73-1.49-13.09-1.86Q55.78,74,55.21,80.53ZM37.07,42.36,35.9,55.72a54.09,54.09,0,0,1,8.5-1.39l1.15-13.17A55.46,55.46,0,0,0,37.07,42.36ZM33.56,82.54a52.23,52.23,0,0,1,8.56-1.79q.57-6.61,1.15-13.22a53.25,53.25,0,0,0-8.53,1.58ZM123,59.15q.57-6.73,1.15-13.48A52.43,52.43,0,0,1,111,48.39q-.58,6.59-1.15,13.18A53.55,53.55,0,0,0,123,59.15ZM120.66,86q.57-6.7,1.14-13.41a54.59,54.59,0,0,1-13.09,2.12q-.57,6.57-1.14,13.13A55.55,55.55,0,0,0,120.66,86ZM81.39,84.83c4.36.86,8.73,1.68,13.09,2.24q.57-6.47,1.14-12.95C91.27,73.6,86.9,72.82,82.53,72Q82,78.4,81.39,84.83ZM46.7,28q.57-6.57,1.15-13.13a58.25,58.25,0,0,0-8.62.87,9.2,9.2,0,0,1,0,1.63L38.24,29A56.94,56.94,0,0,1,46.7,28ZM58.65,41.56q.57-6.48,1.15-13c4.36.52,8.73,1.3,13.09,2.16Q73.45,24.33,74,17.9c-4.36-.86-8.73-1.68-13.09-2.24q-.57,6.47-1.15,12.95A80.33,80.33,0,0,0,46.7,28q-.57,6.57-1.15,13.15A76.8,76.8,0,0,1,58.65,41.56ZM70.59,56.51Q70,62.94,69.45,69.38c4.36.8,8.73,1.73,13.09,2.58q.57-6.44,1.15-12.87C79.32,58.25,75,57.33,70.59,56.51Zm26.18,4.66-1.15,13a81.23,81.23,0,0,0,13.09.59q.57-6.57,1.15-13.15A76.8,76.8,0,0,1,96.77,61.16ZM86,33.35c4.36.8,8.72,1.49,13.09,1.86q.58-6.5,1.15-13a126.56,126.56,0,0,1-13.09-1.74Q86.55,26.91,86,33.35c-4.36-.8-8.73-1.73-13.09-2.58q-.57,6.43-1.15,12.87c4.37.84,8.72,1.77,13.09,2.59Q85.4,39.79,86,33.35Zm39.27-1.17q.58-6.76,1.15-13.54A51.33,51.33,0,0,1,113.3,22q-.57,6.61-1.15,13.22a70.44,70.44,0,0,1-13.09,0q-.57,6.49-1.15,13a73.13,73.13,0,0,0,13.09.2q.58-6.59,1.15-13.19A51.79,51.79,0,0,0,125.24,32.17Zm-28.47,29q.57-6.48,1.15-13c-4.37-.42-8.72-1.15-13.09-2q-.57,6.44-1.15,12.87C88,59.94,92.41,60.69,96.77,61.16ZM70.59,56.51q.57-6.44,1.15-12.87C67.37,42.79,63,42,58.65,41.56l-1.15,13C61.86,55,66.22,55.68,70.59,56.51ZM44.41,54.34l-1.14,13.2a70.54,70.54,0,0,1,13.09,0q.57-6.5,1.14-13A73.47,73.47,0,0,0,44.41,54.34Z"/></svg>