<svg id="Layer_1" data-name="Layer 1" xmlns="http://www.w3.org/2000/svg" viewBox="0 0 100 100"><defs><style>.cls-1{fill:#fff;}</style></defs><title>inches_liters_circle</title><path class="cls-1" d="M60.66,69.58H48.76a1,1,0,0,0-1,1v.49a1,1,0,0,0,1,1h11.9a1,1,0,0,0,1-1v-.49A1,1,0,0,0,60.66,69.58Z"/><path class="cls-1" d="M60.66,60.65H48.76a1,1,0,0,0-1,1v.49a1,1,0,0,0,1,1h11.9a1,1,0,0,0,1-1v-.49A1,1,0,0,0,60.66,60.65Z"/><path class="cls-1" d="M60.66,51.24H48.76a1,1,0,0,0-1,1h0v.49a1,1,0,0,0,1,1h11.9a1,1,0,0,0,1-1v-.49h0A1,1,0,0,0,60.66,51.24Z"/><path class="cls-1" d="M50,0a50,50,0,1,0,50,50A50,50,0,0,0,50,0ZM76.51,26A1.49,1.49,0,0,1,75,27.45h-.49V70.07A7.93,7.93,0,0,1,66.6,78H33.4a7.93,7.93,0,0,1-7.93-7.93V27.45H25A1.49,1.49,0,0,1,23.49,26V23.49A1.49,1.49,0,0,1,25,22H75a1.49,1.49,0,0,1,1.49,1.49Z"/><path class="cls-1" d="M30.92,29.93V47.77H69.08V27.95H30.92Zm16.85,5a1,1,0,0,1,1-1h11.9a1,1,0,0,1,1,1v.49a1,1,0,0,1-1,1H48.76a1,1,0,0,1-1-1Zm0,8.42a1,1,0,0,1,1-1h11.9a1,1,0,0,1,1,1v.49a1,1,0,0,1-1,1H48.76a1,1,0,0,1-1-1Z"/></svg>