<svg id="Layer_1" data-name="Layer 1" xmlns="http://www.w3.org/2000/svg" viewBox="0 0 82 82"><defs><style>.cls-1{fill:#2a94c6;}.cls-2{fill:#fff;}</style></defs><title>product_flags</title><path class="cls-1" d="M2,0A2,2,0,0,0,0,2V82L82,0Z"/><path class="cls-2" d="M10.05,26.53l1.74-1.74a4.73,4.73,0,0,1,2.06-1.39,1.66,1.66,0,0,1,1.61.54A1.91,1.91,0,0,1,16,25a1.32,1.32,0,0,1-.24,1l0,0a1.74,1.74,0,0,1,1.21-.32,2,2,0,0,1,1.1.63,2,2,0,0,1,.64,1.74A3.37,3.37,0,0,1,17.72,30l-2.09,2.09Zm3.39,1,.69-.69a1.78,1.78,0,0,0,.55-.85.79.79,0,0,0-.28-.71.7.7,0,0,0-.69-.22,2.13,2.13,0,0,0-.88.6l-.62.62Zm.94.94,1.45,1.45.77-.77a1.62,1.62,0,0,0,.53-.91,1,1,0,0,0-.34-.81q-.69-.69-1.69.3Z"/><path class="cls-2" d="M24.06,23.68,20.84,26.9l-5.58-5.58,3.21-3.21,1,1-2,2,1.22,1.22,1.89-1.89,1,1L19.61,23.3l1.44,1.44,2-2Z"/><path class="cls-2" d="M26.93,17.72a2,2,0,0,1,.65,1.73A3.34,3.34,0,0,1,26.5,21.4a5,5,0,0,1-1.92,1.24l-1.1-1.1a9.19,9.19,0,0,0,1.31-.6,4,4,0,0,0,.82-.61,1.44,1.44,0,0,0,.45-.75.72.72,0,0,0-.23-.65.69.69,0,0,0-.38-.2,1.45,1.45,0,0,0-.52,0,9.9,9.9,0,0,0-1.1.35,4.85,4.85,0,0,1-1.23.31,2.45,2.45,0,0,1-.92-.11,2.08,2.08,0,0,1-.84-.53,2,2,0,0,1-.66-1.67,3,3,0,0,1,1-1.81,4.63,4.63,0,0,1,.93-.73A8.08,8.08,0,0,1,23.18,14l.54,1.3a7.89,7.89,0,0,0-1,.48,3.37,3.37,0,0,0-.65.5,1.08,1.08,0,0,0-.36.67.73.73,0,0,0,.23.59.72.72,0,0,0,.35.2,1.12,1.12,0,0,0,.46,0,10,10,0,0,0,1.14-.36,4.22,4.22,0,0,1,1.82-.32A2.07,2.07,0,0,1,26.93,17.72Z"/><path class="cls-2" d="M31.6,16.14l-1.18,1.18-4.59-4.59-1.51,1.51-1-1L27.54,9l1,1L27,11.55Z"/><path class="cls-2" d="M19.2,36.14l1.19-1.19,3.68,7.48-1.29,1.29L15.32,40l1.19-1.19,4.37,2.27q.38.21.87.5t.66.43a13.88,13.88,0,0,1-.94-1.51Z"/><path class="cls-2" d="M30.09,36.41l-1.73-.92-2,2,.92,1.73L26,40.52,22.34,33l1.45-1.45,7.58,3.63Zm-3-1.63-2.67-1.41-.47-.27q.36.61,1.69,3.14Z"/><path class="cls-2" d="M32.07,34.43l-5.58-5.58,1.18-1.18,4.6,4.6L34.54,30l1,1Z"/><path class="cls-2" d="M35.44,19.89l3.61,3.61a2.94,2.94,0,0,1,.81,1.36,2.54,2.54,0,0,1-.09,1.51,4,4,0,0,1-1,1.48A3.35,3.35,0,0,1,36.56,29a2.76,2.76,0,0,1-2.1-.91l-3.59-3.59L32,23.29l3.42,3.42a2,2,0,0,0,1.21.69,1.53,1.53,0,0,0,1.16-.56,1.49,1.49,0,0,0,.54-1.14,2,2,0,0,0-.69-1.21l-3.41-3.41Z"/><path class="cls-2" d="M45.6,20.89l-3.21,3.21-5.58-5.58L40,15.32l1,1-2,2,1.22,1.22,1.89-1.89,1,1-1.89,1.89,1.44,1.44,2-2Z"/></svg>