<?xml version="1.0" encoding="utf-8"?>
<!-- Generator: Adobe Illustrator 19.2.0, SVG Export Plug-In . SVG Version: 6.00 Build 0)  -->
<svg version="1.1" id="Layer_1" xmlns="http://www.w3.org/2000/svg" xmlns:xlink="http://www.w3.org/1999/xlink" x="0px" y="0px"
	 viewBox="0 0 132 23.8" style="enable-background:new 0 0 132 23.8;" xml:space="preserve">
<style type="text/css">
	.st0{fill:#FFFFFF;}
</style>
<g>
	<path class="st0" d="M8.5,3.9h13.7c3.2,0,3.8,1.3,3.8,3.7c0,4.2-2.3,6.1-5.3,6.1h-1.3l4.8,6.8H16l-3.4-5.8l-1.5,5.8H4L8.5,3.9z
		 M13.4,12h3.2c1.6,0,2.3-1.2,2.3-2.3c0-0.8-0.6-1.2-1.5-1.2h-3.1L13.4,12z"/>
	<path class="st0" d="M33.7,3.9h12.4v16.6h-7.2v-2.4H33l-1.4,2.4h-7.9L33.7,3.9z M38.9,8.1L38.9,8.1l-3.7,6h3.7V8.1z"/>
	<path class="st0" d="M50.6,3.9h8.1l1.5,9.6l0,0l2.5-9.6H70l-4.5,16.6h-7.9l-1.9-8.6l0,0l-2.3,8.6h-7.2L50.6,3.9z"/>
	<path class="st0" d="M72.3,3.9h12.5c2.5,0,4.9,0.9,4.9,4.7c0,2.1-0.6,4.2-1.8,7.3c-1.3,3.4-4.2,4.6-6.6,4.6H67.7L72.3,3.9z
		 M76.1,16.1h2.6c1.6,0,2.6-1.3,2.9-2.7c0.3-1.4,0.5-2,0.5-2.4c0-1.1-0.5-1.6-1.9-1.6h-2.3L76.1,16.1z"/>
	<path class="st0" d="M93,16.7L89.5,3.9h7.8l0.9,7.3h0.1l4.2-7.3h8.2l-12,16.6h-8.5L93,16.7z"/>
	<path class="st0" d="M127.5,5.9c-1-1.4-3.5-2.1-7.8-2.1c-6.2,0-9.9,1.7-11.5,5.2c-0.6,1.3-0.7,2.4-0.2,3.2c0.4,0.8,1.3,1.3,2.6,1.5
		l6.5,1c0.2,0,0.4,0.1,0.5,0.2s0,0.3,0,0.4c-0.2,0.5-0.8,1.1-2.8,1.1c-0.9,0-1.5-0.1-1.8-0.3c-0.1-0.1-0.3-0.3-0.1-0.8l0.1-0.4h-7.9
		l-0.1,0.2c-0.6,1.4-0.7,2.6-0.1,3.5c1.2,1.9,4.8,2.1,7.8,2.1c6.9,0,10.9-1.8,12.7-5.7c0.6-1.2,0.6-2.3,0.2-3.1
		c-0.5-0.9-1.6-1.5-3.3-1.8L115.5,9c-0.2,0-0.3-0.1-0.3-0.1s0-0.1,0.1-0.3c0.3-0.6,1.2-1,2.7-1c0.7,0,1.3,0.1,1.6,0.3
		c0.3,0.1,0.5,0.3,0.2,0.9l-0.2,0.4h7.7l0.1-0.2C128.1,7.8,128.1,6.7,127.5,5.9z"/>
</g>
</svg>
