<svg id="Layer_1" data-name="Layer 1" xmlns="http://www.w3.org/2000/svg" viewBox="0 0 142 142"><defs><style>.cls-1{fill:#222;}</style></defs><title>rod_ratio</title><path class="cls-1" d="M36.51,49.94V79.77H43c2.82-11.09,14.29-19.4,28-19.4s25.18,8.3,28,19.4h6.48V49.94h-69Z"/><path class="cls-1" d="M82.79,84.41C81.91,77,81,70.74,80.39,64.92a31.15,31.15,0,0,0-18.79,0C61,70.74,60.09,77,59.21,84.4a27.12,27.12,0,0,1,23.58,0Z"/><path class="cls-1" d="M71,84.8a26.1,26.1,0,1,0,26.1,26.1A26.13,26.13,0,0,0,71,84.8Zm0,37.8a11.69,11.69,0,1,1,11.7-11.7A11.71,11.71,0,0,1,71,122.59Z"/><polygon class="cls-1" points="99 40.69 48.96 40.69 42.99 40.69 42.99 46.84 65.87 46.84 99 46.84 99 40.69"/><polygon class="cls-1" points="36.51 34.91 36.51 37.58 44.93 37.58 105.49 37.58 105.49 27.47 36.51 27.47 36.51 34.91"/><rect class="cls-1" x="42.99" y="18.22" width="56.01" height="6.15"/><rect class="cls-1" x="36.51" y="5" width="68.98" height="10.12"/></svg>