<svg id="Layer_1" data-name="Layer 1" xmlns="http://www.w3.org/2000/svg" viewBox="0 0 100 100"><defs><style>.cls-1{fill:#fff;}</style></defs><title>rod_ratio_circle</title><circle class="cls-1" cx="50" cy="73.16" r="6.2"/><path class="cls-1" d="M50,0a50,50,0,1,0,50,50A50,50,0,0,0,50,0Zm0,87A13.84,13.84,0,1,1,63.84,73.16,13.86,13.86,0,0,1,50,87ZM43.75,59.11c.47-3.91.93-7.24,1.27-10.33a16.52,16.52,0,0,1,10,0c.34,3.09.81,6.43,1.27,10.33a14.38,14.38,0,0,0-12.51,0ZM68.29,47.69v9H64.85C63.35,50.77,57.28,46.36,50,46.36s-13.35,4.4-14.85,10.29H31.71V40.83H68.29Zm-33.14-8.5V35.93h29.7v3.26H35.15Zm33.14-4.91H31.71V28.92H68.29Zm-33.14-7V24h29.7v3.26Zm33.14-4.91H31.71V17H68.29Z"/></svg>