<svg id="Layer_1" data-name="Layer 1" xmlns="http://www.w3.org/2000/svg" viewBox="0 0 142 142"><defs><style>.cls-1{fill:#222;}</style></defs><title>rpm</title><path class="cls-1" d="M71,0a71,71,0,1,0,71,71A71.08,71.08,0,0,0,71,0ZM71,131.4A60.4,60.4,0,1,1,131.4,71,60.46,60.46,0,0,1,71,131.4Z"/><polygon class="cls-1" points="107.29 59.44 107.61 60.39 120.48 57.43 119.05 53.15 106.98 58.48 107.29 59.44"/><polygon class="cls-1" points="101.67 48.8 102.26 49.61 113.6 42.85 110.93 39.21 101.07 47.99 101.67 48.8"/><polygon class="cls-1" points="94.02 40.93 102.79 31.07 99.15 28.4 92.39 39.74 93.2 40.33 94.02 40.93"/><polygon class="cls-1" points="83.52 35.02 88.85 22.95 84.57 21.52 81.61 34.39 82.56 34.7 83.52 35.02"/><polygon class="cls-1" points="71 32.55 72.01 32.55 73.26 19.41 68.74 19.41 69.99 32.55 71 32.55"/><polygon class="cls-1" points="59.44 34.7 60.4 34.39 57.43 21.52 53.15 22.95 58.48 35.02 59.44 34.7"/><polygon class="cls-1" points="39.21 31.07 47.99 40.93 48.8 40.33 49.61 39.74 42.85 28.4 39.21 31.07"/><polygon class="cls-1" points="40.33 48.8 40.93 47.99 31.07 39.21 28.4 42.85 39.74 49.61 40.33 48.8"/><polygon class="cls-1" points="34.71 59.44 35.02 58.48 22.95 53.15 21.52 57.43 34.39 60.39 34.71 59.44"/><polygon class="cls-1" points="32.55 69.99 19.41 68.74 19.41 73.26 32.55 72.01 32.55 71 32.55 69.99"/><polygon class="cls-1" points="34.71 82.56 34.39 81.61 21.52 84.57 22.95 88.86 35.02 83.52 34.71 82.56"/><polygon class="cls-1" points="40.33 93.2 39.74 92.39 28.4 99.15 31.07 102.79 40.93 94.01 40.33 93.2"/><polygon class="cls-1" points="101.67 93.2 101.07 94.01 110.93 102.79 113.6 99.15 102.26 92.39 101.67 93.2"/><polygon class="cls-1" points="107.29 82.56 106.98 83.52 119.05 88.86 120.48 84.57 107.61 81.61 107.29 82.56"/><polygon class="cls-1" points="109.45 69.99 109.45 71 109.45 72.01 122.59 73.26 122.59 68.74 109.45 69.99"/><path class="cls-1" d="M68.12,76.83a6.46,6.46,0,0,0,9.26-6.75L86.83,41l-1.43-.71L67.91,65.37a6.46,6.46,0,0,0,.21,11.46Zm1.11-2.23a4,4,0,1,1,5.32-1.79A4,4,0,0,1,69.23,74.6Z"/><path class="cls-1" d="M71,113.09a41.81,41.81,0,0,1-20.86-5.56l-3.66,6.41a49.3,49.3,0,0,0,49.28-.14l-3.66-6.41A41.8,41.8,0,0,1,71,113.09Z"/></svg>