<svg id="Layer_1" data-name="Layer 1" xmlns="http://www.w3.org/2000/svg" viewBox="0 0 100 100"><defs><style>.cls-1{fill:#fff;}</style></defs><title>rpm_circle</title><path class="cls-1" d="M50,20.23A29.77,29.77,0,1,0,79.77,50,29.81,29.81,0,0,0,50,20.23Zm21,15.9-5.59,3.33-.29-.4-.29-.4,4.86-4.33ZM63.88,29l1.79,1.32-4.33,4.86-.4-.29-.4-.29Zm-7.19-3.39,2.11.7-2.63,6-.47-.16L55.23,32Zm-5.58-1L50.5,31h-1l-.61-6.48Zm-4,24a3.17,3.17,0,0,1,1.33-1.38L57.1,34.84l.71.35L53.15,49.54a3.18,3.18,0,1,1-6-.94Zm-3.84-23L44.77,32l-.47.16-.47.16-2.63-6ZM36.12,29l3.33,5.59-.4.29-.4.29-4.33-4.86ZM26.31,41.2l6,2.63-.16.47-.16.47-6.34-1.46Zm-1.75,7.69L31,49.5v1l-6.48.61Zm1.75,9.91-.7-2.11L32,55.23l.16.47.16.47Zm4,6.87L29,63.88l5.59-3.33.29.4.29.4Zm4.57-26.62-.29.4L29,36.12l1.32-1.79,4.86,4.33ZM50,74.39a24.23,24.23,0,0,1-12.09-3.22L39.72,68a20.67,20.67,0,0,0,20.68-.07l1.81,3.16A24.23,24.23,0,0,1,50,74.39Zm19.68-8.72-4.86-4.33.29-.4.29-.4L71,63.88Zm4-6.87-6-2.63.16-.47.16-.47,6.34,1.46Zm1.75-7.69L69,50.5v-1l6.48-.61Zm-1-7.8L68,44.77l-.16-.47-.16-.47,6-2.63Z"/><circle class="cls-1" cx="50" cy="50.02" r="1.96" transform="translate(-17.04 72.55) rotate(-63.59)"/><path class="cls-1" d="M50,0a50,50,0,1,0,50,50A50,50,0,0,0,50,0Zm0,85A35,35,0,1,1,85,50,35,35,0,0,1,50,85Z"/></svg>