<svg id="Layer_1" data-name="Layer 1" xmlns="http://www.w3.org/2000/svg" viewBox="0 0 100 100"><defs><style>.cls-1{fill:#fff;}</style></defs><title>tire_height_circle</title><path class="cls-1" d="M50,0a50,50,0,1,0,50,50A50,50,0,0,0,50,0Zm0,85A35,35,0,1,1,85,50,35,35,0,0,1,50,85Z"/><path class="cls-1" d="M37,30.5A23.42,23.42,0,1,0,69.47,37,23.41,23.41,0,0,0,37,30.5ZM54.51,47A5.42,5.42,0,1,1,47,45.46,5.42,5.42,0,0,1,54.51,47Zm-14.31,10-1.69,3.34C37.1,63.07,36,62.52,34.18,60a18.55,18.55,0,0,1-3.12-9.5c-.08-3.21.51-4.24,3.3-2.83l3.34,1.69A5.7,5.7,0,0,1,40.2,56.94Zm.05-14.27-3.72-.47c-3.1-.39-3-1.66-1.15-4.19a18.55,18.55,0,0,1,7.9-6.14c3-1.16,4.17-.95,3.78,2.15l-.47,3.72A5.7,5.7,0,0,1,40.25,42.67ZM54.77,68a18.56,18.56,0,0,1-10,0c-3.08-.93-3.87-1.81-1.66-4l2.65-2.65a5.7,5.7,0,0,1,8,0l2.65,2.65C58.65,66.15,57.76,67.07,54.77,68ZM53.42,37.72,53,34c-.38-3.1.78-3.31,3.78-2.15A18.58,18.58,0,0,1,64.63,38c1.81,2.54,1.94,3.8-1.15,4.19l-3.72.46A5.69,5.69,0,0,1,53.42,37.72ZM69,50.2a18.56,18.56,0,0,1-3.14,9.5c-1.78,2.56-2.93,3.11-4.33.32l-1.68-3.35A5.7,5.7,0,0,1,62.37,49l3.35-1.69C68.5,46,69.09,47,69,50.2Z"/></svg>