<svg id="Layer_1" data-name="Layer 1" xmlns="http://www.w3.org/2000/svg" viewBox="0 0 100 100"><defs><style>.cls-1{fill:#fff;}</style></defs><title>transmission_ratio_circle</title><circle class="cls-1" cx="65.9" cy="63.89" r="4.42"/><path class="cls-1" d="M65.9,31.69a4.42,4.42,0,0,0-1.9,8.4v8H51.9v-8a4.42,4.42,0,1,0-3.8,0v8H36v-8a4.42,4.42,0,1,0-3.8,0V59.91a4.42,4.42,0,1,0,3.8,0v-8H48.1v8a4.42,4.42,0,1,0,3.8,0v-8h14A1.9,1.9,0,0,0,67.8,50V40.09a4.42,4.42,0,0,0-1.9-8.4Z"/><path class="cls-1" d="M50,0a50,50,0,1,0,50,50A50,50,0,0,0,50,0ZM78,75.84A2.16,2.16,0,0,1,75.85,78H24.15A2.16,2.16,0,0,1,22,75.84V24.15A2.16,2.16,0,0,1,24.15,22H75.85A2.16,2.16,0,0,1,78,24.15Z"/></svg>